<svg width="241" height="200" viewBox="0 0 241 200" fill="none" xmlns="http://www.w3.org/2000/svg">
<path d="M7.86733 0H232.727C234.735 0 236.66 0.790176 238.08 2.1967C239.5 3.60322 240.297 5.51088 240.297 7.5V140.278H0.297241V7.5C0.297241 5.51088 1.0948 3.60322 2.51447 2.1967C3.93414 0.790176 5.85962 0 7.86733 0V0Z" fill="#323232"/>
<path d="M0.297241 140.278H240.297V158.333C240.297 160.323 239.5 162.23 238.08 163.637C236.66 165.043 234.735 165.833 232.727 165.833H7.86733C5.85962 165.833 3.93414 165.043 2.51447 163.637C1.0948 162.23 0.297241 160.323 0.297241 158.333L0.297241 140.278Z" fill="#ECEEEF"/>
<path fill-rule="evenodd" clip-rule="evenodd" d="M162.761 200H78.1082C78.0515 200 77.9954 199.989 77.943 199.968C77.8907 199.946 77.843 199.915 77.8029 199.875C77.7628 199.836 77.731 199.788 77.7092 199.737C77.6875 199.685 77.6762 199.629 77.6761 199.573C77.6766 199.119 77.8589 198.685 78.1829 198.364C78.5068 198.044 78.946 197.864 79.4038 197.864H80.6997C80.6997 197.864 88.9057 197.848 91.0651 189.323C93.0101 181.645 93.6566 165.834 93.6566 165.834H147.213C147.213 165.834 147.86 181.645 149.804 189.323C151.963 197.848 160.17 197.864 160.17 197.864H161.466C161.692 197.864 161.917 197.908 162.126 197.994C162.336 198.08 162.526 198.206 162.687 198.364C162.847 198.523 162.974 198.711 163.061 198.919C163.148 199.126 163.193 199.348 163.193 199.573C163.193 199.629 163.182 199.685 163.16 199.737C163.138 199.789 163.107 199.836 163.066 199.875C163.026 199.915 162.979 199.946 162.926 199.968C162.874 199.989 162.818 200 162.761 200Z" fill="#E0E2E4"/>
<path d="M231.544 8.11633H9.55831C9.24861 8.11633 8.99756 8.36506 8.99756 8.67189V131.276C8.99756 131.583 9.24861 131.832 9.55831 131.832H231.544C231.854 131.832 232.105 131.583 232.105 131.276V8.67189C232.105 8.36506 231.854 8.11633 231.544 8.11633Z" fill="white"/>
<path d="M231.597 24.2579H8.99756V24.7615H231.597V24.2579Z" fill="#E8E8E8"/>
<path d="M41.2317 12.6519H16.5588V18.763H41.2317V12.6519Z" fill="#E8E9EA"/>
<path fill-rule="evenodd" clip-rule="evenodd" d="M211.979 13.7629H224.596C224.968 13.7629 225.325 13.9093 225.588 14.1697C225.85 14.4302 225.998 14.7835 225.998 15.1518V16.5407C225.998 16.9091 225.85 17.2623 225.588 17.5228C225.325 17.7833 224.968 17.9296 224.596 17.9296H211.979C211.608 17.9296 211.251 17.7833 210.988 17.5228C210.725 17.2623 210.578 16.9091 210.578 16.5407V15.1518C210.578 14.7835 210.725 14.4302 210.988 14.1697C211.251 13.9093 211.608 13.7629 211.979 13.7629ZM192.634 13.7629H205.25C205.622 13.7629 205.979 13.9093 206.242 14.1697C206.505 14.4302 206.652 14.7835 206.652 15.1518V16.5407C206.652 16.9091 206.505 17.2623 206.242 17.5228C205.979 17.7833 205.622 17.9296 205.25 17.9296H192.634C192.262 17.9296 191.905 17.7833 191.642 17.5228C191.379 17.2623 191.232 16.9091 191.232 16.5407V15.1518C191.232 14.7835 191.379 14.4302 191.642 14.1697C191.905 13.9093 192.262 13.7629 192.634 13.7629Z" fill="#E8E9EA"/>
<path d="M29.827 37.468C29.827 36.3634 30.7225 35.468 31.827 35.468H69.5825C70.6871 35.468 71.5825 36.3634 71.5825 37.468V56.1281C71.5825 57.2327 70.6871 58.1281 69.5825 58.1281H31.827C30.7225 58.1281 29.827 57.2327 29.827 56.1281V37.468Z" fill="#E8EDF1"/>
<path d="M29.827 64.069C29.827 62.9644 30.7225 62.069 31.827 62.069H69.5825C70.6871 62.069 71.5825 62.9644 71.5825 64.069V116.227C71.5825 117.331 70.6871 118.227 69.5825 118.227H31.827C30.7225 118.227 29.827 117.331 29.827 116.227V64.069Z" fill="#E8EDF1"/>
<path d="M77.5476 37.468C77.5476 36.3635 78.443 35.468 79.5476 35.468H211.75C212.855 35.468 213.75 36.3634 213.75 37.468V116.227C213.75 117.331 212.855 118.227 211.75 118.227H79.5476C78.443 118.227 77.5476 117.331 77.5476 116.227V37.468Z" fill="#E8EDF1"/>
<path d="M142.169 79.8325C142.169 78.7279 143.065 77.8325 144.169 77.8325H201.808C202.913 77.8325 203.808 78.7279 203.808 79.8325V106.374C203.808 107.479 202.913 108.374 201.808 108.374H144.169C143.065 108.374 142.169 107.479 142.169 106.374V79.8325Z" fill="#23A685"/>
<path d="M142.169 64.069C142.169 62.9644 143.065 62.069 144.169 62.069H201.808C202.913 62.069 203.808 62.9644 203.808 64.069V69.9212C203.808 71.0258 202.913 71.9212 201.808 71.9212H144.169C143.065 71.9212 142.169 71.0258 142.169 69.9212V64.069Z" fill="#D0D7DC"/>
<path d="M87.4894 64.0394C87.4894 62.9512 88.3716 62.069 89.4598 62.069H134.234C135.322 62.069 136.204 62.9512 136.204 64.0394C136.204 65.1277 135.322 66.0099 134.234 66.0099H89.4598C88.3716 66.0099 87.4894 65.1277 87.4894 64.0394Z" fill="#D0D7DC"/>
<path d="M87 72C87 70.8954 87.8954 70 89 70H123C124.105 70 125 70.8954 125 72C125 73.1046 124.105 74 123 74H89C87.8954 74 87 73.1046 87 72Z" fill="#D0D7DC"/>
<path d="M87 80C87 78.8954 87.8954 78 89 78H115C116.105 78 117 78.8954 117 80C117 81.1046 116.105 82 115 82H89C87.8954 82 87 81.1046 87 80Z" fill="#D0D7DC"/>
<path d="M87 88C87 86.8954 87.8954 86 89 86H128C129.105 86 130 86.8954 130 88C130 89.1046 129.105 90 128 90H89C87.8954 90 87 89.1046 87 88Z" fill="#D0D7DC"/>
<path d="M87 96C87 94.8954 87.8954 94 89 94H123C124.105 94 125 94.8954 125 96C125 97.1046 124.105 98 123 98H89C87.8954 98 87 97.1046 87 96Z" fill="#D0D7DC"/>
<path d="M231.544 8.11633H9.55831C9.24861 8.11633 8.99756 8.36506 8.99756 8.67189V131.276C8.99756 131.583 9.24861 131.832 9.55831 131.832H231.544C231.854 131.832 232.105 131.583 232.105 131.276V8.67189C232.105 8.36506 231.854 8.11633 231.544 8.11633Z" fill="#383E47" fill-opacity="0.65"/>
<g filter="url(#filter0_d)">
<path d="M54 21.45C54 18.44 55.7909 16 58 16H188C190.209 16 192 18.44 192 21.45V119.55C192 122.56 190.209 125 188 125H58C55.7909 125 54 122.56 54 119.55V21.45Z" fill="white"/>
</g>
<path d="M54 106H192V121C192 123.209 190.209 125 188 125H58C55.7909 125 54 123.209 54 121V106Z" fill="#E0E6EB"/>
<path d="M116.947 115.375C117.696 115.207 118.221 114.829 118.494 114.325C118.774 114.78 119.285 115.13 120.006 115.284L120.293 114.724C119.383 114.535 118.851 114.038 118.844 113.464H120.167V112.897H118.844V112.232H118.116V112.897H116.8V113.464H118.123C118.116 114.073 117.577 114.619 116.653 114.822L116.947 115.375ZM120.496 115.543C119.138 115.732 117.57 115.746 116.394 115.746L116.485 116.341C116.982 116.341 117.535 116.334 118.123 116.313V118.357H118.844V116.271C119.404 116.243 119.985 116.173 120.538 116.075L120.496 115.543ZM120.902 112.218V118.546H121.623V112.218H120.902ZM127.999 115.207C126.753 114.997 125.738 114.059 125.738 113.079V112.603H124.975V113.079C124.975 114.052 123.96 114.997 122.707 115.207L123.015 115.809C124.044 115.606 124.94 114.976 125.36 114.136C125.766 114.976 126.662 115.606 127.698 115.809L127.999 115.207ZM125.71 117.16V115.683H124.989V117.16H122.518V117.755H128.244V117.16H125.71Z" fill="#323232"/>
<path d="M93.323 30.13H95.486V27.778H92.595V28.366H94.772V29.549H92.609V32.048H93.127C94.296 32.048 95.143 32.006 96.116 31.831L96.039 31.243C95.15 31.404 94.359 31.446 93.323 31.453V30.13ZM98.237 29.675H97.264V27.204H96.536V33.546H97.264V30.277H98.237V29.675ZM102.954 27.211V33.553H103.682V27.211H102.954ZM100.315 27.68C99.3775 27.68 98.6915 28.548 98.6915 29.906C98.6915 31.278 99.3775 32.139 100.315 32.139C101.26 32.139 101.946 31.278 101.946 29.906C101.946 28.548 101.26 27.68 100.315 27.68ZM100.315 28.331C100.868 28.331 101.253 28.926 101.253 29.906C101.253 30.9 100.868 31.495 100.315 31.495C99.7695 31.495 99.3845 30.9 99.3845 29.906C99.3845 28.926 99.7695 28.331 100.315 28.331ZM108.183 30.459H106.727V28.394H108.183V30.459ZM106.006 30.459H105.096V31.047H109.814V30.459H108.897V28.394H109.828V27.813H105.075V28.394H106.006V30.459ZM104.599 32.167V32.762H110.339V32.167H104.599ZM115.938 27.218H115.217V31.81H115.938V27.218ZM111.556 29.22C111.556 28.639 111.969 28.261 112.529 28.261C113.082 28.261 113.502 28.639 113.502 29.22C113.502 29.794 113.082 30.179 112.529 30.179C111.969 30.179 111.556 29.794 111.556 29.22ZM114.202 29.22C114.202 28.296 113.481 27.638 112.529 27.638C111.577 27.638 110.849 28.296 110.849 29.22C110.849 30.137 111.577 30.802 112.529 30.802C113.481 30.802 114.202 30.137 114.202 29.22ZM112.536 32.832V31.348H111.808V33.42H116.12V32.832H112.536ZM119.344 29.283C119.344 28.597 120.023 28.163 120.968 28.163C121.906 28.163 122.585 28.597 122.585 29.283C122.585 29.969 121.906 30.403 120.968 30.403C120.023 30.403 119.344 29.969 119.344 29.283ZM121.325 32.174V30.97C122.48 30.865 123.292 30.221 123.292 29.283C123.292 28.254 122.305 27.589 120.968 27.589C119.624 27.589 118.644 28.254 118.644 29.283C118.644 30.221 119.449 30.858 120.604 30.963V32.174H118.112V32.762H123.838V32.174H121.325ZM127.457 32.202V31.012H129.326V30.438H125.679V29.612H129.13V29.045H125.679V28.282H129.27V27.694H124.944V31.012H126.729V32.202H124.237V32.797H129.963V32.202H127.457ZM131.544 28.555H132.188V31.397C131.971 31.404 131.761 31.418 131.544 31.425V28.555ZM132.846 28.555H133.315V27.974H130.417V28.555H130.893V31.439C130.676 31.439 130.466 31.439 130.298 31.439L130.375 32.034C131.173 32.034 132.468 32.006 133.455 31.81L133.406 31.285C133.231 31.313 133.042 31.334 132.846 31.355V28.555ZM135.072 27.211V29.71H134.393V27.344H133.714V33.224H134.393V30.298H135.072V33.539H135.758V27.211H135.072ZM141.966 30.305C140.72 30.081 139.705 29.108 139.705 28.1V27.624H138.942V28.1C138.942 29.101 137.927 30.074 136.681 30.305L136.989 30.9C138.018 30.69 138.907 30.032 139.32 29.164C139.733 30.032 140.622 30.69 141.651 30.9L141.966 30.305ZM136.485 32.132V32.727H142.211V32.132H136.485ZM144.64 28.058C145.179 28.058 145.557 28.338 145.557 28.772C145.557 29.213 145.179 29.486 144.64 29.486C144.094 29.486 143.716 29.213 143.716 28.772C143.716 28.338 144.094 28.058 144.64 28.058ZM144.64 30.046C145.571 30.046 146.236 29.535 146.236 28.772C146.236 28.023 145.571 27.512 144.64 27.512C143.702 27.512 143.037 28.023 143.037 28.772C143.037 29.535 143.702 30.046 144.64 30.046ZM146.705 30.291C145.34 30.48 143.772 30.494 142.582 30.494L142.673 31.089C143.149 31.089 143.681 31.082 144.241 31.061V33.343H144.962V31.026C145.557 30.991 146.159 30.928 146.747 30.823L146.705 30.291ZM147.146 27.218V31.502H145.795V32.055H147.146V33.539H147.874V27.218H147.146ZM153.816 30.2H150.155V28.359H153.767V27.771H149.434V30.781H153.816V30.2ZM148.734 32.132V32.727H154.467V32.132H148.734Z" fill="#23A685"/>
<path d="M174 73H72C69.7909 73 68 74.7909 68 77V92C68 94.2091 69.7909 96 72 96H174C176.209 96 178 94.2091 178 92V77C178 74.7909 176.209 73 174 73Z" fill="#A8A8AA"/>
<path d="M143.042 73H72C69.7909 73 68 74.7909 68 77V92C68 94.2091 69.7909 96 72 96H143.042V73Z" fill="#23A685"/>
<path d="M164.204 87.2878C164.204 87.2878 164.224 87.2225 164.224 87.1354L164.648 84.0208C164.244 83.803 163.982 83.3456 163.982 82.8229C163.982 82.0823 164.547 81.4725 165.234 81.4725C165.254 81.4725 165.274 81.4725 165.294 81.4725C165.334 80.6013 165.011 79.9914 164.285 79.5776C163.982 79.4034 163.619 79.2945 163.276 79.2291H160.914C160.571 79.2291 160.288 79.5341 160.288 79.9043V89.0956C160.288 89.4659 160.571 89.7708 160.914 89.7708H165.415C165.314 89.7272 165.213 89.6837 165.133 89.6183C163.962 88.8342 164.184 87.3314 164.204 87.2878Z" fill="white"/>
<path d="M166.175 81.6452C166.679 81.8466 167.008 82.3387 167.008 82.9204C167.008 83.4573 166.701 83.9271 166.263 84.1508L166.745 87.4842C166.767 87.6184 166.657 87.7303 166.526 87.7303H164.971C164.949 88.0882 164.993 89.0054 165.803 89.4976C166.329 89.8332 167.139 89.8555 168.321 89.5871C170.183 88.7593 171.475 86.8578 171.475 84.643C171.475 81.6452 169.11 79.2291 166.197 79.2291H164.949C165.584 79.6094 166.241 80.3253 166.175 81.6452Z" fill="white"/>
<path fill-rule="evenodd" clip-rule="evenodd" d="M101.559 87.0899V88.2041H107.239V86.9739H103.419L105.78 84.4905C106.526 83.7132 106.939 82.8778 106.939 81.9728V81.8567C106.939 80.7077 106.159 79.7099 104.344 79.7099C103.771 79.6961 103.206 79.8552 102.718 80.1681C102.23 80.481 101.839 80.9343 101.593 81.4735L102.662 82.2048C103.184 81.2298 103.775 81.0326 104.355 81.0326C105.179 81.0326 105.503 81.4619 105.503 81.9148V82.0076C105.503 82.4833 105.447 82.9242 104.511 83.922L101.559 87.0899ZM110.232 82.0888C110.227 81.9379 110.252 81.7875 110.307 81.6477C110.362 81.5079 110.445 81.3821 110.55 81.2786C110.656 81.1752 110.781 81.0966 110.918 81.0481C111.056 80.9997 111.201 80.9825 111.345 80.9978C112.002 80.9978 112.458 81.3691 112.458 82.0888V82.2048C112.462 82.3536 112.435 82.5014 112.38 82.6387C112.325 82.7759 112.242 82.8995 112.138 83.0013C112.034 83.1032 111.911 83.181 111.776 83.2296C111.641 83.2783 111.498 83.2968 111.356 83.2839C111.213 83.2955 111.069 83.2763 110.933 83.2275C110.798 83.1786 110.673 83.1011 110.568 82.9998C110.462 82.8986 110.378 82.7757 110.32 82.6389C110.262 82.5021 110.232 82.3544 110.231 82.2048V82.0888H110.232ZM110.032 85.7788C110.032 84.9318 110.667 84.5823 111.368 84.5823C112.07 84.5823 112.66 84.9539 112.66 85.7788V85.8948C112.66 86.6142 112.159 87.0319 111.368 87.0319C110.567 87.0319 110.032 86.6142 110.032 85.8948V85.7788ZM108.562 85.9876C108.562 87.3219 109.531 88.3317 111.379 88.3317C113.161 88.3317 114.13 87.3219 114.13 85.9876V85.7904C114.128 85.373 114.002 84.9665 113.768 84.6275C113.535 84.2885 113.206 84.0337 112.827 83.8988C113.139 83.7307 113.404 83.4808 113.595 83.1736C113.787 82.8664 113.898 82.5125 113.918 82.1468V82.0076C113.918 80.8111 113.049 79.7099 111.335 79.7099C109.575 79.7099 108.773 80.8121 108.773 82.0076V82.1468C108.79 82.5148 108.902 82.8712 109.096 83.1793C109.289 83.4873 109.559 83.7357 109.876 83.8988C109.497 84.0354 109.168 84.2902 108.933 84.6286C108.698 84.967 108.568 85.3726 108.562 85.7904V85.9876H108.562ZM115.732 87.7516C116.377 88.1523 117.119 88.3535 117.87 88.3317C119.774 88.3317 121.055 87.4728 121.055 83.7828V83.2491C121.055 81.1022 120.231 79.7099 118.181 79.7099C116.4 79.7099 115.33 80.9064 115.33 82.4601V82.6921C115.33 84.3165 116.276 85.3727 117.834 85.3727C118.166 85.386 118.498 85.328 118.808 85.2022C119.119 85.0764 119.401 84.8855 119.638 84.6414C119.56 86.4285 118.992 86.9855 117.956 86.9855C117.358 86.995 116.769 86.8346 116.252 86.5213L115.732 87.7516ZM119.618 82.6689C119.618 83.4347 119.184 84.0728 118.157 84.0728C117.177 84.0728 116.732 83.6087 116.732 82.6341V82.5065C116.732 81.5779 117.233 81.0562 118.213 81.0562C119.126 81.0562 119.616 81.5899 119.616 82.4952V82.6693L119.618 82.6689ZM130.713 80.9746V79.8375H124.978V81.0906H129.221L126.136 88.2041H127.639L130.713 80.9746ZM137.269 80.29C136.624 79.8893 135.882 79.6882 135.131 79.7099C133.383 79.7099 131.946 80.5685 131.946 84.2585V84.7926C131.946 86.939 132.77 88.3317 134.82 88.3317C136.601 88.3317 137.671 87.1479 137.671 85.5931V85.3611C137.671 83.7364 136.725 82.6689 135.166 82.6689C134.833 82.6557 134.501 82.7138 134.191 82.8395C133.881 82.9652 133.598 83.1559 133.362 83.3999C133.462 81.6127 134.219 81.0558 135.043 81.0558C135.641 81.0463 136.23 81.2068 136.747 81.5199L137.269 80.29ZM133.383 85.3727C133.383 84.6069 133.817 83.9684 134.842 83.9684C135.822 83.9684 136.268 84.4325 136.268 85.4075V85.5351C136.268 86.4633 135.767 86.9855 134.787 86.9855C133.874 86.9855 133.384 86.4517 133.384 85.5467V85.3727H133.383ZM140.541 82.0888C140.536 81.9379 140.561 81.7875 140.616 81.6477C140.671 81.5079 140.754 81.3821 140.859 81.2786C140.965 81.1752 141.09 81.0966 141.227 81.0481C141.365 80.9997 141.51 80.9825 141.654 80.9978C142.311 80.9978 142.767 81.3691 142.767 82.0888V82.2048C142.771 82.3536 142.744 82.5014 142.689 82.6387C142.634 82.7759 142.551 82.8995 142.447 83.0013C142.343 83.1032 142.22 83.181 142.085 83.2296C141.95 83.2783 141.807 83.2968 141.665 83.2839C141.522 83.2955 141.378 83.2763 141.242 83.2275C141.107 83.1786 140.982 83.1011 140.877 82.9998C140.771 82.8986 140.687 82.7757 140.629 82.6389C140.571 82.5021 140.541 82.3544 140.54 82.2048V82.0888H140.541ZM140.341 85.7788C140.341 84.9318 140.976 84.5823 141.677 84.5823C142.379 84.5823 142.969 84.9539 142.969 85.7788V85.8948C142.969 86.6142 142.468 87.0319 141.677 87.0319C140.875 87.0319 140.341 86.6142 140.341 85.8948V85.7788ZM138.873 85.9876C138.873 87.3219 139.842 88.3317 141.69 88.3317C143.472 88.3317 144.441 87.3219 144.441 85.9876V85.7904C144.439 85.373 144.313 84.9665 144.079 84.6275C143.846 84.2885 143.517 84.0337 143.138 83.8988C143.45 83.7307 143.715 83.4808 143.906 83.1736C144.098 82.8664 144.209 82.5125 144.229 82.1468V82.0076C144.229 80.8111 143.36 79.7099 141.646 79.7099C139.886 79.7099 139.084 80.8121 139.084 82.0076V82.1468C139.101 82.5148 139.213 82.8712 139.407 83.1793C139.6 83.4873 139.87 83.7357 140.187 83.8988C139.808 84.0355 139.479 84.2903 139.244 84.6287C139.009 84.9671 138.879 85.3727 138.873 85.7904V85.9876Z" fill="white"/>
<path d="M174 44H72C69.7909 44 68 45.7909 68 48V63C68 65.2091 69.7909 67 72 67H174C176.209 67 178 65.2091 178 63V48C178 45.7909 176.209 44 174 44Z" fill="#E8E8E8"/>
<path d="M83.5198 54.3209C83.5198 53.2091 82.9352 52.5738 81.9863 52.5738C81.2578 52.5738 80.8426 52.9091 80.5461 53.3767C80.3089 52.865 79.8345 52.5738 79.216 52.5738C78.5722 52.5738 78.157 52.8914 77.9791 53.315H77.9707V52.662H77.1573V57.4887H77.9791V54.4356C77.9791 53.6768 78.5467 53.3503 79.0551 53.3503C79.6396 53.3503 79.9277 53.7562 79.9277 54.5944V57.4887H80.7494V54.4797C80.7494 53.6944 81.3086 53.3503 81.8254 53.3503C82.4099 53.3503 82.698 53.7562 82.698 54.5944V57.4887H83.5198V54.3209Z" fill="#505050"/>
<path d="M86.3444 56.5181L85.116 52.662H84.2264L85.9124 57.5593L85.3109 59.2093L86.0564 59.4829L88.4624 52.662H87.5983L86.3783 56.5181H86.3444Z" fill="#505050"/>
<path d="M92.8116 57.9211H88.5757V58.4946H92.8116V57.9211Z" fill="#505050"/>
<path d="M93.4978 52.662V57.4887H94.3196V52.662H93.4978ZM93.4724 50.9325V51.8679H94.345V50.9325H93.4724Z" fill="#505050"/>
<path d="M98.6046 56.8887V57.4887H99.3925V50.8178H98.5707V53.165C98.3844 52.8826 97.9777 52.5738 97.2745 52.5738C96.1901 52.5738 95.4361 53.3414 95.4361 54.6474V55.5033C95.4361 56.8092 96.0715 57.5593 97.2407 57.5593C97.8167 57.5593 98.3335 57.374 98.5877 56.8887H98.6046ZM98.5792 55.5915C98.5792 56.3416 98.0285 56.8092 97.3593 56.8092C96.673 56.8092 96.2494 56.2798 96.2494 55.3621V54.7709C96.2494 53.8621 96.6646 53.3238 97.3593 53.3238C98.0709 53.3238 98.5792 53.8444 98.5792 54.3474V55.5915Z" fill="#505050"/>
<defs>
<filter id="filter0_d" x="34" y="4" width="178" height="149" filterUnits="userSpaceOnUse" color-interpolation-filters="sRGB">
<feFlood flood-opacity="0" result="BackgroundImageFix"/>
<feColorMatrix in="SourceAlpha" type="matrix" values="0 0 0 0 0 0 0 0 0 0 0 0 0 0 0 0 0 0 127 0"/>
<feOffset dy="8"/>
<feGaussianBlur stdDeviation="10"/>
<feColorMatrix type="matrix" values="0 0 0 0 0 0 0 0 0 0 0 0 0 0 0 0 0 0 0.25 0"/>
<feBlend mode="normal" in2="BackgroundImageFix" result="effect1_dropShadow"/>
<feBlend mode="normal" in="SourceGraphic" in2="effect1_dropShadow" result="shape"/>
</filter>
</defs>
</svg>
