<svg width="297" height="182" viewBox="0 0 297 182" fill="none" xmlns="http://www.w3.org/2000/svg">
<path d="M5.41401 38.7869H166.23C167.666 38.7869 169.043 39.3527 170.058 40.3598C171.074 41.367 171.644 42.733 171.644 44.1574V139.235H0V44.1574C0 42.733 0.570403 41.367 1.58573 40.3598C2.60105 39.3527 3.97812 38.7869 5.41401 38.7869V38.7869Z" fill="#323232"/>
<path d="M0 139.235H171.644V152.164C171.644 153.588 171.074 154.954 170.058 155.961C169.043 156.969 167.666 157.534 166.23 157.534H5.41401C3.97812 157.534 2.60105 156.969 1.58573 155.961C0.570403 154.954 0 153.588 0 152.164L0 139.235Z" fill="#ECEEEF"/>
<path fill-rule="evenodd" clip-rule="evenodd" d="M116.191 182H55.6491C55.6086 182 55.5684 181.992 55.531 181.977C55.4935 181.961 55.4595 181.939 55.4308 181.911C55.4021 181.882 55.3793 181.848 55.3637 181.811C55.3482 181.774 55.3401 181.734 55.3401 181.694C55.3404 181.369 55.4708 181.058 55.7025 180.829C55.9342 180.599 56.2483 180.471 56.5757 180.471H57.5025C57.5025 180.471 63.3713 180.459 64.9157 174.355C66.3067 168.857 66.7691 157.535 66.7691 157.535H105.072C105.072 157.535 105.534 168.857 106.925 174.355C108.469 180.459 114.338 180.471 114.338 180.471H115.265C115.427 180.471 115.588 180.502 115.737 180.564C115.887 180.625 116.023 180.715 116.138 180.829C116.253 180.942 116.344 181.077 116.406 181.226C116.468 181.374 116.5 181.533 116.501 181.694C116.501 181.734 116.492 181.774 116.477 181.811C116.461 181.849 116.439 181.882 116.41 181.911C116.381 181.939 116.347 181.962 116.31 181.977C116.272 181.992 116.232 182 116.191 182Z" fill="#E0E2E4"/>
<path d="M165.384 44.5986H6.62334C6.40186 44.5986 6.22231 44.7767 6.22231 44.9964V132.789C6.22231 133.009 6.40186 133.187 6.62334 133.187H165.384C165.606 133.187 165.785 133.009 165.785 132.789V44.9964C165.785 44.7767 165.606 44.5986 165.384 44.5986Z" fill="white"/>
<path d="M165.422 56.1571H6.22231V56.5177H165.422V56.1571Z" fill="#E8E8E8"/>
<path d="M29.2757 47.8464H11.6301V52.2224H29.2757V47.8464Z" fill="#E8E9EA"/>
<path fill-rule="evenodd" clip-rule="evenodd" d="M151.392 48.642H160.415C160.681 48.642 160.936 48.7468 161.124 48.9333C161.312 49.1198 161.418 49.3728 161.418 49.6366V50.6311C161.418 50.8949 161.312 51.1478 161.124 51.3343C160.936 51.5209 160.681 51.6256 160.415 51.6256H151.392C151.126 51.6256 150.871 51.5209 150.683 51.3343C150.495 51.1478 150.389 50.8949 150.389 50.6311V49.6366C150.389 49.3728 150.495 49.1198 150.683 48.9333C150.871 48.7468 151.126 48.642 151.392 48.642ZM137.556 48.642H146.579C146.845 48.642 147.1 48.7468 147.288 48.9333C147.476 49.1198 147.582 49.3728 147.582 49.6366V50.6311C147.582 50.8949 147.476 51.1478 147.288 51.3343C147.1 51.5209 146.845 51.6256 146.579 51.6256H137.556C137.29 51.6256 137.035 51.5209 136.847 51.3343C136.659 51.1478 136.553 50.8949 136.553 50.6311V49.6366C136.553 49.3728 136.659 49.1198 136.847 48.9333C137.035 48.7468 137.29 48.642 137.556 48.642Z" fill="#E8E9EA"/>
<rect x="21.1192" y="64.1843" width="29.8629" height="16.2261" rx="2" fill="#E8EDF1"/>
<rect x="21.1192" y="83.2323" width="29.8629" height="40.2126" rx="2" fill="#E8EDF1"/>
<rect x="55.2483" y="64.1843" width="97.4098" height="59.2606" rx="2" fill="#E8EDF1"/>
<rect x="101.465" y="94.5201" width="44.0832" height="21.87" rx="2" fill="#23A685"/>
<rect x="101.465" y="83.2323" width="44.0832" height="7.05484" rx="2" fill="#D0D7DC"/>
<rect x="62.3584" y="83.2323" width="34.84" height="2.82193" rx="1.41097" fill="#D0D7DC"/>
<rect x="62.0085" y="88.9115" width="27.177" height="2.86426" rx="1.43213" fill="#D0D7DC"/>
<rect x="62.0085" y="94.64" width="21.4555" height="2.86426" rx="1.43213" fill="#D0D7DC"/>
<rect x="62.0085" y="100.368" width="30.7529" height="2.86426" rx="1.43213" fill="#D0D7DC"/>
<rect x="62.0085" y="106.097" width="27.177" height="2.86426" rx="1.43213" fill="#D0D7DC"/>
<path d="M165.384 44.5986H6.62334C6.40186 44.5986 6.22231 44.7767 6.22231 44.9964V132.789C6.22231 133.009 6.40186 133.187 6.62334 133.187H165.384C165.606 133.187 165.785 133.009 165.785 132.789V44.9964C165.785 44.7767 165.606 44.5986 165.384 44.5986Z" fill="#383E47" fill-opacity="0.65"/>
<path d="M32 30.5H133C134.933 30.5 136.5 32.067 136.5 34V103.5H28.5V34C28.5 32.067 30.067 30.5 32 30.5Z" fill="white" stroke="#E0E6EB"/>
<path d="M28 104H137V119C137 121.209 135.209 123 133 123H32C29.7909 123 28 121.209 28 119V104Z" fill="#E0E6EB"/>
<path d="M53.323 43.13H55.486V40.778H52.595V41.366H54.772V42.549H52.609V45.048H53.127C54.296 45.048 55.143 45.006 56.116 44.831L56.039 44.243C55.15 44.404 54.359 44.446 53.323 44.453V43.13ZM58.237 42.675H57.264V40.204H56.536V46.546H57.264V43.277H58.237V42.675ZM62.9545 40.211V46.553H63.6825V40.211H62.9545ZM60.3155 40.68C59.3775 40.68 58.6915 41.548 58.6915 42.906C58.6915 44.278 59.3775 45.139 60.3155 45.139C61.2605 45.139 61.9465 44.278 61.9465 42.906C61.9465 41.548 61.2605 40.68 60.3155 40.68ZM60.3155 41.331C60.8685 41.331 61.2535 41.926 61.2535 42.906C61.2535 43.9 60.8685 44.495 60.3155 44.495C59.7695 44.495 59.3845 43.9 59.3845 42.906C59.3845 41.926 59.7695 41.331 60.3155 41.331ZM68.1829 43.459H66.7269V41.394H68.1829V43.459ZM66.0059 43.459H65.0959V44.047H69.8139V43.459H68.8969V41.394H69.8279V40.813H65.0749V41.394H66.0059V43.459ZM64.5989 45.167V45.762H70.3389V45.167H64.5989ZM75.9384 40.218H75.2174V44.81H75.9384V40.218ZM71.5564 42.22C71.5564 41.639 71.9694 41.261 72.5294 41.261C73.0824 41.261 73.5024 41.639 73.5024 42.22C73.5024 42.794 73.0824 43.179 72.5294 43.179C71.9694 43.179 71.5564 42.794 71.5564 42.22ZM74.2024 42.22C74.2024 41.296 73.4814 40.638 72.5294 40.638C71.5774 40.638 70.8494 41.296 70.8494 42.22C70.8494 43.137 71.5774 43.802 72.5294 43.802C73.4814 43.802 74.2024 43.137 74.2024 42.22ZM72.5364 45.832V44.348H71.8084V46.42H76.1204V45.832H72.5364ZM79.3441 42.283C79.3441 41.597 80.0231 41.163 80.9681 41.163C81.9061 41.163 82.5851 41.597 82.5851 42.283C82.5851 42.969 81.9061 43.403 80.9681 43.403C80.0231 43.403 79.3441 42.969 79.3441 42.283ZM81.3251 45.174V43.97C82.4801 43.865 83.2921 43.221 83.2921 42.283C83.2921 41.254 82.3051 40.589 80.9681 40.589C79.6241 40.589 78.6441 41.254 78.6441 42.283C78.6441 43.221 79.4491 43.858 80.6041 43.963V45.174H78.1121V45.762H83.8381V45.174H81.3251ZM87.4565 45.202V44.012H89.3255V43.438H85.6785V42.612H89.1295V42.045H85.6785V41.282H89.2695V40.694H84.9435V44.012H86.7285V45.202H84.2365V45.797H89.9625V45.202H87.4565ZM91.544 41.555H92.188V44.397C91.971 44.404 91.761 44.418 91.544 44.425V41.555ZM92.846 41.555H93.315V40.974H90.417V41.555H90.893V44.439C90.676 44.439 90.466 44.439 90.298 44.439L90.375 45.034C91.173 45.034 92.468 45.006 93.455 44.81L93.406 44.285C93.231 44.313 93.042 44.334 92.846 44.355V41.555ZM95.072 40.211V42.71H94.393V40.344H93.714V46.224H94.393V43.298H95.072V46.539H95.758V40.211H95.072ZM101.966 43.305C100.72 43.081 99.7054 42.108 99.7054 41.1V40.624H98.9424V41.1C98.9424 42.101 97.9274 43.074 96.6814 43.305L96.9894 43.9C98.0184 43.69 98.9074 43.032 99.3204 42.164C99.7334 43.032 100.622 43.69 101.651 43.9L101.966 43.305ZM96.4854 45.132V45.727H102.211V45.132H96.4854ZM104.64 41.058C105.179 41.058 105.557 41.338 105.557 41.772C105.557 42.213 105.179 42.486 104.64 42.486C104.094 42.486 103.716 42.213 103.716 41.772C103.716 41.338 104.094 41.058 104.64 41.058ZM104.64 43.046C105.571 43.046 106.236 42.535 106.236 41.772C106.236 41.023 105.571 40.512 104.64 40.512C103.702 40.512 103.037 41.023 103.037 41.772C103.037 42.535 103.702 43.046 104.64 43.046ZM106.705 43.291C105.34 43.48 103.772 43.494 102.582 43.494L102.673 44.089C103.149 44.089 103.681 44.082 104.241 44.061V46.343H104.962V44.026C105.557 43.991 106.159 43.928 106.747 43.823L106.705 43.291ZM107.146 40.218V44.502H105.795V45.055H107.146V46.539H107.874V40.218H107.146ZM113.816 43.2H110.155V41.359H113.767V40.771H109.434V43.781H113.816V43.2ZM108.734 45.132V45.727H114.467V45.132H108.734Z" fill="#23A685"/>
<path d="M76.91 113.375C77.659 113.207 78.184 112.829 78.457 112.325C78.737 112.78 79.248 113.13 79.969 113.284L80.256 112.724C79.346 112.535 78.814 112.038 78.807 111.464H80.13V110.897H78.807V110.232H78.079V110.897H76.763V111.464H78.086C78.079 112.073 77.54 112.619 76.616 112.822L76.91 113.375ZM80.459 113.543C79.101 113.732 77.533 113.746 76.357 113.746L76.448 114.341C76.945 114.341 77.498 114.334 78.086 114.313V116.357H78.807V114.271C79.367 114.243 79.948 114.173 80.501 114.075L80.459 113.543ZM80.865 110.218V116.546H81.586V110.218H80.865ZM87.9625 113.207C86.7165 112.997 85.7015 112.059 85.7015 111.079V110.603H84.9385V111.079C84.9385 112.052 83.9235 112.997 82.6705 113.207L82.9785 113.809C84.0075 113.606 84.9035 112.976 85.3235 112.136C85.7295 112.976 86.6255 113.606 87.6615 113.809L87.9625 113.207ZM85.6735 115.16V113.683H84.9525V115.16H82.4815V115.755H88.2075V115.16H85.6735Z" fill="#323232"/>
<path d="M121.965 77.9113H43.0606C40.8515 77.9113 39.0606 79.7021 39.0606 81.9113V92.0823C39.0606 94.2914 40.8515 96.0823 43.0606 96.0823H121.965C124.175 96.0823 125.965 94.2914 125.965 92.0823V81.9113C125.965 79.7021 124.175 77.9113 121.965 77.9113Z" fill="#A8A8AA"/>
<path d="M98.3473 77.9113H43.0606C40.8515 77.9113 39.0606 79.7021 39.0606 81.9113V92.0823C39.0606 94.2914 40.8515 96.0823 43.0606 96.0823H98.3473V77.9113Z" fill="#23A685"/>
<path d="M115.066 89.1993C115.066 89.1993 115.082 89.1477 115.082 89.0789L115.417 86.6182C115.098 86.4461 114.891 86.0848 114.891 85.6718C114.891 85.0867 115.337 84.6049 115.879 84.6049C115.895 84.6049 115.911 84.6049 115.927 84.6049C115.959 83.9166 115.704 83.4348 115.13 83.1079C114.891 82.9702 114.604 82.8842 114.332 82.8326H112.467C112.195 82.8326 111.972 83.0735 111.972 83.366V90.6275C111.972 90.92 112.195 91.161 112.467 91.161H116.023C115.943 91.1265 115.863 91.0921 115.8 91.0405C114.875 90.421 115.05 89.2337 115.066 89.1993Z" fill="white"/>
<path d="M116.623 84.7414C117.021 84.9005 117.281 85.2893 117.281 85.7489C117.281 86.173 117.039 86.5442 116.693 86.7209L117.073 89.3544C117.091 89.4605 117.004 89.5488 116.9 89.5488H115.672C115.655 89.8316 115.689 90.5563 116.329 90.9451C116.745 91.2102 117.385 91.2279 118.319 91.0158C119.789 90.3619 120.81 88.8595 120.81 87.1098C120.81 84.7414 118.942 82.8326 116.641 82.8326H115.655C116.156 83.133 116.675 83.6986 116.623 84.7414Z" fill="white"/>
<path fill-rule="evenodd" clip-rule="evenodd" d="M65.5739 89.043V89.9233H70.0611V88.9514H67.0434L68.9085 86.9894C69.4981 86.3753 69.8237 85.7153 69.8237 85.0003V84.9086C69.8237 84.0009 69.2077 83.2125 67.7737 83.2125C67.3212 83.2016 66.8752 83.3273 66.4896 83.5745C66.104 83.8217 65.7952 84.1799 65.6003 84.6058L66.4452 85.1836C66.8574 84.4133 67.3245 84.2575 67.7825 84.2575C68.4334 84.2575 68.6892 84.5967 68.6892 84.9545V85.0278C68.6892 85.4036 68.6453 85.7519 67.9061 86.5403L65.5739 89.043ZM72.426 85.092C72.4215 84.9727 72.4415 84.8539 72.4849 84.7435C72.5282 84.6331 72.5937 84.5336 72.6771 84.4519C72.7605 84.3702 72.8597 84.3081 72.9681 84.2698C73.0765 84.2315 73.1915 84.2179 73.3053 84.23C73.8243 84.23 74.1846 84.5233 74.1846 85.092V85.1836C74.1873 85.3011 74.1662 85.4179 74.1226 85.5264C74.0791 85.6348 74.0141 85.7324 73.9319 85.8129C73.8497 85.8933 73.7521 85.9548 73.6456 85.9933C73.539 86.0317 73.4259 86.0463 73.3135 86.0361C73.2006 86.0453 73.087 86.0302 72.9799 85.9916C72.8728 85.953 72.7745 85.8917 72.6911 85.8117C72.6077 85.7317 72.541 85.6347 72.4952 85.5266C72.4494 85.4185 72.4255 85.3018 72.425 85.1836V85.092H72.426ZM72.2678 88.0072C72.2678 87.338 72.7692 87.0619 73.3234 87.0619C73.8776 87.0619 74.3442 87.3555 74.3442 88.0072V88.0989C74.3442 88.6672 73.9483 88.9972 73.3234 88.9972C72.6901 88.9972 72.2678 88.6672 72.2678 88.0989V88.0072ZM71.1064 88.1722C71.1064 89.2264 71.8719 90.0241 73.332 90.0241C74.7399 90.0241 75.5051 89.2264 75.5051 88.1722V88.0164C75.5039 87.6866 75.404 87.3655 75.2196 87.0976C75.0351 86.8298 74.7751 86.6286 74.4758 86.5219C74.7224 86.3891 74.9317 86.1917 75.0828 85.949C75.234 85.7063 75.322 85.4267 75.338 85.1378V85.0278C75.338 84.0825 74.6511 83.2125 73.2968 83.2125C71.9067 83.2125 71.2731 84.0833 71.2731 85.0278V85.1378C71.2868 85.4285 71.3748 85.7101 71.5279 85.9535C71.6811 86.1968 71.8938 86.3931 72.1441 86.5219C71.8449 86.6299 71.5848 86.8312 71.3991 87.0985C71.2134 87.3659 71.1111 87.6863 71.1061 88.0164V88.1722H71.1064ZM76.7707 89.5658C77.2807 89.8824 77.8666 90.0413 78.4599 90.0241C79.9643 90.0241 80.9762 89.3455 80.9762 86.4303V86.0086C80.9762 84.3125 80.325 83.2125 78.7061 83.2125C77.2985 83.2125 76.453 84.1578 76.453 85.3853V85.5686C76.453 86.8519 77.2009 87.6864 78.4313 87.6864C78.6942 87.6969 78.9563 87.651 79.2015 87.5516C79.4466 87.4523 79.6696 87.3015 79.8566 87.1086C79.795 88.5205 79.3463 88.9605 78.5281 88.9605C78.0557 88.9681 77.5902 88.8413 77.1817 88.5939L76.7707 89.5658ZM79.8412 85.5503C79.8412 86.1553 79.498 86.6594 78.6872 86.6594C77.9129 86.6594 77.5606 86.2928 77.5606 85.5228V85.422C77.5606 84.6883 77.9566 84.2761 78.7308 84.2761C79.4524 84.2761 79.8395 84.6978 79.8395 85.4131V85.5506L79.8412 85.5503ZM88.6062 84.2117V83.3134H84.0759V84.3033H87.428L84.9908 89.9233H86.1784L88.6062 84.2117ZM93.7864 83.6709C93.2763 83.3543 92.6905 83.1954 92.0971 83.2125C90.7159 83.2125 89.5808 83.8909 89.5808 86.8061V87.228C89.5808 88.9239 90.232 90.0241 91.8509 90.0241C93.2586 90.0241 94.104 89.0889 94.104 87.8605V87.6772C94.104 86.3936 93.3561 85.5503 92.1243 85.5503C91.8615 85.5398 91.5994 85.5857 91.3543 85.685C91.1092 85.7844 90.8862 85.9351 90.6991 86.1278C90.7783 84.7158 91.3767 84.2758 92.0276 84.2758C92.5 84.2684 92.9654 84.3951 93.374 84.6425L93.7864 83.6709ZM90.7159 87.6864C90.7159 87.0814 91.0591 86.5769 91.8685 86.5769C92.6428 86.5769 92.9951 86.9436 92.9951 87.7139V87.8147C92.9951 88.548 92.5994 88.9605 91.8251 88.9605C91.1036 88.9605 90.7164 88.5389 90.7164 87.8239V87.6864H90.7159ZM96.3714 85.092C96.3668 84.9727 96.3869 84.8539 96.4302 84.7435C96.4735 84.6331 96.5391 84.5336 96.6224 84.4519C96.7058 84.3702 96.805 84.3081 96.9134 84.2698C97.0218 84.2315 97.1368 84.2179 97.2506 84.23C97.7697 84.23 98.1299 84.5233 98.1299 85.092V85.1836C98.1326 85.3011 98.1115 85.4179 98.068 85.5264C98.0244 85.6348 97.9594 85.7324 97.8772 85.8129C97.795 85.8933 97.6974 85.9548 97.5909 85.9933C97.4844 86.0317 97.3712 86.0463 97.2589 86.0361C97.1459 86.0453 97.0323 86.0302 96.9252 85.9916C96.8181 85.953 96.7198 85.8917 96.6364 85.8117C96.553 85.7317 96.4864 85.6347 96.4406 85.5266C96.3948 85.4185 96.3709 85.3018 96.3703 85.1836V85.092H96.3714ZM96.2128 88.0072C96.2128 87.338 96.7146 87.0619 97.2688 87.0619C97.823 87.0619 98.2893 87.3555 98.2893 88.0072V88.0989C98.2893 88.6672 97.8933 88.9972 97.2688 88.9972C96.6352 88.9972 96.2128 88.6672 96.2128 88.0989V88.0072ZM95.0533 88.1722C95.0533 89.2264 95.8186 90.0241 97.2789 90.0241C98.6866 90.0241 99.4521 89.2264 99.4521 88.1722V88.0164C99.4508 87.6866 99.351 87.3655 99.1665 87.0976C98.9821 86.8298 98.7221 86.6286 98.4228 86.5219C98.6694 86.3891 98.8786 86.1917 99.0298 85.949C99.181 85.7063 99.269 85.4267 99.285 85.1378V85.0278C99.285 84.0825 98.5981 83.2125 97.2438 83.2125C95.8537 83.2125 95.2201 84.0833 95.2201 85.0278V85.1378C95.2338 85.4285 95.3218 85.7101 95.4749 85.9535C95.628 86.1968 95.8408 86.3931 96.0911 86.5219C95.792 86.6299 95.5319 86.8313 95.3463 87.0986C95.1606 87.3659 95.0583 87.6864 95.0533 88.0164V88.1722Z" fill="white"/>
<path d="M121.965 56H43.0606C40.8515 56 39.0606 57.7909 39.0606 60V70.171C39.0606 72.3801 40.8515 74.171 43.0606 74.171H121.965C124.175 74.171 125.965 72.3801 125.965 70.171V60C125.965 57.7909 124.175 56 121.965 56Z" fill="#E8E8E8"/>
<path d="M51.3219 64.1539C51.3219 63.2756 50.86 62.7736 50.1104 62.7736C49.5348 62.7736 49.2068 63.0385 48.9726 63.408C48.7852 63.0037 48.4103 62.7736 47.9217 62.7736C47.4131 62.7736 47.0851 63.0246 46.9445 63.3592H46.9378V62.8433H46.2953V66.6566H46.9445V64.2446C46.9445 63.645 47.393 63.3871 47.7946 63.3871C48.2564 63.3871 48.484 63.7078 48.484 64.3701V66.6566H49.1332V64.2794C49.1332 63.659 49.575 63.3871 49.9832 63.3871C50.4451 63.3871 50.6726 63.7078 50.6726 64.3701V66.6566H51.3219V64.1539Z" fill="#505050"/>
<path d="M53.5535 65.8898L52.583 62.8433H51.8802L53.2121 66.7124L52.7369 68.016L53.3259 68.2321L55.2268 62.8433H54.5441L53.5803 65.8898H53.5535Z" fill="#505050"/>
<path d="M58.6628 66.9982H55.3162V67.4514H58.6628V66.9982Z" fill="#505050"/>
<path d="M59.205 62.8433V66.6566H59.8542V62.8433H59.205ZM59.1849 61.477V62.2159H59.8743V61.477H59.1849Z" fill="#505050"/>
<path d="M63.2396 66.1826V66.6566H63.862V61.3864H63.2128V63.2407C63.0655 63.0176 62.7443 62.7736 62.1887 62.7736C61.332 62.7736 60.7363 63.3801 60.7363 64.4119V65.0881C60.7363 66.1198 61.2383 66.7124 62.162 66.7124C62.6171 66.7124 63.0254 66.566 63.2262 66.1826H63.2396ZM63.2195 65.1578C63.2195 65.7504 62.7844 66.1198 62.2557 66.1198C61.7135 66.1198 61.3789 65.7016 61.3789 64.9766V64.5095C61.3789 63.7914 61.7068 63.3662 62.2557 63.3662C62.8179 63.3662 63.2195 63.7775 63.2195 64.1749V65.1578Z" fill="#505050"/>
<mask id="mask0" mask-type="alpha" maskUnits="userSpaceOnUse" x="134" y="0" width="163" height="182">
<path d="M134.097 19.9999C134.097 8.95425 143.051 -6.10352e-05 154.097 -6.10352e-05H277C288.046 -6.10352e-05 297 8.95424 297 19.9999V182H134.097V19.9999Z" fill="#23A685"/>
</mask>
<g mask="url(#mask0)">
<path d="M134.097 19.6237C134.097 8.7858 142.926 -6.10352e-05 153.817 -6.10352e-05H277.28C288.171 -6.10352e-05 297 8.7858 297 19.6237V304.595C297 315.433 288.171 324.219 277.28 324.219H153.817C142.926 324.219 134.097 315.433 134.097 304.595V19.6237Z" fill="#323232"/>
<path d="M141.05 24.2167C141.05 14.7737 148.718 7.11865 158.176 7.11865H272.921C282.379 7.11865 290.047 14.7737 290.047 24.2167V288.381C290.047 297.824 282.379 305.479 272.921 305.479H158.176C148.718 305.479 141.05 297.824 141.05 288.381V24.2167Z" fill="white"/>
<g opacity="0.2">
<rect x="141.05" y="49.7267" width="148.997" height="66.6339" fill="#545468"/>
<rect x="150.983" y="31.8251" width="62.5786" height="6.96175" rx="2" fill="#23A685"/>
<rect x="150.983" y="90.5027" width="39.7324" height="12.929" rx="6" fill="#8AC8FF"/>
<rect x="159.923" y="133.268" width="23.8395" height="23.8689" rx="2" fill="#23A685"/>
<rect x="159.923" y="161.115" width="23.8395" height="2.98361" rx="1.4918" fill="#4F4F4F"/>
<rect x="203.629" y="133.268" width="23.8395" height="23.8689" rx="2" fill="#23A685"/>
<rect x="203.629" y="161.115" width="23.8395" height="2.98361" rx="1.4918" fill="#4F4F4F"/>
<rect x="247.334" y="133.268" width="23.8395" height="23.8689" rx="2" fill="#23A685"/>
<rect x="247.334" y="161.115" width="23.8395" height="2.98361" rx="1.4918" fill="#4F4F4F"/>
</g>
<path d="M141.05 24.2167C141.05 14.7737 148.718 7.11865 158.176 7.11865H272.921C282.379 7.11865 290.047 14.7737 290.047 24.2167V288.381C290.047 297.824 282.379 305.479 272.921 305.479H158.176C148.718 305.479 141.05 297.824 141.05 288.381V24.2167Z" fill="#383E47" fill-opacity="0.65"/>
<g filter="url(#filter0_d)">
<rect x="156.943" y="57.683" width="117.211" height="91.4973" rx="4" fill="white"/>
</g>
<rect x="196.676" y="68.6229" width="35.7592" height="4.97268" rx="2" fill="#E0E6EB"/>
<rect x="183.763" y="79.5628" width="62.5786" height="4.97268" rx="2" fill="#E0E6EB"/>
<path d="M156.943 130.284H215.549V149.18H160.943C158.734 149.18 156.943 147.389 156.943 145.18V130.284Z" fill="#E0E6EB"/>
<path d="M215.548 130.284H274.154V145.18C274.154 147.389 272.363 149.18 270.154 149.18H215.548V130.284Z" fill="#23A685"/>
<path d="M180.91 139.375C181.659 139.207 182.184 138.829 182.457 138.325C182.737 138.78 183.248 139.13 183.969 139.284L184.256 138.724C183.346 138.535 182.814 138.038 182.807 137.464H184.13V136.897H182.807V136.232H182.079V136.897H180.763V137.464H182.086C182.079 138.073 181.54 138.619 180.616 138.822L180.91 139.375ZM184.459 139.543C183.101 139.732 181.533 139.746 180.357 139.746L180.448 140.341C180.945 140.341 181.498 140.334 182.086 140.313V142.357H182.807V140.271C183.367 140.243 183.948 140.173 184.501 140.075L184.459 139.543ZM184.865 136.218V142.546H185.586V136.218H184.865ZM191.962 139.207C190.716 138.997 189.701 138.059 189.701 137.079V136.603H188.938V137.079C188.938 138.052 187.923 138.997 186.67 139.207L186.978 139.809C188.007 139.606 188.903 138.976 189.323 138.136C189.729 138.976 190.625 139.606 191.661 139.809L191.962 139.207ZM189.673 141.16V139.683H188.952V141.16H186.481V141.755H192.207V141.16H189.673Z" fill="#323232"/>
<path d="M243.074 136.75H241.639V136.162H240.911V136.75H239.462V137.275H243.074V136.75ZM240.442 138.416C240.442 138.129 240.764 137.954 241.268 137.954C241.772 137.954 242.094 138.129 242.094 138.416C242.094 138.696 241.772 138.864 241.268 138.864C240.764 138.864 240.442 138.696 240.442 138.416ZM243.249 139.578C242.738 139.655 242.185 139.69 241.639 139.718V139.326C242.339 139.242 242.773 138.913 242.773 138.416C242.773 137.828 242.178 137.471 241.268 137.471C240.358 137.471 239.763 137.828 239.763 138.416C239.763 138.913 240.197 139.249 240.911 139.326V139.746C240.33 139.76 239.777 139.76 239.301 139.76L239.385 140.334C240.491 140.327 241.968 140.32 243.305 140.082L243.249 139.578ZM240.085 141.349H243.585V142.546H244.306V140.775H240.085V141.349ZM245.174 138.087H244.306V136.225H243.585V140.495H244.306V138.682H245.174V138.087ZM250.689 136.218H249.968V140.81H250.689V136.218ZM246.307 138.22C246.307 137.639 246.72 137.261 247.28 137.261C247.833 137.261 248.253 137.639 248.253 138.22C248.253 138.794 247.833 139.179 247.28 139.179C246.72 139.179 246.307 138.794 246.307 138.22ZM248.953 138.22C248.953 137.296 248.232 136.638 247.28 136.638C246.328 136.638 245.6 137.296 245.6 138.22C245.6 139.137 246.328 139.802 247.28 139.802C248.232 139.802 248.953 139.137 248.953 138.22ZM247.287 141.832V140.348H246.559V142.42H250.871V141.832H247.287Z" fill="white"/>
<path d="M257.241 95.4753H173.856C171.647 95.4753 169.856 97.2662 169.856 99.4753V110.607C169.856 112.816 171.647 114.607 173.856 114.607H257.241C259.45 114.607 261.241 112.816 261.241 110.607V99.4753C261.241 97.2662 259.45 95.4753 257.241 95.4753Z" fill="#A8A8AA"/>
<path d="M232.199 95.4753H173.856C171.647 95.4753 169.856 97.2662 169.856 99.4753V110.607C169.856 112.816 171.647 114.607 173.856 114.607H232.199V95.4753Z" fill="#23A685"/>
<path d="M249.78 107.36C249.78 107.36 249.796 107.306 249.796 107.233L250.149 104.642C249.813 104.461 249.595 104.081 249.595 103.646C249.595 103.03 250.065 102.523 250.635 102.523C250.652 102.523 250.668 102.523 250.685 102.523C250.719 101.798 250.45 101.291 249.847 100.947C249.595 100.802 249.293 100.711 249.008 100.657H247.046C246.761 100.657 246.526 100.91 246.526 101.218V108.864C246.526 109.172 246.761 109.425 247.046 109.425H250.786C250.702 109.389 250.618 109.353 250.551 109.298C249.578 108.646 249.763 107.396 249.78 107.36Z" fill="white"/>
<path d="M251.417 102.666C251.836 102.834 252.109 103.243 252.109 103.727C252.109 104.174 251.854 104.564 251.49 104.751L251.89 107.523C251.909 107.635 251.818 107.728 251.708 107.728H250.417C250.399 108.026 250.435 108.789 251.108 109.198C251.545 109.477 252.218 109.496 253.2 109.272C254.746 108.584 255.82 107.002 255.82 105.16C255.82 102.666 253.855 100.657 251.436 100.657H250.399C250.926 100.973 251.472 101.568 251.417 102.666Z" fill="white"/>
<path fill-rule="evenodd" clip-rule="evenodd" d="M197.736 107.195V108.122H202.455V107.099H199.281L201.243 105.033C201.863 104.387 202.205 103.692 202.205 102.939V102.842C202.205 101.887 201.557 101.057 200.049 101.057C199.574 101.045 199.105 101.178 198.699 101.438C198.294 101.698 197.969 102.075 197.764 102.524L198.652 103.132C199.086 102.321 199.577 102.157 200.059 102.157C200.743 102.157 201.012 102.514 201.012 102.891V102.968C201.012 103.364 200.966 103.73 200.189 104.56L197.736 107.195ZM204.942 103.035C204.937 102.91 204.958 102.785 205.003 102.669C205.049 102.552 205.118 102.448 205.206 102.362C205.293 102.276 205.398 102.21 205.512 102.17C205.625 102.13 205.746 102.115 205.866 102.128C206.412 102.128 206.791 102.437 206.791 103.035V103.132C206.794 103.256 206.771 103.379 206.726 103.493C206.68 103.607 206.611 103.71 206.525 103.795C206.439 103.879 206.336 103.944 206.224 103.984C206.112 104.025 205.993 104.04 205.875 104.03C205.756 104.039 205.637 104.023 205.524 103.983C205.411 103.942 205.308 103.878 205.22 103.793C205.133 103.709 205.062 103.607 205.014 103.493C204.966 103.379 204.941 103.256 204.94 103.132V103.035H204.942ZM204.775 106.105C204.775 105.4 205.302 105.11 205.885 105.11C206.468 105.11 206.959 105.419 206.959 106.105V106.201C206.959 106.8 206.542 107.147 205.885 107.147C205.219 107.147 204.775 106.8 204.775 106.201V106.105ZM203.554 106.279C203.554 107.388 204.359 108.228 205.894 108.228C207.375 108.228 208.179 107.388 208.179 106.279V106.114C208.178 105.767 208.073 105.429 207.879 105.147C207.685 104.865 207.412 104.653 207.097 104.541C207.356 104.401 207.576 104.193 207.735 103.938C207.894 103.682 207.987 103.388 208.004 103.084V102.968C208.004 101.973 207.281 101.057 205.857 101.057C204.395 101.057 203.729 101.974 203.729 102.968V103.084C203.744 103.39 203.836 103.686 203.997 103.943C204.158 104.199 204.382 104.405 204.645 104.541C204.33 104.655 204.057 104.867 203.862 105.148C203.666 105.43 203.559 105.767 203.554 106.114V106.279H203.554ZM209.51 107.746C210.046 108.079 210.663 108.246 211.286 108.228C212.868 108.228 213.932 107.514 213.932 104.445V104.001C213.932 102.215 213.248 101.057 211.545 101.057C210.065 101.057 209.176 102.052 209.176 103.344V103.537C209.176 104.888 209.963 105.767 211.256 105.767C211.533 105.778 211.808 105.73 212.066 105.625C212.324 105.521 212.558 105.362 212.755 105.159C212.69 106.645 212.219 107.108 211.358 107.108C210.861 107.116 210.372 106.983 209.942 106.722L209.51 107.746ZM212.739 103.518C212.739 104.155 212.378 104.686 211.525 104.686C210.711 104.686 210.341 104.3 210.341 103.489V103.383C210.341 102.611 210.757 102.177 211.571 102.177C212.33 102.177 212.737 102.62 212.737 103.374V103.518L212.739 103.518ZM221.956 102.109V101.163H217.192V102.205H220.717L218.154 108.122H219.403L221.956 102.109ZM227.403 101.539C226.867 101.206 226.251 101.039 225.627 101.057C224.174 101.057 222.981 101.771 222.981 104.84V105.284C222.981 107.07 223.665 108.228 225.368 108.228C226.848 108.228 227.737 107.244 227.737 105.95V105.757C227.737 104.406 226.951 103.518 225.655 103.518C225.379 103.507 225.103 103.555 224.846 103.66C224.588 103.764 224.353 103.923 224.157 104.126C224.24 102.64 224.869 102.176 225.554 102.176C226.05 102.168 226.54 102.302 226.969 102.562L227.403 101.539ZM224.174 105.767C224.174 105.13 224.535 104.599 225.386 104.599C226.2 104.599 226.571 104.985 226.571 105.796V105.902C226.571 106.674 226.155 107.108 225.341 107.108C224.582 107.108 224.175 106.665 224.175 105.912V105.767H224.174ZM230.121 103.035C230.116 102.91 230.138 102.785 230.183 102.669C230.229 102.552 230.298 102.448 230.385 102.362C230.473 102.276 230.577 102.21 230.691 102.17C230.805 102.13 230.926 102.115 231.046 102.128C231.592 102.128 231.97 102.437 231.97 103.035V103.132C231.973 103.256 231.951 103.379 231.905 103.493C231.859 103.607 231.791 103.71 231.705 103.795C231.618 103.879 231.516 103.944 231.404 103.984C231.292 104.025 231.173 104.04 231.054 104.03C230.936 104.039 230.816 104.023 230.704 103.983C230.591 103.942 230.488 103.878 230.4 103.793C230.312 103.709 230.242 103.607 230.194 103.493C230.146 103.379 230.121 103.256 230.12 103.132V103.035H230.121ZM229.955 106.105C229.955 105.4 230.482 105.11 231.065 105.11C231.648 105.11 232.138 105.419 232.138 106.105V106.201C232.138 106.8 231.722 107.147 231.065 107.147C230.399 107.147 229.955 106.8 229.955 106.201V106.105ZM228.735 106.279C228.735 107.388 229.54 108.228 231.076 108.228C232.556 108.228 233.361 107.388 233.361 106.279V106.114C233.359 105.767 233.254 105.429 233.061 105.147C232.867 104.865 232.593 104.653 232.278 104.541C232.538 104.401 232.758 104.193 232.917 103.938C233.076 103.682 233.168 103.388 233.185 103.084V102.968C233.185 101.973 232.463 101.057 231.039 101.057C229.577 101.057 228.911 101.974 228.911 102.968V103.084C228.925 103.39 229.018 103.686 229.179 103.943C229.34 104.199 229.563 104.405 229.827 104.541C229.512 104.655 229.239 104.867 229.043 105.148C228.848 105.43 228.741 105.767 228.735 106.114V106.279Z" fill="white"/>
<path fill-rule="evenodd" clip-rule="evenodd" d="M269.817 160.612L262.241 165.53C261.408 166.072 260.374 165.839 260.374 165.839L252.827 163.692C252.25 163.539 251.744 163.152 251.406 162.606L248.293 156.543C248.189 156.341 248.16 156.101 248.214 155.876C248.268 155.65 248.399 155.458 248.579 155.341L248.918 155.122C249.185 154.948 249.48 154.836 249.786 154.791C250.092 154.745 250.403 154.768 250.701 154.858C250.999 154.948 251.279 155.103 251.523 155.314C251.768 155.525 251.973 155.788 252.126 156.088L253.887 159.519C253.913 159.569 253.947 159.613 253.988 159.648C254.029 159.683 254.075 159.708 254.125 159.723C254.175 159.738 254.227 159.742 254.278 159.734C254.329 159.726 254.378 159.707 254.422 159.679C254.467 159.65 254.506 159.611 254.537 159.565C254.568 159.52 254.591 159.467 254.604 159.412C254.618 159.356 254.621 159.298 254.614 159.241C254.607 159.184 254.59 159.129 254.565 159.079L246.345 143.069L246.349 143.066C246.13 142.591 246.083 142.04 246.217 141.527C246.351 141.015 246.656 140.579 247.069 140.311C247.482 140.043 247.971 139.963 248.434 140.088C248.898 140.213 249.302 140.532 249.561 140.981L249.565 140.978L253.675 148.983C253.727 149.084 253.813 149.157 253.913 149.187C254.014 149.217 254.121 149.201 254.211 149.143C254.3 149.084 254.366 148.988 254.393 148.876C254.419 148.763 254.405 148.644 254.353 148.543L253.081 146.065L253.086 146.062C252.867 145.587 252.82 145.036 252.954 144.524C253.088 144.011 253.393 143.575 253.806 143.307C254.219 143.04 254.707 142.96 255.171 143.084C255.635 143.209 256.038 143.529 256.298 143.977L256.302 143.975L257.769 146.833C257.795 146.883 257.829 146.927 257.87 146.962C257.911 146.997 257.958 147.023 258.007 147.037C258.057 147.052 258.109 147.056 258.16 147.048C258.211 147.041 258.26 147.022 258.305 146.993C258.349 146.964 258.388 146.926 258.419 146.88C258.451 146.834 258.474 146.782 258.487 146.726C258.5 146.671 258.503 146.612 258.497 146.555C258.49 146.498 258.473 146.443 258.447 146.393L257.86 145.25L257.865 145.247C257.646 144.772 257.599 144.221 257.733 143.708C257.867 143.195 258.172 142.76 258.585 142.492C258.998 142.224 259.486 142.144 259.95 142.269C260.414 142.393 260.817 142.713 261.077 143.162L261.081 143.159L261.863 144.684C261.916 144.784 262.001 144.858 262.102 144.888C262.202 144.918 262.309 144.902 262.399 144.843C262.489 144.785 262.554 144.689 262.581 144.576C262.608 144.464 262.593 144.344 262.541 144.243L262.546 144.241C262.353 143.816 262.313 143.325 262.434 142.869C262.554 142.412 262.827 142.024 263.194 141.786C263.562 141.547 263.998 141.475 264.411 141.585C264.825 141.694 265.185 141.977 265.418 142.376L265.423 142.373L269.337 149.997L270.12 151.521L271.391 153.999C271.962 155.111 272.117 156.43 271.822 157.67C271.527 158.909 270.806 159.967 269.817 160.612Z" fill="white"/>
<path fill-rule="evenodd" clip-rule="evenodd" d="M248.228 140.857C247.988 140.792 247.73 140.83 247.501 140.979C247.268 141.13 247.074 141.392 246.986 141.729C246.898 142.066 246.93 142.428 247.071 142.733C247.079 142.75 247.086 142.768 247.092 142.785L255.27 158.713C255.27 158.713 255.271 158.714 255.271 158.714C255.341 158.851 255.385 158.997 255.403 159.147C255.421 159.296 255.412 159.449 255.377 159.596C255.343 159.743 255.281 159.886 255.193 160.014C255.105 160.143 254.991 160.257 254.855 160.346C254.718 160.435 254.562 160.496 254.395 160.521C254.228 160.546 254.059 160.533 253.898 160.486C253.738 160.438 253.593 160.357 253.471 160.252C253.349 160.148 253.252 160.022 253.181 159.885L253.18 159.883L251.419 156.451C251.31 156.238 251.168 156.058 251.004 155.917C250.841 155.776 250.66 155.677 250.472 155.62C250.285 155.564 250.092 155.55 249.902 155.578C249.712 155.606 249.524 155.676 249.35 155.789L249.013 156.007C249.012 156.008 249.009 156.011 249.005 156.016C248.999 156.025 248.992 156.04 248.987 156.06C248.977 156.105 248.984 156.15 248.999 156.179L252.096 162.212C252.336 162.585 252.673 162.828 253.031 162.923L253.044 162.927L260.56 165.064C260.577 165.068 260.606 165.072 260.644 165.077C260.724 165.087 260.839 165.096 260.974 165.092C261.254 165.085 261.559 165.025 261.809 164.863L269.383 159.946C269.383 159.945 269.383 159.946 269.383 159.946C270.188 159.42 270.798 158.543 271.049 157.485C271.301 156.427 271.167 155.302 270.684 154.363L269.413 151.885L268.63 150.36L264.758 142.817C264.749 142.804 264.741 142.791 264.733 142.778C264.597 142.546 264.402 142.405 264.208 142.354C264.017 142.303 263.812 142.333 263.627 142.453C263.438 142.576 263.276 142.791 263.202 143.072C263.127 143.354 263.153 143.657 263.269 143.912C263.284 143.945 263.296 143.978 263.307 144.011C263.397 144.251 263.413 144.513 263.354 144.76C263.284 145.055 263.107 145.332 262.831 145.511C262.551 145.693 262.204 145.748 261.875 145.65C261.55 145.553 261.3 145.325 261.158 145.05L261.157 145.047L260.416 143.603C260.406 143.589 260.397 143.575 260.389 143.56C260.226 143.278 259.988 143.103 259.744 143.037C259.504 142.973 259.246 143.011 259.017 143.16C258.784 143.311 258.59 143.573 258.502 143.91C258.414 144.247 258.446 144.609 258.586 144.914C258.594 144.931 258.602 144.949 258.608 144.966L259.153 146.027C259.153 146.028 259.153 146.028 259.154 146.029C259.224 146.165 259.268 146.312 259.286 146.461C259.303 146.611 259.295 146.763 259.26 146.91C259.225 147.058 259.163 147.2 259.075 147.329C258.987 147.458 258.874 147.572 258.737 147.661C258.6 147.75 258.444 147.81 258.277 147.835C258.11 147.86 257.941 147.848 257.78 147.8C257.62 147.752 257.476 147.671 257.353 147.566C257.231 147.462 257.134 147.336 257.064 147.199L257.062 147.197L255.636 144.418C255.627 144.404 255.618 144.39 255.61 144.376C255.447 144.094 255.209 143.918 254.965 143.853C254.725 143.788 254.467 143.826 254.238 143.975C254.005 144.126 253.811 144.388 253.723 144.725C253.635 145.062 253.667 145.424 253.808 145.73C253.815 145.747 253.823 145.764 253.829 145.781L255.059 148.177C255.059 148.177 255.059 148.178 255.059 148.178C255.2 148.452 255.235 148.766 255.166 149.06C255.096 149.354 254.918 149.631 254.643 149.81C254.363 149.992 254.016 150.048 253.687 149.95C253.362 149.853 253.112 149.624 252.97 149.349L252.968 149.347L248.9 141.423C248.891 141.409 248.882 141.394 248.873 141.379C248.71 141.098 248.472 140.922 248.228 140.857ZM250.194 140.491C249.836 139.922 249.29 139.494 248.64 139.32C247.953 139.135 247.233 139.257 246.637 139.644C246.044 140.028 245.629 140.637 245.449 141.326C245.278 141.98 245.325 142.681 245.585 143.303C245.599 143.347 245.616 143.39 245.638 143.433L251.152 154.173C251.079 154.145 251.005 154.119 250.93 154.096C250.521 153.973 250.093 153.941 249.67 154.004C249.249 154.066 248.846 154.22 248.487 154.453C248.487 154.453 248.486 154.454 248.487 154.453L248.148 154.672L248.146 154.674C247.781 154.912 247.538 155.284 247.441 155.691C247.344 156.098 247.393 156.533 247.586 156.908L250.699 162.97C250.709 162.989 250.719 163.008 250.73 163.026C251.165 163.728 251.83 164.248 252.615 164.459L260.157 166.604C260.171 166.608 260.185 166.612 260.2 166.615L260.374 165.839C260.2 166.615 260.199 166.615 260.2 166.615L260.201 166.615L260.202 166.616L260.204 166.616L260.211 166.618L260.228 166.621C260.242 166.624 260.26 166.627 260.281 166.631C260.324 166.639 260.382 166.648 260.453 166.657C260.593 166.674 260.788 166.689 261.016 166.683C261.461 166.671 262.09 166.577 262.674 166.198L270.249 161.28L269.817 160.612L270.251 161.279C271.425 160.513 272.257 159.275 272.595 157.854C272.933 156.434 272.758 154.92 272.098 153.636C272.098 153.636 272.098 153.635 272.098 153.636L270.826 151.158L270.044 149.633L266.13 142.009C266.106 141.963 266.079 141.921 266.047 141.881C265.715 141.363 265.213 140.974 264.615 140.816C263.978 140.647 263.313 140.761 262.762 141.118C262.228 141.465 261.85 142.008 261.677 142.622C261.319 142.077 260.787 141.67 260.156 141.5C259.469 141.316 258.749 141.437 258.153 141.824C257.56 142.209 257.144 142.818 256.964 143.507C256.963 143.513 256.961 143.52 256.959 143.527C256.95 143.514 256.941 143.501 256.931 143.489C256.573 142.918 256.027 142.491 255.377 142.316C254.69 142.131 253.97 142.253 253.374 142.64C252.781 143.024 252.366 143.633 252.186 144.322C252.184 144.326 252.183 144.331 252.182 144.335L250.272 140.614C250.249 140.571 250.223 140.53 250.194 140.491ZM261.81 144.542C261.816 144.565 261.824 144.587 261.836 144.609L262.525 144.252C262.524 144.252 262.524 144.251 262.524 144.251L261.822 144.57C261.818 144.56 261.814 144.551 261.81 144.542ZM262.533 144.247L262.533 144.248L262.541 144.243L262.533 144.247Z" fill="#3F3F3F"/>
</g>
<defs>
<filter id="filter0_d" x="136.943" y="45.683" width="157.211" height="131.497" filterUnits="userSpaceOnUse" color-interpolation-filters="sRGB">
<feFlood flood-opacity="0" result="BackgroundImageFix"/>
<feColorMatrix in="SourceAlpha" type="matrix" values="0 0 0 0 0 0 0 0 0 0 0 0 0 0 0 0 0 0 127 0"/>
<feOffset dy="8"/>
<feGaussianBlur stdDeviation="10"/>
<feColorMatrix type="matrix" values="0 0 0 0 0 0 0 0 0 0 0 0 0 0 0 0 0 0 0.25 0"/>
<feBlend mode="normal" in2="BackgroundImageFix" result="effect1_dropShadow"/>
<feBlend mode="normal" in="SourceGraphic" in2="effect1_dropShadow" result="shape"/>
</filter>
</defs>
</svg>
