<svg width="70" height="70" viewBox="0 0 70 70" fill="none" xmlns="http://www.w3.org/2000/svg">
<path d="M10.23 34.0611L10.23 31.4758L23.3453 31.4758L23.3453 34.0611L10.23 34.0611Z" fill="#28D496"/>
<path d="M43.1495 34.0611L43.1495 31.4758L56.2648 31.4758L56.2648 34.0611L43.1495 34.0611Z" fill="#28D496"/>
<path d="M31.9359 10.0826L34.5589 10.0826L34.5589 23.009L31.9359 23.009L31.9359 10.0826Z" fill="#28D496"/>
<path d="M31.9359 42.528L34.5589 42.528L34.5589 55.4544L31.9359 55.4544L31.9359 42.528Z" fill="#28D496"/>
<path d="M17.5709 50.0864L15.6765 48.2192L25.1487 38.8835L27.0431 40.7506L17.5709 50.0864Z" fill="#28D496"/>
<path d="M41.3461 26.6536L39.4517 24.7865L48.9239 15.4507L50.8183 17.3178L41.3461 26.6536Z" fill="#28D496"/>
<path d="M15.6765 17.3178L17.5709 15.4507L27.0431 24.7865L25.1487 26.6536L15.6765 17.3178Z" fill="#28D496"/>
<path d="M39.4517 40.7506L41.3461 38.8835L50.8183 48.2192L48.9239 50.0864L39.4517 40.7506Z" fill="#28D496"/>
<rect x="1.13955" width="6.52525" height="51.2141" rx="3.26263" transform="matrix(0.712217 -0.701959 0.712217 0.701959 26.9259 33.7265)" fill="#28D596" stroke="#222222" stroke-width="1.6"/>
</svg>
