<svg width="50" height="50" viewBox="0 0 50 50" fill="none" xmlns="http://www.w3.org/2000/svg">
<path d="M7.27272 26.0101L7.27272 23.9899L17.3737 23.9899L17.3737 26.0101L7.27272 26.0101Z" fill="#28D496"/>
<path d="M32.6263 26.0101L32.6263 23.9899L42.7273 23.9899L42.7273 26.0101L32.6263 26.0101Z" fill="#28D496"/>
<path d="M23.9899 7.27273L26.0101 7.27273L26.0101 17.3737L23.9899 17.3737L23.9899 7.27273Z" fill="#28D496"/>
<path d="M23.9899 32.6263L26.0101 32.6263L26.0101 42.7273L23.9899 42.7273L23.9899 32.6263Z" fill="#28D496"/>
<path d="M13.2122 38.2122L11.7877 36.7877L18.9103 29.6652L20.3348 31.0897L13.2122 38.2122Z" fill="#28D496"/>
<path d="M31.0897 20.3348L29.6652 18.9103L36.7878 11.7877L38.2123 13.2122L31.0897 20.3348Z" fill="#28D496"/>
<path d="M11.7877 13.2122L13.2122 11.7877L20.3348 18.9103L18.9103 20.3348L11.7877 13.2122Z" fill="#28D496"/>
<path d="M29.6652 31.0897L31.0897 29.6652L38.2123 36.7877L36.7877 38.2123L29.6652 31.0897Z" fill="#28D496"/>
</svg>
