<svg width="201" height="167" viewBox="0 0 201 167" fill="none" xmlns="http://www.w3.org/2000/svg">
<path d="M7.10846 0H194.492C196.165 0 197.769 0.659797 198.952 1.83424C200.135 3.00869 200.8 4.60158 200.8 6.2625V117.132H0.800049V6.2625C0.800049 4.60158 1.46468 3.00869 2.64774 1.83424C3.8308 0.659797 5.43537 0 7.10846 0V0Z" fill="#323232"/>
<path d="M0.800049 117.132H200.8V132.208C200.8 133.869 200.135 135.462 198.952 136.637C197.769 137.811 196.165 138.471 194.492 138.471H7.10846C5.43537 138.471 3.8308 137.811 2.64774 136.637C1.46468 135.462 0.800049 133.869 0.800049 132.208L0.800049 117.132Z" fill="white"/>
<path fill-rule="evenodd" clip-rule="evenodd" d="M136.186 167H65.6425C65.5953 167 65.5485 166.991 65.5049 166.973C65.4612 166.955 65.4216 166.929 65.3881 166.896C65.3547 166.863 65.3281 166.823 65.31 166.78C65.2919 166.737 65.2825 166.69 65.2825 166.644C65.2828 166.265 65.4347 165.902 65.7047 165.634C65.9747 165.367 66.3407 165.217 66.7222 165.217H67.8021C67.8021 165.217 74.6404 165.203 76.44 158.085C78.0607 151.674 78.5995 138.471 78.5995 138.471H123.23C123.23 138.471 123.769 151.674 125.389 158.085C127.188 165.203 134.027 165.217 134.027 165.217H135.107C135.296 165.217 135.483 165.253 135.658 165.325C135.832 165.397 135.991 165.502 136.125 165.634C136.258 165.767 136.364 165.924 136.437 166.097C136.509 166.27 136.547 166.456 136.547 166.644C136.547 166.69 136.537 166.737 136.519 166.78C136.501 166.823 136.475 166.863 136.441 166.896C136.408 166.929 136.368 166.955 136.324 166.973C136.281 166.991 136.234 167 136.186 167Z" fill="#E1E1E1"/>
<path d="M192.585 6.7771H8.51526C8.25847 6.7771 8.05029 6.98418 8.05029 7.23963V109.315C8.05029 109.57 8.25847 109.777 8.51526 109.777H192.585C192.842 109.777 193.05 109.57 193.05 109.315V7.23963C193.05 6.98418 192.842 6.7771 192.585 6.7771Z" fill="white"/>
<path d="M193 22H8V23H193V22Z" fill="#E8E8E8"/>
<rect x="28" y="30" width="32" height="19" rx="2" fill="#E8E9EA"/>
<rect x="28" y="52" width="32" height="47" rx="2" fill="#E8E9EA"/>
<rect x="65" y="30" width="108" height="69" rx="2" fill="#E8E9EA"/>
<rect x="71" y="41" width="93.3333" height="40" rx="2" fill="#464646"/>
<rect x="76.5556" y="59.8889" width="83.3333" height="15.5556" rx="2" fill="#323232"/>
<path d="M76.5556 52.2111V51.8255H79.0374V51.1172H77.4798V48.9863H77.9283V49.689H80.6071V48.9863H81.0556V51.1172H79.498V51.8255H81.9799V52.2111H76.5556ZM80.6071 50.0689H77.9283V50.743H80.6071V50.0689ZM77.4434 54.1477V52.5625H77.895V53.7678H81.2102V54.1477H77.4434Z" fill="white"/>
<path d="M86.7334 52.8481V48.8235H87.188V52.8481H86.7334ZM84.3 51.8312C83.8637 51.8312 83.499 51.7018 83.2061 51.4428C82.9131 51.1819 82.7667 50.8449 82.7667 50.4316C82.7667 50.0165 82.9121 49.6804 83.2031 49.4234C83.496 49.1644 83.8616 49.0349 84.3 49.0349C84.7384 49.0349 85.1021 49.1634 85.391 49.4205C85.6819 49.6776 85.8273 50.0146 85.8273 50.4316C85.8273 50.8449 85.6819 51.1819 85.391 51.4428C85.1 51.7018 84.7364 51.8312 84.3 51.8312ZM84.3 49.4148C83.9808 49.4148 83.7212 49.5071 83.5212 49.6919C83.3212 49.8766 83.2212 50.1232 83.2212 50.4316C83.2212 50.7401 83.3202 50.9877 83.5182 51.1743C83.7182 51.359 83.9788 51.4514 84.3 51.4514C84.6213 51.4514 84.8819 51.359 85.0819 51.1743C85.2819 50.9877 85.3819 50.7401 85.3819 50.4316C85.3819 50.1232 85.2819 49.8766 85.0819 49.6919C84.8819 49.5071 84.6213 49.4148 84.3 49.4148ZM83.5 54.122V52.334H83.9546V53.7364H87.3425V54.122H83.5Z" fill="white"/>
<path d="M90.0464 49.7233V49.3491H91.5464V48.7778H91.9949V49.3491H93.4889V49.7233H90.0464ZM94.5132 51.1629V52.4796H94.0677V48.8235H94.5132V50.783H95.3889V51.1629H94.5132ZM93.701 52.2911C92.7515 52.3501 91.4788 52.3797 89.8828 52.3797L89.8404 52.0112C90.4525 52.0112 91.0192 52.0055 91.5404 51.9941V51.5542C91.1424 51.5275 90.8394 51.4409 90.6313 51.2943C90.4232 51.1476 90.3192 50.962 90.3192 50.7373C90.3192 50.4821 90.4474 50.2803 90.704 50.1317C90.9606 49.9813 91.3161 49.9061 91.7707 49.9061C92.2131 49.9061 92.5646 49.9832 92.8253 50.1374C93.0859 50.2917 93.2162 50.4916 93.2162 50.7373C93.2162 50.9658 93.1091 51.1533 92.895 51.3C92.6808 51.4466 92.3788 51.5313 91.9889 51.5542V51.9883C92.6758 51.9807 93.2384 51.9636 93.6768 51.9369L93.701 52.2911ZM91.7707 50.2574C91.4394 50.2574 91.1889 50.3012 91.0192 50.3888C90.8495 50.4764 90.7646 50.5926 90.7646 50.7373C90.7646 50.882 90.8535 50.9981 91.0313 51.0857C91.2091 51.1733 91.4555 51.2171 91.7707 51.2171C92.0859 51.2171 92.3313 51.1743 92.5071 51.0886C92.6828 51.001 92.7707 50.8839 92.7707 50.7373C92.7707 50.5926 92.6869 50.4764 92.5192 50.3888C92.3515 50.3012 92.102 50.2574 91.7707 50.2574ZM94.0677 54.3334V53.1337H90.7464V52.7596H94.5132V54.3334H94.0677Z" fill="white"/>
<path d="M100.024 52.8481V48.8235H100.479V52.8481H100.024ZM97.5909 51.8312C97.1545 51.8312 96.7899 51.7018 96.4969 51.4428C96.204 51.1819 96.0575 50.8449 96.0575 50.4316C96.0575 50.0165 96.203 49.6804 96.4939 49.4234C96.7868 49.1644 97.1525 49.0349 97.5909 49.0349C98.0293 49.0349 98.3929 49.1634 98.6818 49.4205C98.9727 49.6776 99.1182 50.0146 99.1182 50.4316C99.1182 50.8449 98.9727 51.1819 98.6818 51.4428C98.3909 51.7018 98.0273 51.8312 97.5909 51.8312ZM97.5909 49.4148C97.2717 49.4148 97.0121 49.5071 96.8121 49.6919C96.6121 49.8766 96.5121 50.1232 96.5121 50.4316C96.5121 50.7401 96.6111 50.9877 96.8091 51.1743C97.0091 51.359 97.2697 51.4514 97.5909 51.4514C97.9121 51.4514 98.1727 51.359 98.3727 51.1743C98.5727 50.9877 98.6727 50.7401 98.6727 50.4316C98.6727 50.1232 98.5727 49.8766 98.3727 49.6919C98.1727 49.5071 97.9121 49.4148 97.5909 49.4148ZM96.7909 54.122V52.334H97.2454V53.7364H100.633V54.122H96.7909Z" fill="white"/>
<path d="M107.601 52.4682L107.171 52.4225C107.231 51.9255 107.265 51.4628 107.271 51.0343L103.677 51.2628L103.583 50.8544L107.271 50.6773L107.277 49.7233H103.859V49.3491H107.731V50.6373C107.731 51.3114 107.688 51.9217 107.601 52.4682ZM103.137 53.4394V53.0538H105.322V51.7084H105.774V53.0538H108.562V53.4394H103.137Z" fill="white"/>
<path d="M113.415 49.7176H110.282V51.4314H113.509V51.8141H109.827V49.3377H113.415V49.7176ZM108.909 53.3794V52.9995H114.333V53.3794H108.909Z" fill="white"/>
<path d="M84.4176 64.3334V69.794H83.3287V65.5708C83.2065 65.6754 83.0334 65.7728 82.8097 65.8628C82.5859 65.9528 82.3531 66.0112 82.1111 66.038V65.1364C82.6835 64.9758 83.2234 64.7081 83.7307 64.3334H84.4176Z" fill="#50D8C3"/>
<path d="M87.5397 68.9362H89.9749V69.794H86.3884V69.3889C86.3884 69.0993 86.4404 68.8328 86.5445 68.5895C86.6512 68.3437 86.8021 68.1149 86.9972 67.9032C87.1949 67.6891 87.6086 67.3618 88.2382 66.9213C88.4828 66.751 88.6584 66.588 88.7651 66.4322C88.8718 66.2765 88.9251 66.1025 88.9251 65.9102C88.9251 65.6718 88.8497 65.4868 88.6988 65.3554C88.5505 65.2216 88.3189 65.1547 88.0041 65.1547C87.5124 65.1547 87.0401 65.3372 86.5874 65.7022V64.786C87.0505 64.4842 87.5748 64.3334 88.1602 64.3334C88.7534 64.3334 89.2113 64.4684 89.5339 64.7385C89.8591 65.0087 90.0217 65.3822 90.0217 65.8591C90.0217 66.1049 89.9788 66.3227 89.893 66.5125C89.8097 66.7023 89.6978 66.8751 89.5573 67.0308C89.4194 67.1842 89.2594 67.3277 89.0773 67.4616C88.8978 67.593 88.7131 67.7244 88.5231 67.8558C88.1719 68.0991 87.9195 68.3072 87.766 68.48C87.6151 68.6527 87.5397 68.8048 87.5397 68.9362Z" fill="#50D8C3"/>
<path d="M91.095 68.688C91.4826 68.9581 91.9301 69.0932 92.4375 69.0932C92.7705 69.0932 93.0385 69.0226 93.2414 68.8815C93.4444 68.7379 93.5458 68.5335 93.5458 68.2683C93.5458 67.711 93.0957 67.4324 92.1955 67.4324H91.6882V66.6366H92.1604C92.9669 66.6366 93.3702 66.3763 93.3702 65.8555C93.3702 65.3688 93.0606 65.1255 92.4414 65.1255C92.0537 65.1255 91.6778 65.2447 91.3135 65.4832V64.6254C91.7038 64.4307 92.1643 64.3334 92.695 64.3334C93.2232 64.3334 93.6525 64.4502 93.9829 64.6838C94.3133 64.9174 94.4785 65.241 94.4785 65.6547C94.4785 66.3531 94.0974 66.796 93.3351 66.9834V66.998C93.7331 67.0369 94.0532 67.1744 94.2951 67.4105C94.5371 67.6441 94.6581 67.9276 94.6581 68.261C94.6581 68.7695 94.4603 69.1686 94.0649 69.4582C93.672 69.7454 93.1504 69.8889 92.4999 69.8889C91.9275 69.8889 91.4592 69.7965 91.095 69.6115V68.688Z" fill="#50D8C3"/>
<path d="M98.869 64.421V67.8631H99.5559V68.6077H98.869V69.794H97.8621V68.6077H95.3605V67.8229C95.8835 67.2632 96.3687 66.6792 96.8162 66.0709C97.2637 65.4601 97.6059 64.9101 97.8426 64.421H98.869ZM96.2855 67.8631H97.8621V65.7825C97.7034 66.0477 97.4784 66.3763 97.187 66.768C96.8956 67.1574 96.5951 67.5224 96.2855 67.8631Z" fill="#50D8C3"/>
<path d="M100.387 69.6334V68.7099C100.561 68.834 100.759 68.9289 100.98 68.9946C101.204 69.0603 101.423 69.0932 101.636 69.0932C102.003 69.0932 102.292 69.0105 102.502 68.845C102.713 68.6795 102.818 68.4495 102.818 68.1551C102.818 67.8485 102.707 67.6258 102.483 67.4871C102.262 67.346 101.921 67.2754 101.46 67.2754C101.148 67.2754 100.82 67.301 100.477 67.3521L100.692 64.421H103.665V65.2678H101.589L101.492 66.5162C101.783 66.4845 101.975 66.4687 102.069 66.4687C102.629 66.4687 103.077 66.6123 103.416 66.8994C103.756 67.1866 103.927 67.5686 103.927 68.0456C103.927 68.6223 103.732 69.0737 103.341 69.3998C102.951 69.7259 102.418 69.8889 101.741 69.8889C101.174 69.8889 100.723 69.8038 100.387 69.6334Z" fill="#50D8C3"/>
<path d="M108.388 65.3518C108.099 65.2009 107.783 65.1255 107.439 65.1255C106.979 65.1255 106.612 65.3007 106.339 65.6511C106.068 65.9991 105.933 66.4456 105.933 66.9907H105.956C106.229 66.5746 106.642 66.3665 107.193 66.3665C107.677 66.3665 108.062 66.521 108.348 66.8301C108.635 67.1367 108.778 67.537 108.778 68.031C108.778 68.5737 108.596 69.019 108.231 69.367C107.867 69.7149 107.405 69.8889 106.846 69.8889C106.198 69.8889 105.703 69.6663 105.359 69.2209C105.018 68.7756 104.848 68.1697 104.848 67.4032C104.848 66.4955 105.072 65.7569 105.519 65.1875C105.967 64.6181 106.586 64.3334 107.377 64.3334C107.814 64.3334 108.151 64.3833 108.388 64.483V65.3518ZM105.972 68.031C105.972 68.3206 106.051 68.57 106.21 68.7793C106.369 68.9886 106.582 69.0932 106.85 69.0932C107.113 69.0932 107.321 68.9995 107.474 68.8121C107.628 68.6248 107.705 68.3887 107.705 68.104C107.705 67.4616 107.418 67.1404 106.846 67.1404C106.588 67.1404 106.378 67.2255 106.214 67.3959C106.052 67.5638 105.972 67.7755 105.972 68.031Z" fill="#50D8C3"/>
<path d="M137.733 68.9362H140.225V69.794H136.556V69.3889C136.556 69.0993 136.609 68.8328 136.715 68.5895C136.824 68.3437 136.979 68.1149 137.178 67.9032C137.381 67.6891 137.804 67.3618 138.448 66.9213C138.698 66.751 138.878 66.588 138.987 66.4322C139.096 66.2765 139.151 66.1025 139.151 65.9102C139.151 65.6718 139.074 65.4868 138.919 65.3554C138.768 65.2216 138.531 65.1547 138.209 65.1547C137.705 65.1547 137.222 65.3372 136.759 65.7022V64.786C137.233 64.4842 137.769 64.3334 138.368 64.3334C138.975 64.3334 139.444 64.4684 139.774 64.7385C140.106 65.0087 140.273 65.3822 140.273 65.8591C140.273 66.1049 140.229 66.3227 140.141 66.5125C140.056 66.7023 139.941 66.8751 139.798 67.0308C139.657 67.1842 139.493 67.3277 139.307 67.4616C139.123 67.593 138.934 67.7244 138.74 67.8558C138.38 68.0991 138.122 68.3072 137.965 68.48C137.811 68.6527 137.733 68.8048 137.733 68.9362Z" fill="#F35A1E"/>
<path d="M141.183 66.4578C141.183 66.2947 141.251 66.1621 141.387 66.0599C141.522 65.9553 141.681 65.9029 141.862 65.9029C142.046 65.9029 142.203 65.9553 142.333 66.0599C142.463 66.1645 142.529 66.2972 142.529 66.4578C142.529 66.6257 142.463 66.762 142.333 66.8666C142.203 66.9688 142.04 67.0199 141.846 67.0199C141.668 67.0199 141.512 66.9676 141.379 66.8629C141.248 66.7559 141.183 66.6208 141.183 66.4578ZM141.183 69.3268C141.183 69.1638 141.25 69.0299 141.383 68.9253C141.518 68.8206 141.678 68.7683 141.862 68.7683C142.046 68.7683 142.203 68.8206 142.333 68.9253C142.463 69.0299 142.529 69.1638 142.529 69.3268C142.529 69.4923 142.463 69.6273 142.333 69.732C142.203 69.8342 142.04 69.8853 141.846 69.8853C141.662 69.8853 141.505 69.8317 141.375 69.7247C141.247 69.6176 141.183 69.485 141.183 69.3268Z" fill="#F35A1E"/>
<path d="M143.531 69.6334V68.7099C143.709 68.834 143.911 68.9289 144.138 68.9946C144.367 69.0603 144.59 69.0932 144.808 69.0932C145.184 69.0932 145.479 69.0105 145.695 68.845C145.91 68.6795 146.018 68.4495 146.018 68.1551C146.018 67.8485 145.904 67.6258 145.675 67.4871C145.449 67.346 145.1 67.2754 144.629 67.2754C144.309 67.2754 143.974 67.301 143.623 67.3521L143.842 64.421H146.885V65.2678H144.761L144.661 66.5162C144.959 66.4845 145.156 66.4687 145.252 66.4687C145.824 66.4687 146.283 66.6123 146.629 66.8994C146.978 67.1866 147.152 67.5686 147.152 68.0456C147.152 68.6223 146.953 69.0737 146.553 69.3998C146.154 69.7259 145.608 69.8889 144.916 69.8889C144.336 69.8889 143.874 69.8038 143.531 69.6334Z" fill="#F35A1E"/>
<path d="M147.979 67.1988C147.979 66.2643 148.161 65.5537 148.526 65.0671C148.893 64.5779 149.425 64.3334 150.123 64.3334C151.448 64.3334 152.111 65.2471 152.111 67.0747C152.111 67.975 151.93 68.6698 151.568 69.1589C151.209 69.6456 150.687 69.8889 150.003 69.8889C148.653 69.8889 147.979 68.9922 147.979 67.1988ZM149.109 67.1732C149.109 68.4532 149.423 69.0932 150.051 69.0932C150.666 69.0932 150.973 68.4362 150.973 67.1221C150.973 65.791 150.672 65.1255 150.071 65.1255C149.429 65.1255 149.109 65.808 149.109 67.1732Z" fill="#F35A1E"/>
<rect x="31" y="81" width="26" height="12" rx="2" fill="#23A685"/>
<path d="M29 14.2402V14.2241C29 13.0234 29.9187 12 31.2161 12C31.9655 12 32.4248 12.2095 32.868 12.5802L32.3926 13.1524C32.0622 12.8703 31.7399 12.693 31.1919 12.693C30.4022 12.693 29.7978 13.386 29.7978 14.208V14.2241C29.7978 15.1105 30.378 15.7552 31.2564 15.7552C31.6593 15.7552 32.03 15.6263 32.2959 15.4329V14.627H31.1919V13.9743H33.0212V15.7794C32.5941 16.142 31.9897 16.4482 31.2322 16.4482C29.8864 16.4482 29 15.4893 29 14.2402Z" fill="#EB6067"/>
<path d="M34.0446 12.0806H34.8021V16.3757H34.0446V12.0806Z" fill="#EB6067"/>
<path d="M35.9464 12.0806H39.1456V12.7655H36.7039V13.934H38.8716V14.619H36.7039V16.3676H35.9464V12.0806Z" fill="#EB6067"/>
<path d="M41.0312 12.7816H39.6694V12.0806H43.1587V12.7816H41.7968V16.3757H41.0393V12.7816H41.0312Z" fill="#EB6067"/>
<path d="M43.5696 15.7472L44.0209 15.2072C44.4319 15.5618 44.8509 15.7633 45.3747 15.7633C45.8421 15.7633 46.1322 15.5457 46.1322 15.2234V15.2072C46.1322 14.901 45.963 14.7318 45.1652 14.5545C44.2546 14.3369 43.7389 14.063 43.7389 13.2732V13.2571C43.7389 12.5238 44.3513 12.0081 45.2055 12.0081C45.834 12.0081 46.3256 12.2015 46.7608 12.548L46.3578 13.1201C45.971 12.83 45.5842 12.6769 45.1894 12.6769C44.7462 12.6769 44.4883 12.9025 44.4883 13.1846V13.2088C44.4883 13.5392 44.6817 13.6842 45.5117 13.8857C46.4223 14.1032 46.8897 14.4336 46.8897 15.1428V15.1589C46.8897 15.9647 46.2611 16.4402 45.3586 16.4402C44.7059 16.4321 44.0854 16.2065 43.5696 15.7472Z" fill="#EB6067"/>
<path d="M47.7923 12.0806H48.5497V13.8695H50.5966V12.0806H51.3541V16.3757H50.5966V14.5626H48.5497V16.3757H47.7923V12.0806Z" fill="#EB6067"/>
<path d="M52.2647 14.2402V14.2241C52.2647 13.0154 53.1995 12 54.513 12C55.8346 12 56.7532 12.9992 56.7532 14.208V14.2241C56.7532 15.4329 55.8184 16.4482 54.5049 16.4482C53.1833 16.4482 52.2647 15.449 52.2647 14.2402ZM55.9635 14.2402V14.2241C55.9635 13.386 55.3591 12.693 54.5049 12.693C53.6507 12.693 53.0544 13.378 53.0544 14.208V14.2241C53.0544 15.0622 53.6588 15.7472 54.513 15.7472C55.3672 15.7472 55.9635 15.0703 55.9635 14.2402Z" fill="#EB6067"/>
<path d="M57.6719 12.0806H59.3641C60.3714 12.0806 61 12.6527 61 13.515V13.5311C61 14.4981 60.2264 14.9977 59.2836 14.9977H58.4294V16.3757H57.6719V12.0806ZM59.2997 14.3127C59.8718 14.3127 60.2264 13.9904 60.2264 13.5472V13.5311C60.2264 13.0315 59.8638 12.7655 59.2997 12.7655H58.4213V14.3127H59.2997Z" fill="#EB6067"/>
<path d="M172 13H158C157.448 13 157 13.4477 157 14V16C157 16.5523 157.448 17 158 17H172C172.552 17 173 16.5523 173 16V14C173 13.4477 172.552 13 172 13Z" fill="#EB6067"/>
<path d="M152 13H138C137.448 13 137 13.4477 137 14V16C137 16.5523 137.448 17 138 17H152C152.552 17 153 16.5523 153 16V14C153 13.4477 152.552 13 152 13Z" fill="#E8E9EA"/>
</svg>
