<svg width="164" height="185" viewBox="0 0 164 185" fill="none" xmlns="http://www.w3.org/2000/svg">
<mask id="mask0" mask-type="alpha" maskUnits="userSpaceOnUse" x="0" y="0" width="164" height="185">
<path d="M0 20C0 8.9543 8.95431 0 20 0H144C155.046 0 164 8.95431 164 20V185H0V20Z" fill="#23A685"/>
</mask>
<g mask="url(#mask0)">
<path d="M0 19.7316C0 8.83413 8.88833 0 19.8526 0H144.147C155.112 0 164 8.83413 164 19.7316V306.268C164 317.166 155.112 326 144.147 326H19.8526C8.88832 326 0 317.166 0 306.268V19.7316Z" fill="#323232"/>
<path d="M7 24.192C7 14.6971 14.7192 7 24.2414 7H139.759C149.281 7 157 14.6971 157 24.192V289.808C157 299.303 149.281 307 139.759 307H24.2414C14.7192 307 7 299.303 7 289.808V24.192Z" fill="white"/>
<rect x="17.6" y="69.6" width="84.8" height="22.8" rx="3.4" stroke="#E0E6EB" stroke-width="1.2"/>
<path d="M28.0935 77V84.7169H26.6331V78.7487C26.4691 78.8966 26.237 79.0341 25.9369 79.1614C25.6368 79.2886 25.3245 79.3711 25 79.409V78.1348C25.7677 77.9079 26.4918 77.5296 27.1722 77H28.0935Z" fill="#323232"/>
<path d="M32.2809 83.5047H35.5471V84.7169H30.7368V84.1444C30.7368 83.7351 30.8066 83.3586 30.9462 83.0147C31.0892 82.6673 31.2916 82.3441 31.5533 82.0449C31.8185 81.7423 32.3734 81.2797 33.2178 80.6573C33.5459 80.4166 33.7814 80.1862 33.9245 79.9661C34.0675 79.746 34.1391 79.5001 34.1391 79.2284C34.1391 78.8914 34.0379 78.6301 33.8355 78.4443C33.6366 78.2552 33.326 78.1606 32.9038 78.1606C32.2443 78.1606 31.6109 78.4186 31.0037 78.9344V77.6396C31.6249 77.2132 32.328 77 33.1132 77C33.9088 77 34.5229 77.1909 34.9556 77.5726C35.3918 77.9543 35.6099 78.4822 35.6099 79.1562C35.6099 79.5035 35.5523 79.8113 35.4372 80.0796C35.3255 80.3478 35.1755 80.592 34.987 80.812C34.8021 81.0287 34.5875 81.2316 34.3432 81.4207C34.1024 81.6064 33.8547 81.7921 33.6 81.9778C33.1289 82.3217 32.7904 82.6158 32.5845 82.8599C32.3821 83.1041 32.2809 83.319 32.2809 83.5047Z" fill="#323232"/>
<path d="M37.0494 83.154C37.5693 83.5357 38.1695 83.7265 38.85 83.7265C39.2966 83.7265 39.656 83.6268 39.9282 83.4273C40.2004 83.2245 40.3365 82.9356 40.3365 82.5607C40.3365 81.7732 39.7328 81.3795 38.5254 81.3795H37.845V80.2549H38.4783C39.5601 80.2549 40.1009 79.887 40.1009 79.151C40.1009 78.4633 39.6857 78.1194 38.8552 78.1194C38.3352 78.1194 37.831 78.2879 37.3425 78.6249V77.4127C37.8659 77.1376 38.4836 77 39.1954 77C39.9038 77 40.4796 77.1651 40.9227 77.4952C41.3659 77.8253 41.5875 78.2827 41.5875 78.8673C41.5875 79.8543 41.0763 80.4802 40.0538 80.745V80.7656C40.5877 80.8206 41.017 81.0149 41.3415 81.3485C41.666 81.6787 41.8283 82.0793 41.8283 82.5504C41.8283 83.2692 41.5631 83.8331 41.0327 84.2424C40.5057 84.6482 39.8061 84.8511 38.9337 84.8511C38.166 84.8511 37.5379 84.7204 37.0494 84.459V83.154Z" fill="#323232"/>
<path d="M47.4761 77.1238V81.9882H48.3973V83.0405H47.4761V84.7169H46.1256V83.0405H42.7704V81.9314C43.4718 81.1405 44.1226 80.3151 44.7228 79.4554C45.323 78.5922 45.7819 77.815 46.0995 77.1238H47.4761ZM44.011 81.9882H46.1256V79.0479C45.9128 79.4227 45.6109 79.887 45.2201 80.4406C44.8293 80.9909 44.4262 81.5067 44.011 81.9882Z" fill="#323232"/>
<path d="M49.5122 84.49V83.1849C49.746 83.3603 50.0112 83.4944 50.3078 83.5873C50.6079 83.6801 50.9011 83.7265 51.1872 83.7265C51.6792 83.7265 52.0666 83.6096 52.3492 83.3758C52.6319 83.1419 52.7732 82.8169 52.7732 82.4008C52.7732 81.9675 52.6231 81.6529 52.323 81.4568C52.0264 81.2574 51.5693 81.1577 50.9516 81.1577C50.5329 81.1577 50.0932 81.1938 49.6326 81.266L49.9205 77.1238H53.909V78.3205H51.1244L50.9935 80.0847C51.3844 80.04 51.6426 80.0177 51.7682 80.0177C52.5184 80.0177 53.1204 80.2206 53.574 80.6263C54.0312 81.0321 54.2597 81.572 54.2597 82.2461C54.2597 83.0611 53.998 83.699 53.4746 84.1598C52.9512 84.6207 52.2358 84.8511 51.3285 84.8511C50.5678 84.8511 49.9624 84.7307 49.5122 84.49Z" fill="#323232"/>
<path d="M60.2425 78.4392C59.8552 78.226 59.4312 78.1194 58.9706 78.1194C58.3529 78.1194 57.8609 78.367 57.4945 78.8622C57.1316 79.3539 56.9502 79.985 56.9502 80.7553H56.9816C57.348 80.1672 57.9011 79.8732 58.6408 79.8732C59.2899 79.8732 59.8063 80.0916 60.1902 80.5283C60.574 80.9616 60.766 81.5273 60.766 82.2254C60.766 82.9923 60.5217 83.6216 60.0332 84.1134C59.5446 84.6052 58.9252 84.8511 58.175 84.8511C57.3061 84.8511 56.6413 84.5364 56.1807 83.9071C55.7236 83.2778 55.495 82.4215 55.495 81.3382C55.495 80.0555 55.7951 79.0118 56.3953 78.2071C56.9955 77.4024 57.826 77 58.8868 77C59.4731 77 59.925 77.0705 60.2425 77.2115V78.4392ZM57.0025 82.2254C57.0025 82.6347 57.1089 82.9872 57.3218 83.2829C57.5347 83.5787 57.8208 83.7265 58.1802 83.7265C58.5327 83.7265 58.8118 83.5941 59.0177 83.3293C59.2236 83.0645 59.3265 82.731 59.3265 82.3286C59.3265 81.4207 58.9427 80.9668 58.175 80.9668C57.8295 80.9668 57.5469 81.0872 57.327 81.3279C57.1107 81.5652 57.0025 81.8644 57.0025 82.2254Z" fill="#323232"/>
<rect x="17.6" y="129.6" width="84.8" height="22.8" rx="3.4" stroke="#E0E6EB" stroke-width="1.2"/>
<rect x="111" y="69" width="36" height="24" rx="4" fill="#23A685"/>
<rect x="111" y="129" width="36" height="24" rx="4" fill="#23A685"/>
<path d="M125.82 77.5H123.77V76.66H122.73V77.5H120.66V78.25H125.82V77.5ZM122.06 79.88C122.06 79.47 122.52 79.22 123.24 79.22C123.96 79.22 124.42 79.47 124.42 79.88C124.42 80.28 123.96 80.52 123.24 80.52C122.52 80.52 122.06 80.28 122.06 79.88ZM126.07 81.54C125.34 81.65 124.55 81.7 123.77 81.74V81.18C124.77 81.06 125.39 80.59 125.39 79.88C125.39 79.04 124.54 78.53 123.24 78.53C121.94 78.53 121.09 79.04 121.09 79.88C121.09 80.59 121.71 81.07 122.73 81.18V81.78C121.9 81.8 121.11 81.8 120.43 81.8L120.55 82.62C122.13 82.61 124.24 82.6 126.15 82.26L126.07 81.54ZM121.55 84.07H126.55V85.78H127.58V83.25H121.55V84.07ZM128.82 79.41H127.58V76.75H126.55V82.85H127.58V80.26H128.82V79.41ZM136.949 76.74H135.919V83.3H136.949V76.74ZM130.689 79.6C130.689 78.77 131.279 78.23 132.079 78.23C132.869 78.23 133.469 78.77 133.469 79.6C133.469 80.42 132.869 80.97 132.079 80.97C131.279 80.97 130.689 80.42 130.689 79.6ZM134.469 79.6C134.469 78.28 133.439 77.34 132.079 77.34C130.719 77.34 129.679 78.28 129.679 79.6C129.679 80.91 130.719 81.86 132.079 81.86C133.439 81.86 134.469 80.91 134.469 79.6ZM132.089 84.76V82.64H131.049V85.6H137.209V84.76H132.089Z" fill="white"/>
<path d="M125.82 137.5H123.77V136.66H122.73V137.5H120.66V138.25H125.82V137.5ZM122.06 139.88C122.06 139.47 122.52 139.22 123.24 139.22C123.96 139.22 124.42 139.47 124.42 139.88C124.42 140.28 123.96 140.52 123.24 140.52C122.52 140.52 122.06 140.28 122.06 139.88ZM126.07 141.54C125.34 141.65 124.55 141.7 123.77 141.74V141.18C124.77 141.06 125.39 140.59 125.39 139.88C125.39 139.04 124.54 138.53 123.24 138.53C121.94 138.53 121.09 139.04 121.09 139.88C121.09 140.59 121.71 141.07 122.73 141.18V141.78C121.9 141.8 121.11 141.8 120.43 141.8L120.55 142.62C122.13 142.61 124.24 142.6 126.15 142.26L126.07 141.54ZM121.55 144.07H126.55V145.78H127.58V143.25H121.55V144.07ZM128.82 139.41H127.58V136.75H126.55V142.85H127.58V140.26H128.82V139.41ZM136.949 136.74H135.919V143.3H136.949V136.74ZM130.689 139.6C130.689 138.77 131.279 138.23 132.079 138.23C132.869 138.23 133.469 138.77 133.469 139.6C133.469 140.42 132.869 140.97 132.079 140.97C131.279 140.97 130.689 140.42 130.689 139.6ZM134.469 139.6C134.469 138.28 133.439 137.34 132.079 137.34C130.719 137.34 129.679 138.28 129.679 139.6C129.679 140.91 130.719 141.86 132.079 141.86C133.439 141.86 134.469 140.91 134.469 139.6ZM132.089 144.76V142.64H131.049V145.6H137.209V144.76H132.089Z" fill="white"/>
<path d="M23.1483 27.2726L20.186 24L23.1483 20.7274L23.2698 20.5932L23.1483 20.459L22.6113 19.8658L22.4631 19.702L22.3148 19.8658L18.9631 23.5686C18.7456 23.8088 18.7456 24.1912 18.9631 24.4314L22.3148 28.1342L22.4631 28.298L22.6113 28.1342L23.1483 27.541L23.2698 27.4068L23.1483 27.2726Z" fill="#3F3356" stroke="#3F3356" stroke-width="0.4"/>
<path d="M36.0131 108.627V109.99H35.154V112.047H36.0131V113.409H33.897V115.176H37.451V116.529H28.9412V115.176H32.4952V113.4H30.361V112.038H31.202V109.99H30.361V108.627H36.0131ZM32.5947 112.038H33.7523V109.99H32.5947V112.038Z" fill="#EB6067"/>
<path fill-rule="evenodd" clip-rule="evenodd" d="M30.3565 108.627H36.0177V110.012H35.1613V112.035H36.0177V113.419H33.9082V115.154H37.451V116.529H28.9412V115.154H32.4839V113.411H30.3565V112.027H31.1948V110.012H30.3565V108.627ZM30.3835 108.654V109.985H31.2219V112.053H30.3835V113.384H32.511V115.18H28.9682V116.503H37.424V115.18H33.8812V113.393H35.9906V112.062H35.1342V109.985H35.9906V108.654H30.3835ZM32.5831 109.985H33.764V112.053H32.5831V109.985ZM32.6101 110.012V112.027H33.737V110.012H32.6101Z" fill="white"/>
<path d="M41.8859 108.219V110.614C41.8859 110.75 41.8859 110.769 41.9042 110.787L41.8859 110.769L44.2481 113.518L43.1952 114.343L41.1535 111.975L39.1117 114.343L38.0588 113.518L40.421 110.769L40.4027 110.787C40.421 110.769 40.421 110.75 40.421 110.614V108.219H41.8859ZM47.0132 107.412V110.052H49V111.313H47.0132V112.311H49V113.572H47.0132V114.706H45.594V107.412H47.0132Z" fill="#EB6067"/>
<path fill-rule="evenodd" clip-rule="evenodd" d="M45.5657 107.412H47.0232V110.036H49V111.334H47.0232V112.281H49V113.579H47.0232V114.706H45.5657V107.412ZM45.6113 107.457V114.661H46.9777V113.534H48.9544V112.326H46.9777V111.289H48.9544V110.081H46.9777V107.457H45.6113ZM40.4189 108.214H41.922V110.617C41.922 110.685 41.922 110.722 41.9241 110.745C41.9252 110.756 41.9266 110.761 41.928 110.765C41.9292 110.768 41.9306 110.77 41.9335 110.772L41.9321 110.774L44.2821 113.505L43.1988 114.354L41.1704 112.004L39.1421 114.354L38.0588 113.505L40.4088 110.774L40.4074 110.772C40.4074 110.772 40.4074 110.772 40.4074 110.772C40.4103 110.77 40.4117 110.768 40.4129 110.765C40.4142 110.761 40.4157 110.756 40.4167 110.745C40.4189 110.722 40.4189 110.685 40.4189 110.617V108.214ZM40.4551 110.781C40.4551 110.781 40.4551 110.781 40.4551 110.781C40.4589 110.772 40.4609 110.762 40.4621 110.749C40.4645 110.724 40.4645 110.685 40.4645 110.619V108.259H41.8764V110.619C41.8764 110.685 41.8764 110.724 41.8788 110.749C41.88 110.762 41.882 110.772 41.8857 110.781C41.8857 110.781 41.8857 110.781 41.8857 110.781L41.8818 110.785L44.2168 113.499L43.2049 114.292L41.1704 111.935L39.136 114.292L38.1241 113.499L40.459 110.785L40.4551 110.781Z" fill="white"/>
<path fill-rule="evenodd" clip-rule="evenodd" d="M36.693 118.841C36.7478 118.841 36.8117 118.841 36.8757 118.841C36.9396 118.841 37.0126 118.841 37.0857 118.851V118.462C37.0126 118.471 36.9396 118.471 36.8757 118.471H34.9397C34.9488 118.534 34.9488 118.588 34.958 118.652C34.958 118.715 34.958 118.769 34.958 118.823V120.307H36.7387C36.7935 120.307 36.8574 120.307 36.9213 120.307C36.9853 120.307 37.0583 120.307 37.1314 120.316V119.927C37.0583 119.936 36.9853 119.936 36.9213 119.936H36.7387H35.3872V119.574H37.0674V119.203H35.3872V118.841H36.693V118.841ZM36.9213 121.049H35.1041C35.0128 121.049 34.9306 121.049 34.8393 121.049C34.7571 121.049 34.6657 121.058 34.5744 121.058V120.66C34.6657 120.669 34.7479 120.669 34.8393 120.669C34.9214 120.669 35.0128 120.669 35.1041 120.669H36.9213C37.0126 120.669 37.0948 120.669 37.1862 120.669C37.2683 120.669 37.3597 120.66 37.451 120.66V121.058C37.3597 121.049 37.2775 121.049 37.1862 121.049C37.104 121.049 37.0126 121.049 36.9213 121.049ZM34.0539 121.049H32.2367C32.1453 121.049 32.0632 121.049 31.9718 121.049C31.8805 121.049 31.7983 121.058 31.707 121.058V120.66C31.7983 120.669 31.8805 120.669 31.9718 120.669C32.054 120.669 32.1453 120.669 32.2367 120.669H34.0539C34.1452 120.669 34.2274 120.669 34.3187 120.669C34.4009 120.669 34.4922 120.66 34.5836 120.66V121.058C34.4922 121.049 34.4101 121.049 34.3187 121.049C34.2365 121.049 34.1452 121.049 34.0539 121.049ZM32.7663 118.851L32.7754 119.782H33.506L33.5151 118.851H32.7663ZM32.3371 118.851C32.2732 118.851 32.2184 118.851 32.1727 118.851C32.1271 118.851 32.0723 118.86 32.0084 118.86V118.462C32.0723 118.471 32.1179 118.471 32.1727 118.471C32.2184 118.471 32.2732 118.471 32.3371 118.471H33.9535C34.0174 118.471 34.063 118.471 34.1178 118.471C34.1635 118.471 34.2183 118.462 34.2822 118.462V118.86C34.2183 118.851 34.1635 118.851 34.1087 118.851C34.0539 118.851 33.9991 118.851 33.9443 118.851L33.9352 119.782H34.0265C34.0904 119.782 34.1361 119.782 34.1909 119.782C34.2365 119.782 34.2913 119.773 34.3553 119.773V120.171C34.2913 120.162 34.2365 120.162 34.1818 120.162C34.127 120.162 34.0722 120.162 34.0082 120.162H32.2641C32.2001 120.162 32.1453 120.162 32.0997 120.162C32.054 120.162 31.9992 120.171 31.9353 120.171V119.773C31.9992 119.782 32.0449 119.782 32.0997 119.782C32.1453 119.782 32.2001 119.782 32.2641 119.782H32.3462L32.3371 118.851ZM31.5152 120.94V118.805C31.5152 118.733 31.5152 118.652 31.5152 118.579C31.5152 118.507 31.5244 118.425 31.5244 118.353H31.0678C31.0769 118.434 31.0769 118.507 31.086 118.579C31.086 118.652 31.086 118.733 31.086 118.805V120.94C31.086 121.021 31.086 121.094 31.086 121.166C31.086 121.238 31.0769 121.32 31.0678 121.392H31.5244C31.5152 121.32 31.5152 121.238 31.5152 121.166C31.5152 121.094 31.5152 121.021 31.5152 120.94ZM29.3966 118.914C29.3418 118.914 29.287 118.914 29.2414 118.914C29.1957 118.914 29.1409 118.923 29.0861 118.923V118.525C29.1409 118.534 29.1957 118.534 29.2414 118.534C29.287 118.534 29.3418 118.534 29.3966 118.534H30.5838C30.5838 118.751 30.5655 118.968 30.5199 119.176C30.4742 119.384 30.4011 119.583 30.3098 119.782C30.2002 119.999 30.0633 120.198 29.8898 120.388C29.7162 120.578 29.5153 120.732 29.287 120.868C29.2688 120.85 29.2414 120.831 29.214 120.804C29.1866 120.777 29.1501 120.75 29.1227 120.723C29.0861 120.696 29.0587 120.669 29.0222 120.651C28.9857 120.623 28.9583 120.605 28.9309 120.587C29.1318 120.488 29.3053 120.37 29.4606 120.225C29.6158 120.09 29.7436 119.945 29.8441 119.782C29.9263 119.647 29.9902 119.511 30.0359 119.366C30.0815 119.221 30.1089 119.068 30.1089 118.914H29.3966V118.914ZM27.9812 120.723L27.3328 120.035C27.2872 120.063 27.2415 120.09 27.205 120.126C27.1684 120.162 27.141 120.189 27.1228 120.225C27.0954 120.262 27.0863 120.307 27.0771 120.343C27.068 120.388 27.0589 120.433 27.0589 120.479C27.0589 120.542 27.068 120.596 27.0863 120.651C27.1045 120.705 27.1319 120.75 27.1776 120.777C27.2141 120.813 27.2689 120.85 27.3237 120.868C27.3785 120.886 27.4515 120.895 27.5246 120.895C27.625 120.895 27.7072 120.877 27.7894 120.85C27.8716 120.831 27.9355 120.786 27.9812 120.723ZM27.7711 119.185C27.7711 119.14 27.762 119.104 27.7529 119.068C27.7346 119.031 27.7164 118.995 27.6981 118.968C27.6707 118.941 27.6433 118.923 27.6068 118.905C27.5702 118.887 27.5337 118.878 27.4881 118.878C27.4424 118.878 27.4059 118.887 27.3693 118.896C27.3328 118.914 27.3054 118.932 27.278 118.959C27.2506 118.986 27.2324 119.022 27.2232 119.059C27.2141 119.095 27.205 119.14 27.205 119.185C27.205 119.212 27.2141 119.239 27.2232 119.276C27.2324 119.312 27.2506 119.348 27.2689 119.375C27.2872 119.411 27.3146 119.457 27.3511 119.493C27.3876 119.529 27.4241 119.574 27.4698 119.619C27.5246 119.592 27.5611 119.565 27.5976 119.529C27.6342 119.502 27.6707 119.466 27.6981 119.429C27.7255 119.393 27.7346 119.357 27.7529 119.321C27.7712 119.276 27.7711 119.23 27.7711 119.185ZM28.3921 121.175C28.3647 121.139 28.3373 121.103 28.3099 121.067C28.2825 121.03 28.246 120.994 28.2186 120.958C28.173 121.003 28.1364 121.049 28.0816 121.076C28.036 121.112 27.9812 121.139 27.9264 121.157C27.8625 121.184 27.8077 121.193 27.7346 121.202C27.6616 121.211 27.5976 121.22 27.5246 121.22C27.3785 121.22 27.2506 121.202 27.1502 121.166C27.0406 121.13 26.9584 121.085 26.8854 121.012C26.8123 120.949 26.7575 120.877 26.721 120.786C26.6845 120.696 26.6662 120.596 26.6662 120.488C26.6662 120.415 26.6753 120.352 26.6936 120.289C26.7118 120.225 26.7392 120.162 26.7849 120.099C26.8214 120.044 26.8762 119.99 26.931 119.945C26.9858 119.891 27.0589 119.845 27.141 119.809C27.0771 119.755 27.0315 119.701 26.9949 119.656C26.9584 119.61 26.931 119.565 26.9036 119.52C26.8762 119.475 26.858 119.429 26.8397 119.375C26.8214 119.321 26.8214 119.267 26.8214 119.203C26.8214 119.122 26.8397 119.04 26.8671 118.968C26.9036 118.887 26.9493 118.823 27.0041 118.76C27.0589 118.697 27.1319 118.652 27.2141 118.615C27.2963 118.579 27.3876 118.561 27.4881 118.561C27.5976 118.561 27.689 118.579 27.7711 118.606C27.8533 118.633 27.9264 118.679 27.9903 118.733C28.0542 118.787 28.0999 118.851 28.1273 118.932C28.1638 119.004 28.173 119.086 28.173 119.176C28.173 119.239 28.1638 119.303 28.1456 119.366C28.1273 119.429 28.0908 119.484 28.0542 119.529C28.0086 119.583 27.9629 119.637 27.899 119.683C27.8351 119.728 27.762 119.773 27.6798 119.818L28.173 120.352C28.1912 120.298 28.2095 120.234 28.2186 120.153C28.2277 120.072 28.2369 119.972 28.2369 119.864H28.5565C28.5565 119.945 28.5565 120.017 28.5474 120.09C28.5382 120.162 28.5382 120.225 28.5291 120.289C28.52 120.352 28.5017 120.415 28.4926 120.47C28.4743 120.524 28.4652 120.578 28.4378 120.623L28.5656 120.759C28.6022 120.804 28.6387 120.84 28.6661 120.868C28.6935 120.904 28.73 120.931 28.7574 120.967C28.7848 120.994 28.8122 121.03 28.8487 121.058C28.8852 121.094 28.9218 121.121 28.9583 121.157H28.3921V121.175ZM25.8534 118.841C25.9082 118.841 25.9722 118.841 26.0361 118.841C26.1 118.841 26.1731 118.841 26.2461 118.851V118.462C26.1731 118.471 26.1 118.471 26.0361 118.471H24.091C24.1001 118.534 24.1001 118.588 24.1093 118.652C24.1093 118.715 24.1093 118.769 24.1093 118.823V120.307H25.89C25.9448 120.307 26.0087 120.307 26.0726 120.307C26.1365 120.307 26.2096 120.307 26.2826 120.316V119.927C26.2096 119.936 26.1365 119.936 26.0726 119.936H25.89H24.5385V119.574H26.2187V119.203H24.5476V118.841H25.8534V118.841ZM26.0817 121.049C26.1731 121.049 26.2553 121.049 26.3466 121.049C26.4288 121.049 26.5201 121.058 26.6114 121.058V120.66C26.5201 120.669 26.4379 120.669 26.3466 120.669C26.2644 120.669 26.1731 120.669 26.0817 120.669H24.2554C24.164 120.669 24.0819 120.669 23.9905 120.669C23.9083 120.669 23.817 120.66 23.7257 120.66V121.058C23.817 121.049 23.8992 121.049 23.9905 121.049C24.0727 121.049 24.164 121.049 24.2554 121.049H26.0817ZM21.3879 121.347V120.587C21.3879 120.542 21.3879 120.506 21.3879 120.461C21.3879 120.415 21.3788 120.37 21.3788 120.334H21.8354C21.8263 120.379 21.8263 120.415 21.8263 120.461C21.8263 120.506 21.8263 120.542 21.8263 120.587V120.976H23.0773C23.1687 120.976 23.2509 120.976 23.333 120.976C23.4152 120.976 23.4974 120.967 23.5887 120.967V121.365C23.4974 121.356 23.4152 121.356 23.333 121.356C23.2509 121.356 23.1687 121.356 23.0773 121.356H21.3879V121.347ZM23.5157 120.198C23.5157 120.262 23.5157 120.316 23.5157 120.37C23.5157 120.424 23.5248 120.488 23.5248 120.542H23.0682C23.0773 120.488 23.0773 120.424 23.0865 120.37C23.0865 120.316 23.0865 120.253 23.0865 120.198V118.697C23.0865 118.642 23.0865 118.579 23.0865 118.525C23.0865 118.471 23.0773 118.407 23.0682 118.353H23.5248C23.5157 118.416 23.5157 118.471 23.5157 118.525C23.5157 118.579 23.5157 118.642 23.5157 118.697V120.198ZM21.7989 119.647C21.9267 119.647 22.018 119.601 22.0911 119.52C22.1642 119.429 22.2007 119.33 22.2007 119.212C22.2007 119.086 22.1642 118.986 22.0911 118.896C22.018 118.805 21.9176 118.76 21.7989 118.76C21.671 118.76 21.5706 118.805 21.4975 118.896C21.4245 118.986 21.3879 119.086 21.3879 119.212C21.3879 119.33 21.4245 119.438 21.4975 119.52C21.5797 119.601 21.671 119.647 21.7989 119.647ZM21.7989 120.008C21.671 120.008 21.5614 119.99 21.461 119.945C21.3605 119.9 21.2692 119.845 21.1962 119.773C21.1231 119.701 21.0683 119.619 21.0227 119.52C20.977 119.42 20.9587 119.312 20.9587 119.203C20.9587 119.095 20.977 118.986 21.0227 118.887C21.0683 118.787 21.1231 118.697 21.1962 118.624C21.2692 118.552 21.3605 118.489 21.461 118.443C21.5614 118.398 21.6802 118.38 21.7989 118.38C21.9176 118.38 22.0363 118.398 22.1368 118.443C22.2372 118.489 22.3285 118.543 22.4016 118.624C22.4746 118.697 22.5386 118.787 22.5751 118.887C22.6207 118.986 22.639 119.095 22.639 119.203C22.639 119.312 22.6207 119.42 22.5751 119.52C22.5294 119.619 22.4746 119.701 22.4016 119.773C22.3285 119.845 22.2372 119.909 22.1368 119.945C22.0363 119.99 21.9267 120.008 21.7989 120.008ZM19.0593 118.851L19.0684 119.755H19.799L19.8081 118.851H19.0593V118.851ZM19.6529 120.723H20.3469C20.4382 120.723 20.5204 120.723 20.6117 120.723C20.6939 120.723 20.7852 120.714 20.8766 120.714V121.112C20.7852 121.103 20.703 121.103 20.6117 121.103C20.5295 121.103 20.4382 121.103 20.3469 121.103H18.5297C18.4383 121.103 18.3561 121.103 18.2648 121.103C18.1826 121.103 18.0913 121.112 18 121.112V120.714C18.0913 120.723 18.1735 120.723 18.2648 120.723C18.347 120.723 18.4383 120.723 18.5297 120.723H19.2145V120.126H18.557C18.4931 120.126 18.4383 120.126 18.3927 120.126C18.347 120.126 18.2922 120.135 18.2283 120.135V119.737C18.2922 119.746 18.3379 119.746 18.3927 119.746C18.4383 119.746 18.4931 119.746 18.557 119.746H18.6392L18.6301 118.841C18.5662 118.841 18.5114 118.841 18.4657 118.841C18.4201 118.841 18.3653 118.851 18.3014 118.851V118.462C18.3653 118.471 18.4109 118.471 18.4657 118.471C18.5114 118.471 18.5662 118.471 18.6301 118.471H20.2465C20.3104 118.471 20.356 118.471 20.4108 118.471C20.4565 118.471 20.5113 118.462 20.5752 118.462V118.86C20.5113 118.851 20.4565 118.851 20.4017 118.851C20.3469 118.851 20.2921 118.851 20.2373 118.851L20.2282 119.755H20.3104C20.3743 119.755 20.42 119.755 20.4747 119.755C20.5204 119.755 20.5752 119.746 20.6391 119.746V120.144C20.5752 120.135 20.5204 120.135 20.4656 120.135C20.4108 120.135 20.356 120.135 20.2921 120.135H19.6529V120.723V120.723Z" fill="#EB6067"/>
<path fill-rule="evenodd" clip-rule="evenodd" d="M42.9241 120.452H44.3742L44.8252 118.522H43.3927L42.9241 120.452ZM46.8589 115.818C46.9031 115.913 46.9031 116.057 46.8589 116.238C46.8147 116.439 46.7793 116.63 46.7351 116.84C46.6909 117.05 46.6467 117.242 46.6113 117.442C46.6821 117.442 46.7705 117.442 46.8766 117.452C46.9827 117.452 47.0888 117.471 47.1949 117.49C47.301 117.509 47.3983 117.538 47.4956 117.566C47.584 117.595 47.6547 117.633 47.6901 117.681C47.7255 117.729 47.752 117.786 47.7697 117.872C47.7873 117.958 47.7873 118.044 47.7785 118.13C47.7608 118.216 47.7255 118.293 47.6724 118.369C47.6193 118.436 47.5309 118.484 47.4248 118.503C47.3894 118.522 47.2833 118.532 47.0977 118.541C46.912 118.551 46.6644 118.551 46.3637 118.551L46.0012 120.481C46.0985 120.481 46.2134 120.481 46.3549 120.471C46.4964 120.462 46.6555 120.471 46.8412 120.481C47.0092 120.491 47.133 120.538 47.2038 120.643C47.2833 120.739 47.3099 120.863 47.301 121.016C47.301 121.179 47.2391 121.293 47.1242 121.37C47.0004 121.446 46.8589 121.494 46.6909 121.523C46.5229 121.551 46.3461 121.561 46.1604 121.561H45.674C45.6564 121.561 45.6387 121.618 45.6121 121.723C45.5856 121.828 45.5591 121.953 45.5326 122.086C45.506 122.22 45.4795 122.344 45.453 122.469C45.4265 122.593 45.4088 122.66 45.4088 122.679C45.3734 122.803 45.3469 122.937 45.3292 123.061C45.3027 123.185 45.2673 123.3 45.2054 123.405C45.1524 123.51 45.0728 123.606 44.9843 123.673C44.8959 123.749 44.7633 123.797 44.6041 123.816C44.4803 123.835 44.3565 123.816 44.2504 123.778C44.1443 123.74 44.0471 123.682 43.9675 123.606C43.8879 123.529 43.826 123.443 43.7906 123.338C43.7553 123.233 43.7464 123.128 43.7641 123.013C43.7818 122.899 43.7995 122.794 43.826 122.679C43.8525 122.574 43.8879 122.459 43.9144 122.354C43.9498 122.23 43.9763 122.096 44.0117 121.953C44.0471 121.809 44.0736 121.675 44.0913 121.551H42.6677C42.6235 121.742 42.5704 121.924 42.5262 122.115C42.482 122.306 42.4378 122.497 42.3847 122.688C42.3405 122.851 42.2875 123.023 42.2256 123.195C42.1548 123.367 42.0399 123.501 41.8807 123.596C41.7392 123.692 41.5801 123.759 41.3944 123.778C41.2175 123.797 41.0495 123.74 40.9081 123.606C40.8108 123.52 40.7577 123.405 40.7401 123.29C40.7224 123.166 40.7312 123.042 40.7489 122.918C40.7754 122.794 40.8108 122.66 40.8462 122.536C40.8904 122.411 40.9257 122.297 40.9434 122.192C40.97 122.086 40.9965 121.981 41.023 121.867C41.0495 121.761 41.0761 121.647 41.1026 121.542H40.7401C40.5986 121.542 40.4659 121.523 40.3422 121.494C40.2184 121.465 40.1034 121.417 40.015 121.341C39.9266 121.274 39.8824 121.169 39.8824 121.026C39.8824 120.882 39.9177 120.749 39.9796 120.634C40.0504 120.519 40.1653 120.452 40.3422 120.443C40.5013 120.443 40.6693 120.443 40.855 120.452C41.0407 120.452 41.2087 120.462 41.3679 120.462L41.8453 118.532H41.1733C41.0849 118.532 40.9965 118.522 40.9081 118.512C40.8196 118.503 40.7312 118.474 40.6605 118.446C40.5809 118.407 40.5278 118.36 40.4836 118.302C40.4394 118.235 40.4217 118.159 40.4217 118.063C40.4217 117.939 40.4483 117.844 40.5102 117.767C40.5721 117.691 40.6516 117.624 40.7401 117.576C40.8373 117.528 40.9434 117.5 41.0495 117.48C41.1645 117.461 41.2706 117.452 41.3767 117.452H42.1283C42.1637 117.308 42.1902 117.146 42.2256 116.964C42.2609 116.783 42.3051 116.601 42.367 116.429C42.4289 116.248 42.4997 116.085 42.5792 115.923C42.6588 115.76 42.7738 115.636 42.9064 115.531C43.0567 115.407 43.2071 115.34 43.3485 115.321C43.49 115.302 43.6138 115.321 43.7199 115.388C43.826 115.445 43.8967 115.55 43.941 115.684C43.9852 115.818 43.9852 115.98 43.9321 116.171C43.8791 116.381 43.826 116.601 43.773 116.811C43.7199 117.031 43.6757 117.242 43.6226 117.452H45.0197L45.0462 117.318C45.0639 117.232 45.0905 117.136 45.1081 117.031C45.1347 116.926 45.1524 116.831 45.1789 116.735C45.2054 116.649 45.2142 116.592 45.2142 116.573C45.2585 116.401 45.338 116.2 45.4441 115.98C45.5503 115.76 45.6917 115.598 45.8597 115.493C45.9393 115.445 46.0277 115.426 46.125 115.416C46.2223 115.407 46.3107 115.416 46.408 115.445C46.4964 115.474 46.5848 115.521 46.6555 115.588C46.7793 115.636 46.8235 115.722 46.8589 115.818Z" fill="#EB6067"/>
<path d="M18.4245 58.594V58.569C18.4245 56.7088 19.8477 55.1233 21.8577 55.1233C23.0187 55.1233 23.7303 55.4479 24.417 56.0222L23.6804 56.9086C23.1685 56.4716 22.6692 56.1969 21.8202 56.1969C20.5968 56.1969 19.6604 57.2706 19.6604 58.544V58.569C19.6604 59.9423 20.5593 60.941 21.9201 60.941C22.5443 60.941 23.1186 60.7413 23.5306 60.4416V59.1932H21.8202V58.182H24.6542V60.9785C23.9925 61.5403 23.0562 62.0147 21.8826 62.0147C19.7978 62.0147 18.4245 60.529 18.4245 58.594Z" fill="#EB6067"/>
<path d="M26.2397 55.248H27.4132V61.9022H26.2397V55.248Z" fill="#EB6067"/>
<path d="M29.186 55.248H34.1423V56.3092H30.3596V58.1195H33.7179V59.1806H30.3596V61.8897H29.186V55.248Z" fill="#EB6067"/>
<path d="M37.0637 56.3342H34.9538V55.248H40.3596V56.3342H38.2497V61.9022H37.0762V56.3342H37.0637Z" fill="#EB6067"/>
<path d="M40.9963 60.9285L41.6954 60.092C42.3321 60.6414 42.9813 60.9535 43.7928 60.9535C44.5169 60.9535 44.9663 60.6164 44.9663 60.117V60.092C44.9663 59.6176 44.7041 59.3555 43.4682 59.0808C42.0575 58.7437 41.2584 58.3193 41.2584 57.0958V57.0708C41.2584 55.9347 42.2073 55.1357 43.5306 55.1357C44.5044 55.1357 45.2659 55.4354 45.9401 55.9722L45.3159 56.8586C44.7166 56.4092 44.1174 56.1719 43.5056 56.1719C42.819 56.1719 42.4195 56.5215 42.4195 56.9585V56.9959C42.4195 57.5078 42.7191 57.7325 44.005 58.0446C45.4158 58.3817 46.1398 58.8935 46.1398 59.9922V60.0171C46.1398 61.2656 45.1661 62.0022 43.7678 62.0022C42.7566 61.9897 41.7953 61.6401 40.9963 60.9285Z" fill="#EB6067"/>
<path d="M47.5381 55.248H48.7116V58.0196H51.8827V55.248H53.0562V61.9022H51.8827V59.0932H48.7116V61.9022H47.5381V55.248V55.248Z" fill="#EB6067"/>
<path d="M54.4669 58.594V58.569C54.4669 56.6963 55.9151 55.1233 57.9501 55.1233C59.9975 55.1233 61.4208 56.6714 61.4208 58.544V58.569C61.4208 60.4416 59.9726 62.0147 57.9376 62.0147C55.8902 62.0147 54.4669 60.4666 54.4669 58.594ZM60.1973 58.594V58.569C60.1973 57.2706 59.261 56.1969 57.9376 56.1969C56.6143 56.1969 55.6904 57.2581 55.6904 58.544V58.569C55.6904 59.8674 56.6267 60.9285 57.9501 60.9285C59.2734 60.9285 60.1973 59.8798 60.1973 58.594Z" fill="#EB6067"/>
<path d="M62.844 55.248H65.4657C67.0262 55.248 68 56.1344 68 57.4703V57.4952C68 58.9934 66.8015 59.7674 65.3408 59.7674H64.0175V61.9022H62.844V55.248ZM65.3658 58.7062C66.2522 58.7062 66.8015 58.2068 66.8015 57.5202V57.4952C66.8015 56.7212 66.2397 56.3092 65.3658 56.3092H64.005V58.7062H65.3658Z" fill="#EB6067"/>
<path d="M18 50.7037C18 50.5913 18.025 50.479 18.0624 50.3791C18.0999 50.2792 18.1623 50.1918 18.2372 50.1294C18.3121 50.0545 18.3995 50.0046 18.4994 49.9546C18.5993 49.9172 18.7116 49.8922 18.824 49.8922C18.9363 49.8922 19.0487 49.9172 19.1486 49.9546C19.2484 49.9921 19.3358 50.0545 19.4107 50.1294C19.4981 50.1918 19.5481 50.2792 19.598 50.3791C19.6355 50.479 19.6604 50.5913 19.6604 50.7037C19.6604 50.8161 19.6355 50.9284 19.598 51.0158C19.5605 51.1157 19.4981 51.2031 19.4232 51.2655C19.3483 51.3404 19.2609 51.3903 19.161 51.4278C19.0487 51.4902 18.9488 51.5027 18.824 51.5027C18.7116 51.5027 18.5993 51.4777 18.4994 51.4403C18.3995 51.4028 18.3121 51.3404 18.2372 51.278C18.1623 51.2031 18.0999 51.1282 18.0624 51.0283C18.025 50.9284 18 50.8161 18 50.7037ZM18.3246 50.7037C18.3246 50.7786 18.3371 50.8535 18.362 50.9159C18.387 50.9784 18.4245 51.0408 18.4619 51.0907C18.5119 51.1282 18.5618 51.1656 18.6242 51.1906C18.6866 51.2156 18.7615 51.228 18.8365 51.228C18.9114 51.228 18.9863 51.2156 19.0487 51.1906C19.1111 51.1656 19.161 51.1282 19.211 51.0782C19.2609 51.0283 19.2859 50.9784 19.3233 50.9034C19.3483 50.841 19.3608 50.7661 19.3608 50.6912C19.3608 50.6163 19.3483 50.5414 19.3233 50.4665C19.2984 50.4041 19.2609 50.3416 19.211 50.2917C19.161 50.2543 19.1111 50.2168 19.0487 50.1918C18.9738 50.1669 18.9114 50.1544 18.8365 50.1544C18.7615 50.1544 18.6866 50.1669 18.6242 50.1918C18.5618 50.2168 18.5119 50.2543 18.4619 50.3042C18.412 50.3541 18.387 50.4166 18.362 50.479C18.3371 50.5539 18.3246 50.6288 18.3246 50.7037ZM20.5094 52.876H18.5243V51.8897H18.8365V52.6138H20.5218V52.876H20.5094ZM20.9463 50.9284H20.4469V52.0645H20.1473V49.7549H20.4469V50.6538H20.9463V50.9284Z" fill="#8E95A3"/>
<path d="M22.1448 50.8285C22.1948 50.891 22.2447 50.9409 22.2946 51.0033C22.3571 51.0533 22.4195 51.1157 22.4819 51.1531C22.5443 51.2031 22.6192 51.253 22.6816 51.2905C22.7441 51.3279 22.819 51.3654 22.8814 51.4028L22.6941 51.6275C22.5693 51.5526 22.4444 51.4777 22.3196 51.3654C22.1948 51.2655 22.0824 51.1531 21.9825 51.0408C21.8452 51.1781 21.6954 51.3029 21.5331 51.4153C21.3708 51.5277 21.196 51.6151 21.0087 51.7024L20.8215 51.4777C21.0087 51.4028 21.1835 51.3154 21.3333 51.2156C21.4831 51.1157 21.608 51.0158 21.7203 50.9034C21.8327 50.7911 21.9201 50.6787 21.9825 50.5664C22.0449 50.454 22.0949 50.3292 22.1198 50.2168C21.995 50.2168 21.8577 50.2293 21.7328 50.2293C21.608 50.2293 21.4831 50.2293 21.3458 50.2293H21.0212V49.9546H21.5705C21.7203 49.9546 21.8702 49.9546 22.02 49.9546C22.1698 49.9546 22.3321 49.9546 22.4944 49.9421C22.4694 50.1169 22.432 50.2667 22.3695 50.4166C22.3071 50.5664 22.2322 50.7037 22.1448 50.8285ZM23.5181 52.876H21.4831V51.9397H21.7953V52.6138H23.5181V52.876ZM22.5818 50.841V50.5664H23.1311V49.7549H23.4307V52.1269H23.1311V50.841H22.5818Z" fill="#8E95A3"/>
<path d="M25.0412 50.1419C24.9039 50.1419 24.7665 50.1544 24.6292 50.1544C24.4919 50.1544 24.3546 50.1544 24.2172 50.1544H23.8926V49.9047H24.417C24.5793 49.9047 24.7416 49.9047 24.9039 49.9047C25.0662 49.9047 25.2285 49.9047 25.3908 49.8922C25.3783 50.067 25.3283 50.2293 25.2659 50.3791C25.191 50.5289 25.0911 50.6787 24.9663 50.8036C24.8414 50.9284 24.6916 51.0533 24.5169 51.1531C24.3421 51.253 24.1423 51.3404 23.9301 51.4028L23.7678 51.1656C24.1174 51.0657 24.392 50.9409 24.6167 50.7661C24.829 50.5913 24.9788 50.3916 25.0412 50.1419ZM26.3521 52.9009H24.2921V52.1019H25.99V51.8148H24.2921V51.5651H26.2896V52.3516H24.5793V52.6513H26.3521V52.9009ZM25.99 50.2293V49.7549H26.2896V51.3779H25.99V51.0408H25.3908V50.7911H25.99V50.479H25.4657V50.2293H25.99Z" fill="#8E95A3"/>
<path d="M27.4507 50.2792C27.3633 50.2917 27.2634 50.2917 27.1511 50.2917C27.0512 50.2917 26.9388 50.2917 26.839 50.2917H26.6267V50.042H27.0137C27.1386 50.042 27.2634 50.042 27.3758 50.042C27.5006 50.042 27.6255 50.042 27.7628 50.0295C27.7378 50.3916 27.6504 50.7411 27.5131 51.0782C27.588 51.228 27.6754 51.3779 27.7878 51.5152C27.9001 51.6525 28.0125 51.7774 28.1373 51.8772L27.9001 52.077C27.8003 51.9771 27.7004 51.8647 27.613 51.7524C27.5256 51.6275 27.4507 51.5027 27.3758 51.3654C27.2884 51.5277 27.1885 51.6775 27.0762 51.8148C26.9638 51.9521 26.839 52.0895 26.6891 52.2018L26.4519 52.027C26.7516 51.7898 26.9763 51.5277 27.1386 51.2405C27.3134 50.9659 27.4132 50.6413 27.4507 50.2792ZM28.2622 49.7923H28.5493V52.8635H28.2622V51.1407H27.8377V50.8785H28.2622V49.7923ZM29.186 52.9384H28.8864V49.7549H29.186V52.9384Z" fill="#8E95A3"/>
<path d="M29.9101 52.0395C30.1099 51.9397 30.2971 51.8148 30.447 51.69C30.6093 51.5651 30.7341 51.4153 30.8465 51.2655C30.9588 51.1157 31.0462 50.9534 31.1086 50.7911C31.171 50.6288 31.221 50.454 31.246 50.2792C31.1086 50.2792 30.9588 50.2917 30.8215 50.2917C30.6842 50.2917 30.5468 50.2917 30.397 50.2917H30.0225V50.0295H30.5843C30.7466 50.0295 30.9089 50.0295 31.0712 50.0295C31.2335 50.0295 31.3958 50.0295 31.5581 50.0171C31.5206 50.4915 31.3958 50.9284 31.1586 51.3029C30.9214 51.6775 30.5718 52.0021 30.0974 52.2518L29.9101 52.0395ZM32.2073 49.7549H32.5069V52.9384H32.2073V49.7549Z" fill="#8E95A3"/>
<path d="M35.6654 52.2268V52.4764H32.7066V52.2268H35.6654ZM33.0437 51.5901V51.3404H33.4682L33.4432 50.404H33.7428L33.7553 51.3404H34.5918L34.6292 50.404H34.9289L34.8914 51.3404H35.3284V51.5901H33.0437ZM33.1061 50.2917V50.042H35.2784V50.2917H33.1061Z" fill="#8E95A3"/>
<path d="M38.5118 52.2269V52.4765H35.553V52.2269H38.5118ZM36.0399 51.7025V50.0046H38.0249V50.2543H36.3396V50.6913H37.975V50.941H36.3396V51.4403H38.0749V51.69H36.0399V51.7025Z" fill="#8E95A3"/>
<path d="M39.5231 49.8423C39.5231 50.0295 39.5106 50.2043 39.4607 50.3666C39.548 50.5289 39.6604 50.6662 39.7977 50.8036C39.9351 50.9284 40.0974 51.0408 40.2971 51.1407L40.1098 51.3529C39.9476 51.2655 39.7977 51.1781 39.6729 51.0533C39.5481 50.9409 39.4357 50.8036 39.3483 50.6662C39.2609 50.8285 39.1485 50.9784 39.0112 51.1032C38.8739 51.228 38.7241 51.3404 38.5493 51.4403L38.3495 51.2405C38.4994 51.1656 38.6242 51.0782 38.7366 50.9784C38.8489 50.891 38.9363 50.7786 39.0112 50.6662C39.0861 50.5539 39.1361 50.429 39.1735 50.2917C39.211 50.1544 39.2235 50.0046 39.2235 49.8423H39.5231ZM40.8964 52.8885H38.9363V51.6275H39.2359V51.9771H40.5967V51.6026H40.8964V52.8885ZM40.5967 52.6263V52.2268H39.2359V52.6263H40.5967ZM40.8964 50.1294H41.3833V50.3916H40.8964V50.7661H41.3833V51.0283H40.8964V51.4278H40.5967V49.7549H40.8964V50.1294Z" fill="#8E95A3"/>
<path d="M41.3958 52.3766C41.3958 52.3142 41.4207 52.2642 41.4582 52.2143C41.5081 52.1768 41.5581 52.1519 41.633 52.1519C41.7079 52.1519 41.7703 52.1768 41.8202 52.2392C41.8702 52.2892 41.8951 52.3641 41.8951 52.439C41.8951 52.5139 41.8826 52.5763 41.8577 52.6512C41.8327 52.7137 41.7953 52.7761 41.7578 52.826C41.7203 52.876 41.6704 52.9259 41.6205 52.9633C41.5705 53.0008 41.5081 53.0382 41.4457 53.0507L41.3833 52.9134C41.4457 52.8884 41.5081 52.851 41.5581 52.801C41.608 52.7511 41.633 52.7012 41.6579 52.6387C41.6704 52.6138 41.6704 52.5888 41.6579 52.5763C41.6579 52.5638 41.633 52.5638 41.608 52.5638C41.5581 52.5638 41.5081 52.5389 41.4582 52.5014C41.4207 52.4764 41.3958 52.4265 41.3958 52.3766Z" fill="#8E95A3"/>
<path d="M42.6816 50.5539C42.6816 50.454 42.7066 50.3541 42.7441 50.2543C42.7815 50.1669 42.8439 50.0795 42.9188 50.0171C42.9938 49.9546 43.0811 49.8922 43.181 49.8548C43.2809 49.8173 43.3933 49.7923 43.5056 49.7923C43.618 49.7923 43.7303 49.8173 43.8302 49.8548C43.9301 49.8922 44.0175 49.9421 44.0924 50.0171C44.1673 50.0795 44.2172 50.1669 44.2672 50.2543C44.3046 50.3416 44.3296 50.4415 44.3296 50.5539C44.3296 50.6538 44.3046 50.7536 44.2672 50.8535C44.2297 50.9409 44.1673 51.0283 44.0924 51.0907C44.0175 51.1531 43.9301 51.2156 43.8302 51.253C43.7303 51.2905 43.6305 51.3154 43.5056 51.3154C43.3933 51.3154 43.2809 51.2905 43.181 51.253C43.0811 51.2156 42.9938 51.1656 42.9188 51.0907C42.8439 51.0283 42.794 50.9409 42.7441 50.8535C42.7066 50.7536 42.6816 50.6538 42.6816 50.5539ZM42.9938 50.5539C42.9938 50.6288 43.0062 50.6912 43.0312 50.7536C43.0562 50.8161 43.0936 50.866 43.1311 50.9034C43.181 50.9409 43.231 50.9784 43.2934 51.0033C43.3558 51.0283 43.4307 51.0408 43.4931 51.0408C43.568 51.0408 43.6305 51.0283 43.6929 51.0033C43.7553 50.9784 43.8052 50.9409 43.8552 50.9034C43.9051 50.866 43.9301 50.8036 43.955 50.7536C43.98 50.6912 43.9925 50.6288 43.9925 50.5539C43.9925 50.479 43.98 50.4166 43.955 50.3666C43.9301 50.3042 43.8926 50.2543 43.8552 50.2168C43.8052 50.1794 43.7553 50.1419 43.6929 50.1169C43.6305 50.092 43.568 50.0795 43.4931 50.0795C43.4182 50.0795 43.3558 50.092 43.2934 50.1169C43.231 50.1419 43.181 50.1794 43.1311 50.2168C43.0811 50.2543 43.0562 50.3042 43.0312 50.3666C43.0062 50.4166 42.9938 50.4915 42.9938 50.5539ZM45.2659 52.9009H43.1935V52.1019H44.9039V51.7898H43.1935V51.5402H45.191V52.3392H43.4806V52.6388H45.2534V52.9009H45.2659ZM44.8914 49.7549H45.191V51.3654H44.8914V49.7549Z" fill="#8E95A3"/>
<path d="M46.5143 49.8423C46.5143 49.9421 46.5144 50.042 46.5019 50.1419C46.4894 50.2418 46.4769 50.3292 46.4519 50.4166C46.5518 50.6038 46.6642 50.7536 46.8015 50.891C46.9388 51.0283 47.1011 51.1407 47.3009 51.2405L47.1136 51.4528C46.9513 51.3654 46.8015 51.2655 46.6642 51.1407C46.5393 51.0158 46.427 50.8785 46.3396 50.7287C46.2522 50.9034 46.1523 51.0657 46.015 51.2031C45.8776 51.3404 45.7278 51.4528 45.5531 51.5526L45.3533 51.3529C45.6529 51.1781 45.8776 50.9784 46.0275 50.7287C46.1773 50.479 46.2397 50.1918 46.2272 49.8423H46.5143V49.8423ZM47.9251 52.3392C47.9251 52.4265 47.9001 52.5139 47.8627 52.5888C47.8252 52.6637 47.7503 52.7262 47.6629 52.7886C47.5755 52.8385 47.4632 52.8885 47.3383 52.9134C47.2135 52.9509 47.0637 52.9634 46.8889 52.9634C46.7141 52.9634 46.5643 52.9509 46.4394 52.9134C46.3146 52.876 46.2022 52.8385 46.1148 52.7886C46.0275 52.7387 45.965 52.6637 45.9151 52.5888C45.8776 52.5139 45.8527 52.4265 45.8527 52.3392C45.8527 52.1519 45.9401 52.0146 46.1148 51.9022C46.2896 51.7898 46.5393 51.7274 46.8889 51.7274C47.2384 51.7274 47.4881 51.7898 47.6629 51.9022C47.8377 52.0146 47.9251 52.1644 47.9251 52.3392ZM47.613 52.3516C47.613 52.3017 47.6005 52.2518 47.5755 52.2143C47.5506 52.1644 47.5006 52.1269 47.4507 52.1019C47.3883 52.0645 47.3134 52.0395 47.226 52.027C47.1386 52.0146 47.0262 52.0021 46.9014 52.0021C46.6517 52.0021 46.4769 52.0395 46.3521 52.1019C46.2397 52.1769 46.1773 52.2518 46.1773 52.3641C46.1773 52.464 46.2397 52.5514 46.3521 52.6263C46.4644 52.7012 46.6517 52.7262 46.9014 52.7262C47.1511 52.7262 47.3258 52.6887 47.4507 52.6263C47.5755 52.5639 47.613 52.4515 47.613 52.3516ZM48.387 50.841H47.8876V51.69H47.588V49.7549H47.8876V50.5664H48.387V50.841Z" fill="#8E95A3"/>
<path d="M48.2871 52.0146H48.9238C49.0362 52.0146 49.1735 52.0146 49.3109 52.0146C49.4482 52.0146 49.5855 52.0021 49.7353 52.0021C49.8727 51.9896 50.0225 51.9896 50.1598 51.9771C50.2971 51.9646 50.422 51.9521 50.5343 51.9397V52.1893C50.422 52.2018 50.2971 52.2143 50.1723 52.2268C50.035 52.2393 49.8976 52.2518 49.7603 52.2518C49.623 52.2642 49.4856 52.2642 49.3358 52.2767C49.1985 52.2767 49.0612 52.2892 48.9363 52.2892H48.2996V52.0146H48.2871ZM50.1348 50.7536C50.1348 50.866 50.1099 50.9784 50.0724 51.0782C50.035 51.1781 49.985 51.2655 49.9101 51.3404C49.8352 51.4153 49.7478 51.4652 49.6479 51.5152C49.5481 51.5526 49.4357 51.5776 49.3109 51.5776C49.186 51.5776 49.0737 51.5526 48.9738 51.5152C48.8739 51.4777 48.7865 51.4153 48.7116 51.3404C48.6367 51.2655 48.5868 51.1781 48.5493 51.0782C48.5119 50.9784 48.4869 50.8785 48.4869 50.7536C48.4869 50.6413 48.5119 50.5289 48.5493 50.429C48.5868 50.3292 48.6367 50.2418 48.7116 50.1669C48.7865 50.092 48.8739 50.042 48.9738 49.9921C49.0737 49.9546 49.186 49.9297 49.3109 49.9297C49.4357 49.9297 49.5481 49.9546 49.6479 49.9921C49.7478 50.0295 49.8352 50.092 49.9101 50.1669C49.985 50.2418 50.035 50.3292 50.0724 50.429C50.1099 50.5414 50.1348 50.6413 50.1348 50.7536ZM49.8227 50.7536C49.8227 50.5913 49.7728 50.454 49.6854 50.3541C49.598 50.2543 49.4732 50.2043 49.3109 50.2043C49.1486 50.2043 49.0237 50.2543 48.9363 50.3541C48.8489 50.454 48.799 50.5789 48.799 50.7536C48.799 50.9284 48.8489 51.0533 48.9363 51.1531C49.0237 51.253 49.1486 51.3029 49.3109 51.3029C49.4732 51.3029 49.598 51.253 49.6854 51.1531C49.7853 51.0533 49.8227 50.9284 49.8227 50.7536ZM50.9713 52.9384H50.6841V49.7549H50.9713V52.9384Z" fill="#8E95A3"/>
<path d="M51.6579 51.0907H52.2572C52.3695 51.0907 52.5069 51.0907 52.6442 51.0907C52.7815 51.0907 52.9189 51.0782 53.0687 51.0782C53.206 51.0657 53.3558 51.0657 53.4931 51.0533C53.6305 51.0408 53.7553 51.0283 53.8677 51.0158V51.2655C53.7303 51.278 53.5805 51.3029 53.4182 51.3154C53.2559 51.3279 53.0936 51.3404 52.9189 51.3529V51.8023H52.6067V51.3654C52.5443 51.3654 52.4819 51.3654 52.432 51.3654C52.3695 51.3654 52.3196 51.3654 52.2697 51.3654H51.6704V51.0907H51.6579ZM52.9189 50.1294C52.9813 50.2543 53.0811 50.3541 53.206 50.429C53.3308 50.5039 53.4931 50.5789 53.6929 50.6538L53.5431 50.8785C53.3808 50.8285 53.2434 50.7536 53.1061 50.6787C52.9813 50.5913 52.8689 50.4915 52.7815 50.3791C52.6941 50.4915 52.5943 50.5913 52.4569 50.6787C52.3196 50.7661 52.1698 50.8535 51.995 50.9284L51.8327 50.7162C51.9825 50.6538 52.1199 50.5913 52.2322 50.5289C52.3446 50.4665 52.432 50.3916 52.4944 50.3167C52.5568 50.2418 52.6067 50.1669 52.6317 50.0795C52.6567 49.9921 52.6692 49.9047 52.6567 49.8048H52.9688C52.9688 49.9172 52.9563 50.0295 52.9189 50.1294ZM52.2946 52.8885V51.9272H54.3421V52.8885H52.2946ZM52.5943 52.6388H54.0424V52.1769H52.5943V52.6388ZM54.0424 51.7524V49.7549H54.3421V51.7524H54.0424Z" fill="#8E95A3"/>
<path d="M54.804 51.5027V51.253H55.241L55.2035 50.3916H55.5031L55.5156 51.253H56.3396L56.3521 50.3916H56.6517L56.6267 51.253H57.0637V51.5027H56.5768V52.2143H57.3883V52.464H54.4544V52.2143H55.3034V51.5027H54.804ZM54.8539 50.2668V50.0171H57.0262V50.2668H54.8539ZM56.3021 51.5027H55.5905V52.2143H56.3021V51.5027Z" fill="#8E95A3"/>
<path d="M57.9001 52.2019C57.975 52.2019 58.0249 52.2269 58.0749 52.2643C58.1248 52.3143 58.1373 52.3642 58.1373 52.4266C58.1373 52.4891 58.1123 52.5515 58.0749 52.5889C58.0249 52.6389 57.975 52.6514 57.9001 52.6514C57.8252 52.6514 57.7753 52.6264 57.7253 52.5889C57.6754 52.539 57.6629 52.4891 57.6629 52.4266C57.6629 52.3642 57.6879 52.3018 57.7253 52.2643C57.7753 52.2269 57.8252 52.2019 57.9001 52.2019ZM57.7128 49.9048H58.0874L58.0125 51.8524H57.7628L57.7128 49.9048Z" fill="#8E95A3"/>
<path d="M7 24.192C7 14.6971 14.7192 7 24.2414 7H139.759C149.281 7 157 14.6971 157 24.192V289.808C157 299.303 149.281 307 139.759 307H24.2414C14.7192 307 7 299.303 7 289.808V24.192Z" fill="#383E47" fill-opacity="0.8"/>
<rect x="28" y="83" width="108" height="61" rx="4" fill="white"/>
<path d="M28 127H136V140C136 142.209 134.209 144 132 144H32C29.7909 144 28 142.209 28 140V127Z" fill="#23A685"/>
<path d="M80.074 132.75H78.639V132.162H77.911V132.75H76.462V133.275H80.074V132.75ZM77.442 134.416C77.442 134.129 77.764 133.954 78.268 133.954C78.772 133.954 79.094 134.129 79.094 134.416C79.094 134.696 78.772 134.864 78.268 134.864C77.764 134.864 77.442 134.696 77.442 134.416ZM80.249 135.578C79.738 135.655 79.185 135.69 78.639 135.718V135.326C79.339 135.242 79.773 134.913 79.773 134.416C79.773 133.828 79.178 133.471 78.268 133.471C77.358 133.471 76.763 133.828 76.763 134.416C76.763 134.913 77.197 135.249 77.911 135.326V135.746C77.33 135.76 76.777 135.76 76.301 135.76L76.385 136.334C77.491 136.327 78.968 136.32 80.305 136.082L80.249 135.578ZM77.085 137.349H80.585V138.546H81.306V136.775H77.085V137.349ZM82.174 134.087H81.306V132.225H80.585V136.495H81.306V134.682H82.174V134.087ZM87.6895 132.218H86.9685V136.81H87.6895V132.218ZM83.3075 134.22C83.3075 133.639 83.7205 133.261 84.2805 133.261C84.8335 133.261 85.2535 133.639 85.2535 134.22C85.2535 134.794 84.8335 135.179 84.2805 135.179C83.7205 135.179 83.3075 134.794 83.3075 134.22ZM85.9535 134.22C85.9535 133.296 85.2325 132.638 84.2805 132.638C83.3285 132.638 82.6005 133.296 82.6005 134.22C82.6005 135.137 83.3285 135.802 84.2805 135.802C85.2325 135.802 85.9535 135.137 85.9535 134.22ZM84.2875 137.832V136.348H83.5595V138.42H87.8715V137.832H84.2875Z" fill="white"/>
<path d="M49.569 101.743H48.848V102.779C48.848 103.948 48.232 105.145 47.245 105.628L47.686 106.209C48.407 105.838 48.939 105.103 49.212 104.228C49.485 105.054 49.989 105.74 50.668 106.09L51.109 105.516C50.157 105.047 49.569 103.906 49.569 102.779V101.743ZM53.237 103.724H52.25V101.218H51.529V107.539H52.25V104.319H53.237V103.724ZM57.9545 101.211V107.553H58.6825V101.211H57.9545ZM55.3155 101.68C54.3775 101.68 53.6915 102.548 53.6915 103.906C53.6915 105.278 54.3775 106.139 55.3155 106.139C56.2605 106.139 56.9465 105.278 56.9465 103.906C56.9465 102.548 56.2605 101.68 55.3155 101.68ZM55.3155 102.331C55.8685 102.331 56.2535 102.926 56.2535 103.906C56.2535 104.9 55.8685 105.495 55.3155 105.495C54.7695 105.495 54.3845 104.9 54.3845 103.906C54.3845 102.926 54.7695 102.331 55.3155 102.331ZM64.6949 104.557H61.0479V103.689H64.5059V103.122H61.0479V102.31H64.6459V101.729H60.3129V105.138H64.6949V104.557ZM59.6059 106.174V106.762H65.3389V106.174H59.6059ZM66.0384 101.883V102.471H68.2504C68.1034 103.927 67.2704 105.04 65.7234 105.831L66.1224 106.384C68.1874 105.341 68.9714 103.717 68.9714 101.883H66.0384ZM71.5824 103.71H70.6234V101.211H69.9024V107.532H70.6234V104.312H71.5824V103.71ZM78.1731 103.066H74.5401V102.016H78.1311V101.435H73.8261V103.647H78.1731V103.066ZM75.9541 106.979C75.0301 106.979 74.5121 106.776 74.5121 106.384C74.5121 105.999 75.0301 105.789 75.9541 105.789C76.8781 105.789 77.4031 105.999 77.4031 106.384C77.4031 106.776 76.8781 106.979 75.9541 106.979ZM75.9541 105.236C74.6031 105.236 73.7771 105.656 73.7771 106.384C73.7771 107.119 74.6031 107.539 75.9541 107.539C77.3121 107.539 78.1311 107.119 78.1311 106.384C78.1311 105.656 77.3121 105.236 75.9541 105.236ZM73.1191 104.172V104.767H78.8311V104.172H73.1191ZM79.8735 106.244H83.5555V107.504H84.2765V105.663H79.8735V106.244ZM82.4565 104.655V104.081H84.3675V103.528H80.6715V102.968H84.2415V101.365H79.9505V101.918H83.5275V102.45H79.9645V104.081H81.7355V104.655H79.2295V105.236H84.9625V104.655H82.4565ZM87.804 104.452H89.092V103.871H86.551V102.38H89.064V101.792H85.83V104.452H87.083V105.621C86.488 105.635 85.914 105.642 85.389 105.642L85.48 106.237C86.67 106.244 88.14 106.223 89.505 106.006L89.449 105.474C88.924 105.537 88.364 105.572 87.804 105.593V104.452ZM89.834 101.204V107.553H90.562V101.204H89.834ZM93.2214 102.156C93.7674 102.156 94.1664 102.52 94.1664 103.059C94.1664 103.591 93.7674 103.955 93.2214 103.955C92.6684 103.955 92.2624 103.591 92.2624 103.059C92.2624 102.52 92.6684 102.156 93.2214 102.156ZM96.0004 103.346V104.795H96.7214V101.218H96.0004V102.751H94.8244C94.6774 102.037 94.0404 101.561 93.2214 101.561C92.2764 101.561 91.5764 102.177 91.5764 103.059C91.5764 103.934 92.2764 104.55 93.2214 104.55C94.0474 104.55 94.6914 104.06 94.8244 103.346H96.0004ZM96.0774 105.04H95.3704V105.348C95.3704 105.831 95.1184 106.433 94.5514 106.818C93.9984 106.468 93.7534 105.894 93.7534 105.348V105.04H93.0534V105.348C93.0534 105.971 92.6334 106.643 91.8214 106.93L92.1784 107.462C92.7594 107.238 93.1724 106.832 93.3964 106.335C93.5924 106.846 93.9704 107.287 94.5584 107.518C95.1394 107.273 95.5104 106.818 95.7134 106.314C95.9304 106.825 96.3434 107.245 96.9524 107.462L97.3094 106.93C96.4904 106.664 96.0774 106.013 96.0774 105.348V105.04ZM103.021 103.108C101.768 102.947 100.837 102.254 100.837 101.526V101.281H100.095V101.526C100.095 102.261 99.1779 102.947 97.9109 103.108L98.1769 103.668C99.2059 103.528 100.06 103.052 100.466 102.394C100.879 103.052 101.733 103.528 102.762 103.668L103.021 103.108ZM101.873 106.888H99.0239V106.209H101.873V106.888ZM101.873 105.656H99.0239V105.012H98.3099V107.462H102.594V105.012H101.873V105.656ZM97.6029 104.046V104.62H103.329V104.046H97.6029ZM104.819 101.834H104.105V105.943H104.644C105.624 105.943 106.646 105.866 107.731 105.642L107.654 105.04C106.66 105.243 105.715 105.32 104.819 105.327V101.834ZM108.235 101.218V107.539H108.956V101.218H108.235ZM110.832 102.401H113.051V101.813H110.111V105.992H110.629C111.77 105.992 112.624 105.957 113.583 105.782L113.506 105.187C112.624 105.341 111.854 105.383 110.832 105.39V102.401ZM115.739 103.647H114.752V101.211H114.031V107.546H114.752V104.242H115.739V103.647ZM116.669 107.091C116.97 107.091 117.208 106.86 117.208 106.531C117.208 106.195 116.97 105.957 116.669 105.957C116.368 105.957 116.13 106.195 116.13 106.531C116.13 106.86 116.368 107.091 116.669 107.091Z" fill="#323232"/>
</g>
</svg>
