<svg width="240" height="200" viewBox="0 0 240 200" fill="none" xmlns="http://www.w3.org/2000/svg">
<path d="M7.57009 0H232.43C234.438 0 236.363 0.788612 237.783 2.19235C239.202 3.59609 240 5.49996 240 7.48515V140H0V7.48515C0 5.49996 0.797561 3.59609 2.21723 2.19235C3.6369 0.788612 5.56238 0 7.57009 0V0Z" fill="#323232"/>
<path d="M0 140.278H240V158.333C240 160.323 239.202 162.23 237.783 163.637C236.363 165.043 234.438 165.833 232.43 165.833H7.57009C5.56238 165.833 3.6369 165.043 2.21723 163.637C0.797561 162.23 0 160.323 0 158.333L0 140.278Z" fill="white"/>
<path fill-rule="evenodd" clip-rule="evenodd" d="M162.464 200H77.811C77.7543 200 77.6982 199.989 77.6458 199.968C77.5934 199.946 77.5458 199.915 77.5057 199.875C77.4656 199.836 77.4337 199.789 77.412 199.737C77.3902 199.685 77.379 199.629 77.3789 199.573C77.3794 199.12 77.5616 198.685 77.8856 198.364C78.2096 198.044 78.6488 197.864 79.1066 197.865H80.4025C80.4025 197.865 88.6084 197.848 90.7679 189.323C92.7128 181.645 93.3594 165.834 93.3594 165.834H146.916C146.916 165.834 147.562 181.645 149.507 189.323C151.666 197.848 159.873 197.865 159.873 197.865H161.168C161.395 197.864 161.62 197.908 161.829 197.994C162.039 198.08 162.229 198.206 162.389 198.364C162.55 198.523 162.677 198.711 162.764 198.919C162.851 199.126 162.896 199.349 162.896 199.573C162.896 199.629 162.885 199.685 162.863 199.737C162.841 199.789 162.809 199.836 162.769 199.875C162.729 199.915 162.681 199.947 162.629 199.968C162.577 199.989 162.52 200 162.464 200Z" fill="#E1E1E1"/>
<path d="M231.247 10H9.26106C8.95137 10 8.70032 10.2449 8.70032 10.5471V131.285C8.70032 131.587 8.95137 131.832 9.26106 131.832H231.247C231.557 131.832 231.808 131.587 231.808 131.285V10.5471C231.808 10.2449 231.557 10 231.247 10Z" fill="white"/>
<path d="M230.442 23.6721H9.55796C9.24981 23.6721 9 23.8879 9 24.1541V130.531C9 130.797 9.24981 131.013 9.55796 131.013H230.442C230.75 131.013 231 130.797 231 130.531V24.1541C231 23.8879 230.75 23.6721 230.442 23.6721Z" fill="white"/>
<path d="M231.824 27.6113H8.70892V28.5961H231.824V27.6113Z" fill="#E8E8E8"/>
<path d="M33 18.5203V18.5021C33 17.1513 34.0335 16 35.4931 16C36.3362 16 36.8529 16.2357 37.3515 16.6527L36.8167 17.2964C36.445 16.9791 36.0823 16.7797 35.4659 16.7797C34.5774 16.7797 33.8975 17.5593 33.8975 18.484V18.5021C33.8975 19.4994 34.5502 20.2246 35.5384 20.2246C35.9917 20.2246 36.4087 20.0796 36.7079 19.862V18.9554H35.4659V18.2211H37.5238V20.2518C37.0433 20.6598 36.3634 21.0043 35.5112 21.0043C33.9972 21.0043 33 19.9255 33 18.5203Z" fill="#EB6067"/>
<path d="M38.6752 16.0907H39.5273V20.9227H38.6752V16.0907Z" fill="#EB6067"/>
<path d="M40.8147 16.0907H44.4138V16.8613H41.6668V18.1758H44.1055V18.9464H41.6668V20.9137H40.8147V16.0907Z" fill="#EB6067"/>
<path d="M46.5351 16.8794H45.003V16.0907H48.9285V16.8794H47.3964V20.9227H46.5442V16.8794H46.5351Z" fill="#EB6067"/>
<path d="M49.3908 20.2155L49.8985 19.6081C50.3609 20.007 50.8323 20.2337 51.4216 20.2337C51.9474 20.2337 52.2737 19.9889 52.2737 19.6263V19.6081C52.2737 19.2636 52.0834 19.0732 51.1859 18.8738C50.1614 18.629 49.5812 18.3208 49.5812 17.4324V17.4142C49.5812 16.5892 50.2702 16.009 51.2312 16.009C51.9383 16.009 52.4913 16.2266 52.9809 16.6164L52.5276 17.2601C52.0924 16.9337 51.6573 16.7615 51.2131 16.7615C50.7144 16.7615 50.4243 17.0153 50.4243 17.3326V17.3598C50.4243 17.7315 50.6419 17.8947 51.5757 18.1213C52.6001 18.3661 53.1259 18.7378 53.1259 19.5356V19.5537C53.1259 20.4603 52.4188 20.9952 51.4034 20.9952C50.6691 20.9861 49.9711 20.7323 49.3908 20.2155Z" fill="#EB6067"/>
<path d="M54.1413 16.0907H54.9935V18.1033H57.2962V16.0907H58.1483V20.9227H57.2962V18.8829H54.9935V20.9227H54.1413V16.0907Z" fill="#EB6067"/>
<path d="M59.1728 18.5203V18.5021C59.1728 17.1423 60.2244 16 61.7021 16C63.1889 16 64.2224 17.1242 64.2224 18.484V18.5021C64.2224 19.862 63.1708 21.0043 61.693 21.0043C60.2063 21.0043 59.1728 19.8801 59.1728 18.5203ZM63.3339 18.5203V18.5021C63.3339 17.5593 62.654 16.7797 61.693 16.7797C60.7321 16.7797 60.0612 17.5502 60.0612 18.484V18.5021C60.0612 19.445 60.7411 20.2156 61.7021 20.2156C62.6631 20.2156 63.3339 19.454 63.3339 18.5203Z" fill="#EB6067"/>
<path d="M65.2559 16.0907H67.1597C68.2929 16.0907 69 16.7344 69 17.7044V17.7225C69 18.8104 68.1297 19.3725 67.069 19.3725H66.1081V20.9227H65.2559V16.0907ZM67.0872 18.6019C67.7308 18.6019 68.1297 18.2393 68.1297 17.7407V17.7225C68.1297 17.1605 67.7218 16.8613 67.0872 16.8613H66.099V18.6019H67.0872Z" fill="#EB6067"/>
<path d="M206 14H172C171.448 14 171 14.4477 171 15V23C171 23.5523 171.448 24 172 24H206C206.552 24 207 23.5523 207 23V15C207 14.4477 206.552 14 206 14Z" fill="#EB6067"/>
<path d="M176.679 22H177.407V19.452C177.407 18.99 177.344 18.325 177.309 17.856H177.337L177.743 19.046L178.646 21.503H179.15L180.046 19.046L180.459 17.856H180.487C180.445 18.325 180.382 18.99 180.382 19.452V22H181.138V16.841H180.2L179.269 19.452C179.15 19.795 179.052 20.145 178.933 20.488H178.898C178.779 20.145 178.674 19.795 178.555 19.452L177.61 16.841H176.679V22ZM183.197 22H184.009V20.047L185.563 16.841H184.716L184.114 18.213C183.96 18.598 183.792 18.955 183.624 19.347H183.596C183.421 18.955 183.274 18.598 183.113 18.213L182.518 16.841H181.65L183.197 20.047V22ZM186.926 17.562H187.563V20.397C187.346 20.411 187.136 20.418 186.926 20.425V17.562ZM188.221 17.562H188.69V16.981H185.813V17.562H186.268V20.439C186.058 20.439 185.862 20.439 185.687 20.439L185.771 21.034C186.569 21.034 187.871 21.006 188.858 20.81L188.809 20.285C188.627 20.313 188.424 20.334 188.221 20.355V17.562ZM189.264 18.577H188.515V19.214H189.264V22.224H189.943V16.358H189.264V18.577ZM190.503 16.218V22.539H191.196V16.218H190.503ZM196.529 16.211V22.553H197.257V16.211H196.529ZM193.89 16.68C192.952 16.68 192.266 17.548 192.266 18.906C192.266 20.278 192.952 21.139 193.89 21.139C194.835 21.139 195.521 20.278 195.521 18.906C195.521 17.548 194.835 16.68 193.89 16.68ZM193.89 17.331C194.443 17.331 194.828 17.926 194.828 18.906C194.828 19.9 194.443 20.495 193.89 20.495C193.344 20.495 192.959 19.9 192.959 18.906C192.959 17.926 193.344 17.331 193.89 17.331ZM200.687 17.443H202.094V16.848H198.552V17.443H199.959V18.045C199.959 19.13 199.308 20.306 198.328 20.761L198.741 21.335C199.483 20.978 200.05 20.229 200.33 19.347C200.624 20.166 201.191 20.852 201.926 21.174L202.325 20.607C201.338 20.187 200.687 19.095 200.687 18.045V17.443ZM202.829 16.218V22.539H203.557V16.218H202.829Z" fill="white"/>
<rect x="33" y="43.1708" width="174" height="43.724" rx="2" fill="#E8E9EA"/>
<rect x="33.5" y="94.4851" width="37.4" height="36.8154" stroke="#E8E9EA"/>
<rect x="79.1" y="94.4851" width="37.4" height="36.8154" stroke="#E8E9EA"/>
<rect x="123.5" y="94.4851" width="37.4" height="36.8154" stroke="#E8E9EA"/>
<rect x="169.1" y="94.4851" width="37.4" height="36.8154" stroke="#E8E9EA"/>
<path fill-rule="evenodd" clip-rule="evenodd" d="M222.668 29.7992L201.606 21.8683C201.378 21.7827 201.131 21.7611 200.892 21.8061C200.652 21.851 200.431 21.9606 200.251 22.1226C200.07 22.2865 199.938 22.4957 199.868 22.7278C199.798 22.9599 199.794 23.2062 199.856 23.4404L205.557 45.1759C205.622 45.4355 205.766 45.6692 205.971 45.8449C206.176 46.0206 206.431 46.1298 206.702 46.1574C206.972 46.1851 207.245 46.1299 207.482 45.9994C207.72 45.8688 207.91 45.6694 208.028 45.4284L211.189 39.0538L219.028 47.7428C219.153 47.8823 219.305 47.9959 219.475 48.077C219.646 48.158 219.83 48.2049 220.019 48.2148C220.208 48.2247 220.397 48.1974 220.575 48.1347C220.753 48.0719 220.916 47.9748 221.056 47.8491L223.712 45.4624C223.996 45.2057 224.166 44.8499 224.186 44.4715C224.205 44.0931 224.073 43.7221 223.818 43.4381L215.978 34.7492L222.659 32.2778C222.913 32.1811 223.132 32.0114 223.286 31.7908C223.44 31.5702 223.524 31.3091 223.524 31.0414C223.525 30.7738 223.444 30.5121 223.291 30.2905C223.139 30.0689 222.921 29.8976 222.668 29.7992Z" fill="white"/>
<path fill-rule="evenodd" clip-rule="evenodd" d="M200.736 21.0373C201.127 20.964 201.531 20.9992 201.901 21.1386L222.963 29.0697L222.668 29.7992L222.972 29.0728C223.379 29.231 223.725 29.5051 223.968 29.8569C224.21 30.2086 224.338 30.6223 224.337 31.0441C224.335 31.466 224.205 31.8788 223.96 32.2288C223.714 32.579 223.366 32.8508 222.958 33.0063L222.95 33.0091L217.353 35.0795L224.432 42.925C224.826 43.363 225.027 43.9325 224.997 44.511C224.967 45.0895 224.707 45.6366 224.268 46.0335L224.266 46.0353L221.611 48.4209C221.611 48.421 221.611 48.4209 221.611 48.4209C221.393 48.6179 221.135 48.771 220.854 48.8702C220.573 48.9694 220.274 49.0125 219.975 48.9969C219.676 48.9812 219.384 48.907 219.115 48.7791C218.848 48.6516 218.609 48.4733 218.414 48.2556C218.414 48.2552 218.414 48.2548 218.413 48.2544L211.388 40.4681L208.763 45.7615C208.763 45.7624 208.762 45.7633 208.762 45.7642C208.574 46.1483 208.269 46.4688 207.885 46.6797C207.5 46.8912 207.057 46.9813 206.616 46.9363C206.175 46.8912 205.762 46.7136 205.431 46.4301C205.102 46.1481 204.872 45.7753 204.768 45.3636L199.068 23.6335C199.068 23.6333 199.069 23.6336 199.068 23.6335C198.971 23.2644 198.978 22.876 199.087 22.5102C199.197 22.1442 199.407 21.8125 199.695 21.5514C199.985 21.2896 200.346 21.1107 200.736 21.0373ZM222.367 30.5269L201.31 22.5979C201.31 22.5979 201.311 22.598 201.31 22.5979C201.226 22.5662 201.135 22.5584 201.047 22.5749C200.959 22.5914 200.876 22.632 200.807 22.694C200.733 22.7607 200.678 22.8473 200.648 22.9454C200.619 23.0436 200.617 23.1482 200.643 23.2474L200.644 23.2484L206.347 44.9937C206.374 45.099 206.432 45.1915 206.511 45.2597C206.59 45.3277 206.687 45.3683 206.787 45.3786C206.888 45.3888 206.99 45.3686 207.08 45.319C207.17 45.2694 207.245 45.192 207.292 45.0954L207.295 45.0907L210.456 38.7161C210.574 38.478 210.808 38.3133 211.08 38.2778C211.351 38.2423 211.622 38.3408 211.802 38.5399L219.644 47.2312C219.698 47.292 219.763 47.3405 219.835 47.3748C219.907 47.4091 219.985 47.4286 220.063 47.4327C220.142 47.4369 220.221 47.4256 220.296 47.3992C220.371 47.3728 220.44 47.3316 220.5 47.2774L220.502 47.2762L223.156 44.8913C223.156 44.891 223.156 44.8908 223.157 44.8906C223.285 44.7742 223.365 44.61 223.374 44.432C223.383 44.2537 223.321 44.0812 223.204 43.9513L215.365 35.2632C215.191 35.0703 215.126 34.8078 215.19 34.5598C215.254 34.3118 215.44 34.1095 215.687 34.018L222.363 31.5483C222.462 31.5101 222.549 31.4428 222.612 31.3528C222.676 31.2617 222.712 31.1522 222.712 31.0388C222.712 30.9253 222.678 30.8156 222.615 30.724C222.552 30.6336 222.466 30.5658 222.367 30.5269Z" fill="#3F3F3F"/>
</svg>
