<svg width="164" height="185" viewBox="0 0 164 185" fill="none" xmlns="http://www.w3.org/2000/svg">
<mask id="mask0" mask-type="alpha" maskUnits="userSpaceOnUse" x="0" y="0" width="164" height="185">
<path d="M0 20C0 8.9543 8.95431 0 20 0H144C155.046 0 164 8.95431 164 20V185H0V20Z" fill="#23A685"/>
</mask>
<g mask="url(#mask0)">
<path d="M0 19.7316C0 8.83413 8.88833 0 19.8526 0H144.147C155.112 0 164 8.83413 164 19.7316V306.268C164 317.166 155.112 326 144.147 326H19.8526C8.88832 326 0 317.166 0 306.268V19.7316Z" fill="#323232"/>
<path d="M6.99998 24.192C6.99998 14.6971 14.7192 7 24.2414 7H139.759C149.281 7 157 14.6971 157 24.192V289.808C157 299.303 149.281 307 139.759 307H24.2414C14.7192 307 6.99998 299.303 6.99998 289.808V24.192Z" fill="#7E8187"/>
<path d="M30 7H140C149.389 7 157 14.6112 157 24V185H30V7Z" fill="white"/>
<path fill-rule="evenodd" clip-rule="evenodd" d="M147 22.88L145.88 24L143 21.12L140.12 24L139 22.88L141.88 20L139 17.12L140.12 16L143 18.88L145.88 16L147 17.12L144.12 20L147 22.88V22.88Z" fill="#7E8187"/>
<rect x="35" y="66" width="20" height="5" rx="2" fill="#E0E6EB"/>
<rect x="76" y="66" width="62" height="5" rx="2" fill="#E0E6EB"/>
<rect x="76" y="90" width="52" height="5" rx="2" fill="#E0E6EB"/>
<rect x="76" y="115" width="45" height="5" rx="2" fill="#E0E6EB"/>
<rect x="76" y="140" width="67" height="5" rx="2" fill="#E0E6EB"/>
<rect x="76" y="165" width="53" height="5" rx="2" fill="#E0E6EB"/>
<rect x="35" y="90" width="25" height="5" rx="2" fill="#E0E6EB"/>
<rect x="35" y="115" width="25" height="5" rx="2" fill="#E0E6EB"/>
<rect x="35" y="140" width="25" height="5" rx="2" fill="#E0E6EB"/>
<rect x="35" y="165" width="25" height="5" rx="2" fill="#E0E6EB"/>
<path d="M142.852 49.2726L145.814 46L142.852 42.7274L142.73 42.5932L142.852 42.459L143.389 41.8658L143.537 41.702L143.685 41.8658L147.037 45.5686C147.254 45.8088 147.254 46.1912 147.037 46.4314L143.685 50.1342L143.537 50.298L143.389 50.1342L142.852 49.541L142.73 49.4068L142.852 49.2726Z" fill="#3F3356" stroke="#3F3356" stroke-width="0.4"/>
<path d="M80.488 45.809V46.579H82.105V47.019H83.172V41.101H82.105V45.809H80.488ZM79.124 42.047C79.828 42.047 80.279 42.3 80.279 42.729C80.279 43.169 79.828 43.422 79.124 43.422C78.431 43.422 77.98 43.169 77.98 42.729C77.98 42.3 78.431 42.047 79.124 42.047ZM79.124 44.214C80.422 44.214 81.291 43.642 81.291 42.729C81.291 41.838 80.422 41.255 79.124 41.255C77.837 41.255 76.957 41.838 76.957 42.729C76.957 43.642 77.837 44.214 79.124 44.214ZM78.618 47.008H79.707V45.457C80.4 45.413 81.082 45.314 81.698 45.182L81.632 44.412C80.015 44.676 77.837 44.698 76.495 44.698L76.605 45.567C77.166 45.567 77.859 45.556 78.618 45.523V47.008ZM83.898 49.835H79.3V49.054H83.898V49.835ZM83.898 48.196H79.3V47.393H78.178V50.726H85.02V47.393H83.898V48.196ZM83.942 40.914V47.052H85.02V40.914H83.942ZM89.6611 41.739H88.5281V43.367C88.5281 45.204 87.5601 47.085 86.0091 47.844L86.7021 48.757C87.8351 48.174 88.6711 47.019 89.1001 45.644C89.5291 46.942 90.3211 48.02 91.3881 48.57L92.0811 47.668C90.5851 46.931 89.6611 45.138 89.6611 43.367V41.739ZM95.4251 44.852H93.8741V40.914H92.7411V50.847H93.8741V45.787H95.4251V44.852ZM102.838 40.903V50.869H103.982V40.903H102.838ZM98.6913 41.64C97.2173 41.64 96.1393 43.004 96.1393 45.138C96.1393 47.294 97.2173 48.647 98.6913 48.647C100.176 48.647 101.254 47.294 101.254 45.138C101.254 43.004 100.176 41.64 98.6913 41.64ZM98.6913 42.663C99.5603 42.663 100.165 43.598 100.165 45.138C100.165 46.7 99.5603 47.635 98.6913 47.635C97.8333 47.635 97.2283 46.7 97.2283 45.138C97.2283 43.598 97.8333 42.663 98.6913 42.663ZM113.43 46.161H107.699V44.797H113.133V43.906H107.699V42.63H113.353V41.717H106.544V47.074H113.43V46.161ZM105.433 48.702V49.626H114.442V48.702H105.433ZM117.946 46.238C119.574 46.018 120.872 45.292 121.51 44.302C122.159 45.292 123.457 46.029 125.074 46.238L125.481 45.347C123.556 45.116 122.192 44.06 122.093 43.004H125.162V42.091H122.082V40.925H120.949V42.091H117.88V43.004H120.938C120.839 44.071 119.475 45.116 117.55 45.347L117.946 46.238ZM126.009 46.887H117.033V47.822H120.949V50.869H122.082V47.822H126.009V46.887ZM127.141 41.959V42.883H130.617C130.386 45.171 129.077 46.92 126.646 48.163L127.273 49.032C130.518 47.393 131.75 44.841 131.75 41.959H127.141ZM135.853 44.83H134.346V40.903H133.213V50.836H134.346V45.776H135.853V44.83Z" fill="black"/>
<rect x="30" y="31" width="127" height="1" fill="#E0E6EB"/>
<rect x="70" y="31" width="154" height="0.999993" transform="rotate(90 70 31)" fill="#E0E6EB"/>
<rect x="30" y="31" width="127" height="1" fill="#E0E6EB"/>
<rect x="30" y="80" width="39" height="1" fill="#E0E6EB"/>
<rect x="30" y="105" width="39" height="1" fill="#E0E6EB"/>
<rect x="30" y="130" width="39" height="1" fill="#E0E6EB"/>
<rect x="30" y="155" width="39" height="1" fill="#E0E6EB"/>
<rect x="30" y="32" width="39" height="24" fill="#23A685"/>
<path d="M37.067 49H38.211V44.996C38.211 44.27 38.112 43.225 38.057 42.488H38.101L38.739 44.358L40.158 48.219H40.95L42.358 44.358L43.007 42.488H43.051C42.985 43.225 42.886 44.27 42.886 44.996V49H44.074V40.893H42.6L41.137 44.996C40.95 45.535 40.796 46.085 40.609 46.624H40.554C40.367 46.085 40.202 45.535 40.015 44.996L38.53 40.893H37.067V49ZM45.8679 51.53C47.1439 51.53 47.7819 50.661 48.2549 49.363L50.4769 42.95H49.2449L48.2769 46.063C48.1229 46.613 47.9579 47.218 47.8039 47.768H47.7489C47.5619 47.207 47.3749 46.602 47.1989 46.063L46.0769 42.95H44.7789L47.1769 48.956L47.0559 49.374C46.8359 50.023 46.4509 50.507 45.7909 50.507C45.6369 50.507 45.4609 50.452 45.3509 50.419L45.1089 51.409C45.3179 51.486 45.5599 51.53 45.8679 51.53Z" fill="white"/>
<path fill-rule="evenodd" clip-rule="evenodd" d="M147.634 77.4946L140.007 82.44C139.168 82.984 138.127 82.75 138.127 82.75L130.529 80.5917C129.948 80.4373 129.439 80.0485 129.099 79.4998L125.965 73.4036C125.86 73.2003 125.832 72.959 125.886 72.7323C125.94 72.5057 126.072 72.3122 126.253 72.1943L126.594 71.974C126.863 71.7997 127.16 71.6866 127.468 71.6411C127.776 71.5957 128.09 71.6187 128.39 71.7091C128.69 71.7994 128.971 71.9551 129.217 72.1674C129.463 72.3797 129.67 72.6442 129.824 72.9459L131.597 76.3955C131.623 76.4457 131.657 76.4896 131.698 76.5248C131.739 76.56 131.786 76.5857 131.836 76.6006C131.886 76.6155 131.939 76.6193 131.99 76.6116C132.041 76.6039 132.091 76.585 132.136 76.5559C132.18 76.5269 132.22 76.4882 132.251 76.4422C132.283 76.3961 132.306 76.3436 132.319 76.2876C132.332 76.2316 132.336 76.1732 132.329 76.1158C132.322 76.0583 132.305 76.003 132.279 75.9528L124.003 59.8551L124.008 59.8522C123.788 59.3746 123.74 58.8207 123.875 58.305C124.01 57.7894 124.317 57.3516 124.733 57.0822C125.148 56.8128 125.64 56.7325 126.107 56.8578C126.574 56.9832 126.98 57.3046 127.241 57.7556L127.246 57.7527L131.383 65.8017C131.436 65.903 131.522 65.9767 131.623 66.0068C131.724 66.0369 131.832 66.0208 131.922 65.9621C132.013 65.9034 132.079 65.8069 132.106 65.6938C132.133 65.5807 132.118 65.4603 132.066 65.359L130.786 62.8677L130.79 62.8649C130.57 62.3873 130.523 61.8333 130.658 61.3177C130.793 60.8021 131.1 60.3642 131.515 60.0948C131.931 59.8255 132.423 59.7451 132.89 59.8705C133.357 59.9958 133.763 60.3172 134.024 60.7682L134.028 60.7656L135.505 63.6401C135.531 63.6902 135.566 63.7341 135.607 63.7694C135.648 63.8046 135.695 63.8304 135.745 63.8453C135.795 63.8602 135.847 63.8639 135.898 63.8563C135.95 63.8486 135.999 63.8297 136.044 63.8007C136.089 63.7716 136.128 63.733 136.16 63.687C136.191 63.6409 136.214 63.5884 136.227 63.5324C136.241 63.4764 136.244 63.418 136.237 63.3606C136.23 63.3031 136.214 63.2477 136.188 63.1976L135.597 62.0478L135.601 62.0449C135.381 61.5673 135.334 61.0134 135.469 60.4978C135.604 59.9821 135.911 59.5443 136.326 59.2749C136.742 59.0055 137.234 58.9252 137.701 59.0505C138.168 59.1759 138.574 59.4973 138.835 59.9483L138.839 59.9454L139.627 61.4786C139.679 61.5799 139.766 61.6537 139.867 61.6837C139.968 61.7138 140.075 61.6978 140.166 61.6391C140.256 61.5803 140.322 61.4838 140.349 61.3707C140.376 61.2576 140.362 61.1372 140.309 61.0359V61.0359L140.314 61.0333C140.12 60.6064 140.08 60.1126 140.201 59.6535C140.322 59.1944 140.597 58.8048 140.967 58.5647C141.337 58.3246 141.775 58.2523 142.192 58.3626C142.608 58.473 142.971 58.7575 143.206 59.1579L143.21 59.155L147.151 66.8208L147.939 68.3538L149.219 70.8453C149.794 71.9629 149.95 73.2898 149.653 74.5359C149.356 75.7819 148.63 76.8457 147.634 77.4946V77.4946Z" fill="white"/>
<path fill-rule="evenodd" clip-rule="evenodd" d="M125.9 57.6305C125.658 57.5655 125.399 57.604 125.168 57.7534C124.933 57.9056 124.738 58.1689 124.649 58.5076C124.561 58.8468 124.593 59.2107 124.734 59.5176C124.742 59.5348 124.75 59.5522 124.756 59.5697L132.989 75.5847C132.989 75.5852 132.99 75.5857 132.99 75.5861C133.061 75.7233 133.105 75.871 133.123 76.021C133.141 76.1715 133.132 76.3246 133.097 76.4726C133.062 76.6207 133 76.764 132.912 76.8935C132.823 77.023 132.709 77.1378 132.571 77.2271C132.433 77.3165 132.276 77.3777 132.108 77.4028C131.94 77.4279 131.77 77.4155 131.608 77.3674C131.447 77.3193 131.301 77.2379 131.178 77.1327C131.056 77.0278 130.958 76.9013 130.886 76.7636L130.885 76.7611L129.112 73.3106C129.003 73.0968 128.859 72.9152 128.695 72.7732C128.53 72.6315 128.348 72.5319 128.159 72.4751C127.971 72.4184 127.776 72.4043 127.585 72.4325C127.394 72.4608 127.205 72.5316 127.029 72.6453L126.69 72.8644C126.689 72.8651 126.686 72.8678 126.682 72.8736C126.676 72.8826 126.669 72.8973 126.664 72.9179C126.653 72.9624 126.661 73.0077 126.676 73.0374L129.794 79.103C130.035 79.4784 130.374 79.7227 130.735 79.8185L130.748 79.822L138.314 81.9714C138.331 81.9744 138.361 81.9792 138.399 81.9839C138.479 81.9936 138.596 82.0028 138.732 81.9993C139.013 81.9919 139.32 81.9318 139.572 81.7687L147.197 76.8244C147.198 76.8242 147.197 76.8245 147.197 76.8244C148.007 76.2964 148.621 75.4137 148.875 74.3504C149.128 73.2864 148.993 72.1554 148.507 71.2113L147.227 68.7195L146.439 67.1866L142.54 59.602C142.532 59.5891 142.524 59.5759 142.516 59.5625C142.379 59.3287 142.183 59.1878 141.987 59.136C141.795 59.085 141.588 59.1153 141.402 59.2359C141.212 59.3593 141.049 59.5752 140.974 59.8582C140.899 60.1415 140.926 60.446 141.042 60.7027C141.057 60.7355 141.069 60.7689 141.08 60.8026C141.171 61.0437 141.187 61.3073 141.127 61.5557C141.057 61.8519 140.878 62.1304 140.601 62.3102C140.319 62.4931 139.97 62.5491 139.638 62.4505C139.311 62.3531 139.06 62.1234 138.917 61.8467L138.915 61.8442L138.169 60.3923C138.16 60.3782 138.151 60.3638 138.142 60.349C137.978 60.0656 137.739 59.8891 137.493 59.8232C137.251 59.7582 136.992 59.7967 136.761 59.9462C136.527 60.0983 136.331 60.3616 136.243 60.7003C136.154 61.0395 136.186 61.4034 136.328 61.7103C136.336 61.7276 136.343 61.745 136.35 61.7625L136.898 62.8297C136.898 62.8303 136.899 62.8308 136.899 62.8313C136.97 62.9685 137.014 63.1161 137.032 63.266C137.05 63.4165 137.041 63.5696 137.006 63.7177C136.971 63.8657 136.909 64.009 136.82 64.1385C136.731 64.2681 136.617 64.3828 136.479 64.472C136.341 64.5614 136.184 64.6225 136.016 64.6475C135.848 64.6726 135.678 64.6601 135.516 64.6119C135.355 64.5639 135.21 64.4824 135.086 64.3771C134.964 64.272 134.866 64.1455 134.795 64.0079L134.793 64.0057L133.358 61.2114C133.348 61.1976 133.34 61.1834 133.331 61.1689C133.167 60.8855 132.928 60.709 132.682 60.6431C132.44 60.5781 132.181 60.6166 131.95 60.7661C131.716 60.9182 131.52 61.1815 131.432 61.5202C131.343 61.8594 131.375 62.2233 131.517 62.5302C131.525 62.5475 131.532 62.5649 131.539 62.5825L132.776 64.9909C132.776 64.9915 132.777 64.992 132.777 64.9926C132.919 65.2673 132.954 65.5837 132.884 65.8788C132.814 66.1749 132.635 66.4534 132.358 66.6333C132.076 66.8161 131.726 66.8722 131.395 66.7736C131.068 66.6762 130.817 66.4464 130.673 66.1698L130.672 66.1674L126.576 58.1997C126.567 58.1856 126.558 58.1711 126.549 58.1563C126.385 57.8729 126.146 57.6964 125.9 57.6305ZM127.878 57.2632C127.518 56.6903 126.969 56.2607 126.315 56.0852C125.623 55.8995 124.898 56.0216 124.298 56.4109C123.701 56.7976 123.283 57.4099 123.101 58.1025C122.929 58.7605 122.977 59.4654 123.239 60.0904C123.252 60.1347 123.27 60.1783 123.292 60.2208L128.844 71.02C128.77 70.9914 128.696 70.9657 128.62 70.943C128.208 70.819 127.777 70.787 127.352 70.8497C126.927 70.9123 126.522 71.0675 126.16 71.302C126.16 71.3019 126.16 71.3022 126.16 71.302L125.819 71.5222L125.817 71.5238C125.449 71.7628 125.205 72.1376 125.107 72.5468C125.01 72.9555 125.059 73.3929 125.253 73.7697L128.387 79.8656C128.397 79.8847 128.407 79.9033 128.419 79.9216C128.857 80.6273 129.526 81.1508 130.317 81.3629L137.909 83.5195C137.923 83.5236 137.937 83.5273 137.952 83.5305L138.127 82.75C137.952 83.5305 137.952 83.5304 137.952 83.5305L137.953 83.5307L137.954 83.531L137.957 83.5316L137.963 83.533L137.981 83.5366C137.995 83.5394 138.012 83.5429 138.034 83.5467C138.077 83.5543 138.136 83.5636 138.207 83.5722C138.348 83.5894 138.544 83.6047 138.773 83.5987C139.222 83.587 139.855 83.4922 140.442 83.1112L148.069 78.1659L147.634 77.4944L148.071 78.1649C149.253 77.3949 150.091 76.1498 150.431 74.7213C150.771 73.2934 150.594 71.7707 149.93 70.4797C149.93 70.4798 149.93 70.4796 149.93 70.4797L148.65 67.9882L147.862 66.4552L143.922 58.7893C143.898 58.7435 143.87 58.7004 143.839 58.6605C143.505 58.1398 142.999 57.7488 142.397 57.5893C141.756 57.4196 141.086 57.534 140.532 57.8935C139.994 58.2422 139.613 58.788 139.439 59.4056C139.079 58.858 138.543 58.4482 137.908 58.2779C137.216 58.0922 136.491 58.2144 135.891 58.6037C135.295 58.9903 134.876 59.6026 134.695 60.2952C134.693 60.302 134.691 60.3089 134.69 60.3157C134.681 60.3025 134.671 60.2896 134.661 60.277C134.301 59.7036 133.752 59.2735 133.097 59.0978C132.405 58.9121 131.68 59.0343 131.08 59.4236C130.484 59.8102 130.065 60.4225 129.884 61.1151C129.883 61.1194 129.882 61.1237 129.88 61.128L127.957 57.3869C127.935 57.343 127.908 57.3016 127.878 57.2632ZM139.573 61.3362C139.579 61.359 139.587 61.3817 139.599 61.404L140.293 61.0445C140.292 61.0441 140.292 61.0437 140.292 61.0432L139.585 61.3639C139.581 61.3547 139.577 61.3455 139.573 61.3362ZM140.3 61.0392L140.301 61.0402L140.309 61.0359L140.3 61.0392Z" fill="#3F3F3F"/>
</g>
</svg>
