<?xml version="1.0" encoding="UTF-8"?>
<svg width="164px" height="185px" viewBox="0 0 164 185" version="1.1" xmlns="http://www.w3.org/2000/svg" xmlns:xlink="http://www.w3.org/1999/xlink">
    <!-- Generator: Sketch 62 (91390) - https://sketch.com -->
    <title>Group 34</title>
    <desc>Created with Sketch.</desc>
    <defs>
        <polygon id="path-1" points="0 0.0002 164 0.0002 164 185 0 185"></polygon>
        <polygon id="path-3" points="0 0.0001 164 0.0001 164 185 0 185"></polygon>
        <polygon id="path-5" points="7 7.0001 157 7.0001 157 185 7 185"></polygon>
        <polygon id="path-7" points="0 0.0001 150 0.0001 150 24 0 24"></polygon>
        <path d="M11.603,0.262 L10.83,3.741 L10.805,3.741 L9.934,0.262 L8.684,0.262 L7.804,3.741 L7.772,3.741 L7.048,0.262 L5.494,0.262 L6.81,5.788 L8.372,5.788 L9.227,2.383 L9.251,2.383 L10.074,5.788 L11.627,5.788 L12.952,0.262 L11.603,0.262 Z M0.618,0.262 L0.618,5.788 L2.164,5.788 L2.164,3.954 L2.953,3.954 C4.343,3.954 5.1,3.313 5.1,2.063 L5.1,2.063 C5.1,0.904 4.384,0.262 2.913,0.262 L2.913,0.262 L0.618,0.262 Z M2.164,1.323 L2.764,1.323 C3.265,1.323 3.496,1.528 3.496,2.145 L3.496,2.145 C3.496,2.696 3.299,2.959 2.732,2.959 L2.732,2.959 L2.164,2.959 L2.164,1.323 Z" id="path-9"></path>
    </defs>
    <g id="(B-1)인증_오토패스워드" stroke="none" stroke-width="1" fill="none" fill-rule="evenodd">
        <g id="Group-34">
            <g id="Group-13">
                <mask id="mask-2" fill="white">
                    <use xlink:href="#path-1"></use>
                </mask>
                <g id="Clip-5"></g>
                <path d="M0,20.0002 C0,8.9502 8.954,0.0002 20,0.0002 L144,0.0002 C155.046,0.0002 164,8.9502 164,20.0002 L164,185.0002 L0,185.0002 L0,20.0002 Z" id="Fill-4" fill="#23A685" mask="url(#mask-2)"></path>
                <mask id="mask-4" fill="white">
                    <use xlink:href="#path-3"></use>
                </mask>
                <g id="Clip-8"></g>
                <path d="M0,19.7301 C0,8.8301 8.888,0.0001 19.853,0.0001 L144.147,0.0001 C155.112,0.0001 164,8.8301 164,19.7301 L164,185.0001 L144.147,185.0001 L19.853,185.0001 L0,185.0001 L0,19.7301 Z" id="Fill-7" fill="#323232" mask="url(#mask-4)"></path>
                <mask id="mask-6" fill="white">
                    <use xlink:href="#path-5"></use>
                </mask>
                <g id="Clip-11"></g>
                <path d="M7,24.1901 C7,14.7001 14.719,7.0001 24.241,7.0001 L139.759,7.0001 C149.281,7.0001 157,14.7001 157,24.1901 L157,185.0001 L139.759,185.0001 L24.241,185.0001 L7,185.0001 L7,24.1901 Z" id="Fill-10" fill="#FFFFFF" mask="url(#mask-6)"></path>
            </g>
            <g id="Group-16" transform="translate(7.000000, 7.000000)">
                <mask id="mask-8" fill="white">
                    <use xlink:href="#path-7"></use>
                </mask>
                <g id="Clip-15"></g>
                <path d="M0,17.1901 C0,7.7001 7.719,0.0001 17.241,0.0001 L132.759,0.0001 C142.281,0.0001 150,7.7001 150,17.1901 L150,178.0001 L132.759,178.0001 L17.241,178.0001 L0,178.0001 L0,17.1901 Z" id="Fill-14" fill="#23A685" mask="url(#mask-8)"></path>
            </g>
            <g id="Group-30" transform="translate(7.000000, 16.000000)">
                <polygon id="Fill-17" fill="#FFFFFF" points="140 6.88 138.88 8 136 5.12 133.12 8 132 6.88 134.88 4 132 1.12 133.12 0 136 2.88 138.88 0 140 1.12 137.12 4"></polygon>
                <g id="Group-20" transform="translate(16.000000, 54.000000)" fill="#000000" font-family="NotoSansCJKkr-Medium, Noto Sans CJK KR" font-size="6" font-weight="400" letter-spacing="-0.045">
                    <text id="간편로그인">
                        <tspan x="1.4814" y="7.166882">간편로그인</tspan>
                    </text>
                    <text id="사이트-추가">
                        <tspan x="0.9414" y="14.366882">사이트 추가</tspan>
                    </text>
                </g>
                <polygon id="Fill-21" fill="#E0E6EB" points="0 87.739 150 87.739 150 86.226 0 86.226"></polygon>
                <path d="M72.9937,77.0495 L65.3667,81.9995 C64.5277,82.5395 63.4867,82.3095 63.4867,82.3095 L55.8887,80.1495 C55.3077,79.9995 54.7987,79.6095 54.4587,79.0595 L51.3247,72.9595 C51.2197,72.7585 51.1917,72.5195 51.2457,72.2895 C51.2997,72.0695 51.4317,71.8695 51.6127,71.7495 L51.9537,71.5295 C52.2227,71.3595 52.5197,71.2495 52.8277,71.1995 C53.1357,71.1595 53.4497,71.1795 53.7497,71.2695 C54.0497,71.3595 54.3307,71.5195 54.5767,71.7295 C54.8227,71.9395 55.0297,72.1995 55.1837,72.5085 L56.9567,75.9595 C56.9827,76.0085 57.0167,76.0495 57.0577,76.0795 C57.0987,76.1195 57.1457,76.1495 57.1957,76.1595 C57.2457,76.1795 57.2987,76.1795 57.3497,76.1695 C57.4007,76.1595 57.4507,76.1495 57.4957,76.1195 C57.5397,76.0895 57.5797,76.0495 57.6107,75.9995 C57.6427,75.9595 57.6657,75.8995 57.6787,75.8495 C57.6917,75.7895 57.6957,75.7295 57.6887,75.6795 C57.6817,75.6195 57.6647,75.5595 57.6387,75.5085 L49.3637,59.4195 L49.3677,59.4095 C49.1477,58.9295 49.1007,58.3795 49.2347,57.8695 C49.3697,57.3495 49.6767,56.9095 50.0927,56.6395 C50.5077,56.3695 51.0007,56.2895 51.4667,56.4195 C51.9337,56.5395 52.3397,56.8595 52.6007,57.3195 L52.6057,57.3095 L56.7437,65.3595 C56.7957,65.4595 56.8817,65.5395 56.9827,65.5695 C57.0837,65.5995 57.1917,65.5795 57.2827,65.5195 C57.3727,65.4595 57.4387,65.3695 57.4657,65.2495 C57.4927,65.1395 57.4777,65.0195 57.4257,64.9195 L56.1457,62.4295 L56.1497,62.4195 C55.9297,61.9495 55.8827,61.3895 56.0177,60.8795 C56.1527,60.3595 56.4597,59.9195 56.8747,59.6495 C57.2907,59.3895 57.7827,59.3095 58.2497,59.4295 C58.7167,59.5595 59.1227,59.8795 59.3837,60.3295 L59.3877,60.3295 L60.8647,63.1995 C60.8907,63.2495 60.9257,63.2895 60.9667,63.3295 C61.0077,63.3595 61.0547,63.3895 61.1047,63.4095 C61.1547,63.4195 61.2067,63.4195 61.2577,63.4195 C61.3097,63.4095 61.3587,63.3895 61.4037,63.3595 C61.4487,63.3295 61.4877,63.2895 61.5197,63.2495 C61.5507,63.1995 61.5737,63.1495 61.5877,63.0895 C61.6007,63.0395 61.6037,62.9795 61.5967,62.9195 C61.5907,62.8595 61.5737,62.8095 61.5477,62.7585 L60.9567,61.6095 L60.9607,61.5995 C60.7407,61.1295 60.6937,60.5695 60.8287,60.0595 C60.9637,59.5395 61.2707,59.0995 61.6857,58.8295 C62.1017,58.5695 62.5937,58.4895 63.0607,58.6095 C63.5277,58.7395 63.9337,59.0595 64.1947,59.5085 L64.1987,59.5085 L64.9867,61.0395 C65.0387,61.1395 65.1257,61.2095 65.2267,61.2395 C65.3277,61.2695 65.4347,61.2585 65.5257,61.1995 C65.6157,61.1395 65.6817,61.0395 65.7087,60.9295 C65.7357,60.8195 65.7217,60.6995 65.6687,60.5995 L65.6737,60.5895 C65.4797,60.1695 65.4397,59.6695 65.5607,59.2095 C65.6827,58.7495 65.9567,58.3595 66.3267,58.1195 C66.6967,57.8795 67.1347,57.8095 67.5517,57.9195 C67.9677,58.0295 68.3307,58.3195 68.5657,58.7195 L68.5697,58.7195 L72.5107,66.3795 L73.2987,67.9095 L74.5787,70.4095 C75.1537,71.5195 75.3097,72.8495 75.0127,74.0995 C74.7157,75.3395 73.9897,76.4095 72.9937,77.0495" id="Fill-23" fill="#FFFFFF"></path>
                <path d="M64.9327,60.8993 C64.9387,60.9193 64.9467,60.9393 64.9587,60.9593 L65.6527,60.5993 L65.6517,60.5993 L64.9447,60.9193 C64.9407,60.9093 64.9367,60.9093 64.9327,60.8993 L64.9327,60.8993 Z M53.2377,56.8193 C52.8777,56.2493 52.3287,55.8193 51.6747,55.6493 C50.9827,55.4593 50.2577,55.5793 49.6577,55.9693 C49.0607,56.3593 48.6427,56.9693 48.4607,57.6593 C48.2887,58.3193 48.3367,59.0293 48.5987,59.6493 C48.6117,59.6893 48.6297,59.7393 48.6517,59.7793 L54.2037,70.5793 C54.1297,70.5493 54.0557,70.5293 53.9797,70.4993 C53.5677,70.3793 53.1367,70.3493 52.7117,70.4093 C52.2867,70.4693 51.8817,70.6293 51.5197,70.8593 L51.1787,71.0793 L51.1767,71.0793 C50.8087,71.3193 50.5647,71.6993 50.4667,72.1093 C50.3697,72.5193 50.4187,72.9493 50.6127,73.3293 L53.7467,79.4293 C53.7567,79.4393 53.7667,79.4593 53.7787,79.4793 C54.2167,80.1893 54.8857,80.7093 55.6767,80.9193 L63.2687,83.0793 C63.2827,83.0793 63.2967,83.0893 63.3117,83.0893 L63.4867,82.3093 L63.3117,83.0893 L63.3127,83.0893 L63.3137,83.0893 L63.3167,83.0893 L63.3227,83.0893 L63.3407,83.0993 C63.3547,83.0993 63.3717,83.0993 63.3937,83.1093 C63.4367,83.1093 63.4957,83.1193 63.5667,83.1293 C63.7077,83.1493 63.9037,83.1593 64.1327,83.1593 C64.5817,83.1493 65.2147,83.0493 65.8017,82.6693 L73.4287,77.7293 L72.9937,77.0493 L73.4307,77.7193 C74.6127,76.9493 75.4507,75.7093 75.7907,74.2793 C76.1307,72.8493 75.9537,71.3293 75.2897,70.0393 L74.0097,67.5493 L73.2217,66.0193 L69.2817,58.3493 C69.2577,58.2993 69.2297,58.2593 69.1987,58.2193 C68.8647,57.6993 68.3587,57.3093 67.7567,57.1493 C67.1157,56.9793 66.4457,57.0893 65.8917,57.4493 C65.3537,57.7993 64.9727,58.3493 64.7987,58.9693 C64.4387,58.4193 63.9027,58.0093 63.2677,57.8393 C62.5757,57.6493 61.8507,57.7693 61.2507,58.1593 C60.6547,58.5493 60.2357,59.1593 60.0547,59.8593 C60.0527,59.8593 60.0507,59.8693 60.0497,59.8793 C60.0407,59.8593 60.0307,59.8493 60.0207,59.8393 C59.6607,59.2593 59.1117,58.8293 58.4567,58.6593 C57.7647,58.4693 57.0397,58.5893 56.4397,58.9793 C55.8437,59.3693 55.4247,59.9793 55.2437,60.6793 C55.2427,60.6793 55.2417,60.6793 55.2397,60.6893 L53.3167,56.9493 C53.2947,56.8993 53.2677,56.8593 53.2377,56.8193 L53.2377,56.8193 Z M51.2597,57.1893 C51.0177,57.1293 50.7587,57.1593 50.5277,57.3093 C50.2927,57.4693 50.0977,57.7293 50.0087,58.0693 C49.9207,58.4093 49.9527,58.7693 50.0937,59.0793 C50.1017,59.0893 50.1097,59.1093 50.1157,59.1293 L58.3487,75.1393 C58.3487,75.1493 58.3497,75.1493 58.3497,75.1493 C58.4207,75.2793 58.4647,75.4293 58.4827,75.5793 C58.5007,75.7293 58.4917,75.8793 58.4567,76.0293 C58.4217,76.1793 58.3597,76.3193 58.2717,76.4493 C58.1827,76.5793 58.0687,76.6993 57.9307,76.7893 C57.7927,76.8793 57.6357,76.9393 57.4677,76.9593 C57.2997,76.9893 57.1297,76.9793 56.9677,76.9293 C56.8067,76.8793 56.6607,76.7993 56.5377,76.6893 C56.4157,76.5893 56.3177,76.4593 56.2457,76.3193 L56.2447,76.3193 L54.4717,72.8693 C54.3627,72.6593 54.2187,72.4793 54.0547,72.3293 C53.8897,72.1893 53.7077,72.0893 53.5187,72.0393 C53.3307,71.9793 53.1357,71.9593 52.9447,71.9893 C52.7537,72.0193 52.5647,72.0893 52.3887,72.2093 L52.0497,72.4193 C52.0487,72.4293 52.0457,72.4293 52.0417,72.4293 C52.0357,72.4393 52.0287,72.4593 52.0237,72.4793 C52.0127,72.5193 52.0207,72.5693 52.0357,72.5993 L55.1537,78.6593 C55.3947,79.0393 55.7337,79.2793 56.0947,79.3793 L56.1077,79.3793 L63.6737,81.5293 C63.6907,81.5293 63.7207,81.5393 63.7587,81.5393 C63.8387,81.5493 63.9557,81.5593 64.0917,81.5593 C64.3727,81.5493 64.6797,81.4893 64.9317,81.3293 L72.5567,76.3793 C72.5577,76.3793 72.5567,76.3793 72.5567,76.3793 C73.3667,75.8593 73.9807,74.9693 74.2347,73.9093 C74.4877,72.8493 74.3527,71.7193 73.8667,70.7693 L72.5867,68.2793 L71.7987,66.7493 L67.8997,59.1593 C67.8917,59.1493 67.8837,59.1393 67.8757,59.1193 C67.7387,58.8893 67.5427,58.7493 67.3467,58.6993 C67.1547,58.6493 66.9477,58.6793 66.7617,58.7993 C66.5717,58.9193 66.4087,59.1393 66.3337,59.4193 C66.2587,59.6993 66.2857,60.0093 66.4017,60.2593 C66.4167,60.2993 66.4287,60.3293 66.4397,60.3593 C66.5307,60.5993 66.5467,60.8693 66.4867,61.1193 C66.4167,61.4093 66.2377,61.6893 65.9607,61.8693 C65.6787,62.0493 65.3297,62.1093 64.9977,62.0093 C64.6707,61.9093 64.4197,61.6793 64.2767,61.4093 L64.2747,61.3993 L63.5287,59.9493 C63.5197,59.9393 63.5107,59.9193 63.5017,59.9093 C63.3377,59.6293 63.0987,59.4493 62.8527,59.3793 C62.6107,59.3193 62.3517,59.3593 62.1207,59.5093 C61.8867,59.6593 61.6907,59.9193 61.6027,60.2593 C61.5137,60.5993 61.5457,60.9593 61.6877,61.2693 C61.6957,61.2893 61.7027,61.2993 61.7097,61.3193 L62.2577,62.3893 L62.2587,62.3893 C62.3297,62.5293 62.3737,62.6793 62.3917,62.8293 C62.4097,62.9793 62.4007,63.1293 62.3657,63.2793 C62.3307,63.4293 62.2687,63.5693 62.1797,63.6993 C62.0907,63.8293 61.9767,63.9393 61.8387,64.0293 C61.7007,64.1193 61.5437,64.1793 61.3757,64.2093 C61.2077,64.2293 61.0377,64.2193 60.8757,64.1693 C60.7147,64.1193 60.5697,64.0393 60.4457,63.9393 C60.3237,63.8293 60.2257,63.7093 60.1547,63.5693 L60.1527,63.5693 L58.7177,60.7693 C58.7077,60.7593 58.6997,60.7393 58.6907,60.7293 C58.5267,60.4493 58.2877,60.2693 58.0417,60.1993 C57.7997,60.1393 57.5407,60.1793 57.3097,60.3293 C57.0757,60.4793 56.8797,60.7393 56.7917,61.0793 C56.7027,61.4193 56.7347,61.7793 56.8767,62.0893 C56.8847,62.1093 56.8917,62.1193 56.8987,62.1393 L58.1357,64.5493 L58.1367,64.5493 C58.2787,64.8293 58.3137,65.1393 58.2437,65.4393 C58.1737,65.7293 57.9947,66.0093 57.7177,66.1893 C57.4357,66.3793 57.0857,66.4293 56.7547,66.3293 C56.4277,66.2393 56.1767,66.0093 56.0327,65.7293 L56.0317,65.7293 L51.9357,57.7593 C51.9267,57.7493 51.9177,57.7293 51.9087,57.7193 C51.7447,57.4293 51.5057,57.2593 51.2597,57.1893 L51.2597,57.1893 Z" id="Fill-24" fill="#3F3F3F"></path>
                <polygon id="Fill-25" fill="#E0E6EB" points="0 134.652 150 134.652 150 133.139 0 133.139"></polygon>
                <polyline id="Stroke-26" stroke="#757C89" stroke-width="1.5" stroke-linecap="round" stroke-linejoin="round" points="27.5864 43.0216 13.4744 43.0216 13.4744 27.3996 47.1854 27.3996 47.1854 35.6216"></polyline>
                <line x1="21.6968" y1="36.444" x2="21.6968" y2="33.977" id="Stroke-27" stroke="#757C89" stroke-width="3" stroke-linejoin="round"></line>
                <line x1="27.4526" y1="36.444" x2="27.4526" y2="33.977" id="Stroke-28" stroke="#757C89" stroke-width="3" stroke-linejoin="round"></line>
                <path d="M36.4971,36.444 L44.7191,36.444 C47.8981,36.444 50.4751,39.021 50.4751,42.199 L50.4751,45.488 C50.4751,48.667 47.8981,51.244 44.7191,51.244 L36.4971,51.244 C33.3181,51.244 30.7411,48.667 30.7411,45.488 L30.7411,42.199 C30.7411,39.021 33.3181,36.444 36.4971,36.444 Z" id="Stroke-29" stroke="#757C89" stroke-width="1.5" stroke-linecap="round" stroke-linejoin="round"></path>
            </g>
            <g id="Group-33" transform="translate(41.000000, 57.000000)">
                <mask id="mask-10" fill="white">
                    <use xlink:href="#path-9"></use>
                </mask>
                <g id="Clip-32"></g>
                <polygon id="Fill-31" fill="#23A685" mask="url(#mask-10)" points="-3.493 9.899 17.063 9.899 17.063 -3.849 -3.493 -3.849"></polygon>
            </g>
        </g>
    </g>
</svg>