<svg width="200" height="167" viewBox="0 0 200 167" fill="none" xmlns="http://www.w3.org/2000/svg">
<path d="M6.30841 0H193.692C195.365 0 196.969 0.659797 198.152 1.83424C199.335 3.00869 200 4.60158 200 6.2625V117.132H0V6.2625C0 4.60158 0.664634 3.00869 1.84769 1.83424C3.03075 0.659797 4.63532 0 6.30841 0V0Z" fill="#323232"/>
<path d="M0 117.132H200V132.208C200 133.869 199.335 135.462 198.152 136.637C196.969 137.811 195.365 138.471 193.692 138.471H6.30841C4.63532 138.471 3.03075 137.811 1.84769 136.637C0.664634 135.462 0 133.869 0 132.208L0 117.132Z" fill="white"/>
<path fill-rule="evenodd" clip-rule="evenodd" d="M135.386 167H64.8425C64.7953 167 64.7485 166.991 64.7048 166.973C64.6612 166.955 64.6215 166.929 64.5881 166.896C64.5546 166.863 64.5281 166.823 64.51 166.78C64.4918 166.737 64.4825 166.69 64.4824 166.644C64.4828 166.265 64.6347 165.902 64.9047 165.634C65.1747 165.367 65.5407 165.217 65.9221 165.217H67.0021C67.0021 165.217 73.8404 165.203 75.6399 158.085C77.2607 151.674 77.7995 138.471 77.7995 138.471H122.43C122.43 138.471 122.969 151.674 124.589 158.085C126.388 165.203 133.227 165.217 133.227 165.217H134.307C134.496 165.217 134.683 165.253 134.858 165.325C135.032 165.397 135.191 165.502 135.324 165.634C135.458 165.767 135.564 165.924 135.637 166.097C135.709 166.27 135.747 166.456 135.747 166.644C135.747 166.69 135.737 166.737 135.719 166.78C135.701 166.823 135.674 166.863 135.641 166.896C135.608 166.929 135.568 166.955 135.524 166.973C135.48 166.991 135.434 167 135.386 167Z" fill="#E1E1E1"/>
<path d="M191.785 6.7771H7.71521C7.45842 6.7771 7.25024 6.98418 7.25024 7.23963V109.315C7.25024 109.57 7.45842 109.777 7.71521 109.777H191.785C192.042 109.777 192.25 109.57 192.25 109.315V7.23963C192.25 6.98418 192.042 6.7771 191.785 6.7771Z" fill="white"/>
<path d="M192.2 22H7.19995V23H192.2V22Z" fill="#E8E8E8"/>
<rect x="27.2" y="30" width="32" height="19" rx="2" fill="#E8E9EA"/>
<rect x="27.2" y="52" width="32" height="47" rx="2" fill="#E8E9EA"/>
<rect x="64.2" y="30" width="108" height="69" rx="2" fill="#E8E9EA"/>
<rect x="115.2" y="61" width="49" height="25" rx="2" fill="#C2C2C2"/>
<rect x="30.2" y="81" width="26" height="12" rx="2" fill="#23A685"/>
<rect x="115.2" y="48" width="49" height="8" rx="2" fill="#C2C2C2"/>
<rect x="72.2" y="48" width="34" height="3" rx="1.5" fill="#C2C2C2"/>
<rect x="72.2" y="54" width="34" height="3" rx="1.5" fill="#C2C2C2"/>
<rect x="72.2" y="60" width="34" height="3" rx="1.5" fill="#C2C2C2"/>
<rect x="72.2" y="66" width="34" height="3" rx="1.5" fill="#C2C2C2"/>
<rect x="72.2" y="72" width="34" height="3" rx="1.5" fill="#C2C2C2"/>
<path d="M27.2 14.2402V14.2241C27.2 13.0234 28.1186 12 29.416 12C30.1654 12 30.6248 12.2095 31.068 12.5802L30.5925 13.1524C30.2621 12.8703 29.9398 12.693 29.3918 12.693C28.6021 12.693 27.9977 13.386 27.9977 14.208V14.2241C27.9977 15.1105 28.5779 15.7552 29.4563 15.7552C29.8592 15.7552 30.2299 15.6263 30.4958 15.4329V14.627H29.3918V13.9743H31.2211V15.7794C30.794 16.142 30.1896 16.4482 29.4321 16.4482C28.0864 16.4482 27.2 15.4893 27.2 14.2402Z" fill="#EB6067"/>
<path d="M32.2445 12.0806H33.002V16.3757H32.2445V12.0806Z" fill="#EB6067"/>
<path d="M34.1463 12.0806H37.3455V12.7655H34.9038V13.934H37.0715V14.619H34.9038V16.3676H34.1463V12.0806Z" fill="#EB6067"/>
<path d="M39.2312 12.7816H37.8693V12.0806H41.3586V12.7816H39.9967V16.3757H39.2393V12.7816H39.2312Z" fill="#EB6067"/>
<path d="M41.7696 15.7472L42.2208 15.2072C42.6318 15.5618 43.0509 15.7633 43.5747 15.7633C44.0421 15.7633 44.3322 15.5457 44.3322 15.2234V15.2072C44.3322 14.901 44.1629 14.7318 43.3651 14.5545C42.4545 14.3369 41.9388 14.063 41.9388 13.2732V13.2571C41.9388 12.5238 42.5512 12.0081 43.4054 12.0081C44.034 12.0081 44.5256 12.2015 44.9607 12.548L44.5578 13.1201C44.171 12.83 43.7842 12.6769 43.3893 12.6769C42.9461 12.6769 42.6882 12.9025 42.6882 13.1846V13.2088C42.6882 13.5392 42.8816 13.6842 43.7117 13.8857C44.6223 14.1032 45.0896 14.4336 45.0896 15.1428V15.1589C45.0896 15.9647 44.4611 16.4402 43.5585 16.4402C42.9058 16.4321 42.2853 16.2065 41.7696 15.7472Z" fill="#EB6067"/>
<path d="M45.9922 12.0806H46.7497V13.8695H48.7965V12.0806H49.554V16.3757H48.7965V14.5626H46.7497V16.3757H45.9922V12.0806Z" fill="#EB6067"/>
<path d="M50.4646 14.2402V14.2241C50.4646 13.0154 51.3994 12 52.7129 12C54.0345 12 54.9532 12.9992 54.9532 14.208V14.2241C54.9532 15.4329 54.0184 16.4482 52.7049 16.4482C51.3833 16.4482 50.4646 15.449 50.4646 14.2402ZM54.1634 14.2402V14.2241C54.1634 13.386 53.5591 12.693 52.7049 12.693C51.8507 12.693 51.2544 13.378 51.2544 14.208V14.2241C51.2544 15.0622 51.8587 15.7472 52.7129 15.7472C53.5671 15.7472 54.1634 15.0703 54.1634 14.2402Z" fill="#EB6067"/>
<path d="M55.8718 12.0806H57.5641C58.5714 12.0806 59.2 12.6527 59.2 13.515V13.5311C59.2 14.4981 58.4263 14.9977 57.4835 14.9977H56.6293V16.3757H55.8718V12.0806ZM57.4996 14.3127C58.0718 14.3127 58.4263 13.9904 58.4263 13.5472V13.5311C58.4263 13.0315 58.0637 12.7655 57.4996 12.7655H56.6213V14.3127H57.4996Z" fill="#EB6067"/>
<path d="M171.2 13H157.2C156.648 13 156.2 13.4477 156.2 14V16C156.2 16.5523 156.648 17 157.2 17H171.2C171.752 17 172.2 16.5523 172.2 16V14C172.2 13.4477 171.752 13 171.2 13Z" fill="#EB6067"/>
<path d="M151.2 13H137.2C136.648 13 136.2 13.4477 136.2 14V16C136.2 16.5523 136.648 17 137.2 17H151.2C151.752 17 152.2 16.5523 152.2 16V14C152.2 13.4477 151.752 13 151.2 13Z" fill="#E8E9EA"/>
<path fill-rule="evenodd" clip-rule="evenodd" d="M68.2266 90.5422L50.4049 83.7443C50.2124 83.6709 50.0031 83.6525 49.8006 83.691C49.5981 83.7295 49.4104 83.8235 49.2587 83.9623C49.1053 84.1028 48.9932 84.2821 48.9343 84.481C48.8754 84.68 48.8719 84.8911 48.9242 85.0919L53.7483 103.722C53.8028 103.945 53.9252 104.145 54.0986 104.296C54.272 104.446 54.4879 104.54 54.7169 104.564C54.9458 104.587 55.1765 104.54 55.3774 104.428C55.5782 104.316 55.7394 104.145 55.8388 103.939L58.5136 98.4748L65.1471 105.922C65.2527 106.042 65.3813 106.139 65.5253 106.209C65.6693 106.278 65.8257 106.319 65.9855 106.327C66.1453 106.336 66.3052 106.312 66.4558 106.258C66.6064 106.205 66.7446 106.121 66.8625 106.014L69.11 103.968C69.3502 103.748 69.494 103.443 69.5108 103.118C69.5276 102.794 69.4159 102.476 69.1997 102.233L62.5662 94.7851L68.2192 92.6668C68.4342 92.5839 68.6191 92.4384 68.7497 92.2493C68.8803 92.0603 68.9506 91.8364 68.9514 91.607C68.9522 91.3776 68.8835 91.1533 68.7542 90.9633C68.6249 90.7734 68.441 90.6266 68.2266 90.5422Z" fill="white"/>
<path fill-rule="evenodd" clip-rule="evenodd" d="M49.6691 83.032C49.9997 82.9691 50.3412 82.9994 50.6548 83.1188L68.4767 89.9169L68.2266 90.5422L68.4836 89.9195C68.8282 90.0551 69.1215 90.2901 69.3267 90.5917C69.5319 90.893 69.6402 91.2477 69.6389 91.6092C69.6376 91.9708 69.5269 92.3247 69.3196 92.6247C69.1122 92.9249 68.8173 93.1579 68.4717 93.2911L68.4655 93.2935L63.7295 95.0682L69.7191 101.793C70.0526 102.168 70.2231 102.656 70.1974 103.152C70.1718 103.648 69.9518 104.117 69.5805 104.457L69.5788 104.459L67.3323 106.504C67.3322 106.504 67.3324 106.504 67.3323 106.504C67.1476 106.672 66.9299 106.804 66.6921 106.889C66.4542 106.974 66.2012 107.011 65.9482 106.997C65.6951 106.984 65.4478 106.92 65.2207 106.811C64.9941 106.701 64.7926 106.549 64.6274 106.362C64.6271 106.362 64.6268 106.361 64.6265 106.361L58.6822 99.687L56.461 104.224C56.4606 104.225 56.4603 104.226 56.4599 104.226C56.3009 104.556 56.0425 104.83 55.718 105.011C55.3925 105.192 55.0174 105.27 54.6444 105.231C54.2714 105.192 53.9214 105.04 53.6416 104.797C53.3633 104.555 53.1683 104.236 53.0808 103.883L48.2579 85.2572C48.2578 85.2571 48.2579 85.2574 48.2579 85.2572C48.1756 84.9409 48.181 84.608 48.2739 84.2945C48.3668 83.9807 48.544 83.6964 48.7883 83.4727C49.0335 83.2483 49.3387 83.0948 49.6691 83.032ZM67.9722 91.1659L50.155 84.3696C50.1549 84.3696 50.155 84.3697 50.155 84.3696C50.0836 84.3425 50.0064 84.3357 49.932 84.3499C49.8576 84.364 49.7871 84.3988 49.7289 84.452C49.6665 84.5092 49.6196 84.5834 49.5948 84.6674C49.5698 84.7516 49.5683 84.8413 49.5905 84.9264L49.5907 84.9272L54.417 103.566C54.4391 103.656 54.4883 103.736 54.5555 103.794C54.6226 103.852 54.7044 103.887 54.7894 103.896C54.8742 103.905 54.9605 103.887 55.0367 103.845C55.1131 103.802 55.1767 103.736 55.2165 103.653L55.2185 103.649L57.8933 98.1852C57.9932 97.9812 58.1916 97.8399 58.4211 97.8095C58.6506 97.7791 58.8803 97.8635 59.0323 98.0342L65.6677 105.484C65.7137 105.536 65.7689 105.578 65.8299 105.607C65.8907 105.636 65.9563 105.653 66.0229 105.657C66.0894 105.66 66.1562 105.65 66.2195 105.628C66.2828 105.605 66.3418 105.57 66.3926 105.523L66.3937 105.522L68.6396 103.478C68.6398 103.478 68.64 103.478 68.6402 103.478C68.7488 103.378 68.8163 103.237 68.8242 103.085C68.8321 102.932 68.7792 102.784 68.6803 102.673L62.0475 95.2256C61.9002 95.0603 61.8449 94.8352 61.8991 94.6227C61.9534 94.4101 62.1104 94.2368 62.3199 94.1583L67.9691 92.0414C68.0525 92.0086 68.1264 91.951 68.1798 91.8738C68.2337 91.7957 68.2636 91.7019 68.2639 91.6047C68.2642 91.5074 68.235 91.4134 68.1816 91.3349C68.1288 91.2574 68.0554 91.1992 67.9722 91.1659Z" fill="#3F3F3F"/>
</svg>
