<svg width="164" height="185" viewBox="0 0 164 185" fill="none" xmlns="http://www.w3.org/2000/svg">
<mask id="mask0" mask-type="alpha" maskUnits="userSpaceOnUse" x="0" y="0" width="164" height="185">
<path d="M0 20C0 8.9543 8.95431 0 20 0H144C155.046 0 164 8.95431 164 20V185H0V20Z" fill="#23A685"/>
</mask>
<g mask="url(#mask0)">
<path d="M0 19.7316C0 8.83413 8.88833 0 19.8526 0H144.147C155.112 0 164 8.83413 164 19.7316V306.268C164 317.166 155.112 326 144.147 326H19.8526C8.88832 326 0 317.166 0 306.268V19.7316Z" fill="#323232"/>
<path d="M6.99998 24.192C6.99998 14.6971 14.7192 7 24.2414 7H139.759C149.281 7 157 14.6971 157 24.192V289.808C157 299.303 149.281 307 139.759 307H24.2414C14.7192 307 6.99998 299.303 6.99998 289.808V24.192Z" fill="white"/>
<rect x="17.6" y="69.6" width="84.8" height="22.8" rx="3.4" stroke="#E0E6EB" stroke-width="1.2"/>
<rect x="17.6" y="129.6" width="84.8" height="22.8" rx="3.4" stroke="#E0E6EB" stroke-width="1.2"/>
<rect x="111" y="69" width="36" height="24" rx="4" fill="#23A685"/>
<rect x="111" y="129" width="36" height="24" rx="4" fill="#23A685"/>
<path d="M125.82 77.5H123.77V76.66H122.73V77.5H120.66V78.25H125.82V77.5ZM122.06 79.88C122.06 79.47 122.52 79.22 123.24 79.22C123.96 79.22 124.42 79.47 124.42 79.88C124.42 80.28 123.96 80.52 123.24 80.52C122.52 80.52 122.06 80.28 122.06 79.88ZM126.07 81.54C125.34 81.65 124.55 81.7 123.77 81.74V81.18C124.77 81.06 125.39 80.59 125.39 79.88C125.39 79.04 124.54 78.53 123.24 78.53C121.94 78.53 121.09 79.04 121.09 79.88C121.09 80.59 121.71 81.07 122.73 81.18V81.78C121.9 81.8 121.11 81.8 120.43 81.8L120.55 82.62C122.13 82.61 124.24 82.6 126.15 82.26L126.07 81.54ZM121.55 84.07H126.55V85.78H127.58V83.25H121.55V84.07ZM128.82 79.41H127.58V76.75H126.55V82.85H127.58V80.26H128.82V79.41ZM136.699 76.74H135.669V83.3H136.699V76.74ZM130.439 79.6C130.439 78.77 131.029 78.23 131.829 78.23C132.619 78.23 133.219 78.77 133.219 79.6C133.219 80.42 132.619 80.97 131.829 80.97C131.029 80.97 130.439 80.42 130.439 79.6ZM134.219 79.6C134.219 78.28 133.189 77.34 131.829 77.34C130.469 77.34 129.429 78.28 129.429 79.6C129.429 80.91 130.469 81.86 131.829 81.86C133.189 81.86 134.219 80.91 134.219 79.6ZM131.839 84.76V82.64H130.799V85.6H136.959V84.76H131.839Z" fill="white"/>
<path d="M125.82 137.5H123.77V136.66H122.73V137.5H120.66V138.25H125.82V137.5ZM122.06 139.88C122.06 139.47 122.52 139.22 123.24 139.22C123.96 139.22 124.42 139.47 124.42 139.88C124.42 140.28 123.96 140.52 123.24 140.52C122.52 140.52 122.06 140.28 122.06 139.88ZM126.07 141.54C125.34 141.65 124.55 141.7 123.77 141.74V141.18C124.77 141.06 125.39 140.59 125.39 139.88C125.39 139.04 124.54 138.53 123.24 138.53C121.94 138.53 121.09 139.04 121.09 139.88C121.09 140.59 121.71 141.07 122.73 141.18V141.78C121.9 141.8 121.11 141.8 120.43 141.8L120.55 142.62C122.13 142.61 124.24 142.6 126.15 142.26L126.07 141.54ZM121.55 144.07H126.55V145.78H127.58V143.25H121.55V144.07ZM128.82 139.41H127.58V136.75H126.55V142.85H127.58V140.26H128.82V139.41ZM136.699 136.74H135.669V143.3H136.699V136.74ZM130.439 139.6C130.439 138.77 131.029 138.23 131.829 138.23C132.619 138.23 133.219 138.77 133.219 139.6C133.219 140.42 132.619 140.97 131.829 140.97C131.029 140.97 130.439 140.42 130.439 139.6ZM134.219 139.6C134.219 138.28 133.189 137.34 131.829 137.34C130.469 137.34 129.429 138.28 129.429 139.6C129.429 140.91 130.469 141.86 131.829 141.86C133.189 141.86 134.219 140.91 134.219 139.6ZM131.839 144.76V142.64H130.799V145.6H136.959V144.76H131.839Z" fill="white"/>
<path d="M23.1483 27.2726L20.186 24L23.1483 20.7274L23.2698 20.5932L23.1483 20.459L22.6113 19.8658L22.4631 19.702L22.3148 19.8658L18.9631 23.5686C18.7456 23.8088 18.7456 24.1912 18.9631 24.4314L22.3148 28.1342L22.4631 28.298L22.6113 28.1342L23.1483 27.541L23.2698 27.4068L23.1483 27.2726Z" fill="#3F3356" stroke="#3F3356" stroke-width="0.4"/>
<path d="M36.0131 108.627V109.99H35.154V112.047H36.0131V113.409H33.8969V115.176H37.451V116.529H28.9412V115.176H32.4952V113.4H30.361V112.038H31.202V109.99H30.361V108.627H36.0131ZM32.5947 112.038H33.7522V109.99H32.5947V112.038Z" fill="#EB6067"/>
<path fill-rule="evenodd" clip-rule="evenodd" d="M30.3565 108.627H36.0177V110.012H35.1613V112.035H36.0177V113.419H33.9082V115.154H37.451V116.529H28.9412V115.154H32.4839V113.411H30.3565V112.027H31.1948V110.012H30.3565V108.627ZM30.3835 108.654V109.985H31.2219V112.053H30.3835V113.384H32.511V115.18H28.9682V116.503H37.4239V115.18H33.8812V113.393H35.9906V112.062H35.1342V109.985H35.9906V108.654H30.3835ZM32.5831 109.985H33.764V112.053H32.5831V109.985ZM32.6101 110.012V112.027H33.737V110.012H32.6101Z" fill="white"/>
<path d="M41.8859 108.219V110.614C41.8859 110.75 41.8859 110.768 41.9043 110.787L41.8859 110.768L44.2481 113.517L43.1952 114.343L41.1535 111.975L39.1117 114.343L38.0588 113.517L40.421 110.768L40.4027 110.787C40.421 110.768 40.421 110.75 40.421 110.614V108.219H41.8859ZM47.0132 107.412V110.052H49V111.313H47.0132V112.311H49V113.572H47.0132V114.706H45.594V107.412H47.0132Z" fill="#EB6067"/>
<path fill-rule="evenodd" clip-rule="evenodd" d="M45.5657 107.412H47.0233V110.035H49V111.334H47.0233V112.28H49V113.579H47.0233V114.706H45.5657V107.412ZM45.6113 107.457V114.661H46.9777V113.534H48.9545V112.326H46.9777V111.289H48.9545V110.081H46.9777V107.457H45.6113ZM40.4189 108.214H41.922V110.617C41.922 110.685 41.922 110.722 41.9242 110.744C41.9252 110.755 41.9266 110.761 41.928 110.765C41.9292 110.767 41.9306 110.769 41.9335 110.772L41.9321 110.774L44.2821 113.505L43.1988 114.354L41.1705 112.004L39.1421 114.354L38.0588 113.505L40.4088 110.774L40.4074 110.772C40.4074 110.772 40.4074 110.772 40.4075 110.772C40.4103 110.769 40.4117 110.767 40.4129 110.765C40.4143 110.761 40.4157 110.755 40.4167 110.744C40.4189 110.722 40.4189 110.685 40.4189 110.617V108.214ZM40.4552 110.781C40.4551 110.781 40.4552 110.781 40.4552 110.781C40.4589 110.772 40.4609 110.761 40.4621 110.749C40.4645 110.724 40.4645 110.685 40.4645 110.619V108.259H41.8764V110.619C41.8764 110.685 41.8764 110.724 41.8788 110.749C41.88 110.761 41.882 110.772 41.8857 110.781C41.8857 110.781 41.8857 110.781 41.8857 110.781L41.8819 110.785L44.2168 113.499L43.2049 114.292L41.1705 111.935L39.136 114.292L38.1241 113.499L40.459 110.785L40.4552 110.781Z" fill="white"/>
<path fill-rule="evenodd" clip-rule="evenodd" d="M36.693 118.841C36.7478 118.841 36.8117 118.841 36.8757 118.841C36.9396 118.841 37.0126 118.841 37.0857 118.85V118.461C37.0126 118.47 36.9396 118.47 36.8757 118.47H34.9397C34.9488 118.534 34.9488 118.588 34.958 118.651C34.958 118.715 34.958 118.769 34.958 118.823V120.307H36.7387C36.7935 120.307 36.8574 120.307 36.9213 120.307C36.9853 120.307 37.0583 120.307 37.1314 120.316V119.927C37.0583 119.936 36.9853 119.936 36.9213 119.936H36.7387H35.3872V119.574H37.0674V119.203H35.3872V118.841H36.693ZM36.9213 121.048H35.1041C35.0128 121.048 34.9306 121.048 34.8393 121.048C34.7571 121.048 34.6657 121.057 34.5744 121.057V120.659C34.6657 120.668 34.7479 120.668 34.8393 120.668C34.9214 120.668 35.0128 120.668 35.1041 120.668H36.9213C37.0126 120.668 37.0948 120.668 37.1862 120.668C37.2683 120.668 37.3597 120.659 37.451 120.659V121.057C37.3597 121.048 37.2775 121.048 37.1862 121.048C37.104 121.048 37.0126 121.048 36.9213 121.048ZM34.0539 121.048H32.2367C32.1453 121.048 32.0632 121.048 31.9718 121.048C31.8805 121.048 31.7983 121.057 31.707 121.057V120.659C31.7983 120.668 31.8805 120.668 31.9718 120.668C32.054 120.668 32.1453 120.668 32.2367 120.668H34.0539C34.1452 120.668 34.2274 120.668 34.3187 120.668C34.4009 120.668 34.4922 120.659 34.5836 120.659V121.057C34.4922 121.048 34.4101 121.048 34.3187 121.048C34.2365 121.048 34.1452 121.048 34.0539 121.048ZM32.7663 118.85L32.7754 119.782H33.506L33.5151 118.85H32.7663ZM32.3371 118.85C32.2732 118.85 32.2184 118.85 32.1727 118.85C32.1271 118.85 32.0723 118.859 32.0084 118.859V118.461C32.0723 118.47 32.1179 118.47 32.1727 118.47C32.2184 118.47 32.2732 118.47 32.3371 118.47H33.9535C34.0174 118.47 34.063 118.47 34.1178 118.47C34.1635 118.47 34.2183 118.461 34.2822 118.461V118.859C34.2183 118.85 34.1635 118.85 34.1087 118.85C34.0539 118.85 33.9991 118.85 33.9443 118.85L33.9352 119.782H34.0265C34.0904 119.782 34.1361 119.782 34.1909 119.782C34.2365 119.782 34.2913 119.773 34.3553 119.773V120.171C34.2913 120.162 34.2365 120.162 34.1818 120.162C34.127 120.162 34.0722 120.162 34.0082 120.162H32.2641C32.2001 120.162 32.1453 120.162 32.0997 120.162C32.054 120.162 31.9992 120.171 31.9353 120.171V119.773C31.9992 119.782 32.0449 119.782 32.0997 119.782C32.1453 119.782 32.2001 119.782 32.2641 119.782H32.3462L32.3371 118.85ZM31.5152 120.94V118.805C31.5152 118.733 31.5152 118.651 31.5152 118.579C31.5152 118.507 31.5244 118.425 31.5244 118.353H31.0678C31.0769 118.434 31.0769 118.507 31.086 118.579C31.086 118.651 31.086 118.733 31.086 118.805V120.94C31.086 121.021 31.086 121.094 31.086 121.166C31.086 121.238 31.0769 121.32 31.0678 121.392H31.5244C31.5152 121.32 31.5152 121.238 31.5152 121.166C31.5152 121.094 31.5152 121.021 31.5152 120.94ZM29.3966 118.914C29.3418 118.914 29.287 118.914 29.2414 118.914C29.1957 118.914 29.1409 118.923 29.0861 118.923V118.525C29.1409 118.534 29.1957 118.534 29.2414 118.534C29.287 118.534 29.3418 118.534 29.3966 118.534H30.5838C30.5838 118.751 30.5655 118.968 30.5199 119.176C30.4742 119.384 30.4011 119.583 30.3098 119.782C30.2002 119.999 30.0633 120.198 29.8898 120.388C29.7162 120.578 29.5153 120.732 29.287 120.867C29.2688 120.849 29.2414 120.831 29.214 120.804C29.1866 120.777 29.1501 120.75 29.1227 120.723C29.0861 120.696 29.0588 120.668 29.0222 120.65C28.9857 120.623 28.9583 120.605 28.9309 120.587C29.1318 120.488 29.3053 120.37 29.4606 120.225C29.6158 120.09 29.7436 119.945 29.8441 119.782C29.9263 119.646 29.9902 119.511 30.0359 119.366C30.0815 119.221 30.1089 119.067 30.1089 118.914H29.3966ZM27.9812 120.723L27.3328 120.035C27.2872 120.062 27.2415 120.09 27.205 120.126C27.1684 120.162 27.141 120.189 27.1228 120.225C27.0954 120.261 27.0863 120.307 27.0771 120.343C27.068 120.388 27.0589 120.433 27.0589 120.479C27.0589 120.542 27.068 120.596 27.0863 120.65C27.1045 120.705 27.1319 120.75 27.1776 120.777C27.2141 120.813 27.2689 120.849 27.3237 120.867C27.3785 120.886 27.4515 120.895 27.5246 120.895C27.625 120.895 27.7072 120.877 27.7894 120.849C27.8716 120.831 27.9355 120.786 27.9812 120.723ZM27.7711 119.185C27.7711 119.14 27.762 119.104 27.7529 119.067C27.7346 119.031 27.7164 118.995 27.6981 118.968C27.6707 118.941 27.6433 118.923 27.6068 118.905C27.5702 118.887 27.5337 118.878 27.4881 118.878C27.4424 118.878 27.4059 118.887 27.3693 118.896C27.3328 118.914 27.3054 118.932 27.278 118.959C27.2506 118.986 27.2324 119.022 27.2232 119.058C27.2141 119.095 27.205 119.14 27.205 119.185C27.205 119.212 27.2141 119.239 27.2232 119.276C27.2324 119.312 27.2506 119.348 27.2689 119.375C27.2872 119.411 27.3146 119.456 27.3511 119.493C27.3876 119.529 27.4241 119.574 27.4698 119.619C27.5246 119.592 27.5611 119.565 27.5976 119.529C27.6342 119.502 27.6707 119.465 27.6981 119.429C27.7255 119.393 27.7346 119.357 27.7529 119.321C27.7712 119.276 27.7711 119.23 27.7711 119.185ZM28.3921 121.175C28.3647 121.139 28.3373 121.103 28.3099 121.066C28.2825 121.03 28.246 120.994 28.2186 120.958C28.173 121.003 28.1364 121.048 28.0816 121.076C28.036 121.112 27.9812 121.139 27.9264 121.157C27.8625 121.184 27.8077 121.193 27.7346 121.202C27.6616 121.211 27.5976 121.22 27.5246 121.22C27.3785 121.22 27.2506 121.202 27.1502 121.166C27.0406 121.13 26.9584 121.085 26.8854 121.012C26.8123 120.949 26.7575 120.877 26.721 120.786C26.6845 120.696 26.6662 120.596 26.6662 120.488C26.6662 120.415 26.6753 120.352 26.6936 120.289C26.7118 120.225 26.7392 120.162 26.7849 120.099C26.8214 120.044 26.8762 119.99 26.931 119.945C26.9858 119.891 27.0589 119.845 27.141 119.809C27.0771 119.755 27.0315 119.701 26.9949 119.655C26.9584 119.61 26.931 119.565 26.9036 119.52C26.8762 119.475 26.858 119.429 26.8397 119.375C26.8214 119.321 26.8214 119.266 26.8214 119.203C26.8214 119.122 26.8397 119.04 26.8671 118.968C26.9036 118.887 26.9493 118.823 27.0041 118.76C27.0589 118.697 27.1319 118.651 27.2141 118.615C27.2963 118.579 27.3876 118.561 27.4881 118.561C27.5976 118.561 27.689 118.579 27.7711 118.606C27.8533 118.633 27.9264 118.679 27.9903 118.733C28.0542 118.787 28.0999 118.85 28.1273 118.932C28.1638 119.004 28.173 119.086 28.173 119.176C28.173 119.239 28.1638 119.303 28.1456 119.366C28.1273 119.429 28.0908 119.484 28.0542 119.529C28.0086 119.583 27.9629 119.637 27.899 119.683C27.8351 119.728 27.762 119.773 27.6798 119.818L28.173 120.352C28.1912 120.298 28.2095 120.234 28.2186 120.153C28.2277 120.072 28.2369 119.972 28.2369 119.863H28.5565C28.5565 119.945 28.5565 120.017 28.5474 120.09C28.5382 120.162 28.5382 120.225 28.5291 120.289C28.52 120.352 28.5017 120.415 28.4926 120.47C28.4743 120.524 28.4652 120.578 28.4378 120.623L28.5656 120.759C28.6022 120.804 28.6387 120.84 28.6661 120.867C28.6935 120.904 28.73 120.931 28.7574 120.967C28.7848 120.994 28.8122 121.03 28.8487 121.057C28.8852 121.094 28.9218 121.121 28.9583 121.157H28.3921V121.175ZM25.8534 118.841C25.9082 118.841 25.9722 118.841 26.0361 118.841C26.1 118.841 26.1731 118.841 26.2461 118.85V118.461C26.1731 118.47 26.1 118.47 26.0361 118.47H24.091C24.1001 118.534 24.1001 118.588 24.1093 118.651C24.1093 118.715 24.1093 118.769 24.1093 118.823V120.307H25.89C25.9448 120.307 26.0087 120.307 26.0726 120.307C26.1365 120.307 26.2096 120.307 26.2826 120.316V119.927C26.2096 119.936 26.1365 119.936 26.0726 119.936H25.89H24.5385V119.574H26.2187V119.203H24.5476V118.841H25.8534ZM26.0817 121.048C26.1731 121.048 26.2553 121.048 26.3466 121.048C26.4288 121.048 26.5201 121.057 26.6114 121.057V120.659C26.5201 120.668 26.4379 120.668 26.3466 120.668C26.2644 120.668 26.1731 120.668 26.0817 120.668H24.2554C24.164 120.668 24.0819 120.668 23.9905 120.668C23.9083 120.668 23.817 120.659 23.7257 120.659V121.057C23.817 121.048 23.8992 121.048 23.9905 121.048C24.0727 121.048 24.164 121.048 24.2554 121.048H26.0817ZM21.3879 121.347V120.587C21.3879 120.542 21.3879 120.506 21.3879 120.46C21.3879 120.415 21.3788 120.37 21.3788 120.334H21.8354C21.8263 120.379 21.8263 120.415 21.8263 120.46C21.8263 120.506 21.8263 120.542 21.8263 120.587V120.976H23.0773C23.1687 120.976 23.2509 120.976 23.333 120.976C23.4152 120.976 23.4974 120.967 23.5887 120.967V121.365C23.4974 121.356 23.4152 121.356 23.333 121.356C23.2509 121.356 23.1687 121.356 23.0773 121.356H21.3879V121.347ZM23.5157 120.198C23.5157 120.261 23.5157 120.316 23.5157 120.37C23.5157 120.424 23.5248 120.488 23.5248 120.542H23.0682C23.0773 120.488 23.0773 120.424 23.0865 120.37C23.0865 120.316 23.0865 120.252 23.0865 120.198V118.697C23.0865 118.642 23.0865 118.579 23.0865 118.525C23.0865 118.47 23.0773 118.407 23.0682 118.353H23.5248C23.5157 118.416 23.5157 118.47 23.5157 118.525C23.5157 118.579 23.5157 118.642 23.5157 118.697V120.198ZM21.7989 119.646C21.9267 119.646 22.018 119.601 22.0911 119.52C22.1642 119.429 22.2007 119.33 22.2007 119.212C22.2007 119.086 22.1642 118.986 22.0911 118.896C22.018 118.805 21.9176 118.76 21.7989 118.76C21.671 118.76 21.5706 118.805 21.4975 118.896C21.4245 118.986 21.3879 119.086 21.3879 119.212C21.3879 119.33 21.4245 119.438 21.4975 119.52C21.5797 119.601 21.671 119.646 21.7989 119.646ZM21.7989 120.008C21.671 120.008 21.5614 119.99 21.461 119.945C21.3605 119.9 21.2692 119.845 21.1962 119.773C21.1231 119.701 21.0683 119.619 21.0227 119.52C20.977 119.42 20.9587 119.312 20.9587 119.203C20.9587 119.095 20.977 118.986 21.0227 118.887C21.0683 118.787 21.1231 118.697 21.1962 118.624C21.2692 118.552 21.3605 118.489 21.461 118.443C21.5614 118.398 21.6802 118.38 21.7989 118.38C21.9176 118.38 22.0363 118.398 22.1368 118.443C22.2372 118.489 22.3285 118.543 22.4016 118.624C22.4746 118.697 22.5386 118.787 22.5751 118.887C22.6207 118.986 22.639 119.095 22.639 119.203C22.639 119.312 22.6207 119.42 22.5751 119.52C22.5294 119.619 22.4746 119.701 22.4016 119.773C22.3285 119.845 22.2372 119.909 22.1368 119.945C22.0363 119.99 21.9267 120.008 21.7989 120.008ZM19.0593 118.85L19.0684 119.755H19.799L19.8081 118.85H19.0593ZM19.6529 120.723H20.3469C20.4382 120.723 20.5204 120.723 20.6117 120.723C20.6939 120.723 20.7852 120.714 20.8766 120.714V121.112C20.7852 121.103 20.703 121.103 20.6117 121.103C20.5295 121.103 20.4382 121.103 20.3469 121.103H18.5297C18.4383 121.103 18.3561 121.103 18.2648 121.103C18.1826 121.103 18.0913 121.112 18 121.112V120.714C18.0913 120.723 18.1735 120.723 18.2648 120.723C18.347 120.723 18.4383 120.723 18.5297 120.723H19.2145V120.126H18.557C18.4931 120.126 18.4383 120.126 18.3927 120.126C18.347 120.126 18.2922 120.135 18.2283 120.135V119.737C18.2922 119.746 18.3379 119.746 18.3927 119.746C18.4383 119.746 18.4931 119.746 18.557 119.746H18.6392L18.6301 118.841C18.5662 118.841 18.5114 118.841 18.4657 118.841C18.4201 118.841 18.3653 118.85 18.3014 118.85V118.461C18.3653 118.47 18.4109 118.47 18.4657 118.47C18.5114 118.47 18.5662 118.47 18.6301 118.47H20.2465C20.3104 118.47 20.356 118.47 20.4108 118.47C20.4565 118.47 20.5113 118.461 20.5752 118.461V118.859C20.5113 118.85 20.4565 118.85 20.4017 118.85C20.3469 118.85 20.2921 118.85 20.2373 118.85L20.2282 119.755H20.3104C20.3743 119.755 20.42 119.755 20.4747 119.755C20.5204 119.755 20.5752 119.746 20.6391 119.746V120.144C20.5752 120.135 20.5204 120.135 20.4656 120.135C20.4108 120.135 20.356 120.135 20.2921 120.135H19.6529V120.723Z" fill="#EB6067"/>
<path fill-rule="evenodd" clip-rule="evenodd" d="M42.9241 120.452H44.3742L44.8252 118.522H43.3927L42.9241 120.452ZM46.8589 115.818C46.9031 115.913 46.9031 116.057 46.8589 116.238C46.8147 116.439 46.7793 116.63 46.7351 116.84C46.6909 117.05 46.6467 117.242 46.6113 117.442C46.6821 117.442 46.7705 117.442 46.8766 117.452C46.9827 117.452 47.0888 117.471 47.1949 117.49C47.301 117.509 47.3983 117.538 47.4956 117.566C47.584 117.595 47.6547 117.633 47.6901 117.681C47.7255 117.729 47.752 117.786 47.7697 117.872C47.7873 117.958 47.7873 118.044 47.7785 118.13C47.7608 118.216 47.7255 118.293 47.6724 118.369C47.6193 118.436 47.5309 118.484 47.4248 118.503C47.3894 118.522 47.2833 118.532 47.0977 118.541C46.912 118.551 46.6644 118.551 46.3637 118.551L46.0012 120.481C46.0985 120.481 46.2134 120.481 46.3549 120.471C46.4964 120.462 46.6555 120.471 46.8412 120.481C47.0092 120.491 47.133 120.538 47.2038 120.643C47.2833 120.739 47.3099 120.863 47.301 121.016C47.301 121.179 47.2391 121.293 47.1242 121.37C47.0004 121.446 46.8589 121.494 46.6909 121.523C46.5229 121.551 46.3461 121.561 46.1604 121.561H45.674C45.6564 121.561 45.6387 121.618 45.6121 121.723C45.5856 121.828 45.5591 121.953 45.5326 122.086C45.506 122.22 45.4795 122.344 45.453 122.469C45.4265 122.593 45.4088 122.66 45.4088 122.679C45.3734 122.803 45.3469 122.937 45.3292 123.061C45.3027 123.185 45.2673 123.3 45.2054 123.405C45.1524 123.51 45.0728 123.606 44.9843 123.673C44.8959 123.749 44.7633 123.797 44.6041 123.816C44.4803 123.835 44.3565 123.816 44.2504 123.778C44.1443 123.74 44.0471 123.682 43.9675 123.606C43.8879 123.529 43.826 123.443 43.7906 123.338C43.7553 123.233 43.7464 123.128 43.7641 123.013C43.7818 122.899 43.7995 122.794 43.826 122.679C43.8525 122.574 43.8879 122.459 43.9144 122.354C43.9498 122.23 43.9763 122.096 44.0117 121.953C44.0471 121.809 44.0736 121.675 44.0913 121.551H42.6677C42.6235 121.742 42.5704 121.924 42.5262 122.115C42.482 122.306 42.4378 122.497 42.3847 122.688C42.3405 122.851 42.2875 123.023 42.2256 123.195C42.1548 123.367 42.0399 123.501 41.8807 123.596C41.7392 123.692 41.5801 123.759 41.3944 123.778C41.2175 123.797 41.0495 123.74 40.9081 123.606C40.8108 123.52 40.7577 123.405 40.7401 123.29C40.7224 123.166 40.7312 123.042 40.7489 122.918C40.7754 122.794 40.8108 122.66 40.8462 122.536C40.8904 122.411 40.9257 122.297 40.9434 122.192C40.97 122.086 40.9965 121.981 41.023 121.867C41.0495 121.761 41.0761 121.647 41.1026 121.542H40.7401C40.5986 121.542 40.4659 121.523 40.3422 121.494C40.2184 121.465 40.1034 121.417 40.015 121.341C39.9266 121.274 39.8824 121.169 39.8824 121.026C39.8824 120.882 39.9177 120.749 39.9796 120.634C40.0504 120.519 40.1653 120.452 40.3422 120.443C40.5013 120.443 40.6693 120.443 40.855 120.452C41.0407 120.452 41.2087 120.462 41.3679 120.462L41.8453 118.532H41.1733C41.0849 118.532 40.9965 118.522 40.9081 118.512C40.8196 118.503 40.7312 118.474 40.6605 118.446C40.5809 118.407 40.5278 118.36 40.4836 118.302C40.4394 118.235 40.4217 118.159 40.4217 118.063C40.4217 117.939 40.4483 117.844 40.5102 117.767C40.5721 117.691 40.6516 117.624 40.7401 117.576C40.8373 117.528 40.9434 117.5 41.0495 117.48C41.1645 117.461 41.2706 117.452 41.3767 117.452H42.1283C42.1637 117.308 42.1902 117.146 42.2256 116.964C42.2609 116.783 42.3051 116.601 42.367 116.429C42.4289 116.248 42.4997 116.085 42.5792 115.923C42.6588 115.76 42.7738 115.636 42.9064 115.531C43.0567 115.407 43.2071 115.34 43.3485 115.321C43.49 115.302 43.6138 115.321 43.7199 115.388C43.826 115.445 43.8967 115.55 43.941 115.684C43.9852 115.818 43.9852 115.98 43.9321 116.171C43.8791 116.381 43.826 116.601 43.773 116.811C43.7199 117.031 43.6757 117.242 43.6226 117.452H45.0197L45.0462 117.318C45.0639 117.232 45.0905 117.136 45.1081 117.031C45.1347 116.926 45.1524 116.831 45.1789 116.735C45.2054 116.649 45.2142 116.592 45.2142 116.573C45.2585 116.401 45.338 116.2 45.4441 115.98C45.5503 115.76 45.6917 115.598 45.8597 115.493C45.9393 115.445 46.0277 115.426 46.125 115.416C46.2223 115.407 46.3107 115.416 46.408 115.445C46.4964 115.474 46.5848 115.521 46.6555 115.588C46.7793 115.636 46.8235 115.722 46.8589 115.818Z" fill="#EB6067"/>
<path d="M18.4245 58.5938V58.5688C18.4245 56.7086 19.8477 55.1231 21.8577 55.1231C23.0187 55.1231 23.7303 55.4477 24.417 56.022L23.6804 56.9084C23.1685 56.4714 22.6692 56.1968 21.8202 56.1968C20.5968 56.1968 19.6604 57.2704 19.6604 58.5438V58.5688C19.6604 59.9421 20.5593 60.9408 21.9201 60.9408C22.5443 60.9408 23.1186 60.7411 23.5306 60.4415V59.193H21.8202V58.1818H24.6542V60.9783C23.9925 61.5401 23.0562 62.0145 21.8826 62.0145C19.7978 62.0145 18.4245 60.5289 18.4245 58.5938Z" fill="#EB6067"/>
<path d="M26.2397 55.248H27.4132V61.9022H26.2397V55.248Z" fill="#EB6067"/>
<path d="M29.186 55.248H34.1423V56.3092H30.3596V58.1194H33.7179V59.1806H30.3596V61.8897H29.186V55.248Z" fill="#EB6067"/>
<path d="M37.0637 56.3341H34.9538V55.248H40.3596V56.3341H38.2497V61.9022H37.0762V56.3341H37.0637Z" fill="#EB6067"/>
<path d="M40.9963 60.9284L41.6954 60.0919C42.3321 60.6412 42.9813 60.9533 43.7928 60.9533C44.5169 60.9533 44.9663 60.6163 44.9663 60.1169V60.0919C44.9663 59.6175 44.7041 59.3553 43.4682 59.0807C42.0575 58.7436 41.2584 58.3191 41.2584 57.0957V57.0707C41.2584 55.9346 42.2073 55.1356 43.5306 55.1356C44.5044 55.1356 45.2659 55.4352 45.9401 55.9721L45.3159 56.8585C44.7166 56.409 44.1174 56.1718 43.5056 56.1718C42.819 56.1718 42.4195 56.5214 42.4195 56.9583V56.9958C42.4195 57.5077 42.7191 57.7324 44.005 58.0445C45.4158 58.3816 46.1398 58.8934 46.1398 59.992V60.017C46.1398 61.2655 45.1661 62.002 43.7678 62.002C42.7566 61.9896 41.7953 61.64 40.9963 60.9284Z" fill="#EB6067"/>
<path d="M47.5381 55.248H48.7116V58.0195H51.8827V55.248H53.0562V61.9022H51.8827V59.0932H48.7116V61.9022H47.5381V55.248Z" fill="#EB6067"/>
<path d="M54.4669 58.5938V58.5688C54.4669 56.6961 55.9151 55.1231 57.9501 55.1231C59.9975 55.1231 61.4208 56.6712 61.4208 58.5438V58.5688C61.4208 60.4415 59.9726 62.0145 57.9376 62.0145C55.8902 62.0145 54.4669 60.4664 54.4669 58.5938ZM60.1973 58.5938V58.5688C60.1973 57.2704 59.261 56.1968 57.9376 56.1968C56.6143 56.1968 55.6904 57.2579 55.6904 58.5438V58.5688C55.6904 59.8672 56.6267 60.9284 57.9501 60.9284C59.2734 60.9284 60.1973 59.8797 60.1973 58.5938Z" fill="#EB6067"/>
<path d="M62.844 55.248H65.4657C67.0263 55.248 68 56.1344 68 57.4702V57.4952C68 58.9933 66.8015 59.7673 65.3409 59.7673H64.0175V61.9022H62.844V55.248ZM65.3658 58.7062C66.2522 58.7062 66.8015 58.2068 66.8015 57.5201V57.4952C66.8015 56.7211 66.2397 56.3092 65.3658 56.3092H64.005V58.7062H65.3658Z" fill="#EB6067"/>
<path d="M18 50.7036C18 50.5913 18.025 50.4789 18.0624 50.379C18.0999 50.2792 18.1623 50.1918 18.2372 50.1294C18.3121 50.0544 18.3995 50.0045 18.4994 49.9546C18.5993 49.9171 18.7116 49.8922 18.824 49.8922C18.9363 49.8922 19.0487 49.9171 19.1486 49.9546C19.2484 49.992 19.3358 50.0544 19.4107 50.1294C19.4981 50.1918 19.5481 50.2792 19.598 50.379C19.6355 50.4789 19.6604 50.5913 19.6604 50.7036C19.6604 50.816 19.6355 50.9284 19.598 51.0157C19.5605 51.1156 19.4981 51.203 19.4232 51.2654C19.3483 51.3403 19.2609 51.3903 19.161 51.4277C19.0487 51.4902 18.9488 51.5026 18.824 51.5026C18.7116 51.5026 18.5993 51.4777 18.4994 51.4402C18.3995 51.4028 18.3121 51.3403 18.2372 51.2779C18.1623 51.203 18.0999 51.1281 18.0624 51.0282C18.025 50.9284 18 50.816 18 50.7036ZM18.3246 50.7036C18.3246 50.7785 18.3371 50.8534 18.362 50.9159C18.387 50.9783 18.4245 51.0407 18.4619 51.0907C18.5119 51.1281 18.5618 51.1656 18.6242 51.1905C18.6866 51.2155 18.7615 51.228 18.8365 51.228C18.9114 51.228 18.9863 51.2155 19.0487 51.1905C19.1111 51.1656 19.161 51.1281 19.211 51.0782C19.2609 51.0282 19.2859 50.9783 19.3233 50.9034C19.3483 50.841 19.3608 50.7661 19.3608 50.6912C19.3608 50.6162 19.3483 50.5413 19.3233 50.4664C19.2984 50.404 19.2609 50.3416 19.211 50.2917C19.161 50.2542 19.1111 50.2167 19.0487 50.1918C18.9738 50.1668 18.9114 50.1543 18.8365 50.1543C18.7615 50.1543 18.6866 50.1668 18.6242 50.1918C18.5618 50.2167 18.5119 50.2542 18.4619 50.3041C18.412 50.3541 18.387 50.4165 18.362 50.4789C18.3371 50.5538 18.3246 50.6287 18.3246 50.7036ZM20.5094 52.8759H18.5243V51.8897H18.8365V52.6137H20.5218V52.8759H20.5094ZM20.9463 50.9284H20.4469V52.0644H20.1473V49.7548H20.4469V50.6537H20.9463V50.9284Z" fill="#8E95A3"/>
<path d="M22.1448 50.8285C22.1948 50.8909 22.2447 50.9408 22.2946 51.0033C22.3571 51.0532 22.4195 51.1156 22.4819 51.1531C22.5443 51.203 22.6192 51.2529 22.6816 51.2904C22.7441 51.3279 22.819 51.3653 22.8814 51.4028L22.6941 51.6275C22.5693 51.5526 22.4444 51.4777 22.3196 51.3653C22.1948 51.2654 22.0824 51.1531 21.9825 51.0407C21.8452 51.178 21.6954 51.3029 21.5331 51.4152C21.3708 51.5276 21.196 51.615 21.0087 51.7024L20.8215 51.4777C21.0087 51.4028 21.1835 51.3154 21.3333 51.2155C21.4831 51.1156 21.608 51.0157 21.7203 50.9034C21.8327 50.791 21.9201 50.6787 21.9825 50.5663C22.0449 50.4539 22.0949 50.3291 22.1198 50.2167C21.995 50.2167 21.8577 50.2292 21.7328 50.2292C21.608 50.2292 21.4831 50.2292 21.3458 50.2292H21.0212V49.9546H21.5705C21.7203 49.9546 21.8702 49.9546 22.02 49.9546C22.1698 49.9546 22.3321 49.9546 22.4944 49.9421C22.4694 50.1169 22.432 50.2667 22.3695 50.4165C22.3071 50.5663 22.2322 50.7036 22.1448 50.8285ZM23.5181 52.8759H21.4831V51.9396H21.7953V52.6137H23.5181V52.8759ZM22.5818 50.841V50.5663H23.1311V49.7548H23.4307V52.1269H23.1311V50.841H22.5818Z" fill="#8E95A3"/>
<path d="M25.0412 50.1418C24.9039 50.1418 24.7665 50.1543 24.6292 50.1543C24.4919 50.1543 24.3546 50.1543 24.2172 50.1543H23.8926V49.9046H24.417C24.5793 49.9046 24.7416 49.9046 24.9039 49.9046C25.0662 49.9046 25.2285 49.9046 25.3908 49.8922C25.3783 50.0669 25.3283 50.2292 25.2659 50.379C25.191 50.5289 25.0911 50.6787 24.9663 50.8035C24.8414 50.9284 24.6916 51.0532 24.5169 51.1531C24.3421 51.2529 24.1423 51.3403 23.9301 51.4028L23.7678 51.1656C24.1174 51.0657 24.392 50.9408 24.6167 50.7661C24.829 50.5913 24.9788 50.3915 25.0412 50.1418ZM26.3521 52.9009H24.2921V52.1019H25.99V51.8147H24.2921V51.5651H26.2896V52.3516H24.5793V52.6512H26.3521V52.9009ZM25.99 50.2292V49.7548H26.2896V51.3778H25.99V51.0407H25.3908V50.791H25.99V50.4789H25.4657V50.2292H25.99Z" fill="#8E95A3"/>
<path d="M27.4507 50.2792C27.3633 50.2917 27.2634 50.2917 27.151 50.2917C27.0512 50.2917 26.9388 50.2917 26.8389 50.2917H26.6267V50.042H27.0137C27.1386 50.042 27.2634 50.042 27.3758 50.042C27.5006 50.042 27.6255 50.042 27.7628 50.0295C27.7378 50.3915 27.6504 50.7411 27.5131 51.0782C27.588 51.228 27.6754 51.3778 27.7878 51.5151C27.9001 51.6524 28.0125 51.7773 28.1373 51.8772L27.9001 52.0769C27.8002 51.977 27.7004 51.8647 27.613 51.7523C27.5256 51.6275 27.4507 51.5026 27.3758 51.3653C27.2884 51.5276 27.1885 51.6774 27.0761 51.8147C26.9638 51.9521 26.8389 52.0894 26.6891 52.2018L26.4519 52.027C26.7515 51.7898 26.9763 51.5276 27.1386 51.2405C27.3133 50.9658 27.4132 50.6412 27.4507 50.2792ZM28.2622 49.7923H28.5493V52.8634H28.2622V51.1406H27.8377V50.8784H28.2622V49.7923ZM29.186 52.9383H28.8864V49.7548H29.186V52.9383Z" fill="#8E95A3"/>
<path d="M29.9101 52.0395C30.1099 51.9396 30.2971 51.8147 30.447 51.6899C30.6093 51.5651 30.7341 51.4152 30.8465 51.2654C30.9588 51.1156 31.0462 50.9533 31.1086 50.791C31.171 50.6287 31.221 50.4539 31.246 50.2792C31.1086 50.2792 30.9588 50.2917 30.8215 50.2917C30.6842 50.2917 30.5468 50.2917 30.397 50.2917H30.0225V50.0295H30.5843C30.7466 50.0295 30.9089 50.0295 31.0712 50.0295C31.2335 50.0295 31.3958 50.0295 31.5581 50.017C31.5206 50.4914 31.3958 50.9284 31.1586 51.3029C30.9214 51.6774 30.5718 52.002 30.0974 52.2517L29.9101 52.0395ZM32.2073 49.7548H32.5069V52.9383H32.2073V49.7548Z" fill="#8E95A3"/>
<path d="M35.6654 52.2268V52.4764H32.7066V52.2268H35.6654ZM33.0437 51.5901V51.3404H33.4682L33.4432 50.404H33.7428L33.7553 51.3404H34.5918L34.6292 50.404H34.9288L34.8914 51.3404H35.3283V51.5901H33.0437ZM33.1061 50.2917V50.042H35.2784V50.2917H33.1061Z" fill="#8E95A3"/>
<path d="M38.5119 52.2268V52.4765H35.5531V52.2268H38.5119ZM36.0399 51.7025V50.0046H38.025V50.2543H36.3396V50.6912H37.975V50.9409H36.3396V51.4403H38.0749V51.69H36.0399V51.7025Z" fill="#8E95A3"/>
<path d="M39.5231 49.8422C39.5231 50.0295 39.5106 50.2043 39.4607 50.3666C39.548 50.5289 39.6604 50.6662 39.7977 50.8035C39.9351 50.9284 40.0974 51.0407 40.2971 51.1406L40.1098 51.3528C39.9476 51.2654 39.7977 51.178 39.6729 51.0532C39.5481 50.9408 39.4357 50.8035 39.3483 50.6662C39.2609 50.8285 39.1485 50.9783 39.0112 51.1031C38.8739 51.228 38.7241 51.3403 38.5493 51.4402L38.3495 51.2405C38.4994 51.1656 38.6242 51.0782 38.7366 50.9783C38.8489 50.8909 38.9363 50.7785 39.0112 50.6662C39.0861 50.5538 39.1361 50.429 39.1735 50.2917C39.211 50.1543 39.2235 50.0045 39.2235 49.8422H39.5231ZM40.8964 52.8884H38.9363V51.6275H39.2359V51.977H40.5967V51.6025H40.8964V52.8884ZM40.5967 52.6262V52.2267H39.2359V52.6262H40.5967ZM40.8964 50.1294H41.3833V50.3915H40.8964V50.7661H41.3833V51.0282H40.8964V51.4277H40.5967V49.7548H40.8964V50.1294Z" fill="#8E95A3"/>
<path d="M41.3958 52.3765C41.3958 52.3141 41.4207 52.2642 41.4582 52.2142C41.5081 52.1768 41.5581 52.1518 41.633 52.1518C41.7079 52.1518 41.7703 52.1768 41.8202 52.2392C41.8702 52.2891 41.8951 52.364 41.8951 52.4389C41.8951 52.5138 41.8827 52.5763 41.8577 52.6512C41.8327 52.7136 41.7953 52.776 41.7578 52.826C41.7204 52.8759 41.6704 52.9258 41.6205 52.9633C41.5706 53.0007 41.5081 53.0382 41.4457 53.0507L41.3833 52.9133C41.4457 52.8884 41.5081 52.8509 41.5581 52.801C41.608 52.751 41.633 52.7011 41.6579 52.6387C41.6704 52.6137 41.6704 52.5887 41.6579 52.5763C41.6579 52.5638 41.633 52.5638 41.608 52.5638C41.5581 52.5638 41.5081 52.5388 41.4582 52.5014C41.4207 52.4764 41.3958 52.4265 41.3958 52.3765Z" fill="#8E95A3"/>
<path d="M42.6816 50.5538C42.6816 50.4539 42.7066 50.3541 42.7441 50.2542C42.7815 50.1668 42.8439 50.0794 42.9188 50.017C42.9938 49.9546 43.0811 49.8922 43.181 49.8547C43.2809 49.8172 43.3933 49.7923 43.5056 49.7923C43.618 49.7923 43.7303 49.8172 43.8302 49.8547C43.9301 49.8922 44.0175 49.9421 44.0924 50.017C44.1673 50.0794 44.2172 50.1668 44.2672 50.2542C44.3046 50.3416 44.3296 50.4415 44.3296 50.5538C44.3296 50.6537 44.3046 50.7536 44.2672 50.8534C44.2297 50.9408 44.1673 51.0282 44.0924 51.0907C44.0175 51.1531 43.9301 51.2155 43.8302 51.2529C43.7303 51.2904 43.6305 51.3154 43.5056 51.3154C43.3933 51.3154 43.2809 51.2904 43.181 51.2529C43.0811 51.2155 42.9938 51.1656 42.9188 51.0907C42.8439 51.0282 42.794 50.9408 42.7441 50.8534C42.7066 50.7536 42.6816 50.6537 42.6816 50.5538ZM42.9938 50.5538C42.9938 50.6287 43.0062 50.6912 43.0312 50.7536C43.0562 50.816 43.0936 50.8659 43.1311 50.9034C43.181 50.9408 43.231 50.9783 43.2934 51.0033C43.3558 51.0282 43.4307 51.0407 43.4931 51.0407C43.568 51.0407 43.6305 51.0282 43.6929 51.0033C43.7553 50.9783 43.8052 50.9408 43.8552 50.9034C43.9051 50.8659 43.9301 50.8035 43.955 50.7536C43.98 50.6912 43.9925 50.6287 43.9925 50.5538C43.9925 50.4789 43.98 50.4165 43.955 50.3666C43.9301 50.3041 43.8926 50.2542 43.8552 50.2167C43.8052 50.1793 43.7553 50.1418 43.6929 50.1169C43.6305 50.0919 43.568 50.0794 43.4931 50.0794C43.4182 50.0794 43.3558 50.0919 43.2934 50.1169C43.231 50.1418 43.181 50.1793 43.1311 50.2167C43.0811 50.2542 43.0562 50.3041 43.0312 50.3666C43.0062 50.4165 42.9938 50.4914 42.9938 50.5538ZM45.2659 52.9009H43.1935V52.1019H44.9039V51.7898H43.1935V51.5401H45.191V52.3391H43.4806V52.6387H45.2534V52.9009H45.2659ZM44.8914 49.7548H45.191V51.3653H44.8914V49.7548Z" fill="#8E95A3"/>
<path d="M46.5143 49.8422C46.5143 49.9421 46.5144 50.042 46.5019 50.1418C46.4894 50.2417 46.4769 50.3291 46.4519 50.4165C46.5518 50.6038 46.6642 50.7536 46.8015 50.8909C46.9388 51.0282 47.1011 51.1406 47.3009 51.2405L47.1136 51.4527C46.9513 51.3653 46.8015 51.2654 46.6642 51.1406C46.5393 51.0157 46.427 50.8784 46.3396 50.7286C46.2522 50.9034 46.1523 51.0657 46.015 51.203C45.8776 51.3403 45.7278 51.4527 45.5531 51.5526L45.3533 51.3528C45.6529 51.178 45.8776 50.9783 46.0275 50.7286C46.1773 50.4789 46.2397 50.1918 46.2272 49.8422H46.5143ZM47.9251 52.3391C47.9251 52.4265 47.9001 52.5139 47.8627 52.5888C47.8252 52.6637 47.7503 52.7261 47.6629 52.7885C47.5755 52.8385 47.4632 52.8884 47.3383 52.9134C47.2135 52.9508 47.0637 52.9633 46.8889 52.9633C46.7141 52.9633 46.5643 52.9508 46.4394 52.9134C46.3146 52.8759 46.2022 52.8385 46.1148 52.7885C46.0275 52.7386 45.965 52.6637 45.9151 52.5888C45.8776 52.5139 45.8527 52.4265 45.8527 52.3391C45.8527 52.1518 45.9401 52.0145 46.1148 51.9021C46.2896 51.7898 46.5393 51.7274 46.8889 51.7274C47.2384 51.7274 47.4881 51.7898 47.6629 51.9021C47.8377 52.0145 47.9251 52.1643 47.9251 52.3391ZM47.613 52.3516C47.613 52.3016 47.6005 52.2517 47.5755 52.2142C47.5506 52.1643 47.5006 52.1269 47.4507 52.1019C47.3883 52.0644 47.3134 52.0395 47.226 52.027C47.1386 52.0145 47.0262 52.002 46.9014 52.002C46.6517 52.002 46.4769 52.0395 46.3521 52.1019C46.2397 52.1768 46.1773 52.2517 46.1773 52.3641C46.1773 52.4639 46.2397 52.5513 46.3521 52.6262C46.4644 52.7011 46.6517 52.7261 46.9014 52.7261C47.1511 52.7261 47.3258 52.6887 47.4507 52.6262C47.5755 52.5638 47.613 52.4515 47.613 52.3516ZM48.387 50.841H47.8876V51.6899H47.588V49.7548H47.8876V50.5663H48.387V50.841Z" fill="#8E95A3"/>
<path d="M48.2871 52.0145H48.9238C49.0362 52.0145 49.1735 52.0145 49.3109 52.0145C49.4482 52.0145 49.5855 52.002 49.7353 52.002C49.8727 51.9895 50.0225 51.9895 50.1598 51.977C50.2971 51.9646 50.422 51.9521 50.5343 51.9396V52.1893C50.422 52.2018 50.2971 52.2142 50.1723 52.2267C50.035 52.2392 49.8976 52.2517 49.7603 52.2517C49.623 52.2642 49.4856 52.2642 49.3358 52.2767C49.1985 52.2767 49.0612 52.2892 48.9363 52.2892H48.2996V52.0145H48.2871ZM50.1348 50.7536C50.1348 50.8659 50.1099 50.9783 50.0724 51.0782C50.035 51.178 49.985 51.2654 49.9101 51.3403C49.8352 51.4152 49.7478 51.4652 49.6479 51.5151C49.5481 51.5526 49.4357 51.5775 49.3109 51.5775C49.186 51.5775 49.0737 51.5526 48.9738 51.5151C48.8739 51.4777 48.7865 51.4152 48.7116 51.3403C48.6367 51.2654 48.5868 51.178 48.5493 51.0782C48.5119 50.9783 48.4869 50.8784 48.4869 50.7536C48.4869 50.6412 48.5119 50.5289 48.5493 50.429C48.5868 50.3291 48.6367 50.2417 48.7116 50.1668C48.7865 50.0919 48.8739 50.042 48.9738 49.992C49.0737 49.9546 49.186 49.9296 49.3109 49.9296C49.4357 49.9296 49.5481 49.9546 49.6479 49.992C49.7478 50.0295 49.8352 50.0919 49.9101 50.1668C49.985 50.2417 50.035 50.3291 50.0724 50.429C50.1099 50.5413 50.1348 50.6412 50.1348 50.7536ZM49.8227 50.7536C49.8227 50.5913 49.7728 50.4539 49.6854 50.3541C49.598 50.2542 49.4732 50.2043 49.3109 50.2043C49.1486 50.2043 49.0237 50.2542 48.9363 50.3541C48.8489 50.4539 48.799 50.5788 48.799 50.7536C48.799 50.9284 48.8489 51.0532 48.9363 51.1531C49.0237 51.2529 49.1486 51.3029 49.3109 51.3029C49.4732 51.3029 49.598 51.2529 49.6854 51.1531C49.7853 51.0532 49.8227 50.9284 49.8227 50.7536ZM50.9713 52.9383H50.6841V49.7548H50.9713V52.9383Z" fill="#8E95A3"/>
<path d="M51.6579 51.0907H52.2572C52.3695 51.0907 52.5069 51.0907 52.6442 51.0907C52.7815 51.0907 52.9189 51.0782 53.0687 51.0782C53.206 51.0657 53.3558 51.0657 53.4931 51.0532C53.6305 51.0407 53.7553 51.0282 53.8677 51.0157V51.2654C53.7303 51.2779 53.5805 51.3029 53.4182 51.3154C53.2559 51.3279 53.0936 51.3403 52.9189 51.3528V51.8023H52.6067V51.3653C52.5443 51.3653 52.4819 51.3653 52.432 51.3653C52.3695 51.3653 52.3196 51.3653 52.2697 51.3653H51.6704V51.0907H51.6579ZM52.9189 50.1294C52.9813 50.2542 53.0811 50.3541 53.206 50.429C53.3308 50.5039 53.4931 50.5788 53.6929 50.6537L53.5431 50.8784C53.3808 50.8285 53.2434 50.7536 53.1061 50.6787C52.9813 50.5913 52.8689 50.4914 52.7815 50.379C52.6941 50.4914 52.5943 50.5913 52.4569 50.6787C52.3196 50.7661 52.1698 50.8534 51.995 50.9284L51.8327 50.7161C51.9825 50.6537 52.1199 50.5913 52.2322 50.5289C52.3446 50.4664 52.432 50.3915 52.4944 50.3166C52.5568 50.2417 52.6067 50.1668 52.6317 50.0794C52.6567 49.992 52.6692 49.9046 52.6567 49.8048H52.9688C52.9688 49.9171 52.9563 50.0295 52.9189 50.1294ZM52.2946 52.8884V51.9271H54.3421V52.8884H52.2946ZM52.5943 52.6387H54.0424V52.1768H52.5943V52.6387ZM54.0424 51.7523V49.7548H54.3421V51.7523H54.0424Z" fill="#8E95A3"/>
<path d="M54.804 51.5027V51.253H55.2409L55.2035 50.3916H55.5031L55.5156 51.253H56.3396L56.3521 50.3916H56.6517L56.6267 51.253H57.0637V51.5027H56.5768V52.2143H57.3883V52.464H54.4544V52.2143H55.3034V51.5027H54.804ZM54.8539 50.2667V50.017H57.0262V50.2667H54.8539ZM56.3021 51.5027H55.5905V52.2143H56.3021V51.5027Z" fill="#8E95A3"/>
<path d="M57.9001 52.2018C57.975 52.2018 58.025 52.2268 58.0749 52.2642C58.1248 52.3142 58.1373 52.3641 58.1373 52.4265C58.1373 52.4889 58.1124 52.5514 58.0749 52.5888C58.025 52.6387 57.975 52.6512 57.9001 52.6512C57.8252 52.6512 57.7753 52.6263 57.7253 52.5888C57.6754 52.5389 57.6629 52.4889 57.6629 52.4265C57.6629 52.3641 57.6879 52.3017 57.7253 52.2642C57.7753 52.2268 57.8252 52.2018 57.9001 52.2018ZM57.7129 49.9047H58.0874L58.0125 51.8522H57.7628L57.7129 49.9047Z" fill="#8E95A3"/>
</g>
</svg>
