<svg width="201" height="167" viewBox="0 0 201 167" fill="none" xmlns="http://www.w3.org/2000/svg">
<path d="M7.10846 0H194.492C196.165 0 197.769 0.659797 198.952 1.83424C200.135 3.00869 200.8 4.60158 200.8 6.2625V117.132H0.800049V6.2625C0.800049 4.60158 1.46468 3.00869 2.64774 1.83424C3.8308 0.659797 5.43537 0 7.10846 0V0Z" fill="#323232"/>
<path d="M0.800049 117.132H200.8V132.208C200.8 133.869 200.135 135.462 198.952 136.637C197.769 137.811 196.165 138.471 194.492 138.471H7.10846C5.43537 138.471 3.8308 137.811 2.64774 136.637C1.46468 135.462 0.800049 133.869 0.800049 132.208L0.800049 117.132Z" fill="white"/>
<path fill-rule="evenodd" clip-rule="evenodd" d="M136.186 167H65.6425C65.5953 167 65.5485 166.991 65.5049 166.973C65.4612 166.955 65.4216 166.929 65.3881 166.896C65.3547 166.863 65.3281 166.823 65.31 166.78C65.2919 166.737 65.2825 166.69 65.2825 166.644C65.2828 166.265 65.4347 165.902 65.7047 165.634C65.9747 165.367 66.3407 165.217 66.7222 165.217H67.8021C67.8021 165.217 74.6404 165.203 76.44 158.085C78.0607 151.674 78.5995 138.471 78.5995 138.471H123.23C123.23 138.471 123.769 151.674 125.389 158.085C127.188 165.203 134.027 165.217 134.027 165.217H135.107C135.296 165.217 135.483 165.253 135.658 165.325C135.832 165.397 135.991 165.502 136.125 165.634C136.258 165.767 136.364 165.924 136.437 166.097C136.509 166.27 136.547 166.456 136.547 166.644C136.547 166.69 136.537 166.737 136.519 166.78C136.501 166.823 136.475 166.863 136.441 166.896C136.408 166.929 136.368 166.955 136.324 166.973C136.281 166.991 136.234 167 136.186 167V167Z" fill="#E1E1E1"/>
<path d="M192.585 6.7771H8.51526C8.25847 6.7771 8.05029 6.98418 8.05029 7.23963V109.315C8.05029 109.57 8.25847 109.777 8.51526 109.777H192.585C192.842 109.777 193.05 109.57 193.05 109.315V7.23963C193.05 6.98418 192.842 6.7771 192.585 6.7771Z" fill="white"/>
<path d="M193 22H8V23H193V22Z" fill="#E8E8E8"/>
<rect x="28" y="30" width="32" height="19" rx="2" fill="#E8E9EA"/>
<rect x="28" y="52" width="32" height="47" rx="2" fill="#E8E9EA"/>
<rect x="65" y="30" width="108" height="69" rx="2" fill="#E8E9EA"/>
<rect x="116" y="61" width="49" height="25" rx="2" fill="#C2C2C2"/>
<rect x="31" y="81" width="26" height="12" rx="2" fill="#EB6067"/>
<rect x="116" y="48" width="49" height="8" rx="2" fill="#C2C2C2"/>
<rect x="73" y="48" width="34" height="3" rx="1.5" fill="#C2C2C2"/>
<rect x="73" y="54" width="34" height="3" rx="1.5" fill="#C2C2C2"/>
<rect x="73" y="60" width="34" height="3" rx="1.5" fill="#C2C2C2"/>
<rect x="73" y="66" width="34" height="3" rx="1.5" fill="#C2C2C2"/>
<rect x="73" y="72" width="34" height="3" rx="1.5" fill="#C2C2C2"/>
<path d="M28 14.2402V14.2241C28 13.0234 28.9187 12 30.2161 12C30.9655 12 31.4248 12.2095 31.868 12.5802L31.3926 13.1524C31.0622 12.8703 30.7399 12.693 30.1919 12.693C29.4022 12.693 28.7978 13.386 28.7978 14.208V14.2241C28.7978 15.1105 29.378 15.7552 30.2564 15.7552C30.6593 15.7552 31.03 15.6263 31.2959 15.4329V14.627H30.1919V13.9743H32.0212V15.7794C31.5941 16.142 30.9897 16.4482 30.2322 16.4482C28.8864 16.4482 28 15.4893 28 14.2402Z" fill="#EB6067"/>
<path d="M33.0446 12.0806H33.802V16.3757H33.0446V12.0806Z" fill="#EB6067"/>
<path d="M34.9464 12.0806H38.1455V12.7655H35.7038V13.934H37.8716V14.619H35.7038V16.3676H34.9464V12.0806Z" fill="#EB6067"/>
<path d="M40.0312 12.7816H38.6694V12.0806H42.1587V12.7816H40.7968V16.3757H40.0393V12.7816H40.0312Z" fill="#EB6067"/>
<path d="M42.5696 15.7472L43.0209 15.2072C43.4319 15.5618 43.8509 15.7633 44.3747 15.7633C44.8421 15.7633 45.1322 15.5457 45.1322 15.2234V15.2072C45.1322 14.901 44.963 14.7318 44.1652 14.5545C43.2546 14.3369 42.7389 14.063 42.7389 13.2732V13.2571C42.7389 12.5238 43.3513 12.0081 44.2055 12.0081C44.8341 12.0081 45.3256 12.2015 45.7608 12.548L45.3579 13.1201C44.971 12.83 44.5842 12.6769 44.1894 12.6769C43.7462 12.6769 43.4883 12.9025 43.4883 13.1846V13.2088C43.4883 13.5392 43.6817 13.6842 44.5117 13.8857C45.4223 14.1032 45.8897 14.4336 45.8897 15.1428V15.1589C45.8897 15.9647 45.2612 16.4402 44.3586 16.4402C43.7059 16.4321 43.0854 16.2065 42.5696 15.7472Z" fill="#EB6067"/>
<path d="M46.7922 12.0806H47.5497V13.8695H49.5966V12.0806H50.3541V16.3757H49.5966V14.5626H47.5497V16.3757H46.7922V12.0806V12.0806Z" fill="#EB6067"/>
<path d="M51.2646 14.2402V14.2241C51.2646 13.0154 52.1994 12 53.5129 12C54.8345 12 55.7532 12.9992 55.7532 14.208V14.2241C55.7532 15.4329 54.8184 16.4482 53.5049 16.4482C52.1833 16.4482 51.2646 15.449 51.2646 14.2402ZM54.9635 14.2402V14.2241C54.9635 13.386 54.3591 12.693 53.5049 12.693C52.6507 12.693 52.0544 13.378 52.0544 14.208V14.2241C52.0544 15.0622 52.6588 15.7472 53.5129 15.7472C54.3671 15.7472 54.9635 15.0703 54.9635 14.2402Z" fill="#EB6067"/>
<path d="M56.6719 12.0806H58.3641C59.3714 12.0806 60 12.6527 60 13.515V13.5311C60 14.4981 59.2264 14.9977 58.2836 14.9977H57.4294V16.3757H56.6719V12.0806ZM58.2997 14.3127C58.8718 14.3127 59.2264 13.9904 59.2264 13.5472V13.5311C59.2264 13.0315 58.8638 12.7655 58.2997 12.7655H57.4213V14.3127H58.2997Z" fill="#EB6067"/>
<path d="M172 13H158C157.448 13 157 13.4477 157 14V16C157 16.5523 157.448 17 158 17H172C172.552 17 173 16.5523 173 16V14C173 13.4477 172.552 13 172 13Z" fill="#E8E9EA"/>
<path d="M152 13H138C137.448 13 137 13.4477 137 14V16C137 16.5523 137.448 17 138 17H152C152.552 17 153 16.5523 153 16V14C153 13.4477 152.552 13 152 13Z" fill="#E8E9EA"/>
<path fill-rule="evenodd" clip-rule="evenodd" d="M69.0267 90.5422L51.2049 83.7443C51.0124 83.6709 50.8031 83.6525 50.6006 83.691C50.3982 83.7295 50.2105 83.8235 50.0587 83.9623C49.9054 84.1028 49.7933 84.2821 49.7344 84.481C49.6754 84.68 49.6719 84.8911 49.7242 85.0919L54.5484 103.722C54.6029 103.945 54.7252 104.145 54.8986 104.296C55.072 104.446 55.288 104.54 55.5169 104.564C55.7459 104.587 55.9766 104.54 56.1774 104.428C56.3783 104.316 56.5394 104.145 56.6388 103.939L59.3136 98.4748L65.9471 105.922C66.0528 106.042 66.1814 106.139 66.3253 106.209C66.4693 106.278 66.6258 106.319 66.7856 106.327C66.9454 106.336 67.1052 106.312 67.2558 106.258C67.4064 106.205 67.5447 106.121 67.6625 106.014L69.9101 103.968C70.1502 103.748 70.2941 103.443 70.3109 103.118C70.3276 102.794 70.2159 102.476 69.9997 102.233L63.3663 94.7851L69.0193 92.6668C69.2342 92.5839 69.4191 92.4384 69.5497 92.2493C69.6804 92.0603 69.7507 91.8364 69.7515 91.607C69.7523 91.3776 69.6835 91.1533 69.5542 90.9633C69.4249 90.7734 69.2411 90.6266 69.0267 90.5422V90.5422Z" fill="white"/>
<path fill-rule="evenodd" clip-rule="evenodd" d="M50.4692 83.032C50.7997 82.9691 51.1412 82.9994 51.4548 83.1188L69.2768 89.9169L69.0266 90.5422L69.2837 89.9195C69.6282 90.0551 69.9215 90.2901 70.1268 90.5917C70.3319 90.893 70.4402 91.2477 70.4389 91.6092C70.4377 91.9708 70.3269 92.3247 70.1196 92.6247C69.9123 92.9249 69.6173 93.1579 69.2718 93.2911L69.2656 93.2935L64.5296 95.0682L70.5191 101.793C70.8526 102.168 71.0231 102.656 70.9975 103.152C70.9719 103.648 70.7518 104.117 70.3805 104.457L70.3789 104.459L68.1324 106.504C68.1323 106.504 68.1324 106.504 68.1324 106.504C67.9476 106.672 67.7299 106.804 67.4921 106.889C67.2542 106.974 67.0012 107.011 66.7482 106.997C66.4952 106.984 66.2478 106.92 66.0207 106.811C65.7941 106.701 65.5926 106.549 65.4275 106.362C65.4272 106.362 65.4269 106.361 65.4265 106.361L59.4822 99.687L57.261 104.224C57.2607 104.225 57.2603 104.226 57.26 104.226C57.1009 104.556 56.8426 104.83 56.518 105.011C56.1925 105.192 55.8174 105.27 55.4444 105.231C55.0715 105.192 54.7214 105.04 54.4417 104.797C54.1634 104.555 53.9684 104.236 53.8809 103.883L49.0579 85.2572C49.0579 85.2571 49.058 85.2574 49.0579 85.2572C48.9756 84.9409 48.9811 84.608 49.0739 84.2945C49.1668 83.9807 49.3441 83.6964 49.5883 83.4727C49.8336 83.2483 50.1387 83.0948 50.4692 83.032ZM68.7723 91.1659L50.955 84.3696C50.9549 84.3696 50.9551 84.3697 50.955 84.3696C50.8836 84.3425 50.8064 84.3357 50.7321 84.3499C50.6577 84.364 50.5871 84.3988 50.5289 84.452C50.4666 84.5092 50.4197 84.5834 50.3948 84.6674C50.3699 84.7516 50.3684 84.8413 50.3905 84.9264L50.3907 84.9272L55.2171 103.566C55.2392 103.656 55.2883 103.736 55.3556 103.794C55.4226 103.852 55.5045 103.887 55.5894 103.896C55.6743 103.905 55.7606 103.887 55.8368 103.845C55.9132 103.802 55.9767 103.736 56.0166 103.653L56.0185 103.649L58.6934 98.1852C58.7932 97.9812 58.9916 97.8399 59.2211 97.8095C59.4506 97.7791 59.6804 97.8635 59.8324 98.0342L66.4677 105.484C66.5137 105.536 66.569 105.578 66.6299 105.607C66.6908 105.636 66.7564 105.653 66.8229 105.657C66.8894 105.66 66.9562 105.65 67.0195 105.628C67.0828 105.605 67.1418 105.57 67.1927 105.523L67.1937 105.522L69.4396 103.478C69.4399 103.478 69.4401 103.478 69.4403 103.478C69.5488 103.378 69.6163 103.237 69.6242 103.085C69.6321 102.932 69.5792 102.784 69.4804 102.673L62.8475 95.2256C62.7003 95.0603 62.6449 94.8352 62.6992 94.6227C62.7534 94.4101 62.9105 94.2368 63.1199 94.1583L68.7691 92.0414C68.8526 92.0086 68.9265 91.951 68.9798 91.8738C69.0338 91.7957 69.0636 91.7019 69.0639 91.6047C69.0643 91.5074 69.0351 91.4134 68.9817 91.3349C68.9289 91.2574 68.8554 91.1992 68.7723 91.1659Z" fill="#3F3F3F"/>
<path d="M192.585 6.7771H8.51526C8.25847 6.7771 8.05029 6.98418 8.05029 7.23963V109.315C8.05029 109.57 8.25847 109.777 8.51526 109.777H192.585C192.842 109.777 193.05 109.57 193.05 109.315V7.23963C193.05 6.98418 192.842 6.7771 192.585 6.7771Z" fill="#383E47" fill-opacity="0.65"/>
<g filter="url(#filter0_d)">
<path d="M46 16.6956C46 14.2103 47.4794 12.1956 49.3043 12.1956H156.696C158.521 12.1956 160 14.2103 160 16.6956V97.6956C160 100.181 158.521 102.196 156.696 102.196H49.3043C47.4794 102.196 46 100.181 46 97.6956V16.6956Z" fill="white"/>
</g>
<path d="M46 87H160V100C160 102.209 158.209 104 156 104H50C47.7909 104 46 102.209 46 100V87Z" fill="#23A685"/>
<path d="M97.57 97.342V96.264H99.544V95.683H95.757V94.801H99.404V92.799H95.036V93.38H98.69V94.227H95.05V96.264H96.849V97.342H94.357V97.937H100.083V97.342H97.57ZM104.744 93.667C104.744 94.486 104.744 95.417 104.499 96.663L105.227 96.74C105.465 95.403 105.465 94.514 105.465 93.667V92.988H101.09V93.569H104.744V93.667ZM100.481 97.202V97.797H106.2V97.202H100.481ZM111.814 92.358H111.093V96.95H111.814V92.358ZM107.432 94.36C107.432 93.779 107.845 93.401 108.405 93.401C108.958 93.401 109.378 93.779 109.378 94.36C109.378 94.934 108.958 95.319 108.405 95.319C107.845 95.319 107.432 94.934 107.432 94.36ZM110.078 94.36C110.078 93.436 109.357 92.778 108.405 92.778C107.453 92.778 106.725 93.436 106.725 94.36C106.725 95.277 107.453 95.942 108.405 95.942C109.357 95.942 110.078 95.277 110.078 94.36ZM108.412 97.972V96.488H107.684V98.56H111.996V97.972H108.412Z" fill="white"/>
<path fill-rule="evenodd" clip-rule="evenodd" d="M142.668 101.799L121.606 93.8683C121.378 93.7827 121.131 93.7611 120.892 93.8061C120.652 93.851 120.431 93.9606 120.251 94.1226C120.07 94.2865 119.938 94.4957 119.868 94.7278C119.798 94.9599 119.794 95.2062 119.856 95.4404L125.557 117.176C125.622 117.436 125.766 117.669 125.971 117.845C126.176 118.021 126.431 118.13 126.702 118.157C126.972 118.185 127.245 118.13 127.482 117.999C127.72 117.869 127.91 117.669 128.028 117.428L131.189 111.054L139.029 119.743C139.153 119.882 139.305 119.996 139.475 120.077C139.646 120.158 139.831 120.205 140.019 120.215C140.208 120.225 140.397 120.197 140.575 120.135C140.753 120.072 140.917 119.975 141.056 119.849L143.712 117.462C143.996 117.206 144.166 116.85 144.186 116.471C144.205 116.093 144.073 115.722 143.818 115.438L135.978 106.749L142.659 104.278C142.913 104.181 143.132 104.011 143.286 103.791C143.44 103.57 143.524 103.309 143.525 103.041C143.525 102.774 143.444 102.512 143.291 102.29C143.139 102.069 142.921 101.898 142.668 101.799V101.799Z" fill="white"/>
<path fill-rule="evenodd" clip-rule="evenodd" d="M120.736 93.0373C121.127 92.964 121.531 92.9992 121.901 93.1386L142.963 101.07L142.668 101.799L142.972 101.073C143.379 101.231 143.725 101.505 143.968 101.857C144.21 102.209 144.338 102.622 144.337 103.044C144.335 103.466 144.205 103.879 143.96 104.229C143.714 104.579 143.366 104.851 142.958 105.006L142.95 105.009L137.353 107.08L144.432 114.925C144.826 115.363 145.027 115.932 144.997 116.511C144.967 117.09 144.707 117.637 144.268 118.034L144.266 118.035L141.611 120.421C141.611 120.421 141.611 120.421 141.611 120.421C141.393 120.618 141.135 120.771 140.854 120.87C140.573 120.969 140.274 121.013 139.975 120.997C139.676 120.981 139.384 120.907 139.115 120.779C138.848 120.652 138.609 120.473 138.414 120.256C138.414 120.255 138.414 120.255 138.413 120.254L131.388 112.468L128.763 117.762C128.763 117.762 128.762 117.763 128.762 117.764C128.574 118.148 128.269 118.469 127.885 118.68C127.5 118.891 127.057 118.981 126.616 118.936C126.175 118.891 125.762 118.714 125.431 118.43C125.102 118.148 124.872 117.775 124.768 117.364L119.068 95.6335C119.068 95.6333 119.069 95.6336 119.068 95.6335C118.971 95.2644 118.978 94.876 119.087 94.5102C119.197 94.1442 119.407 93.8125 119.695 93.5514C119.985 93.2896 120.346 93.1107 120.736 93.0373ZM142.367 102.527L121.31 94.5979C121.31 94.5979 121.311 94.598 121.31 94.5979C121.226 94.5662 121.135 94.5584 121.047 94.5749C120.959 94.5914 120.876 94.632 120.807 94.694C120.733 94.7607 120.678 94.8473 120.648 94.9454C120.619 95.0436 120.617 95.1482 120.643 95.2474L120.644 95.2484L126.347 116.994C126.374 117.099 126.432 117.192 126.511 117.26C126.59 117.328 126.687 117.368 126.787 117.379C126.888 117.389 126.99 117.369 127.08 117.319C127.17 117.269 127.245 117.192 127.292 117.095L127.295 117.091L130.456 110.716C130.574 110.478 130.808 110.313 131.08 110.278C131.351 110.242 131.622 110.341 131.802 110.54L139.644 119.231C139.698 119.292 139.763 119.341 139.835 119.375C139.907 119.409 139.985 119.429 140.063 119.433C140.142 119.437 140.221 119.426 140.296 119.399C140.371 119.373 140.44 119.332 140.5 119.277L140.502 119.276L143.156 116.891C143.156 116.891 143.156 116.891 143.157 116.891C143.285 116.774 143.365 116.61 143.374 116.432C143.383 116.254 143.321 116.081 143.204 115.951L135.365 107.263C135.191 107.07 135.126 106.808 135.19 106.56C135.254 106.312 135.44 106.11 135.687 106.018L142.363 103.548C142.462 103.51 142.549 103.443 142.612 103.353C142.676 103.262 142.712 103.152 142.712 103.039C142.712 102.925 142.678 102.816 142.615 102.724C142.552 102.634 142.466 102.566 142.367 102.527Z" fill="#3F3F3F"/>
<path d="M73.323 24.7883H75.486V22.4363H72.595V23.0243H74.772V24.2073H72.609V26.7063H73.127C74.296 26.7063 75.143 26.6643 76.116 26.4893L76.039 25.9013C75.15 26.0623 74.359 26.1043 73.323 26.1113V24.7883ZM78.237 24.3333H77.264V21.8623H76.536V28.2043H77.264V24.9353H78.237V24.3333ZM82.9545 21.8693V28.2113H83.6825V21.8693H82.9545ZM80.3155 22.3383C79.3775 22.3383 78.6915 23.2063 78.6915 24.5643C78.6915 25.9363 79.3775 26.7973 80.3155 26.7973C81.2605 26.7973 81.9465 25.9363 81.9465 24.5643C81.9465 23.2063 81.2605 22.3383 80.3155 22.3383ZM80.3155 22.9893C80.8685 22.9893 81.2535 23.5843 81.2535 24.5643C81.2535 25.5583 80.8685 26.1533 80.3155 26.1533C79.7695 26.1533 79.3845 25.5583 79.3845 24.5643C79.3845 23.5843 79.7695 22.9893 80.3155 22.9893ZM88.1829 25.1173H86.7269V23.0523H88.1829V25.1173ZM86.0059 25.1173H85.0959V25.7053H89.8139V25.1173H88.8969V23.0523H89.8279V22.4713H85.0749V23.0523H86.0059V25.1173ZM84.5989 26.8253V27.4203H90.3389V26.8253H84.5989ZM95.9384 21.8763H95.2174V26.4683H95.9384V21.8763ZM91.5564 23.8783C91.5564 23.2973 91.9694 22.9193 92.5294 22.9193C93.0824 22.9193 93.5024 23.2973 93.5024 23.8783C93.5024 24.4523 93.0824 24.8373 92.5294 24.8373C91.9694 24.8373 91.5564 24.4523 91.5564 23.8783ZM94.2024 23.8783C94.2024 22.9543 93.4814 22.2963 92.5294 22.2963C91.5774 22.2963 90.8494 22.9543 90.8494 23.8783C90.8494 24.7953 91.5774 25.4603 92.5294 25.4603C93.4814 25.4603 94.2024 24.7953 94.2024 23.8783ZM92.5364 27.4903V26.0063H91.8084V28.0783H96.1204V27.4903H92.5364ZM99.3441 23.9413C99.3441 23.2553 100.023 22.8213 100.968 22.8213C101.906 22.8213 102.585 23.2553 102.585 23.9413C102.585 24.6273 101.906 25.0613 100.968 25.0613C100.023 25.0613 99.3441 24.6273 99.3441 23.9413ZM101.325 26.8323V25.6283C102.48 25.5233 103.292 24.8793 103.292 23.9413C103.292 22.9123 102.305 22.2473 100.968 22.2473C99.6241 22.2473 98.6441 22.9123 98.6441 23.9413C98.6441 24.8793 99.4491 25.5163 100.604 25.6213V26.8323H98.1121V27.4203H103.838V26.8323H101.325ZM107.457 26.8603V25.6703H109.326V25.0963H105.679V24.2703H109.13V23.7033H105.679V22.9403H109.27V22.3523H104.944V25.6703H106.729V26.8603H104.237V27.4553H109.963V26.8603H107.457ZM111.544 23.2133H112.188V26.0553C111.971 26.0623 111.761 26.0763 111.544 26.0833V23.2133ZM112.846 23.2133H113.315V22.6323H110.417V23.2133H110.893V26.0973C110.676 26.0973 110.466 26.0973 110.298 26.0973L110.375 26.6923C111.173 26.6923 112.468 26.6643 113.455 26.4683L113.406 25.9433C113.231 25.9713 113.042 25.9923 112.846 26.0133V23.2133ZM115.072 21.8693V24.3683H114.393V22.0023H113.714V27.8823H114.393V24.9563H115.072V28.1973H115.758V21.8693H115.072ZM121.966 24.9633C120.72 24.7393 119.705 23.7663 119.705 22.7583V22.2823H118.942V22.7583C118.942 23.7593 117.927 24.7323 116.681 24.9633L116.989 25.5583C118.018 25.3483 118.907 24.6903 119.32 23.8223C119.733 24.6903 120.622 25.3483 121.651 25.5583L121.966 24.9633ZM116.485 26.7903V27.3853H122.211V26.7903H116.485ZM124.64 22.7163C125.179 22.7163 125.557 22.9963 125.557 23.4303C125.557 23.8713 125.179 24.1443 124.64 24.1443C124.094 24.1443 123.716 23.8713 123.716 23.4303C123.716 22.9963 124.094 22.7163 124.64 22.7163ZM124.64 24.7043C125.571 24.7043 126.236 24.1933 126.236 23.4303C126.236 22.6813 125.571 22.1703 124.64 22.1703C123.702 22.1703 123.037 22.6813 123.037 23.4303C123.037 24.1933 123.702 24.7043 124.64 24.7043ZM126.705 24.9493C125.34 25.1383 123.772 25.1523 122.582 25.1523L122.673 25.7473C123.149 25.7473 123.681 25.7403 124.241 25.7193V28.0013H124.962V25.6843C125.557 25.6493 126.159 25.5863 126.747 25.4813L126.705 24.9493ZM127.146 21.8763V26.1603H125.795V26.7133H127.146V28.1973H127.874V21.8763H127.146ZM133.816 24.8583H130.155V23.0173H133.767V22.4293H129.434V25.4393H133.816V24.8583ZM128.734 26.7903V27.3853H134.467V26.7903H128.734Z" fill="#23A685"/>
<path d="M145.066 59.4597H60.4879C58.6561 59.4597 57.1711 60.9447 57.1711 62.7765V75.2145C57.1711 77.0463 58.6561 78.5312 60.4879 78.5312H145.066C146.898 78.5312 148.383 77.0463 148.383 75.2145V62.7765C148.383 60.9447 146.898 59.4597 145.066 59.4597Z" fill="#A8A8AA"/>
<path d="M136.943 71.3071C136.943 71.3071 136.96 71.253 136.96 71.1807L137.311 68.5981C136.977 68.4175 136.759 68.0382 136.759 67.6048C136.759 66.9908 137.228 66.4851 137.797 66.4851C137.814 66.4851 137.83 66.4851 137.847 66.4851C137.88 65.7627 137.613 65.257 137.01 64.9138C136.759 64.7694 136.458 64.6791 136.173 64.6249H134.215C133.93 64.6249 133.696 64.8777 133.696 65.1847V72.8061C133.696 73.1131 133.93 73.366 134.215 73.366H137.947C137.864 73.3299 137.78 73.2938 137.713 73.2396C136.742 72.5894 136.926 71.3433 136.943 71.3071Z" fill="white"/>
<path d="M138.578 66.6283C138.995 66.7953 139.268 67.2034 139.268 67.6857C139.268 68.1309 139.014 68.5204 138.65 68.7059L139.05 71.4699C139.068 71.5812 138.977 71.674 138.868 71.674H137.579C137.561 71.9708 137.597 72.7314 138.269 73.1395C138.705 73.4177 139.377 73.4363 140.357 73.2137C141.901 72.5273 142.972 70.9505 142.972 69.114C142.972 66.6283 141.011 64.6249 138.596 64.6249H137.561C138.088 64.9402 138.632 65.5338 138.578 66.6283Z" fill="white"/>
<path d="M145.066 35.413H60.4879C58.6561 35.413 57.1711 36.8979 57.1711 38.7298V51.1677C57.1711 52.9995 58.6561 54.4845 60.4879 54.4845H145.066C146.898 54.4845 148.383 52.9995 148.383 51.1677V38.7298C148.383 36.8979 146.898 35.413 145.066 35.413Z" fill="#E8E8E8"/>
<path d="M70.04 43.971C70.04 43.0491 69.5553 42.5223 68.7685 42.5223C68.1644 42.5223 67.8202 42.8004 67.5743 43.1881C67.3776 42.7638 66.9842 42.5223 66.4714 42.5223C65.9375 42.5223 65.5933 42.7857 65.4458 43.1369H65.4387V42.5955H64.7643V46.5977H65.4458V44.0662C65.4458 43.4369 65.9164 43.1662 66.3379 43.1662C66.8226 43.1662 67.0615 43.5028 67.0615 44.1979V46.5977H67.7429V44.1027C67.7429 43.4515 68.2065 43.1662 68.6351 43.1662C69.1198 43.1662 69.3586 43.5028 69.3586 44.1979V46.5977H70.04V43.971Z" fill="#505050"/>
<path d="M72.3822 45.7929L71.3636 42.5955H70.626L72.024 46.6563L71.5252 48.0245L72.1434 48.2513L74.1385 42.5955H73.4219L72.4103 45.7929H72.3822Z" fill="#505050"/>
<path d="M77.7448 46.9563H74.2324V47.4319H77.7448V46.9563Z" fill="#505050"/>
<path d="M78.3138 42.5955V46.5977H78.9952V42.5955H78.3138ZM78.2928 41.1614V41.937H79.0163V41.1614H78.2928Z" fill="#505050"/>
<path d="M82.5484 46.1002V46.5977H83.2017V41.0663H82.5203V43.0125C82.3657 42.7784 82.0285 42.5223 81.4455 42.5223C80.5463 42.5223 79.921 43.1589 79.921 44.2418V44.9515C79.921 46.0344 80.4479 46.6563 81.4174 46.6563C81.895 46.6563 82.3236 46.5026 82.5343 46.1002H82.5484ZM82.5273 45.0246C82.5273 45.6466 82.0707 46.0344 81.5157 46.0344C80.9467 46.0344 80.5954 45.5954 80.5954 44.8344V44.3442C80.5954 43.5906 80.9397 43.1442 81.5157 43.1442C82.1058 43.1442 82.5273 43.5759 82.5273 43.993V45.0246Z" fill="#505050"/>
<defs>
<filter id="filter0_d" x="26" y="0.195557" width="154" height="130" filterUnits="userSpaceOnUse" color-interpolation-filters="sRGB">
<feFlood flood-opacity="0" result="BackgroundImageFix"/>
<feColorMatrix in="SourceAlpha" type="matrix" values="0 0 0 0 0 0 0 0 0 0 0 0 0 0 0 0 0 0 127 0"/>
<feOffset dy="8"/>
<feGaussianBlur stdDeviation="10"/>
<feColorMatrix type="matrix" values="0 0 0 0 0 0 0 0 0 0 0 0 0 0 0 0 0 0 0.25 0"/>
<feBlend mode="normal" in2="BackgroundImageFix" result="effect1_dropShadow"/>
<feBlend mode="normal" in="SourceGraphic" in2="effect1_dropShadow" result="shape"/>
</filter>
</defs>
</svg>
