<svg width="299" height="183" viewBox="0 0 299 183" fill="none" xmlns="http://www.w3.org/2000/svg">
<path d="M5.45047 39H167.35C168.795 39 170.181 39.5689 171.204 40.5816C172.226 41.5943 172.8 42.9678 172.8 44.4V140H0V44.4C0 42.9678 0.574244 41.5943 1.5964 40.5816C2.61857 39.5689 4.00491 39 5.45047 39V39Z" fill="#323232"/>
<path d="M0 140H172.8V153C172.8 154.432 172.226 155.806 171.204 156.818C170.181 157.831 168.795 158.4 167.35 158.4H5.45047C4.00491 158.4 2.61857 157.831 1.5964 156.818C0.574244 155.806 0 154.432 0 153L0 140Z" fill="white"/>
<path fill-rule="evenodd" clip-rule="evenodd" d="M116.974 183H56.0239C55.9831 183 55.9427 182.992 55.905 182.977C55.8673 182.961 55.833 182.939 55.8041 182.91C55.7752 182.882 55.7523 182.848 55.7366 182.81C55.721 182.773 55.7129 182.733 55.7128 182.693C55.7132 182.366 55.8444 182.053 56.0777 181.822C56.3109 181.592 56.6271 181.462 56.9568 181.462H57.8898C57.8898 181.462 63.7981 181.451 65.3529 175.313C66.7533 169.785 67.2188 158.4 67.2188 158.4H105.779C105.779 158.4 106.245 169.785 107.645 175.313C109.199 181.451 115.108 181.462 115.108 181.462H116.041C116.204 181.462 116.366 181.494 116.517 181.556C116.668 181.617 116.805 181.708 116.92 181.822C117.036 181.936 117.128 182.072 117.19 182.221C117.253 182.371 117.285 182.531 117.285 182.693C117.285 182.733 117.277 182.773 117.261 182.81C117.246 182.848 117.223 182.882 117.194 182.91C117.165 182.939 117.131 182.961 117.093 182.977C117.055 182.992 117.015 183 116.974 183V183Z" fill="#E1E1E1"/>
<path d="M166.498 44.8438H6.66796C6.44498 44.8438 6.26422 45.0228 6.26422 45.2437V133.519C6.26422 133.74 6.44498 133.919 6.66796 133.919H166.498C166.721 133.919 166.902 133.74 166.902 133.519V45.2437C166.902 45.0228 166.721 44.8438 166.498 44.8438Z" fill="white"/>
<path d="M166.536 56.4657H6.26422V56.8283H166.536V56.4657Z" fill="#E8E8E8"/>
<path d="M29.4729 48.1094H11.7084V52.5094H29.4729V48.1094Z" fill="#E8E9EA"/>
<path fill-rule="evenodd" clip-rule="evenodd" d="M152.411 48.9093H161.495C161.763 48.9093 162.02 49.0147 162.209 49.2022C162.398 49.3897 162.505 49.6441 162.505 49.9093V50.9093C162.505 51.1745 162.398 51.4289 162.209 51.6164C162.02 51.8039 161.763 51.9093 161.495 51.9093H152.411C152.144 51.9093 151.887 51.8039 151.698 51.6164C151.508 51.4289 151.402 51.1745 151.402 50.9093V49.9093C151.402 49.6441 151.508 49.3897 151.698 49.2022C151.887 49.0147 152.144 48.9093 152.411 48.9093V48.9093ZM138.482 48.9093H147.566C147.834 48.9093 148.091 49.0147 148.28 49.2022C148.469 49.3897 148.576 49.6441 148.576 49.9093V50.9093C148.576 51.1745 148.469 51.4289 148.28 51.6164C148.091 51.8039 147.834 51.9093 147.566 51.9093H138.482C138.215 51.9093 137.958 51.8039 137.769 51.6164C137.579 51.4289 137.473 51.1745 137.473 50.9093V49.9093C137.473 49.6441 137.579 49.3897 137.769 49.2022C137.958 49.0147 138.215 48.9093 138.482 48.9093V48.9093Z" fill="#E8E9EA"/>
<rect x="21.2615" y="64.537" width="30.0639" height="16.3153" rx="2" fill="#E8EDF1"/>
<rect x="21.2615" y="83.6897" width="30.0639" height="40.4335" rx="2" fill="#E8EDF1"/>
<rect x="55.6202" y="64.537" width="98.0657" height="59.5862" rx="2" fill="#E8EDF1"/>
<rect x="102.148" y="95.0394" width="44.3801" height="21.9901" rx="2" fill="#23A685"/>
<rect x="102.148" y="83.6897" width="44.3801" height="7.0936" rx="2" fill="#D0D7DC"/>
<rect x="62.7783" y="83.6897" width="35.0746" height="2.83744" rx="1.41872" fill="#D0D7DC"/>
<rect x="62.426" y="89.4" width="27.36" height="2.88" rx="1.44" fill="#D0D7DC"/>
<rect x="62.426" y="95.16" width="21.6" height="2.88" rx="1.44" fill="#D0D7DC"/>
<rect x="62.426" y="100.92" width="30.96" height="2.88" rx="1.44" fill="#D0D7DC"/>
<rect x="62.426" y="106.68" width="27.36" height="2.88" rx="1.44" fill="#D0D7DC"/>
<path d="M166.498 44.8438H6.66796C6.44498 44.8438 6.26422 45.0228 6.26422 45.2437V133.519C6.26422 133.74 6.44498 133.919 6.66796 133.919H166.498C166.721 133.919 166.902 133.74 166.902 133.519V45.2437C166.902 45.0228 166.721 44.8438 166.498 44.8438Z" fill="#383E47" fill-opacity="0.65"/>
<g filter="url(#filter0_d)">
<path d="M29 32C29 29.7909 30.7909 28 33 28H134C136.209 28 138 29.7909 138 32V102H29V32Z" fill="white"/>
</g>
<path d="M29 102H138V117C138 119.209 136.209 121 134 121H33C30.7909 121 29 119.209 29 117V102Z" fill="#E0E6EB"/>
<path d="M54.323 41.13H56.486V38.778H53.595V39.366H55.772V40.549H53.609V43.048H54.127C55.296 43.048 56.143 43.006 57.116 42.831L57.039 42.243C56.15 42.404 55.359 42.446 54.323 42.453V41.13ZM59.237 40.675H58.264V38.204H57.536V44.546H58.264V41.277H59.237V40.675ZM63.9545 38.211V44.553H64.6825V38.211H63.9545ZM61.3155 38.68C60.3775 38.68 59.6915 39.548 59.6915 40.906C59.6915 42.278 60.3775 43.139 61.3155 43.139C62.2605 43.139 62.9465 42.278 62.9465 40.906C62.9465 39.548 62.2605 38.68 61.3155 38.68ZM61.3155 39.331C61.8685 39.331 62.2535 39.926 62.2535 40.906C62.2535 41.9 61.8685 42.495 61.3155 42.495C60.7695 42.495 60.3845 41.9 60.3845 40.906C60.3845 39.926 60.7695 39.331 61.3155 39.331ZM69.1829 41.459H67.7269V39.394H69.1829V41.459ZM67.0059 41.459H66.0959V42.047H70.8139V41.459H69.8969V39.394H70.8279V38.813H66.0749V39.394H67.0059V41.459ZM65.5989 43.167V43.762H71.3389V43.167H65.5989ZM76.9384 38.218H76.2174V42.81H76.9384V38.218ZM72.5564 40.22C72.5564 39.639 72.9694 39.261 73.5294 39.261C74.0824 39.261 74.5024 39.639 74.5024 40.22C74.5024 40.794 74.0824 41.179 73.5294 41.179C72.9694 41.179 72.5564 40.794 72.5564 40.22ZM75.2024 40.22C75.2024 39.296 74.4814 38.638 73.5294 38.638C72.5774 38.638 71.8494 39.296 71.8494 40.22C71.8494 41.137 72.5774 41.802 73.5294 41.802C74.4814 41.802 75.2024 41.137 75.2024 40.22ZM73.5364 43.832V42.348H72.8084V44.42H77.1204V43.832H73.5364ZM80.3441 40.283C80.3441 39.597 81.0231 39.163 81.9681 39.163C82.9061 39.163 83.5851 39.597 83.5851 40.283C83.5851 40.969 82.9061 41.403 81.9681 41.403C81.0231 41.403 80.3441 40.969 80.3441 40.283ZM82.3251 43.174V41.97C83.4801 41.865 84.2921 41.221 84.2921 40.283C84.2921 39.254 83.3051 38.589 81.9681 38.589C80.6241 38.589 79.6441 39.254 79.6441 40.283C79.6441 41.221 80.4491 41.858 81.6041 41.963V43.174H79.1121V43.762H84.8381V43.174H82.3251ZM88.4565 43.202V42.012H90.3255V41.438H86.6785V40.612H90.1295V40.045H86.6785V39.282H90.2695V38.694H85.9435V42.012H87.7285V43.202H85.2365V43.797H90.9625V43.202H88.4565ZM92.544 39.555H93.188V42.397C92.971 42.404 92.761 42.418 92.544 42.425V39.555ZM93.846 39.555H94.315V38.974H91.417V39.555H91.893V42.439C91.676 42.439 91.466 42.439 91.298 42.439L91.375 43.034C92.173 43.034 93.468 43.006 94.455 42.81L94.406 42.285C94.231 42.313 94.042 42.334 93.846 42.355V39.555ZM96.072 38.211V40.71H95.393V38.344H94.714V44.224H95.393V41.298H96.072V44.539H96.758V38.211H96.072ZM102.966 41.305C101.72 41.081 100.705 40.108 100.705 39.1V38.624H99.9424V39.1C99.9424 40.101 98.9274 41.074 97.6814 41.305L97.9894 41.9C99.0184 41.69 99.9074 41.032 100.32 40.164C100.733 41.032 101.622 41.69 102.651 41.9L102.966 41.305ZM97.4854 43.132V43.727H103.211V43.132H97.4854ZM105.64 39.058C106.179 39.058 106.557 39.338 106.557 39.772C106.557 40.213 106.179 40.486 105.64 40.486C105.094 40.486 104.716 40.213 104.716 39.772C104.716 39.338 105.094 39.058 105.64 39.058ZM105.64 41.046C106.571 41.046 107.236 40.535 107.236 39.772C107.236 39.023 106.571 38.512 105.64 38.512C104.702 38.512 104.037 39.023 104.037 39.772C104.037 40.535 104.702 41.046 105.64 41.046ZM107.705 41.291C106.34 41.48 104.772 41.494 103.582 41.494L103.673 42.089C104.149 42.089 104.681 42.082 105.241 42.061V44.343H105.962V42.026C106.557 41.991 107.159 41.928 107.747 41.823L107.705 41.291ZM108.146 38.218V42.502H106.795V43.055H108.146V44.539H108.874V38.218H108.146ZM114.816 41.2H111.155V39.359H114.767V38.771H110.434V41.781H114.816V41.2ZM109.734 43.132V43.727H115.467V43.132H109.734Z" fill="#23A685"/>
<path d="M78.91 111.375C79.659 111.207 80.184 110.829 80.457 110.325C80.737 110.78 81.248 111.13 81.969 111.284L82.256 110.724C81.346 110.535 80.814 110.038 80.807 109.464H82.13V108.897H80.807V108.232H80.079V108.897H78.763V109.464H80.086C80.079 110.073 79.54 110.619 78.616 110.822L78.91 111.375ZM82.459 111.543C81.101 111.732 79.533 111.746 78.357 111.746L78.448 112.341C78.945 112.341 79.498 112.334 80.086 112.313V114.357H80.807V112.271C81.367 112.243 81.948 112.173 82.501 112.075L82.459 111.543ZM82.865 108.218V114.546H83.586V108.218H82.865ZM89.9625 111.207C88.7165 110.997 87.7015 110.059 87.7015 109.079V108.603H86.9385V109.079C86.9385 110.052 85.9235 110.997 84.6705 111.207L84.9785 111.809C86.0075 111.606 86.9035 110.976 87.3235 110.136C87.7295 110.976 88.6255 111.606 89.6615 111.809L89.9625 111.207ZM87.6735 113.16V111.683H86.9525V113.16H84.4815V113.755H90.2075V113.16H87.6735Z" fill="#323232"/>
<path d="M122.965 75.9113H44.0606C41.8515 75.9113 40.0606 77.7021 40.0606 79.9113V90.0823C40.0606 92.2914 41.8515 94.0823 44.0606 94.0823H122.965C125.175 94.0823 126.965 92.2914 126.965 90.0823V79.9113C126.965 77.7021 125.175 75.9113 122.965 75.9113Z" fill="#A8A8AA"/>
<path d="M99.3473 75.9113H44.0606C41.8515 75.9113 40.0606 77.7021 40.0606 79.9113V90.0823C40.0606 92.2914 41.8515 94.0823 44.0606 94.0823H99.3473V75.9113Z" fill="#23A685"/>
<path d="M116.066 87.1994C116.066 87.1994 116.082 87.1477 116.082 87.0789L116.417 84.6183C116.098 84.4462 115.891 84.0848 115.891 83.6719C115.891 83.0868 116.337 82.605 116.879 82.605C116.895 82.605 116.911 82.605 116.927 82.605C116.959 81.9167 116.704 81.4349 116.13 81.108C115.891 80.9703 115.603 80.8843 115.332 80.8326H113.467C113.195 80.8326 112.972 81.0735 112.972 81.3661V88.6276C112.972 88.9201 113.195 89.161 113.467 89.161H117.023C116.943 89.1266 116.863 89.0922 116.8 89.0406C115.875 88.4211 116.05 87.2338 116.066 87.1994Z" fill="white"/>
<path d="M117.623 82.7415C118.021 82.9005 118.281 83.2894 118.281 83.7489C118.281 84.1731 118.039 84.5443 117.693 84.721L118.073 87.3545C118.091 87.4605 118.004 87.5489 117.9 87.5489H116.672C116.655 87.8317 116.689 88.5563 117.329 88.9452C117.745 89.2103 118.385 89.228 119.319 89.0159C120.789 88.3619 121.81 86.8596 121.81 85.1098C121.81 82.7415 119.942 80.8326 117.641 80.8326H116.655C117.156 81.1331 117.675 81.6987 117.623 82.7415Z" fill="white"/>
<path fill-rule="evenodd" clip-rule="evenodd" d="M66.5739 87.0431V87.9233H71.0611V86.9514H68.0434L69.9085 84.9895C70.4981 84.3753 70.8237 83.7153 70.8237 83.0003V82.9087C70.8237 82.0009 70.2077 81.2126 68.7737 81.2126C68.3211 81.2016 67.8752 81.3273 67.4896 81.5745C67.104 81.8217 66.7951 82.1799 66.6003 82.6059L67.4452 83.1837C67.8573 82.4134 68.3244 82.2575 68.7825 82.2575C69.4334 82.2575 69.6892 82.5967 69.6892 82.9545V83.0278C69.6892 83.4036 69.6453 83.752 68.9061 84.5403L66.5739 87.0431ZM73.426 83.092C73.4215 82.9728 73.4415 82.8539 73.4848 82.7435C73.5281 82.6331 73.5937 82.5336 73.6771 82.4519C73.7604 82.3702 73.8597 82.3081 73.9681 82.2698C74.0764 82.2315 74.1914 82.218 74.3053 82.2301C74.8243 82.2301 75.1845 82.5234 75.1845 83.092V83.1837C75.1873 83.3012 75.1661 83.418 75.1226 83.5264C75.0791 83.6348 75.0141 83.7325 74.9319 83.8129C74.8497 83.8934 74.7521 83.9548 74.6455 83.9933C74.539 84.0318 74.4259 84.0464 74.3135 84.0361C74.2006 84.0454 74.087 84.0302 73.9799 83.9916C73.8728 83.953 73.7744 83.8918 73.6911 83.8118C73.6077 83.7318 73.541 83.6347 73.4952 83.5266C73.4494 83.4186 73.4255 83.3018 73.4249 83.1837V83.092H73.426ZM73.2678 86.0072C73.2678 85.3381 73.7692 85.0619 74.3234 85.0619C74.8776 85.0619 75.3442 85.3556 75.3442 86.0072V86.0989C75.3442 86.6672 74.9482 86.9972 74.3234 86.9972C73.6901 86.9972 73.2678 86.6672 73.2678 86.0989V86.0072ZM72.1063 86.1722C72.1063 87.2264 72.8718 88.0242 74.3319 88.0242C75.7398 88.0242 76.5051 87.2264 76.5051 86.1722V86.0164C76.5038 85.6867 76.404 85.3655 76.2196 85.0977C76.0351 84.8298 75.7751 84.6286 75.4758 84.522C75.7224 84.3892 75.9316 84.1917 76.0828 83.949C76.234 83.7063 76.322 83.4267 76.338 83.1378V83.0278C76.338 82.0825 75.6511 81.2126 74.2968 81.2126C72.9067 81.2126 72.2731 82.0834 72.2731 83.0278V83.1378C72.2868 83.4285 72.3748 83.7101 72.5279 83.9535C72.681 84.1969 72.8938 84.3931 73.1441 84.522C72.8449 84.6299 72.5848 84.8312 72.3991 85.0986C72.2134 85.3659 72.1111 85.6864 72.1061 86.0164V86.1722H72.1063ZM77.7706 87.5658C78.2807 87.8824 78.8665 88.0414 79.4599 88.0242C80.9643 88.0242 81.9762 87.3456 81.9762 84.4303V84.0086C81.9762 82.3125 81.325 81.2126 79.7061 81.2126C78.2985 81.2126 77.453 82.1579 77.453 83.3853V83.5686C77.453 84.852 78.2009 85.6864 79.4313 85.6864C79.6942 85.6969 79.9563 85.6511 80.2014 85.5517C80.4466 85.4523 80.6696 85.3015 80.8565 85.1086C80.795 86.5206 80.3463 86.9606 79.528 86.9606C79.0556 86.9681 78.5902 86.8414 78.1817 86.5939L77.7706 87.5658ZM80.8412 83.5503C80.8412 84.1553 80.498 84.6595 79.6871 84.6595C78.9128 84.6595 78.5606 84.2928 78.5606 83.5228V83.422C78.5606 82.6884 78.9565 82.2762 79.7308 82.2762C80.4524 82.2762 80.8395 82.6978 80.8395 83.4131V83.5506L80.8412 83.5503ZM89.6062 82.2117V81.3134H85.0759V82.3034H88.428L85.9908 87.9233H87.1784L89.6062 82.2117ZM94.7864 81.6709C94.2763 81.3543 93.6905 81.1954 93.0971 81.2126C91.7159 81.2126 90.5808 81.8909 90.5808 84.8061V85.2281C90.5808 86.9239 91.232 88.0242 92.8509 88.0242C94.2585 88.0242 95.104 87.0889 95.104 85.8606V85.6772C95.104 84.3936 94.3561 83.5503 93.1243 83.5503C92.8615 83.5399 92.5994 83.5857 92.3543 83.6851C92.1092 83.7844 91.8862 83.9351 91.6991 84.1278C91.7782 82.7159 92.3767 82.2759 93.0276 82.2759C93.5 82.2684 93.9654 82.3952 94.3739 82.6425L94.7864 81.6709ZM91.7159 85.6864C91.7159 85.0814 92.059 84.577 92.8685 84.577C93.6428 84.577 93.995 84.9436 93.995 85.7139V85.8147C93.995 86.5481 93.5994 86.9606 92.8251 86.9606C92.1036 86.9606 91.7164 86.5389 91.7164 85.8239V85.6864H91.7159ZM97.3714 83.092C97.3668 82.9728 97.3869 82.8539 97.4302 82.7435C97.4735 82.6331 97.539 82.5336 97.6224 82.4519C97.7058 82.3702 97.805 82.3081 97.9134 82.2698C98.0218 82.2315 98.1368 82.218 98.2506 82.2301C98.7697 82.2301 99.1299 82.5234 99.1299 83.092V83.1837C99.1326 83.3012 99.1115 83.418 99.0679 83.5264C99.0244 83.6348 98.9594 83.7325 98.8772 83.8129C98.795 83.8934 98.6974 83.9548 98.5909 83.9933C98.4843 84.0318 98.3712 84.0464 98.2589 84.0361C98.1459 84.0454 98.0323 84.0302 97.9252 83.9916C97.8181 83.953 97.7198 83.8918 97.6364 83.8118C97.553 83.7318 97.4863 83.6347 97.4406 83.5266C97.3948 83.4186 97.3708 83.3018 97.3703 83.1837V83.092H97.3714ZM97.2128 86.0072C97.2128 85.3381 97.7146 85.0619 98.2688 85.0619C98.823 85.0619 99.2892 85.3556 99.2892 86.0072V86.0989C99.2892 86.6672 98.8933 86.9972 98.2688 86.9972C97.6351 86.9972 97.2128 86.6672 97.2128 86.0989V86.0072ZM96.0533 86.1722C96.0533 87.2264 96.8185 88.0242 98.2789 88.0242C99.6866 88.0242 100.452 87.2264 100.452 86.1722V86.0164C100.451 85.6867 100.351 85.3655 100.167 85.0977C99.9821 84.8298 99.7221 84.6286 99.4228 84.522C99.6694 84.3892 99.8786 84.1917 100.03 83.949C100.181 83.7063 100.269 83.4267 100.285 83.1378V83.0278C100.285 82.0825 99.5981 81.2126 98.2438 81.2126C96.8537 81.2126 96.2201 82.0834 96.2201 83.0278V83.1378C96.2338 83.4285 96.3217 83.7101 96.4749 83.9535C96.628 84.1969 96.8408 84.3931 97.0911 84.522C96.792 84.63 96.5319 84.8313 96.3463 85.0986C96.1606 85.366 96.0583 85.6864 96.0533 86.0164V86.1722Z" fill="white"/>
<path d="M122.965 54H44.0606C41.8515 54 40.0606 55.7909 40.0606 58V68.171C40.0606 70.3801 41.8515 72.171 44.0606 72.171H122.965C125.175 72.171 126.965 70.3801 126.965 68.171V58C126.965 55.7909 125.175 54 122.965 54Z" fill="#E8E8E8"/>
<path d="M52.3219 62.1539C52.3219 61.2756 51.86 60.7736 51.1104 60.7736C50.5348 60.7736 50.2068 61.0385 49.9726 61.408C49.7852 61.0037 49.4103 60.7736 48.9217 60.7736C48.4131 60.7736 48.0851 61.0246 47.9445 61.3592H47.9378V60.8433H47.2953V64.6566H47.9445V62.2446C47.9445 61.645 48.393 61.3871 48.7946 61.3871C49.2564 61.3871 49.484 61.7078 49.484 62.3701V64.6566H50.1332V62.2794C50.1332 61.659 50.575 61.3871 50.9832 61.3871C51.4451 61.3871 51.6726 61.7078 51.6726 62.3701V64.6566H52.3219V62.1539Z" fill="#505050"/>
<path d="M54.5535 63.8898L53.583 60.8433H52.8802L54.2121 64.7124L53.7369 66.016L54.3259 66.2321L56.2268 60.8433H55.5441L54.5803 63.8898H54.5535Z" fill="#505050"/>
<path d="M59.6628 64.9982H56.3162V65.4514H59.6628V64.9982Z" fill="#505050"/>
<path d="M60.205 60.8433V64.6566H60.8542V60.8433H60.205ZM60.1849 59.477V60.2159H60.8743V59.477H60.1849Z" fill="#505050"/>
<path d="M64.2396 64.1826V64.6566H64.862V59.3864H64.2128V61.2407C64.0655 61.0176 63.7443 60.7736 63.1887 60.7736C62.332 60.7736 61.7363 61.3801 61.7363 62.4119V63.0881C61.7363 64.1198 62.2383 64.7124 63.162 64.7124C63.6171 64.7124 64.0254 64.566 64.2262 64.1826H64.2396ZM64.2195 63.1578C64.2195 63.7504 63.7844 64.1198 63.2557 64.1198C62.7135 64.1198 62.3789 63.7016 62.3789 62.9766V62.5095C62.3789 61.7914 62.7068 61.3662 63.2557 61.3662C63.8179 61.3662 64.2195 61.7775 64.2195 62.1749V63.1578Z" fill="#505050"/>
<mask id="mask0" mask-type="alpha" maskUnits="userSpaceOnUse" x="135" y="0" width="164" height="183">
<path d="M135 20C135 8.95431 143.954 0 155 0H279C290.046 0 299 8.95431 299 20V183H135V20Z" fill="#23A685"/>
</mask>
<g mask="url(#mask0)">
<path d="M135 19.7316C135 8.83413 143.888 0 154.853 0H279.147C290.112 0 299 8.83413 299 19.7316V306.268C299 317.166 290.112 326 279.147 326H154.853C143.888 326 135 317.166 135 306.268V19.7316Z" fill="#323232"/>
<path d="M142 24.3498C142 14.8549 149.719 7.15784 159.241 7.15784H274.759C284.281 7.15784 292 14.8549 292 24.3498V289.966C292 299.461 284.281 307.158 274.759 307.158H159.241C149.719 307.158 142 299.461 142 289.966V24.3498Z" fill="white"/>
<g opacity="0.2">
<rect x="142" y="50" width="150" height="67" fill="#545468"/>
<rect x="152" y="32" width="63" height="7" rx="2" fill="#23A685"/>
<rect x="152" y="91" width="40" height="13" rx="6" fill="#8AC8FF"/>
<rect x="161" y="134" width="24" height="24" rx="2" fill="#23A685"/>
<rect x="161" y="162" width="24" height="3" rx="1.5" fill="#4F4F4F"/>
<rect x="205" y="134" width="24" height="24" rx="2" fill="#23A685"/>
<rect x="205" y="162" width="24" height="3" rx="1.5" fill="#4F4F4F"/>
<rect x="249" y="134" width="24" height="24" rx="2" fill="#23A685"/>
<rect x="249" y="162" width="24" height="3" rx="1.5" fill="#4F4F4F"/>
</g>
<path d="M142 24.3498C142 14.8549 149.719 7.15784 159.241 7.15784H274.759C284.281 7.15784 292 14.8549 292 24.3498V289.966C292 299.461 284.281 307.158 274.759 307.158H159.241C149.719 307.158 142 299.461 142 289.966V24.3498Z" fill="#383E47" fill-opacity="0.65"/>
<g filter="url(#filter1_d)">
<rect x="158" y="58" width="118" height="92" rx="4" fill="white"/>
</g>
<rect x="198" y="69" width="36" height="5" rx="2" fill="#E0E6EB"/>
<rect x="185" y="80" width="63" height="5" rx="2" fill="#E0E6EB"/>
<path d="M158 131H217V150H162C159.791 150 158 148.209 158 146V131Z" fill="#E0E6EB"/>
<path d="M182.91 140.375C183.659 140.207 184.184 139.829 184.457 139.325C184.737 139.78 185.248 140.13 185.969 140.284L186.256 139.724C185.346 139.535 184.814 139.038 184.807 138.464H186.13V137.897H184.807V137.232H184.079V137.897H182.763V138.464H184.086C184.079 139.073 183.54 139.619 182.616 139.822L182.91 140.375ZM186.459 140.543C185.101 140.732 183.533 140.746 182.357 140.746L182.448 141.341C182.945 141.341 183.498 141.334 184.086 141.313V143.357H184.807V141.271C185.367 141.243 185.948 141.173 186.501 141.075L186.459 140.543ZM186.865 137.218V143.546H187.586V137.218H186.865ZM193.962 140.207C192.716 139.997 191.701 139.059 191.701 138.079V137.603H190.938V138.079C190.938 139.052 189.923 139.997 188.67 140.207L188.978 140.809C190.007 140.606 190.903 139.976 191.323 139.136C191.729 139.976 192.625 140.606 193.661 140.809L193.962 140.207ZM191.673 142.16V140.683H190.952V142.16H188.481V142.755H194.207V142.16H191.673Z" fill="#323232"/>
<path d="M238.485 142.79C237.804 142.79 237.272 142.589 236.889 142.188C236.511 141.782 236.322 141.182 236.322 140.389V140.214C236.322 139.397 236.53 138.798 236.945 138.415C237.36 138.028 237.904 137.834 238.576 137.834C239.071 137.834 239.472 137.918 239.78 138.086V138.758C239.402 138.609 239.022 138.534 238.639 138.534C237.715 138.534 237.253 139.064 237.253 140.123V140.368C237.253 140.937 237.363 141.367 237.582 141.656C237.801 141.945 238.156 142.09 238.646 142.09C239.019 142.09 239.414 142.004 239.829 141.831V142.496C239.46 142.692 239.012 142.79 238.485 142.79ZM241.341 142.776C241.005 142.776 240.736 142.69 240.536 142.517C240.335 142.344 240.235 142.09 240.235 141.754C240.235 141.147 240.62 140.788 241.39 140.676L242.237 140.578V140.305C242.237 140.067 242.176 139.908 242.055 139.829C241.938 139.745 241.723 139.703 241.411 139.703C241.117 139.703 240.825 139.736 240.536 139.801V139.248C240.867 139.117 241.264 139.052 241.726 139.052C242.603 139.052 243.042 139.409 243.042 140.123V142.713H242.377L242.314 142.419H242.272C242.066 142.657 241.756 142.776 241.341 142.776ZM241.586 142.209C241.866 142.209 242.083 142.137 242.237 141.992V141.103L241.572 141.173C241.39 141.187 241.252 141.236 241.159 141.32C241.07 141.404 241.026 141.535 241.026 141.712C241.026 141.875 241.075 141.999 241.173 142.083C241.275 142.167 241.413 142.209 241.586 142.209ZM243.839 142.713V139.108H244.616V139.43H244.644C244.998 139.173 245.393 139.045 245.827 139.045C246.181 139.045 246.445 139.124 246.618 139.283C246.79 139.437 246.877 139.689 246.877 140.039V142.713H246.065V140.228C246.065 140.041 246.023 139.911 245.939 139.836C245.855 139.757 245.694 139.717 245.456 139.717C245.185 139.717 244.914 139.782 244.644 139.913V142.713H243.839ZM249.189 142.776C248.648 142.776 248.226 142.624 247.922 142.321C247.619 142.018 247.467 141.574 247.467 140.991V140.879C247.467 140.282 247.628 139.827 247.95 139.514C248.277 139.201 248.702 139.045 249.224 139.045C249.621 139.045 249.952 139.117 250.218 139.262V139.892C249.887 139.761 249.572 139.696 249.273 139.696C248.97 139.696 248.732 139.792 248.559 139.983C248.387 140.17 248.3 140.44 248.3 140.795V140.956C248.3 141.362 248.384 141.661 248.552 141.852C248.72 142.039 248.979 142.132 249.329 142.132C249.623 142.132 249.931 142.057 250.253 141.908V142.496C249.959 142.683 249.605 142.776 249.189 142.776ZM252.394 142.776C251.806 142.776 251.36 142.617 251.057 142.3C250.758 141.983 250.609 141.535 250.609 140.956V140.858C250.609 140.275 250.763 139.829 251.071 139.521C251.383 139.208 251.78 139.052 252.261 139.052C252.783 139.052 253.168 139.197 253.416 139.486C253.663 139.775 253.787 140.212 253.787 140.795V141.131H251.435C251.458 141.495 251.561 141.756 251.743 141.915C251.929 142.069 252.2 142.146 252.555 142.146C252.951 142.146 253.322 142.057 253.668 141.88V142.44C253.327 142.664 252.902 142.776 252.394 142.776ZM252.247 139.647C251.752 139.647 251.481 139.957 251.435 140.578H252.968C252.968 140.247 252.907 140.009 252.786 139.864C252.669 139.719 252.489 139.647 252.247 139.647ZM254.404 142.713V137.596H255.216V142.713H254.404Z" fill="#323232"/>
<path d="M217 131H276V146C276 148.209 274.209 150 272 150H217V131Z" fill="#23A685"/>
<path d="M245.074 137.75H243.639V137.162H242.911V137.75H241.462V138.275H245.074V137.75ZM242.442 139.416C242.442 139.129 242.764 138.954 243.268 138.954C243.772 138.954 244.094 139.129 244.094 139.416C244.094 139.696 243.772 139.864 243.268 139.864C242.764 139.864 242.442 139.696 242.442 139.416ZM245.249 140.578C244.738 140.655 244.185 140.69 243.639 140.718V140.326C244.339 140.242 244.773 139.913 244.773 139.416C244.773 138.828 244.178 138.471 243.268 138.471C242.358 138.471 241.763 138.828 241.763 139.416C241.763 139.913 242.197 140.249 242.911 140.326V140.746C242.33 140.76 241.777 140.76 241.301 140.76L241.385 141.334C242.491 141.327 243.968 141.32 245.305 141.082L245.249 140.578ZM242.085 142.349H245.585V143.546H246.306V141.775H242.085V142.349ZM247.174 139.087H246.306V137.225H245.585V141.495H246.306V139.682H247.174V139.087ZM252.689 137.218H251.968V141.81H252.689V137.218ZM248.307 139.22C248.307 138.639 248.72 138.261 249.28 138.261C249.833 138.261 250.253 138.639 250.253 139.22C250.253 139.794 249.833 140.179 249.28 140.179C248.72 140.179 248.307 139.794 248.307 139.22ZM250.953 139.22C250.953 138.296 250.232 137.638 249.28 137.638C248.328 137.638 247.6 138.296 247.6 139.22C247.6 140.137 248.328 140.802 249.28 140.802C250.232 140.802 250.953 140.137 250.953 139.22ZM249.287 142.832V141.348H248.559V143.42H252.871V142.832H249.287Z" fill="white"/>
<path d="M259 96H175C172.791 96 171 97.7909 171 100V111.236C171 113.446 172.791 115.236 175 115.236H259C261.209 115.236 263 113.446 263 111.236V100C263 97.7909 261.209 96 259 96Z" fill="#A8A8AA"/>
<path d="M233.763 96H175C172.791 96 171 97.7909 171 100V111.236C171 113.446 172.791 115.236 175 115.236H233.763V96Z" fill="#23A685"/>
<path d="M251.462 107.95C251.462 107.95 251.479 107.895 251.479 107.822L251.833 105.217C251.495 105.035 251.276 104.653 251.276 104.216C251.276 103.596 251.749 103.086 252.323 103.086C252.34 103.086 252.356 103.086 252.373 103.086C252.407 102.357 252.137 101.847 251.529 101.501C251.276 101.356 250.972 101.264 250.685 101.21H248.71C248.423 101.21 248.187 101.465 248.187 101.775V109.462C248.187 109.771 248.423 110.027 248.71 110.027H252.475C252.39 109.99 252.306 109.954 252.238 109.899C251.259 109.243 251.445 107.986 251.462 107.95Z" fill="white"/>
<path d="M253.11 103.231C253.532 103.399 253.806 103.811 253.806 104.297C253.806 104.746 253.55 105.139 253.184 105.326L253.587 108.114C253.605 108.226 253.513 108.32 253.403 108.32H252.103C252.085 108.619 252.121 109.386 252.799 109.798C253.239 110.079 253.916 110.097 254.905 109.873C256.462 109.181 257.542 107.59 257.542 105.738C257.542 103.231 255.565 101.21 253.129 101.21H252.085C252.616 101.528 253.165 102.127 253.11 103.231Z" fill="white"/>
<path fill-rule="evenodd" clip-rule="evenodd" d="M199.068 107.784V108.716H203.818V107.687H200.623L202.598 105.61C203.222 104.96 203.567 104.262 203.567 103.505V103.408C203.567 102.447 202.915 101.612 201.397 101.612C200.917 101.6 200.445 101.734 200.037 101.995C199.629 102.257 199.302 102.636 199.096 103.087L199.99 103.699C200.426 102.883 200.921 102.718 201.406 102.718C202.095 102.718 202.366 103.077 202.366 103.456V103.534C202.366 103.932 202.319 104.3 201.537 105.135L199.068 107.784ZM206.322 103.602C206.317 103.475 206.338 103.35 206.384 103.233C206.43 103.116 206.499 103.011 206.587 102.924C206.676 102.838 206.781 102.772 206.895 102.731C207.01 102.691 207.132 102.676 207.252 102.689C207.802 102.689 208.183 103 208.183 103.602V103.699C208.186 103.823 208.164 103.947 208.118 104.062C208.072 104.176 208.003 104.28 207.916 104.365C207.829 104.45 207.725 104.515 207.613 104.556C207.5 104.597 207.38 104.612 207.261 104.601C207.142 104.611 207.021 104.595 206.908 104.554C206.795 104.513 206.69 104.448 206.602 104.364C206.514 104.279 206.443 104.176 206.395 104.062C206.346 103.947 206.321 103.824 206.32 103.699V103.602H206.322ZM206.154 106.688C206.154 105.979 206.685 105.687 207.272 105.687C207.858 105.687 208.352 105.998 208.352 106.688V106.785C208.352 107.387 207.933 107.736 207.272 107.736C206.601 107.736 206.154 107.387 206.154 106.785V106.688ZM204.925 106.863C204.925 107.978 205.735 108.823 207.281 108.823C208.771 108.823 209.581 107.978 209.581 106.863V106.698C209.58 106.348 209.474 106.009 209.279 105.725C209.084 105.441 208.808 105.228 208.492 105.115C208.753 104.975 208.974 104.766 209.134 104.509C209.294 104.252 209.387 103.956 209.404 103.65V103.534C209.404 102.533 208.677 101.612 207.243 101.612C205.772 101.612 205.101 102.534 205.101 103.534V103.65C205.116 103.958 205.209 104.256 205.371 104.514C205.533 104.771 205.758 104.979 206.023 105.115C205.706 105.23 205.431 105.443 205.234 105.726C205.038 106.009 204.93 106.348 204.924 106.698V106.863H204.925ZM210.921 108.338C211.461 108.673 212.081 108.841 212.709 108.823C214.302 108.823 215.373 108.105 215.373 105.018V104.572C215.373 102.777 214.684 101.612 212.97 101.612C211.48 101.612 210.585 102.613 210.585 103.912V104.106C210.585 105.465 211.376 106.348 212.679 106.348C212.957 106.359 213.235 106.311 213.494 106.206C213.754 106.1 213.99 105.941 214.188 105.737C214.123 107.231 213.648 107.697 212.781 107.697C212.281 107.705 211.789 107.571 211.356 107.309L210.921 108.338ZM214.171 104.087C214.171 104.727 213.808 105.261 212.95 105.261C212.13 105.261 211.757 104.873 211.757 104.058V103.951C211.757 103.174 212.176 102.738 212.996 102.738C213.76 102.738 214.17 103.184 214.17 103.942V104.087L214.171 104.087ZM223.45 102.67V101.719H218.654V102.767H222.203L219.623 108.716H220.88L223.45 102.67ZM228.934 102.097C228.394 101.762 227.774 101.594 227.146 101.612C225.684 101.612 224.482 102.33 224.482 105.416V105.863C224.482 107.658 225.172 108.823 226.885 108.823C228.376 108.823 229.271 107.833 229.271 106.533V106.338C229.271 104.98 228.479 104.087 227.175 104.087C226.897 104.076 226.619 104.124 226.36 104.23C226.1 104.335 225.864 104.494 225.666 104.698C225.75 103.204 226.383 102.738 227.072 102.738C227.573 102.73 228.065 102.864 228.498 103.126L228.934 102.097ZM225.684 106.348C225.684 105.708 226.047 105.174 226.904 105.174C227.724 105.174 228.097 105.562 228.097 106.377V106.484C228.097 107.26 227.678 107.697 226.858 107.697C226.094 107.697 225.684 107.251 225.684 106.494V106.348H225.684ZM231.671 103.602C231.666 103.475 231.687 103.35 231.733 103.233C231.779 103.116 231.848 103.011 231.937 102.924C232.025 102.838 232.13 102.772 232.245 102.731C232.359 102.691 232.481 102.676 232.602 102.689C233.151 102.689 233.532 103 233.532 103.602V103.699C233.535 103.823 233.513 103.947 233.467 104.062C233.421 104.176 233.352 104.28 233.265 104.365C233.178 104.45 233.075 104.515 232.962 104.556C232.849 104.597 232.729 104.612 232.61 104.601C232.491 104.611 232.371 104.595 232.257 104.554C232.144 104.513 232.04 104.448 231.951 104.364C231.863 104.279 231.793 104.176 231.744 104.062C231.696 103.947 231.67 103.824 231.67 103.699V103.602H231.671ZM231.503 106.688C231.503 105.979 232.034 105.687 232.621 105.687C233.208 105.687 233.701 105.998 233.701 106.688V106.785C233.701 107.387 233.282 107.736 232.621 107.736C231.95 107.736 231.503 107.387 231.503 106.785V106.688ZM230.276 106.863C230.276 107.978 231.086 108.823 232.632 108.823C234.122 108.823 234.932 107.978 234.932 106.863V106.698C234.931 106.348 234.825 106.009 234.63 105.725C234.435 105.441 234.159 105.228 233.843 105.115C234.104 104.975 234.325 104.766 234.485 104.509C234.645 104.252 234.738 103.956 234.755 103.65V103.534C234.755 102.533 234.028 101.612 232.594 101.612C231.123 101.612 230.452 102.534 230.452 103.534V103.65C230.467 103.958 230.56 104.256 230.722 104.514C230.884 104.771 231.109 104.979 231.374 105.115C231.057 105.23 230.782 105.443 230.586 105.726C230.389 106.009 230.281 106.348 230.276 106.698V106.863Z" fill="white"/>
<path fill-rule="evenodd" clip-rule="evenodd" d="M271.634 161.495L264.007 166.44C263.168 166.984 262.127 166.75 262.127 166.75L254.529 164.592C253.948 164.437 253.439 164.048 253.099 163.5L249.965 157.404C249.86 157.2 249.832 156.959 249.886 156.732C249.94 156.506 250.072 156.312 250.253 156.194L250.594 155.974C250.863 155.8 251.16 155.687 251.468 155.641C251.776 155.596 252.09 155.619 252.39 155.709C252.69 155.799 252.971 155.955 253.217 156.167C253.463 156.38 253.67 156.644 253.824 156.946L255.597 160.396C255.623 160.446 255.657 160.49 255.698 160.525C255.739 160.56 255.786 160.586 255.836 160.601C255.886 160.616 255.939 160.619 255.99 160.612C256.041 160.604 256.091 160.585 256.136 160.556C256.18 160.527 256.22 160.488 256.251 160.442C256.283 160.396 256.306 160.344 256.319 160.288C256.332 160.232 256.336 160.173 256.329 160.116C256.322 160.058 256.305 160.003 256.279 159.953L248.004 143.855L248.008 143.852C247.788 143.375 247.741 142.821 247.875 142.305C248.01 141.789 248.317 141.352 248.733 141.082C249.148 140.813 249.641 140.732 250.107 140.858C250.574 140.983 250.98 141.305 251.241 141.756L251.246 141.753L255.384 149.802C255.436 149.903 255.522 149.977 255.623 150.007C255.724 150.037 255.832 150.021 255.923 149.962C256.013 149.903 256.079 149.807 256.106 149.694C256.133 149.581 256.118 149.46 256.066 149.359L254.786 146.868L254.79 146.865C254.57 146.387 254.523 145.833 254.658 145.318C254.793 144.802 255.1 144.364 255.515 144.095C255.931 143.825 256.423 143.745 256.89 143.87C257.357 143.996 257.763 144.317 258.024 144.768L258.028 144.766L259.505 147.64C259.531 147.69 259.566 147.734 259.607 147.769C259.648 147.805 259.695 147.83 259.745 147.845C259.795 147.86 259.847 147.864 259.898 147.856C259.95 147.849 259.999 147.83 260.044 147.801C260.089 147.772 260.128 147.733 260.16 147.687C260.191 147.641 260.214 147.588 260.228 147.532C260.241 147.476 260.244 147.418 260.237 147.361C260.231 147.303 260.214 147.248 260.188 147.198L259.597 146.048L259.601 146.045C259.381 145.567 259.334 145.013 259.469 144.498C259.604 143.982 259.911 143.544 260.326 143.275C260.742 143.006 261.234 142.925 261.701 143.051C262.168 143.176 262.574 143.497 262.835 143.948L262.839 143.945L263.627 145.479C263.679 145.58 263.766 145.654 263.867 145.684C263.968 145.714 264.075 145.698 264.166 145.639C264.256 145.58 264.322 145.484 264.349 145.371C264.376 145.258 264.362 145.137 264.309 145.036V145.036L264.314 145.033C264.12 144.606 264.08 144.113 264.201 143.654C264.323 143.194 264.597 142.805 264.967 142.565C265.337 142.325 265.775 142.252 266.192 142.363C266.608 142.473 266.971 142.758 267.206 143.158L267.21 143.155L271.151 150.821L271.939 152.354L273.219 154.845C273.794 155.963 273.95 157.29 273.653 158.536C273.356 159.782 272.63 160.846 271.634 161.495V161.495Z" fill="white"/>
<path fill-rule="evenodd" clip-rule="evenodd" d="M249.9 141.63C249.658 141.565 249.399 141.604 249.168 141.753C248.933 141.906 248.738 142.169 248.649 142.508C248.561 142.847 248.593 143.211 248.734 143.518C248.742 143.535 248.75 143.552 248.756 143.57L256.989 159.585C256.989 159.585 256.99 159.586 256.99 159.586C257.061 159.723 257.105 159.871 257.123 160.021C257.141 160.171 257.132 160.325 257.097 160.473C257.062 160.621 257 160.764 256.912 160.893C256.823 161.023 256.709 161.138 256.571 161.227C256.433 161.316 256.276 161.378 256.108 161.403C255.94 161.428 255.77 161.415 255.608 161.367C255.447 161.319 255.301 161.238 255.178 161.133C255.056 161.028 254.958 160.901 254.886 160.764L254.885 160.761L253.112 157.311C253.003 157.097 252.859 156.915 252.695 156.773C252.53 156.631 252.348 156.532 252.159 156.475C251.971 156.418 251.776 156.404 251.585 156.433C251.394 156.461 251.205 156.532 251.029 156.645L250.69 156.864C250.689 156.865 250.686 156.868 250.682 156.874C250.676 156.883 250.669 156.897 250.664 156.918C250.653 156.962 250.661 157.008 250.676 157.037L253.794 163.103C254.035 163.478 254.374 163.723 254.735 163.819L254.748 163.822L262.314 165.971C262.331 165.974 262.361 165.979 262.399 165.984C262.479 165.994 262.596 166.003 262.732 165.999C263.013 165.992 263.32 165.932 263.572 165.769L271.197 160.824C271.198 160.824 271.197 160.824 271.197 160.824C272.007 160.296 272.621 159.414 272.875 158.35C273.128 157.286 272.993 156.155 272.507 155.211L271.227 152.719L270.439 151.187L266.54 143.602C266.532 143.589 266.524 143.576 266.516 143.563C266.379 143.329 266.183 143.188 265.987 143.136C265.795 143.085 265.588 143.115 265.402 143.236C265.212 143.359 265.049 143.575 264.974 143.858C264.899 144.142 264.926 144.446 265.042 144.703C265.057 144.736 265.069 144.769 265.08 144.803C265.171 145.044 265.187 145.307 265.127 145.556C265.057 145.852 264.878 146.13 264.601 146.31C264.319 146.493 263.97 146.549 263.638 146.45C263.311 146.353 263.06 146.123 262.917 145.847L262.915 145.844L262.169 144.392C262.16 144.378 262.151 144.364 262.142 144.349C261.978 144.066 261.739 143.889 261.493 143.823C261.251 143.758 260.992 143.797 260.761 143.946C260.527 144.098 260.331 144.362 260.243 144.7C260.154 145.039 260.186 145.403 260.328 145.71C260.336 145.728 260.343 145.745 260.35 145.763L260.898 146.83C260.898 146.83 260.899 146.831 260.899 146.831C260.97 146.968 261.014 147.116 261.032 147.266C261.05 147.417 261.041 147.57 261.006 147.718C260.971 147.866 260.909 148.009 260.82 148.138C260.731 148.268 260.617 148.383 260.479 148.472C260.341 148.561 260.184 148.623 260.016 148.648C259.848 148.673 259.678 148.66 259.516 148.612C259.355 148.564 259.21 148.482 259.086 148.377C258.964 148.272 258.866 148.145 258.795 148.008L258.793 148.006L257.358 145.211C257.348 145.198 257.34 145.183 257.331 145.169C257.167 144.885 256.928 144.709 256.682 144.643C256.44 144.578 256.181 144.617 255.95 144.766C255.716 144.918 255.52 145.182 255.432 145.52C255.343 145.859 255.375 146.223 255.517 146.53C255.525 146.547 255.532 146.565 255.539 146.582L256.776 148.991C256.776 148.991 256.777 148.992 256.777 148.993C256.919 149.267 256.954 149.584 256.884 149.879C256.814 150.175 256.635 150.453 256.358 150.633C256.076 150.816 255.726 150.872 255.395 150.774C255.068 150.676 254.817 150.446 254.673 150.17L254.672 150.167L250.576 142.2C250.567 142.186 250.558 142.171 250.549 142.156C250.385 141.873 250.146 141.696 249.9 141.63ZM251.878 141.263C251.518 140.69 250.969 140.261 250.315 140.085C249.623 139.899 248.898 140.022 248.298 140.411C247.701 140.798 247.283 141.41 247.101 142.102C246.929 142.76 246.977 143.465 247.239 144.09C247.252 144.135 247.27 144.178 247.292 144.221L252.844 155.02C252.77 154.991 252.696 154.966 252.62 154.943C252.208 154.819 251.777 154.787 251.352 154.85C250.927 154.912 250.522 155.068 250.16 155.302C250.16 155.302 250.16 155.302 250.16 155.302L249.819 155.522L249.817 155.524C249.449 155.763 249.205 156.138 249.107 156.547C249.01 156.955 249.059 157.393 249.253 157.77L252.387 163.866C252.397 163.885 252.407 163.903 252.419 163.922C252.857 164.627 253.526 165.151 254.317 165.363L261.909 167.52C261.923 167.524 261.937 167.527 261.952 167.531L262.127 166.75C261.952 167.531 261.952 167.53 261.952 167.531L261.953 167.531L261.954 167.531L261.957 167.532L261.963 167.533L261.981 167.537C261.995 167.539 262.012 167.543 262.034 167.547C262.077 167.554 262.136 167.564 262.207 167.572C262.348 167.589 262.544 167.605 262.773 167.599C263.222 167.587 263.855 167.492 264.442 167.111L272.069 162.166L271.634 161.494L272.071 162.165C273.253 161.395 274.091 160.15 274.431 158.721C274.771 157.293 274.594 155.771 273.93 154.48C273.93 154.48 273.93 154.48 273.93 154.48L272.65 151.988L271.862 150.455L267.922 142.789C267.898 142.743 267.87 142.7 267.839 142.661C267.505 142.14 266.999 141.749 266.397 141.589C265.756 141.42 265.086 141.534 264.532 141.893C263.994 142.242 263.613 142.788 263.439 143.406C263.079 142.858 262.543 142.448 261.908 142.278C261.216 142.092 260.491 142.214 259.891 142.604C259.295 142.99 258.876 143.603 258.695 144.295C258.693 144.302 258.691 144.309 258.69 144.316C258.681 144.303 258.671 144.29 258.661 144.277C258.301 143.704 257.752 143.273 257.097 143.098C256.405 142.912 255.68 143.034 255.08 143.424C254.484 143.81 254.065 144.423 253.884 145.115C253.883 145.119 253.882 145.124 253.88 145.128L251.957 141.387C251.935 141.343 251.908 141.302 251.878 141.263ZM263.573 145.336C263.579 145.359 263.587 145.382 263.599 145.404L264.293 145.044C264.292 145.044 264.292 145.044 264.292 145.043L263.585 145.364C263.581 145.355 263.577 145.345 263.573 145.336ZM264.3 145.039L264.301 145.04L264.309 145.036L264.3 145.039Z" fill="#3F3F3F"/>
</g>
<defs>
<filter id="filter0_d" x="9" y="16" width="149" height="114" filterUnits="userSpaceOnUse" color-interpolation-filters="sRGB">
<feFlood flood-opacity="0" result="BackgroundImageFix"/>
<feColorMatrix in="SourceAlpha" type="matrix" values="0 0 0 0 0 0 0 0 0 0 0 0 0 0 0 0 0 0 127 0"/>
<feOffset dy="8"/>
<feGaussianBlur stdDeviation="10"/>
<feColorMatrix type="matrix" values="0 0 0 0 0 0 0 0 0 0 0 0 0 0 0 0 0 0 0.25 0"/>
<feBlend mode="normal" in2="BackgroundImageFix" result="effect1_dropShadow"/>
<feBlend mode="normal" in="SourceGraphic" in2="effect1_dropShadow" result="shape"/>
</filter>
<filter id="filter1_d" x="138" y="46" width="158" height="132" filterUnits="userSpaceOnUse" color-interpolation-filters="sRGB">
<feFlood flood-opacity="0" result="BackgroundImageFix"/>
<feColorMatrix in="SourceAlpha" type="matrix" values="0 0 0 0 0 0 0 0 0 0 0 0 0 0 0 0 0 0 127 0"/>
<feOffset dy="8"/>
<feGaussianBlur stdDeviation="10"/>
<feColorMatrix type="matrix" values="0 0 0 0 0 0 0 0 0 0 0 0 0 0 0 0 0 0 0.25 0"/>
<feBlend mode="normal" in2="BackgroundImageFix" result="effect1_dropShadow"/>
<feBlend mode="normal" in="SourceGraphic" in2="effect1_dropShadow" result="shape"/>
</filter>
</defs>
</svg>
