<svg width="200" height="167" viewBox="0 0 200 167" fill="none" xmlns="http://www.w3.org/2000/svg">
<path d="M6.30841 0H193.692C195.365 0 196.969 0.659797 198.152 1.83424C199.335 3.00869 200 4.60158 200 6.2625V117.132H0V6.2625C0 4.60158 0.664634 3.00869 1.84769 1.83424C3.03075 0.659797 4.63532 0 6.30841 0V0Z" fill="#323232"/>
<path d="M0 117.132H200V132.208C200 133.869 199.335 135.462 198.152 136.637C196.969 137.811 195.365 138.471 193.692 138.471H6.30841C4.63532 138.471 3.03075 137.811 1.84769 136.637C0.664634 135.462 0 133.869 0 132.208L0 117.132Z" fill="white"/>
<path fill-rule="evenodd" clip-rule="evenodd" d="M135.386 167H64.8425C64.7953 167 64.7485 166.991 64.7048 166.973C64.6612 166.955 64.6215 166.929 64.5881 166.896C64.5546 166.863 64.5281 166.823 64.51 166.78C64.4918 166.737 64.4825 166.69 64.4824 166.644C64.4828 166.265 64.6347 165.902 64.9047 165.634C65.1747 165.367 65.5407 165.217 65.9221 165.217H67.0021C67.0021 165.217 73.8404 165.203 75.6399 158.085C77.2607 151.674 77.7995 138.471 77.7995 138.471H122.43C122.43 138.471 122.969 151.674 124.589 158.085C126.388 165.203 133.227 165.217 133.227 165.217H134.307C134.496 165.217 134.683 165.253 134.858 165.325C135.032 165.397 135.191 165.502 135.324 165.634C135.458 165.767 135.564 165.924 135.637 166.097C135.709 166.27 135.747 166.456 135.747 166.644C135.747 166.69 135.737 166.737 135.719 166.78C135.701 166.823 135.674 166.863 135.641 166.896C135.608 166.929 135.568 166.955 135.524 166.973C135.48 166.991 135.434 167 135.386 167V167Z" fill="#E1E1E1"/>
<path d="M191.785 6.7771H7.71521C7.45842 6.7771 7.25024 6.98418 7.25024 7.23963V109.315C7.25024 109.57 7.45842 109.777 7.71521 109.777H191.785C192.042 109.777 192.25 109.57 192.25 109.315V7.23963C192.25 6.98418 192.042 6.7771 191.785 6.7771Z" fill="white"/>
<path d="M192.2 22H7.19995V23H192.2V22Z" fill="#E8E8E8"/>
<rect x="27.2" y="30" width="32" height="19" rx="2" fill="#E8E9EA"/>
<rect x="27.2" y="52" width="32" height="47" rx="2" fill="#E8E9EA"/>
<rect x="64.2" y="30" width="108" height="69" rx="2" fill="#E8E9EA"/>
<rect x="115.2" y="61" width="49" height="25" rx="2" fill="#C2C2C2"/>
<rect x="30.2" y="81" width="26" height="12" rx="2" fill="#EB6067"/>
<rect x="115.2" y="48" width="49" height="8" rx="2" fill="#C2C2C2"/>
<rect x="72.2" y="48" width="34" height="3" rx="1.5" fill="#C2C2C2"/>
<rect x="72.2" y="54" width="34" height="3" rx="1.5" fill="#C2C2C2"/>
<rect x="72.2" y="60" width="34" height="3" rx="1.5" fill="#C2C2C2"/>
<rect x="72.2" y="66" width="34" height="3" rx="1.5" fill="#C2C2C2"/>
<rect x="72.2" y="72" width="34" height="3" rx="1.5" fill="#C2C2C2"/>
<path d="M27.2 14.2402V14.2241C27.2 13.0234 28.1186 12 29.416 12C30.1654 12 30.6248 12.2095 31.068 12.5802L30.5925 13.1524C30.2621 12.8703 29.9398 12.693 29.3918 12.693C28.6021 12.693 27.9977 13.386 27.9977 14.208V14.2241C27.9977 15.1105 28.5779 15.7552 29.4563 15.7552C29.8592 15.7552 30.2299 15.6263 30.4958 15.4329V14.627H29.3918V13.9743H31.2211V15.7794C30.794 16.142 30.1896 16.4482 29.4321 16.4482C28.0864 16.4482 27.2 15.4893 27.2 14.2402Z" fill="#EB6067"/>
<path d="M32.2445 12.0806H33.002V16.3757H32.2445V12.0806Z" fill="#EB6067"/>
<path d="M34.1464 12.0806H37.3456V12.7655H34.9039V13.934H37.0716V14.619H34.9039V16.3676H34.1464V12.0806Z" fill="#EB6067"/>
<path d="M39.2311 12.7816H37.8693V12.0806H41.3586V12.7816H39.9967V16.3757H39.2392V12.7816H39.2311Z" fill="#EB6067"/>
<path d="M41.7695 15.7472L42.2208 15.2072C42.6318 15.5618 43.0508 15.7633 43.5746 15.7633C44.042 15.7633 44.3321 15.5457 44.3321 15.2234V15.2072C44.3321 14.901 44.1629 14.7318 43.3651 14.5545C42.4545 14.3369 41.9388 14.063 41.9388 13.2732V13.2571C41.9388 12.5238 42.5512 12.0081 43.4054 12.0081C44.0339 12.0081 44.5255 12.2015 44.9607 12.548L44.5577 13.1201C44.1709 12.83 43.7841 12.6769 43.3893 12.6769C42.9461 12.6769 42.6882 12.9025 42.6882 13.1846V13.2088C42.6882 13.5392 42.8816 13.6842 43.7116 13.8857C44.6222 14.1032 45.0896 14.4336 45.0896 15.1428V15.1589C45.0896 15.9647 44.461 16.4402 43.5585 16.4402C42.9058 16.4321 42.2853 16.2065 41.7695 15.7472Z" fill="#EB6067"/>
<path d="M45.9922 12.0806H46.7497V13.8695H48.7965V12.0806H49.554V16.3757H48.7965V14.5626H46.7497V16.3757H45.9922V12.0806V12.0806Z" fill="#EB6067"/>
<path d="M50.4646 14.2402V14.2241C50.4646 13.0154 51.3994 12 52.7129 12C54.0345 12 54.9531 12.9992 54.9531 14.208V14.2241C54.9531 15.4329 54.0184 16.4482 52.7048 16.4482C51.3833 16.4482 50.4646 15.449 50.4646 14.2402ZM54.1634 14.2402V14.2241C54.1634 13.386 53.559 12.693 52.7048 12.693C51.8506 12.693 51.2543 13.378 51.2543 14.208V14.2241C51.2543 15.0622 51.8587 15.7472 52.7129 15.7472C53.5671 15.7472 54.1634 15.0703 54.1634 14.2402Z" fill="#EB6067"/>
<path d="M55.8718 12.0806H57.5641C58.5714 12.0806 59.2 12.6527 59.2 13.515V13.5311C59.2 14.4981 58.4263 14.9977 57.4835 14.9977H56.6293V16.3757H55.8718V12.0806ZM57.4996 14.3127C58.0718 14.3127 58.4263 13.9904 58.4263 13.5472V13.5311C58.4263 13.0315 58.0637 12.7655 57.4996 12.7655H56.6213V14.3127H57.4996Z" fill="#EB6067"/>
<path d="M171.2 13H157.2C156.648 13 156.2 13.4477 156.2 14V16C156.2 16.5523 156.648 17 157.2 17H171.2C171.752 17 172.2 16.5523 172.2 16V14C172.2 13.4477 171.752 13 171.2 13Z" fill="#E8E9EA"/>
<path d="M151.2 13H137.2C136.648 13 136.2 13.4477 136.2 14V16C136.2 16.5523 136.648 17 137.2 17H151.2C151.752 17 152.2 16.5523 152.2 16V14C152.2 13.4477 151.752 13 151.2 13Z" fill="#E8E9EA"/>
<path fill-rule="evenodd" clip-rule="evenodd" d="M68.2267 90.5422L50.4049 83.7443C50.2124 83.6709 50.0031 83.6525 49.8007 83.691C49.5982 83.7295 49.4105 83.8235 49.2587 83.9623C49.1054 84.1028 48.9933 84.2821 48.9344 84.481C48.8755 84.68 48.872 84.8911 48.9242 85.0919L53.7484 103.722C53.8029 103.945 53.9252 104.145 54.0986 104.296C54.272 104.446 54.488 104.54 54.7169 104.564C54.9459 104.587 55.1766 104.54 55.3774 104.428C55.5783 104.316 55.7394 104.145 55.8388 103.939L58.5137 98.4748L65.1472 105.922C65.2528 106.042 65.3814 106.139 65.5253 106.209C65.6693 106.278 65.8258 106.319 65.9856 106.327C66.1454 106.336 66.3053 106.312 66.4558 106.258C66.6064 106.205 66.7447 106.121 66.8625 106.014L69.1101 103.968C69.3502 103.748 69.4941 103.443 69.5109 103.118C69.5276 102.794 69.4159 102.476 69.1998 102.233L62.5663 94.7851L68.2193 92.6668C68.4343 92.5839 68.6191 92.4384 68.7497 92.2493C68.8804 92.0603 68.9507 91.8364 68.9515 91.607C68.9523 91.3776 68.8835 91.1533 68.7542 90.9633C68.6249 90.7734 68.4411 90.6266 68.2267 90.5422V90.5422Z" fill="white"/>
<path fill-rule="evenodd" clip-rule="evenodd" d="M49.6691 83.032C49.9997 82.9691 50.3412 82.9994 50.6548 83.1188L68.4767 89.9169L68.2266 90.5422L68.4836 89.9195C68.8282 90.0551 69.1215 90.2901 69.3267 90.5917C69.5319 90.893 69.6402 91.2477 69.6389 91.6092C69.6376 91.9708 69.5269 92.3247 69.3196 92.6247C69.1122 92.9249 68.8173 93.1579 68.4717 93.2911L68.4655 93.2935L63.7295 95.0682L69.7191 101.793C70.0526 102.168 70.2231 102.656 70.1974 103.152C70.1718 103.648 69.9518 104.117 69.5805 104.457L69.5788 104.459L67.3323 106.504C67.3322 106.504 67.3324 106.504 67.3323 106.504C67.1476 106.672 66.9299 106.804 66.6921 106.889C66.4542 106.974 66.2012 107.011 65.9482 106.997C65.6951 106.984 65.4478 106.92 65.2207 106.811C64.9941 106.701 64.7926 106.549 64.6274 106.362C64.6271 106.362 64.6268 106.361 64.6265 106.361L58.6822 99.687L56.461 104.224C56.4606 104.225 56.4603 104.226 56.4599 104.226C56.3009 104.556 56.0425 104.83 55.718 105.011C55.3925 105.192 55.0174 105.27 54.6444 105.231C54.2714 105.192 53.9214 105.04 53.6416 104.797C53.3633 104.555 53.1683 104.236 53.0808 103.883L48.2579 85.2572C48.2578 85.2571 48.2579 85.2574 48.2579 85.2572C48.1756 84.9409 48.181 84.608 48.2739 84.2945C48.3668 83.9807 48.544 83.6964 48.7883 83.4727C49.0335 83.2483 49.3387 83.0948 49.6691 83.032ZM67.9722 91.1659L50.155 84.3696C50.1549 84.3696 50.155 84.3697 50.155 84.3696C50.0836 84.3425 50.0064 84.3357 49.932 84.3499C49.8576 84.364 49.7871 84.3988 49.7289 84.452C49.6665 84.5092 49.6196 84.5834 49.5948 84.6674C49.5698 84.7516 49.5683 84.8413 49.5905 84.9264L49.5907 84.9272L54.417 103.566C54.4391 103.656 54.4883 103.736 54.5555 103.794C54.6226 103.852 54.7044 103.887 54.7894 103.896C54.8742 103.905 54.9605 103.887 55.0367 103.845C55.1131 103.802 55.1767 103.736 55.2165 103.653L55.2185 103.649L57.8933 98.1852C57.9932 97.9812 58.1916 97.8399 58.4211 97.8095C58.6506 97.7791 58.8803 97.8635 59.0323 98.0342L65.6677 105.484C65.7137 105.536 65.7689 105.578 65.8299 105.607C65.8907 105.636 65.9563 105.653 66.0229 105.657C66.0894 105.66 66.1562 105.65 66.2195 105.628C66.2828 105.605 66.3418 105.57 66.3926 105.523L66.3937 105.522L68.6396 103.478C68.6398 103.478 68.64 103.478 68.6402 103.478C68.7488 103.378 68.8163 103.237 68.8242 103.085C68.8321 102.932 68.7792 102.784 68.6803 102.673L62.0475 95.2256C61.9002 95.0603 61.8449 94.8352 61.8991 94.6227C61.9534 94.4101 62.1104 94.2368 62.3199 94.1583L67.9691 92.0414C68.0525 92.0086 68.1264 91.951 68.1798 91.8738C68.2337 91.7957 68.2636 91.7019 68.2639 91.6047C68.2642 91.5074 68.235 91.4134 68.1816 91.3349C68.1288 91.2574 68.0554 91.1992 67.9722 91.1659Z" fill="#3F3F3F"/>
<path d="M191.785 6.7771H7.71521C7.45842 6.7771 7.25024 6.98418 7.25024 7.23963V109.315C7.25024 109.57 7.45842 109.777 7.71521 109.777H191.785C192.042 109.777 192.25 109.57 192.25 109.315V7.23963C192.25 6.98418 192.042 6.7771 191.785 6.7771Z" fill="#383E47" fill-opacity="0.65"/>
<g filter="url(#filter0_d)">
<path d="M45 16.6956C45 14.2103 46.4794 12.1956 48.3043 12.1956H155.696C157.521 12.1956 159 14.2103 159 16.6956V97.6956C159 100.181 157.521 102.196 155.696 102.196H48.3043C46.4794 102.196 45 100.181 45 97.6956V16.6956Z" fill="white"/>
</g>
<path d="M45 87H159V100C159 102.209 157.209 104 155 104H49C46.7909 104 45 102.209 45 100V87Z" fill="#E0E6EB"/>
<path d="M96.91 95.515C97.659 95.347 98.184 94.969 98.457 94.465C98.737 94.92 99.248 95.27 99.969 95.424L100.256 94.864C99.346 94.675 98.814 94.178 98.807 93.604H100.13V93.037H98.807V92.372H98.079V93.037H96.763V93.604H98.086C98.079 94.213 97.54 94.759 96.616 94.962L96.91 95.515ZM100.459 95.683C99.101 95.872 97.533 95.886 96.357 95.886L96.448 96.481C96.945 96.481 97.498 96.474 98.086 96.453V98.497H98.807V96.411C99.367 96.383 99.948 96.313 100.501 96.215L100.459 95.683ZM100.865 92.358V98.686H101.586V92.358H100.865ZM107.962 95.347C106.716 95.137 105.701 94.199 105.701 93.219V92.743H104.938V93.219C104.938 94.192 103.923 95.137 102.67 95.347L102.978 95.949C104.007 95.746 104.903 95.116 105.323 94.276C105.729 95.116 106.625 95.746 107.661 95.949L107.962 95.347ZM105.673 97.3V95.823H104.952V97.3H102.481V97.895H108.207V97.3H105.673Z" fill="#323232"/>
<path d="M72.523 24.7883H74.686V22.4363H71.795V23.0243H73.972V24.2073H71.809V26.7063H72.327C73.496 26.7063 74.343 26.6643 75.316 26.4893L75.239 25.9013C74.35 26.0623 73.559 26.1043 72.523 26.1113V24.7883ZM77.437 24.3333H76.464V21.8623H75.736V28.2043H76.464V24.9353H77.437V24.3333ZM82.1544 21.8693V28.2113H82.8824V21.8693H82.1544ZM79.5154 22.3383C78.5774 22.3383 77.8914 23.2063 77.8914 24.5643C77.8914 25.9363 78.5774 26.7973 79.5154 26.7973C80.4604 26.7973 81.1464 25.9363 81.1464 24.5643C81.1464 23.2063 80.4604 22.3383 79.5154 22.3383ZM79.5154 22.9893C80.0684 22.9893 80.4534 23.5843 80.4534 24.5643C80.4534 25.5583 80.0684 26.1533 79.5154 26.1533C78.9694 26.1533 78.5844 25.5583 78.5844 24.5643C78.5844 23.5843 78.9694 22.9893 79.5154 22.9893ZM87.3829 25.1173H85.9269V23.0523H87.3829V25.1173ZM85.2059 25.1173H84.2959V25.7053H89.0139V25.1173H88.0969V23.0523H89.0279V22.4713H84.2749V23.0523H85.2059V25.1173ZM83.7989 26.8253V27.4203H89.5389V26.8253H83.7989ZM95.1383 21.8763H94.4173V26.4683H95.1383V21.8763ZM90.7563 23.8783C90.7563 23.2973 91.1693 22.9193 91.7293 22.9193C92.2823 22.9193 92.7023 23.2973 92.7023 23.8783C92.7023 24.4523 92.2823 24.8373 91.7293 24.8373C91.1693 24.8373 90.7563 24.4523 90.7563 23.8783ZM93.4023 23.8783C93.4023 22.9543 92.6813 22.2963 91.7293 22.2963C90.7773 22.2963 90.0493 22.9543 90.0493 23.8783C90.0493 24.7953 90.7773 25.4603 91.7293 25.4603C92.6813 25.4603 93.4023 24.7953 93.4023 23.8783ZM91.7363 27.4903V26.0063H91.0083V28.0783H95.3203V27.4903H91.7363ZM98.544 23.9413C98.544 23.2553 99.223 22.8213 100.168 22.8213C101.106 22.8213 101.785 23.2553 101.785 23.9413C101.785 24.6273 101.106 25.0613 100.168 25.0613C99.223 25.0613 98.544 24.6273 98.544 23.9413ZM100.525 26.8323V25.6283C101.68 25.5233 102.492 24.8793 102.492 23.9413C102.492 22.9123 101.505 22.2473 100.168 22.2473C98.824 22.2473 97.844 22.9123 97.844 23.9413C97.844 24.8793 98.649 25.5163 99.804 25.6213V26.8323H97.312V27.4203H103.038V26.8323H100.525ZM106.656 26.8603V25.6703H108.525V25.0963H104.878V24.2703H108.329V23.7033H104.878V22.9403H108.469V22.3523H104.143V25.6703H105.928V26.8603H103.436V27.4553H109.162V26.8603H106.656ZM110.744 23.2133H111.388V26.0553C111.171 26.0623 110.961 26.0763 110.744 26.0833V23.2133ZM112.046 23.2133H112.515V22.6323H109.617V23.2133H110.093V26.0973C109.876 26.0973 109.666 26.0973 109.498 26.0973L109.575 26.6923C110.373 26.6923 111.668 26.6643 112.655 26.4683L112.606 25.9433C112.431 25.9713 112.242 25.9923 112.046 26.0133V23.2133ZM114.272 21.8693V24.3683H113.593V22.0023H112.914V27.8823H113.593V24.9563H114.272V28.1973H114.958V21.8693H114.272ZM121.166 24.9633C119.92 24.7393 118.905 23.7663 118.905 22.7583V22.2823H118.142V22.7583C118.142 23.7593 117.127 24.7323 115.881 24.9633L116.189 25.5583C117.218 25.3483 118.107 24.6903 118.52 23.8223C118.933 24.6903 119.822 25.3483 120.851 25.5583L121.166 24.9633ZM115.685 26.7903V27.3853H121.411V26.7903H115.685ZM123.84 22.7163C124.379 22.7163 124.757 22.9963 124.757 23.4303C124.757 23.8713 124.379 24.1443 123.84 24.1443C123.294 24.1443 122.916 23.8713 122.916 23.4303C122.916 22.9963 123.294 22.7163 123.84 22.7163ZM123.84 24.7043C124.771 24.7043 125.436 24.1933 125.436 23.4303C125.436 22.6813 124.771 22.1703 123.84 22.1703C122.902 22.1703 122.237 22.6813 122.237 23.4303C122.237 24.1933 122.902 24.7043 123.84 24.7043ZM125.905 24.9493C124.54 25.1383 122.972 25.1523 121.782 25.1523L121.873 25.7473C122.349 25.7473 122.881 25.7403 123.441 25.7193V28.0013H124.162V25.6843C124.757 25.6493 125.359 25.5863 125.947 25.4813L125.905 24.9493ZM126.346 21.8763V26.1603H124.995V26.7133H126.346V28.1973H127.074V21.8763H126.346ZM133.016 24.8583H129.355V23.0173H132.967V22.4293H128.634V25.4393H133.016V24.8583ZM127.934 26.7903V27.3853H133.667V26.7903H127.934Z" fill="#23A685"/>
<path d="M144.266 59.4597H59.6879C57.8561 59.4597 56.3711 60.9447 56.3711 62.7765V75.2145C56.3711 77.0463 57.8561 78.5312 59.6879 78.5312H144.266C146.098 78.5312 147.583 77.0463 147.583 75.2145V62.7765C147.583 60.9447 146.098 59.4597 144.266 59.4597Z" fill="#A8A8AA"/>
<path d="M118.596 59.4597H59.6879C57.8561 59.4597 56.3711 60.9447 56.3711 62.7765V75.2145C56.3711 77.0463 57.8561 78.5312 59.6879 78.5312H118.596V59.4597Z" fill="#23A685"/>
<path d="M136.143 71.3071C136.143 71.3071 136.16 71.253 136.16 71.1807L136.511 68.5981C136.177 68.4175 135.959 68.0382 135.959 67.6048C135.959 66.9908 136.428 66.4851 136.997 66.4851C137.014 66.4851 137.03 66.4851 137.047 66.4851C137.081 65.7627 136.813 65.257 136.21 64.9138C135.959 64.7694 135.658 64.6791 135.373 64.6249H133.415C133.13 64.6249 132.896 64.8777 132.896 65.1847V72.8061C132.896 73.1131 133.13 73.366 133.415 73.366H137.148C137.064 73.3299 136.98 73.2938 136.913 73.2396C135.942 72.5894 136.127 71.3433 136.143 71.3071Z" fill="white"/>
<path d="M137.778 66.6283C138.196 66.7953 138.468 67.2034 138.468 67.6857C138.468 68.1309 138.214 68.5204 137.851 68.7059L138.25 71.4699C138.268 71.5812 138.177 71.674 138.068 71.674H136.779C136.761 71.9708 136.797 72.7314 137.469 73.1395C137.905 73.4177 138.577 73.4363 139.557 73.2137C141.101 72.5273 142.172 70.9505 142.172 69.114C142.172 66.6283 140.211 64.6249 137.796 64.6249H136.761C137.288 64.9402 137.832 65.5338 137.778 66.6283Z" fill="white"/>
<path fill-rule="evenodd" clip-rule="evenodd" d="M84.1984 71.143V72.0669H88.908V71.0468H85.7406L87.6982 68.9876C88.3171 68.343 88.6588 67.6503 88.6588 66.8999V66.8037C88.6588 65.8509 88.0122 65.0235 86.5072 65.0235C86.0322 65.0121 85.5641 65.144 85.1594 65.4034C84.7547 65.6629 84.4306 66.0388 84.2261 66.4859L85.1128 67.0923C85.5454 66.2839 86.0357 66.1203 86.5164 66.1203C87.1996 66.1203 87.4681 66.4763 87.4681 66.8518V66.9288C87.4681 67.3232 87.4219 67.6888 86.6462 68.5162L84.1984 71.143ZM91.3901 66.9961C91.3853 66.871 91.4063 66.7463 91.4518 66.6304C91.4972 66.5145 91.566 66.4101 91.6535 66.3243C91.741 66.2385 91.8452 66.1734 91.9589 66.1332C92.0727 66.093 92.1934 66.0788 92.3129 66.0915C92.8577 66.0915 93.2357 66.3993 93.2357 66.9961V67.0923C93.2386 67.2157 93.2164 67.3382 93.1707 67.452C93.125 67.5658 93.0568 67.6683 92.9705 67.7528C92.8842 67.8372 92.7818 67.9017 92.67 67.9421C92.5582 67.9825 92.4394 67.9978 92.3215 67.9871C92.203 67.9967 92.0838 67.9808 91.9713 67.9403C91.8589 67.8998 91.7557 67.8355 91.6682 67.7515C91.5807 67.6676 91.5107 67.5657 91.4627 67.4523C91.4146 67.3389 91.3895 67.2163 91.3889 67.0923V66.9961H91.3901ZM91.224 70.0558C91.224 69.3535 91.7503 69.0637 92.3319 69.0637C92.9136 69.0637 93.4033 69.3718 93.4033 70.0558V70.152C93.4033 70.7485 92.9877 71.0949 92.3319 71.0949C91.6672 71.0949 91.224 70.7485 91.224 70.152V70.0558ZM90.005 70.229C90.005 71.3354 90.8084 72.1727 92.3409 72.1727C93.8185 72.1727 94.6217 71.3354 94.6217 70.229V70.0655C94.6204 69.7194 94.5157 69.3823 94.322 69.1012C94.1284 68.8201 93.8555 68.6089 93.5414 68.497C93.8003 68.3576 94.0198 68.1503 94.1785 67.8956C94.3372 67.6409 94.4295 67.3474 94.4464 67.0442V66.9288C94.4464 65.9366 93.7254 65.0235 92.304 65.0235C90.845 65.0235 90.18 65.9375 90.18 66.9288V67.0442C90.1944 67.3493 90.2867 67.6449 90.4474 67.9003C90.6081 68.1557 90.8314 68.3617 91.0942 68.497C90.7801 68.6103 90.5072 68.8215 90.3122 69.1021C90.1173 69.3827 90.01 69.7191 90.0047 70.0655V70.229H90.005ZM95.95 71.6917C96.4853 72.0239 97.1002 72.1908 97.723 72.1727C99.3019 72.1727 100.364 71.4605 100.364 68.4008V67.9582C100.364 66.178 99.6805 65.0235 97.9814 65.0235C96.504 65.0235 95.6166 66.0157 95.6166 67.304V67.4964C95.6166 68.8433 96.4016 69.7191 97.693 69.7191C97.9688 69.7301 98.2439 69.682 98.5012 69.5777C98.7585 69.4734 98.9926 69.3151 99.1888 69.1127C99.1242 70.5946 98.6533 71.0564 97.7945 71.0564C97.2987 71.0643 96.8102 70.9313 96.3814 70.6716L95.95 71.6917ZM99.1727 67.4771C99.1727 68.1121 98.8125 68.6413 97.9615 68.6413C97.1488 68.6413 96.7791 68.2564 96.7791 67.4483V67.3425C96.7791 66.5725 97.1946 66.1399 98.0073 66.1399C98.7646 66.1399 99.1709 66.5824 99.1709 67.3331V67.4774L99.1727 67.4771ZM108.372 66.0722V65.1294H103.617V66.1684H107.136L104.578 72.0669H105.824L108.372 66.0722ZM113.809 65.5046C113.274 65.1723 112.659 65.0055 112.036 65.0235C110.586 65.0235 109.395 65.7355 109.395 68.7952V69.2381C109.395 71.0179 110.078 72.1727 111.778 72.1727C113.255 72.1727 114.142 71.1911 114.142 69.9019V69.7095C114.142 68.3623 113.357 67.4771 112.065 67.4771C111.789 67.4662 111.514 67.5143 111.256 67.6186C110.999 67.7228 110.765 67.881 110.569 68.0833C110.652 66.6014 111.28 66.1395 111.963 66.1395C112.459 66.1317 112.947 66.2647 113.376 66.5244L113.809 65.5046ZM110.586 69.7191C110.586 69.0841 110.946 68.5547 111.796 68.5547C112.609 68.5547 112.978 68.9395 112.978 69.748V69.8538C112.978 70.6235 112.563 71.0564 111.751 71.0564C110.993 71.0564 110.587 70.6138 110.587 69.8634V69.7191H110.586ZM116.522 66.9961C116.517 66.871 116.538 66.7463 116.584 66.6304C116.629 66.5145 116.698 66.4101 116.786 66.3243C116.873 66.2385 116.977 66.1734 117.091 66.1332C117.205 66.093 117.325 66.0788 117.445 66.0915C117.99 66.0915 118.368 66.3993 118.368 66.9961V67.0923C118.371 67.2157 118.348 67.3382 118.303 67.452C118.257 67.5658 118.189 67.6683 118.103 67.7528C118.016 67.8372 117.914 67.9017 117.802 67.9421C117.69 67.9825 117.571 67.9978 117.454 67.9871C117.335 67.9967 117.216 67.9808 117.103 67.9403C116.991 67.8998 116.888 67.8355 116.8 67.7515C116.713 67.6676 116.643 67.5657 116.595 67.4523C116.547 67.3389 116.522 67.2163 116.521 67.0923V66.9961H116.522ZM116.356 70.0558C116.356 69.3535 116.882 69.0637 117.464 69.0637C118.046 69.0637 118.535 69.3718 118.535 70.0558V70.152C118.535 70.7485 118.119 71.0949 117.464 71.0949C116.799 71.0949 116.356 70.7485 116.356 70.152V70.0558ZM115.139 70.229C115.139 71.3354 115.942 72.1727 117.475 72.1727C118.952 72.1727 119.755 71.3354 119.755 70.229V70.0655C119.754 69.7194 119.649 69.3823 119.456 69.1012C119.262 68.8201 118.989 68.6089 118.675 68.497C118.934 68.3576 119.154 68.1503 119.312 67.8956C119.471 67.6409 119.563 67.3474 119.58 67.0442V66.9288C119.58 65.9366 118.859 65.0235 117.438 65.0235C115.979 65.0235 115.314 65.9375 115.314 66.9288V67.0442C115.328 67.3493 115.42 67.6449 115.581 67.9003C115.742 68.1557 115.965 68.3617 116.228 68.497C115.914 68.6103 115.641 68.8216 115.446 69.1022C115.251 69.3828 115.144 69.7191 115.139 70.0655V70.229Z" fill="white"/>
<path d="M144.266 35.413H59.6879C57.8561 35.413 56.3711 36.8979 56.3711 38.7298V51.1677C56.3711 52.9995 57.8561 54.4845 59.6879 54.4845H144.266C146.098 54.4845 147.583 52.9995 147.583 51.1677V38.7298C147.583 36.8979 146.098 35.413 144.266 35.413Z" fill="#E8E8E8"/>
<path d="M69.2401 43.971C69.2401 43.0491 68.7553 42.5223 67.9685 42.5223C67.3644 42.5223 67.0202 42.8004 66.7743 43.1881C66.5776 42.7638 66.1842 42.5223 65.6714 42.5223C65.1375 42.5223 64.7933 42.7857 64.6458 43.1369H64.6387V42.5955H63.9644V46.5977H64.6458V44.0662C64.6458 43.4369 65.1164 43.1662 65.5379 43.1662C66.0226 43.1662 66.2615 43.5028 66.2615 44.1979V46.5977H66.9429V44.1027C66.9429 43.4515 67.4066 43.1662 67.8351 43.1662C68.3198 43.1662 68.5586 43.5028 68.5586 44.1979V46.5977H69.2401V43.971Z" fill="#505050"/>
<path d="M71.5823 45.7929L70.5636 42.5955H69.826L71.224 46.6563L70.7252 48.0245L71.3434 48.2513L73.3385 42.5955H72.6219L71.6103 45.7929H71.5823Z" fill="#505050"/>
<path d="M76.9448 46.9563H73.4324V47.4319H76.9448V46.9563Z" fill="#505050"/>
<path d="M77.5138 42.5955V46.5977H78.1953V42.5955H77.5138ZM77.4928 41.1614V41.937H78.2163V41.1614H77.4928Z" fill="#505050"/>
<path d="M81.7484 46.1002V46.5977H82.4017V41.0663H81.7203V43.0125C81.5657 42.7784 81.2285 42.5223 80.6455 42.5223C79.7463 42.5223 79.1211 43.1589 79.1211 44.2418V44.9515C79.1211 46.0344 79.6479 46.6563 80.6174 46.6563C81.0951 46.6563 81.5236 46.5026 81.7343 46.1002H81.7484ZM81.7273 45.0246C81.7273 45.6466 81.2707 46.0344 80.7157 46.0344C80.1467 46.0344 79.7954 45.5954 79.7954 44.8344V44.3442C79.7954 43.5906 80.1397 43.1442 80.7157 43.1442C81.3058 43.1442 81.7273 43.5759 81.7273 43.993V45.0246Z" fill="#505050"/>
<defs>
<filter id="filter0_d" x="25" y="0.195557" width="154" height="130" filterUnits="userSpaceOnUse" color-interpolation-filters="sRGB">
<feFlood flood-opacity="0" result="BackgroundImageFix"/>
<feColorMatrix in="SourceAlpha" type="matrix" values="0 0 0 0 0 0 0 0 0 0 0 0 0 0 0 0 0 0 127 0"/>
<feOffset dy="8"/>
<feGaussianBlur stdDeviation="10"/>
<feColorMatrix type="matrix" values="0 0 0 0 0 0 0 0 0 0 0 0 0 0 0 0 0 0 0.25 0"/>
<feBlend mode="normal" in2="BackgroundImageFix" result="effect1_dropShadow"/>
<feBlend mode="normal" in="SourceGraphic" in2="effect1_dropShadow" result="shape"/>
</filter>
</defs>
</svg>
