<svg width="240" height="200" viewBox="0 0 240 200" fill="none" xmlns="http://www.w3.org/2000/svg">
<path d="M7.57009 0H232.43C234.438 0 236.363 0.790176 237.783 2.1967C239.202 3.60322 240 5.51088 240 7.5V140.278H0V7.5C0 5.51088 0.797561 3.60322 2.21723 2.1967C3.6369 0.790176 5.56238 0 7.57009 0V0Z" fill="#323232"/>
<path d="M0 140.278H240V158.333C240 160.323 239.202 162.23 237.783 163.637C236.363 165.043 234.438 165.833 232.43 165.833H7.57009C5.56238 165.833 3.6369 165.043 2.21723 163.637C0.797561 162.23 0 160.323 0 158.333L0 140.278Z" fill="white"/>
<path fill-rule="evenodd" clip-rule="evenodd" d="M162.464 200H77.811C77.7543 200 77.6982 199.989 77.6458 199.968C77.5934 199.946 77.5458 199.915 77.5057 199.875C77.4656 199.836 77.4337 199.788 77.412 199.737C77.3902 199.685 77.379 199.629 77.3789 199.573C77.3794 199.119 77.5616 198.685 77.8856 198.364C78.2096 198.044 78.6488 197.864 79.1066 197.864H80.4025C80.4025 197.864 88.6084 197.848 90.7679 189.323C92.7128 181.645 93.3594 165.834 93.3594 165.834H146.916C146.916 165.834 147.562 181.645 149.507 189.323C151.666 197.848 159.873 197.864 159.873 197.864H161.168C161.395 197.864 161.62 197.908 161.829 197.994C162.039 198.08 162.229 198.206 162.389 198.364C162.55 198.523 162.677 198.711 162.764 198.919C162.851 199.126 162.896 199.348 162.896 199.573C162.896 199.629 162.885 199.685 162.863 199.737C162.841 199.789 162.809 199.836 162.769 199.875C162.729 199.915 162.681 199.946 162.629 199.968C162.577 199.989 162.52 200 162.464 200V200Z" fill="#E1E1E1"/>
<path d="M231.247 8.11633H9.26106C8.95137 8.11633 8.70032 8.36506 8.70032 8.67189V131.276C8.70032 131.583 8.95137 131.832 9.26106 131.832H231.247C231.557 131.832 231.808 131.583 231.808 131.276V8.67189C231.808 8.36506 231.557 8.11633 231.247 8.11633Z" fill="white"/>
<path d="M231.3 24.2579H8.70032V24.7615H231.3V24.2579Z" fill="#E8E8E8"/>
<path d="M40.9345 12.6519H16.2616V18.763H40.9345V12.6519Z" fill="#E8E9EA"/>
<path fill-rule="evenodd" clip-rule="evenodd" d="M211.682 13.7629H224.299C224.671 13.7629 225.027 13.9093 225.29 14.1697C225.553 14.4302 225.701 14.7835 225.701 15.1518V16.5407C225.701 16.9091 225.553 17.2623 225.29 17.5228C225.027 17.7833 224.671 17.9296 224.299 17.9296H211.682C211.31 17.9296 210.954 17.7833 210.691 17.5228C210.428 17.2623 210.28 16.9091 210.28 16.5407V15.1518C210.28 14.7835 210.428 14.4302 210.691 14.1697C210.954 13.9093 211.31 13.7629 211.682 13.7629V13.7629ZM192.336 13.7629H204.953C205.325 13.7629 205.682 13.9093 205.945 14.1697C206.207 14.4302 206.355 14.7835 206.355 15.1518V16.5407C206.355 16.9091 206.207 17.2623 205.945 17.5228C205.682 17.7833 205.325 17.9296 204.953 17.9296H192.336C191.965 17.9296 191.608 17.7833 191.345 17.5228C191.082 17.2623 190.935 16.9091 190.935 16.5407V15.1518C190.935 14.7835 191.082 14.4302 191.345 14.1697C191.608 13.9093 191.965 13.7629 192.336 13.7629V13.7629Z" fill="#E8E9EA"/>
<rect x="58.6" y="38.6" width="120.8" height="22.8" rx="1.4" stroke="#E0E6EB" stroke-width="1.2"/>
<rect x="58.6" y="66.6" width="120.8" height="22.8" rx="1.4" stroke="#E0E6EB" stroke-width="1.2"/>
<rect x="58" y="94" width="122" height="24" rx="4" fill="#23A685"/>
<path d="M65.701 105.31H68.482V102.286H64.765V103.042H67.564V104.563H64.783V107.776H65.449C66.952 107.776 68.041 107.722 69.292 107.497L69.193 106.741C68.05 106.948 67.033 107.002 65.701 107.011V105.31ZM72.019 104.725H70.768V101.548H69.832V109.702H70.768V105.499H72.019V104.725ZM78.0843 101.557V109.711H79.0203V101.557H78.0843ZM74.6913 102.16C73.4853 102.16 72.6033 103.276 72.6033 105.022C72.6033 106.786 73.4853 107.893 74.6913 107.893C75.9063 107.893 76.7883 106.786 76.7883 105.022C76.7883 103.276 75.9063 102.16 74.6913 102.16ZM74.6913 102.997C75.4023 102.997 75.8973 103.762 75.8973 105.022C75.8973 106.3 75.4023 107.065 74.6913 107.065C73.9893 107.065 73.4943 106.3 73.4943 105.022C73.4943 103.762 73.9893 102.997 74.6913 102.997ZM84.8066 105.733H82.9346V103.078H84.8066V105.733ZM82.0076 105.733H80.8376V106.489H86.9036V105.733H85.7246V103.078H86.9216V102.331H80.8106V103.078H82.0076V105.733ZM80.1986 107.929V108.694H87.5786V107.929H80.1986ZM94.7779 101.566H93.8509V107.47H94.7779V101.566ZM89.1439 104.14C89.1439 103.393 89.6749 102.907 90.3949 102.907C91.1059 102.907 91.6459 103.393 91.6459 104.14C91.6459 104.878 91.1059 105.373 90.3949 105.373C89.6749 105.373 89.1439 104.878 89.1439 104.14ZM92.5459 104.14C92.5459 102.952 91.6189 102.106 90.3949 102.106C89.1709 102.106 88.2349 102.952 88.2349 104.14C88.2349 105.319 89.1709 106.174 90.3949 106.174C91.6189 106.174 92.5459 105.319 92.5459 104.14ZM90.4039 108.784V106.876H89.4679V109.54H95.0119V108.784H90.4039ZM99.1567 104.221C99.1567 103.339 100.03 102.781 101.245 102.781C102.451 102.781 103.324 103.339 103.324 104.221C103.324 105.103 102.451 105.661 101.245 105.661C100.03 105.661 99.1567 105.103 99.1567 104.221ZM101.704 107.938V106.39C103.189 106.255 104.233 105.427 104.233 104.221C104.233 102.898 102.964 102.043 101.245 102.043C99.5167 102.043 98.2567 102.898 98.2567 104.221C98.2567 105.427 99.2917 106.246 100.777 106.381V107.938H97.5727V108.694H104.935V107.938H101.704ZM109.587 107.974V106.444H111.99V105.706H107.301V104.644H111.738V103.915H107.301V102.934H111.918V102.178H106.356V106.444H108.651V107.974H105.447V108.739H112.809V107.974H109.587ZM114.842 103.285H115.67V106.939C115.391 106.948 115.121 106.966 114.842 106.975V103.285ZM116.516 103.285H117.119V102.538H113.393V103.285H114.005V106.993C113.726 106.993 113.456 106.993 113.24 106.993L113.339 107.758C114.365 107.758 116.03 107.722 117.299 107.47L117.236 106.795C117.011 106.831 116.768 106.858 116.516 106.885V103.285ZM119.378 101.557V104.77H118.505V101.728H117.632V109.288H118.505V105.526H119.378V109.693H120.26V101.557H119.378ZM128.243 105.535C126.641 105.247 125.336 103.996 125.336 102.7V102.088H124.355V102.7C124.355 103.987 123.05 105.238 121.448 105.535L121.844 106.3C123.167 106.03 124.31 105.184 124.841 104.068C125.372 105.184 126.515 106.03 127.838 106.3L128.243 105.535ZM121.196 107.884V108.649H128.558V107.884H121.196ZM131.68 102.646C132.373 102.646 132.859 103.006 132.859 103.564C132.859 104.131 132.373 104.482 131.68 104.482C130.978 104.482 130.492 104.131 130.492 103.564C130.492 103.006 130.978 102.646 131.68 102.646ZM131.68 105.202C132.877 105.202 133.732 104.545 133.732 103.564C133.732 102.601 132.877 101.944 131.68 101.944C130.474 101.944 129.619 102.601 129.619 103.564C129.619 104.545 130.474 105.202 131.68 105.202ZM134.335 105.517C132.58 105.76 130.564 105.778 129.034 105.778L129.151 106.543C129.763 106.543 130.447 106.534 131.167 106.507V109.441H132.094V106.462C132.859 106.417 133.633 106.336 134.389 106.201L134.335 105.517ZM134.902 101.566V107.074H133.165V107.785H134.902V109.693H135.838V101.566H134.902ZM143.478 105.4H138.771V103.033H143.415V102.277H137.844V106.147H143.478V105.4ZM136.944 107.884V108.649H144.315V107.884H136.944ZM148.949 107.974V106.588H151.487V105.841H146.618V104.707H151.307V102.133H145.691V102.88H150.389V103.969H145.709V106.588H148.022V107.974H144.818V108.739H152.18V107.974H148.949ZM158.44 107.974V106.588H160.978V105.841H156.109V104.707H160.798V102.133H155.182V102.88H159.88V103.969H155.2V106.588H157.513V107.974H154.309V108.739H161.671V107.974H158.44ZM167.665 103.249C167.665 104.302 167.665 105.499 167.35 107.101L168.286 107.2C168.592 105.481 168.592 104.338 168.592 103.249V102.376H162.967V103.123H167.665V103.249ZM162.184 107.794V108.559H169.537V107.794H162.184ZM176.754 101.566H175.827V107.47H176.754V101.566ZM171.12 104.14C171.12 103.393 171.651 102.907 172.371 102.907C173.082 102.907 173.622 103.393 173.622 104.14C173.622 104.878 173.082 105.373 172.371 105.373C171.651 105.373 171.12 104.878 171.12 104.14ZM174.522 104.14C174.522 102.952 173.595 102.106 172.371 102.106C171.147 102.106 170.211 102.952 170.211 104.14C170.211 105.319 171.147 106.174 172.371 106.174C173.595 106.174 174.522 105.319 174.522 104.14ZM172.38 108.784V106.876H171.444V109.54H176.988V108.784H172.38Z" fill="white"/>
<path d="M67.873 53H68.917V46.367H67.873V53ZM70.2453 53H72.0183C73.9983 53 75.1593 51.812 75.1593 49.661C75.1593 47.501 73.9983 46.367 71.9643 46.367H70.2453V53ZM71.2893 52.145V47.222H71.8923C73.3143 47.222 74.0793 48.005 74.0793 49.661C74.0793 51.308 73.3143 52.145 71.8923 52.145H71.2893Z" fill="#323232"/>
<path d="M67.873 81H68.917V78.489H69.916C71.356 78.489 72.409 77.823 72.409 76.374C72.409 74.88 71.356 74.367 69.88 74.367H67.873V81ZM68.917 77.652V75.213H69.781C70.834 75.213 71.383 75.501 71.383 76.374C71.383 77.247 70.879 77.652 69.817 77.652H68.917ZM73.9791 81H75.2391L76.1121 77.319C76.2201 76.797 76.3281 76.302 76.4271 75.798H76.4631C76.5531 76.302 76.6521 76.797 76.7691 77.319L77.6601 81H78.9471L80.2521 74.367H79.2531L78.6231 77.823C78.5151 78.516 78.3981 79.227 78.2901 79.947H78.2451C78.0921 79.227 77.9481 78.516 77.7951 77.823L76.9401 74.367H76.0131L75.1581 77.823C75.0051 78.525 74.8521 79.236 74.7081 79.947H74.6721C74.5551 79.236 74.4381 78.525 74.3211 77.823L73.7001 74.367H72.6291L73.9791 81Z" fill="#323232"/>
<path fill-rule="evenodd" clip-rule="evenodd" d="M195.668 107.799L174.606 99.8683C174.378 99.7827 174.131 99.7611 173.892 99.8061C173.652 99.851 173.431 99.9606 173.251 100.123C173.07 100.287 172.938 100.496 172.868 100.728C172.798 100.96 172.794 101.206 172.856 101.44L178.557 123.176C178.622 123.436 178.766 123.669 178.971 123.845C179.176 124.021 179.431 124.13 179.702 124.157C179.972 124.185 180.245 124.13 180.482 123.999C180.72 123.869 180.91 123.669 181.028 123.428L184.189 117.054L192.029 125.743C192.153 125.882 192.305 125.996 192.475 126.077C192.646 126.158 192.831 126.205 193.019 126.215C193.208 126.225 193.397 126.197 193.575 126.135C193.753 126.072 193.917 125.975 194.056 125.849L196.712 123.462C196.996 123.206 197.166 122.85 197.186 122.471C197.205 122.093 197.073 121.722 196.818 121.438L188.978 112.749L195.659 110.278C195.913 110.181 196.132 110.011 196.286 109.791C196.44 109.57 196.524 109.309 196.525 109.041C196.525 108.774 196.444 108.512 196.291 108.29C196.139 108.069 195.921 107.898 195.668 107.799V107.799Z" fill="white"/>
<path fill-rule="evenodd" clip-rule="evenodd" d="M173.736 99.0373C174.127 98.964 174.531 98.9992 174.901 99.1386L195.963 107.07L195.668 107.799L195.972 107.073C196.379 107.231 196.725 107.505 196.968 107.857C197.21 108.209 197.338 108.622 197.337 109.044C197.335 109.466 197.205 109.879 196.96 110.229C196.714 110.579 196.366 110.851 195.958 111.006L195.95 111.009L190.353 113.08L197.432 120.925C197.826 121.363 198.027 121.932 197.997 122.511C197.967 123.09 197.707 123.637 197.268 124.034L197.266 124.035L194.611 126.421C194.611 126.421 194.611 126.421 194.611 126.421C194.393 126.618 194.135 126.771 193.854 126.87C193.573 126.969 193.274 127.013 192.975 126.997C192.676 126.981 192.384 126.907 192.115 126.779C191.848 126.652 191.609 126.473 191.414 126.256C191.414 126.255 191.414 126.255 191.413 126.254L184.388 118.468L181.763 123.762C181.763 123.762 181.762 123.763 181.762 123.764C181.574 124.148 181.269 124.469 180.885 124.68C180.5 124.891 180.057 124.981 179.616 124.936C179.175 124.891 178.762 124.714 178.431 124.43C178.102 124.148 177.872 123.775 177.768 123.364L172.068 101.633C172.068 101.633 172.069 101.634 172.068 101.633C171.971 101.264 171.978 100.876 172.087 100.51C172.197 100.144 172.407 99.8125 172.695 99.5514C172.985 99.2896 173.346 99.1107 173.736 99.0373ZM195.367 108.527L174.31 100.598C174.31 100.598 174.311 100.598 174.31 100.598C174.226 100.566 174.135 100.558 174.047 100.575C173.959 100.591 173.876 100.632 173.807 100.694C173.733 100.761 173.678 100.847 173.648 100.945C173.619 101.044 173.617 101.148 173.643 101.247L173.644 101.248L179.347 122.994C179.374 123.099 179.432 123.192 179.511 123.26C179.59 123.328 179.687 123.368 179.787 123.379C179.888 123.389 179.99 123.369 180.08 123.319C180.17 123.269 180.245 123.192 180.292 123.095L180.295 123.091L183.456 116.716C183.574 116.478 183.808 116.313 184.08 116.278C184.351 116.242 184.622 116.341 184.802 116.54L192.644 125.231C192.698 125.292 192.763 125.341 192.835 125.375C192.907 125.409 192.985 125.429 193.063 125.433C193.142 125.437 193.221 125.426 193.296 125.399C193.371 125.373 193.44 125.332 193.5 125.277L193.502 125.276L196.156 122.891C196.156 122.891 196.156 122.891 196.157 122.891C196.285 122.774 196.365 122.61 196.374 122.432C196.383 122.254 196.321 122.081 196.204 121.951L188.365 113.263C188.191 113.07 188.126 112.808 188.19 112.56C188.254 112.312 188.44 112.11 188.687 112.018L195.363 109.548C195.462 109.51 195.549 109.443 195.612 109.353C195.676 109.262 195.712 109.152 195.712 109.039C195.712 108.925 195.678 108.816 195.615 108.724C195.552 108.634 195.466 108.566 195.367 108.527Z" fill="#3F3F3F"/>
</svg>
