<?xml version="1.0" encoding="UTF-8"?>
<svg width="220px" height="200px" viewBox="0 0 220 200" version="1.1" xmlns="http://www.w3.org/2000/svg" xmlns:xlink="http://www.w3.org/1999/xlink">
    <title>aps-step-img04</title>
    <defs>
        <polygon id="path-1" points="0.252183871 0.406752 45.6297 0.406752 45.6297 19 0.252183871 19"></polygon>
        <polygon id="path-3" points="0 135 220 135 220 0 0 0"></polygon>
        <polygon id="path-5" points="0 0 10 0 10 19 0 19"></polygon>
        <polygon id="path-7" points="0 0 13 0 13 19 0 19"></polygon>
        <polygon id="path-9" points="0 0.194415 10.8975059 0.194415 10.8975059 12.617865 0 12.617865"></polygon>
    </defs>
    <g id="(B-1)인증_오토패스워드_가이드img" stroke="none" stroke-width="1" fill="none" fill-rule="evenodd">
        <g id="오토패스워드_가맹점가이드" transform="translate(-60.000000, -584.000000)">
            <g id="support-box" transform="translate(40.000000, 507.000000)">
                <g id="step_img" transform="translate(0.000000, 37.000000)">
                    <g id="aps-step-img04" transform="translate(20.000000, 40.000000)">
                        <g id="Group-81" transform="translate(0.000000, 65.000000)">
                            <path d="M4.00583766,29 L122.994162,29 C124.056664,29 125.075511,29.4226067 125.826513,30.1744883 C126.578255,30.9263699 127,31.9463006 127,33.0095373 L127,104 L0,104 L0,33.0095373 C0,31.9463006 0.421745007,30.9263699 1.17348698,30.1744883 C1.92448906,29.4226067 2.94333621,29 4.00583766,29" id="Fill-1" fill="#323232"></path>
                            <path d="M0,103 L127,103 L127,112.891579 C127,113.981037 126.578255,115.026122 125.826513,115.796546 C125.075511,116.567736 124.056664,117 122.994162,117 L4.00583766,117 C2.94333621,117 1.92448906,116.567736 1.17348698,115.796546 C0.421745007,115.026122 0,113.981037 0,112.891579 L0,103 Z" id="Fill-3" fill="#ECEEEF"></path>
                            <g id="Group-7" transform="translate(41.000000, 116.000000)">
                                <mask id="mask-2" fill="white">
                                    <use xlink:href="#path-1"></use>
                                </mask>
                                <g id="Clip-6"></g>
                                <path d="M45.3997,19.000152 L0.481441935,19.000152 C0.451764516,19.000152 0.421345161,18.994072 0.393893548,18.982672 C0.366441935,18.970512 0.340474194,18.953792 0.3197,18.932512 C0.298183871,18.910472 0.281119355,18.884632 0.269990323,18.856512 C0.258119355,18.828392 0.252183871,18.797992 0.252183871,18.767592 C0.252183871,18.520592 0.349377419,18.284232 0.520764516,18.110192 C0.692893548,17.935392 0.92586129,17.838112 1.16921613,17.838112 L1.85624839,17.838112 C1.85624839,17.838112 6.21066774,17.828992 7.35695806,13.189952 C8.38899032,9.011472 8.73176452,0.406752 8.73176452,0.406752 L37.1501194,0.406752 C37.1501194,0.406752 37.4928935,9.011472 38.5249258,13.189952 C39.6704742,17.828992 44.0248935,17.838112 44.0248935,17.838112 L44.7126677,17.838112 C44.8328613,17.838112 44.9523129,17.861672 45.0628613,17.908792 C45.1741516,17.955152 45.2750548,18.023552 45.3603774,18.110192 C45.4457,18.196072 45.5132161,18.298672 45.5592161,18.411912 C45.6052161,18.524392 45.6289581,18.645232 45.6297,18.767592 C45.6289581,18.797992 45.6230226,18.828392 45.6118935,18.856512 C45.6000226,18.885392 45.5837,18.910472 45.5621839,18.932512 C45.5406677,18.953792 45.5154419,18.971272 45.4879903,18.982672 C45.4597968,18.994072 45.4301194,19.000152 45.3997,19.000152" id="Fill-5" fill="#E0E2E4" mask="url(#mask-2)"></path>
                            </g>
                            <mask id="mask-4" fill="white">
                                <use xlink:href="#path-3"></use>
                            </mask>
                            <g id="Clip-11"></g>
                            <polygon id="Fill-10" fill="#E8E8E8" mask="url(#mask-4)" points="5 41.6805 123 41.6805 123 41.3195 5 41.3195"></polygon>
                            <polygon id="Fill-12" fill="#E8E9EA" mask="url(#mask-4)" points="9 39 22 39 22 36 9 36"></polygon>
                            <path d="M101.726081,36 L108.257913,36 C108.450473,36 108.635069,36.0703753 108.771164,36.1950402 C108.907259,36.3203753 108.983994,36.4899464 108.983994,36.6668901 L108.983994,37.3331099 C108.983994,37.5100536 108.907259,37.6796247 108.771164,37.8042895 C108.635069,37.9296247 108.450473,38 108.257913,38 L101.726081,38 C101.533521,38 101.348924,37.9296247 101.212829,37.8042895 C101.076734,37.6796247 101,37.5100536 101,37.3331099 L101,36.6668901 C101,36.4899464 101.076734,36.3203753 101.212829,36.1950402 C101.348924,36.0703753 101.533521,36 101.726081,36 M111.742087,36 L118.273919,36 C118.466479,36 118.651076,36.0703753 118.787171,36.1950402 C118.923266,36.3203753 119,36.4899464 119,36.6668901 L119,37.3331099 C119,37.5100536 118.923266,37.6796247 118.787171,37.8042895 C118.651076,37.9296247 118.466479,38 118.273919,38 L111.742087,38 C111.549527,38 111.364931,37.9296247 111.228836,37.8042895 C111.092741,37.6796247 111.016006,37.5100536 111.016006,37.3331099 L111.016006,36.6668901 C111.016006,36.4899464 111.092741,36.3203753 111.228836,36.1950402 C111.364931,36.0703753 111.549527,36 111.742087,36" id="Fill-13" fill="#E8E9EA" mask="url(#mask-4)"></path>
                            <path d="M17.4733952,48 L36.5266048,48 C37.339919,48 38,48.6626402 38,49.4791076 L38,58.5208924 C38,59.3380993 37.339919,60 36.5266048,60 L17.4733952,60 C16.6593443,60 16,59.3380993 16,58.5208924 L16,49.4791076 C16,48.6626402 16.6593443,48 17.4733952,48" id="Fill-14" fill="#E8EDF1" mask="url(#mask-4)"></path>
                            <path d="M17.4733952,62 L36.5266048,62 C37.339919,62 38,62.6684572 38,63.4920919 L38,90.5079081 C38,91.3322889 37.339919,92 36.5266048,92 L17.4733952,92 C16.6593443,92 16,91.3322889 16,90.5079081 L16,63.4920919 C16,62.6684572 16.6593443,62 17.4733952,62" id="Fill-15" fill="#E8EDF1" mask="url(#mask-4)"></path>
                            <path d="M42.4782877,48 L111.521712,48 C112.337727,48 113,48.6652717 113,49.4849814 L113,90.5150186 C113,91.3354708 112.337727,92 111.521712,92 L42.4782877,92 C41.6622729,92 41,91.3354708 41,90.5150186 L41,49.4849814 C41,48.6652717 41.6622729,48 42.4782877,48" id="Fill-16" fill="#E8EDF1" mask="url(#mask-4)"></path>
                            <path d="M76.4971758,70 L106.502824,70 C107.330014,70 108,70.6555098 108,71.4631916 L108,84.5368084 C108,85.3452218 107.330014,86 106.502824,86 L76.4971758,86 C75.6707348,86 75,85.3452218 75,84.5368084 L75,71.4631916 C75,70.6555098 75.6707348,70 76.4971758,70" id="Fill-17" fill="#23A685" mask="url(#mask-4)"></path>
                            <path d="M76.4971758,62 L106.502824,62 C107.330014,62 108,62.6350106 108,63.4174344 L108,65.5825656 C108,66.3649894 107.330014,67 106.502824,67 L76.4971758,67 C75.6707348,67 75,66.3649894 75,65.5825656 L75,63.4174344 C75,62.6350106 75.6707348,62 76.4971758,62" id="Fill-18" fill="#D0D7DC" mask="url(#mask-4)"></path>
                            <path d="M47.0529851,62 L70.9470149,62 C71.5283582,62 72,62.4479093 72,63 L72,63 C72,63.5520907 71.5283582,64 70.9470149,64 L47.0529851,64 C46.4716418,64 46,63.5520907 46,63 L46,63 C46,62.4479093 46.4716418,62 47.0529851,62" id="Fill-19" fill="#D0D7DC" mask="url(#mask-4)"></path>
                            <path d="M47.0538323,66 L64.9461677,66 C65.5282776,66 66,66.4481675 66,66.999651 C66,67.5518325 65.5282776,68 64.9461677,68 L47.0538323,68 C46.4717224,68 46,67.5518325 46,66.999651 C46,66.4481675 46.4717224,66 47.0538323,66" id="Fill-20" fill="#D0D7DC" mask="url(#mask-4)"></path>
                            <path d="M47.0679096,70 L60.9320904,70 C61.5219762,70 62,70.448324 62,71 C62,71.5523743 61.5219762,72 60.9320904,72 L47.0679096,72 C46.4780238,72 46,71.5523743 46,71 C46,70.448324 46.4780238,70 47.0679096,70" id="Fill-21" fill="#D0D7DC" mask="url(#mask-4)"></path>
                            <path d="M47.0709849,75 L67.9290151,75 C68.5205996,75 69,75.4476257 69,76 C69,76.5523743 68.5205996,77 67.9290151,77 L47.0709849,77 C46.4794004,77 46,76.5523743 46,76 C46,75.4476257 46.4794004,75 47.0709849,75" id="Fill-22" fill="#D0D7DC" mask="url(#mask-4)"></path>
                            <path d="M47.0538323,79 L64.9461677,79 C65.5282776,79 66,79.448324 66,80 C66,80.5523743 65.5282776,81 64.9461677,81 L47.0538323,81 C46.4717224,81 46,80.5523743 46,80 C46,79.448324 46.4717224,79 47.0538323,79" id="Fill-23" fill="#D0D7DC" mask="url(#mask-4)"></path>
                            <path d="M122.703453,33 L5.29728697,33 C5.13311357,33 5,33.1326139 5,33.2957737 L5,98.7034813 C5,98.8673861 5.13311357,99 5.29728697,99 L122.703453,99 C122.867626,99 123,98.8673861 123,98.7034813 L123,33.2957737 C123,33.1326139 122.867626,33 122.703453,33" id="Fill-24" fill="#383E47" mask="url(#mask-4)"></path>
                            <path d="M23.5925926,23 L98.4074074,23 C99.8392593,23 101,24.1591507 101,25.5890411 L101,77 L21,77 L21,25.5890411 C21,24.1591507 22.1607407,23 23.5925926,23" id="Fill-25" fill="#FFFFFF" mask="url(#mask-4)"></path>
                            <path d="M23.5925926,23 L98.4074074,23 C99.8392593,23 101,24.1591507 101,25.5890411 L101,77 L21,77 L21,25.5890411 C21,24.1591507 22.1607407,23 23.5925926,23 Z" id="Stroke-26" mask="url(#mask-4)"></path>
                            <path d="M21,77 L102,77 L102,88.0526316 C102,89.6803158 100.669073,91 99.0275229,91 L23.9724771,91 C22.3309266,91 21,89.6803158 21,88.0526316 L21,77 Z" id="Fill-27" fill="#E0E6EB" mask="url(#mask-4)"></path>
                            <path d="M43,32.4223798 L42.3098317,32.4223798 L42.3098317,35 L41.793977,35 L41.793977,30 L42.3098317,30 L42.3098317,31.9472025 L43,31.9472025 L43,32.4223798 Z M39.5158547,33.3498818 C40.2506643,33.3443656 40.8118689,33.3112687 41.4418069,33.1843972 L41.4963685,33.6477541 C40.8062002,33.785658 40.206023,33.8187549 39.3769708,33.8187549 L39.0099203,33.8187549 L39.0099203,31.8479117 L40.5433127,31.8479117 L40.5433127,30.9156816 L39,30.9156816 L39,30.4523247 L41.0499557,30.4523247 L41.0499557,32.3073286 L39.5158547,32.3073286 L39.5158547,33.3498818 Z" id="Fill-28" fill="#23A685" mask="url(#mask-4)"></path>
                            <path d="M46.4160993,35 L47,35 L47,30 L46.4160993,30 L46.4160993,35 Z M43.555867,32.1241727 C43.555867,32.9073432 43.8642371,33.3769303 44.3015619,33.3769303 C44.7452944,33.3769303 45.0536644,32.9073432 45.0536644,32.1241727 C45.0536644,31.3520328 44.7452944,30.8824456 44.3015619,30.8824456 C43.8642371,30.8824456 43.555867,31.3520328 43.555867,32.1241727 L43.555867,32.1241727 Z M45.6087305,32.1241727 C45.6087305,33.2059565 45.0592711,33.8851245 44.3015619,33.8851245 C43.5502603,33.8851245 43,33.2059565 43,32.1241727 C43,31.0542074 43.5502603,30.3695241 44.3015619,30.3695241 C45.0592711,30.3695241 45.6087305,31.0542074 45.6087305,32.1241727 L45.6087305,32.1241727 Z" id="Fill-29" fill="#23A685" mask="url(#mask-4)"></path>
                            <path d="M49.4828487,32.1389338 L50.4976493,32.1389338 L50.4976493,30.4701131 L49.4828487,30.4701131 L49.4828487,32.1389338 Z M48.9806721,30.4701131 L48.3322305,30.4701131 L48.3322305,30 L51.6440885,30 L51.6440885,30.4701131 L50.9949504,30.4701131 L50.9949504,32.1389338 L51.6343375,32.1389338 L51.6343375,32.6138934 L48.346857,32.6138934 L48.346857,32.1389338 L48.9806721,32.1389338 L48.9806721,30.4701131 Z M48,34 L52,34 L52,33.5193861 L48,33.5193861 L48,34 Z" id="Fill-30" fill="#23A685" mask="url(#mask-4)"></path>
                            <path d="M55.3151308,33.7020625 L55.8619644,33.7020625 L55.8619644,30 L55.3151308,30 L55.3151308,33.7020625 Z M56,34.5262649 L56,35 L52.7281001,35 L52.7281001,33.3298421 L53.2802427,33.3298421 L53.2802427,34.5262649 L56,34.5262649 Z M53.2749336,32.3880116 C53.6943496,32.3880116 54.0136519,32.0770222 54.0136519,31.6145665 C54.0136519,31.1464712 53.6943496,30.8419272 53.2749336,30.8419272 C52.8502086,30.8419272 52.5369738,31.1464712 52.5369738,31.6145665 C52.5369738,32.0770222 52.8502086,32.3880116 53.2749336,32.3880116 L53.2749336,32.3880116 Z M53.2749336,32.8899452 C52.552901,32.8899452 52,32.3541734 52,31.6145665 C52,30.86932 52.552901,30.3391879 53.2749336,30.3391879 C53.9977247,30.3391879 54.5445582,30.86932 54.5445582,31.6145665 C54.5445582,32.3541734 53.9977247,32.8899452 53.2749336,32.8899452 L53.2749336,32.8899452 Z" id="Fill-31" fill="#23A685" mask="url(#mask-4)"></path>
                            <path d="M59.9947635,32.1758454 C60.6496771,32.1758454 61.1244545,31.8403865 61.1244545,31.3101449 C61.1244545,30.7791304 60.6496771,30.4436715 59.9947635,30.4436715 C59.3342643,30.4436715 58.860185,30.7791304 58.860185,31.3101449 C58.860185,31.8403865 59.3342643,32.1758454 59.9947635,32.1758454 L59.9947635,32.1758454 Z M62,33.5455072 L62,34 L58,34 L58,33.5455072 L59.7406179,33.5455072 L59.7406179,32.6094686 C58.9334962,32.5275362 58.3714435,32.0351691 58.3714435,31.3101449 C58.3714435,30.5140097 59.0556816,30 59.9947635,30 C60.9282597,30 61.6180834,30.5140097 61.6180834,31.3101449 C61.6180834,32.0351691 61.0511433,32.5337198 60.2440216,32.6141063 L60.2440216,33.5455072 L62,33.5455072 Z" id="Fill-32" fill="#23A685" mask="url(#mask-4)"></path>
                            <polygon id="Fill-33" fill="#23A685" mask="url(#mask-4)" points="67 33.5330983 67 34 63 34 63 33.5330983 64.7406179 33.5330983 64.7406179 32.6008617 63.4936289 32.6008617 63.4936289 30 66.5161459 30 66.5161459 30.4606345 64.0068075 30.4606345 64.0068075 31.0591461 66.4183976 31.0591461 66.4183976 31.5033294 64.0068075 31.5033294 64.0068075 32.1504113 66.554547 32.1504113 66.554547 32.6008617 65.2496073 32.6008617 65.2496073 33.5330983"></polygon>
                            <path d="M71,30 L71,35 L70.4969797,35 L70.4969797,32.439583 L69.999817,32.439583 L69.999817,34.7520139 L69.5026542,34.7520139 L69.5026542,30.1050387 L69.999817,30.1050387 L69.999817,31.9744116 L70.4969797,31.9744116 L70.4969797,30 L71,30 Z M67.9130514,33.3296478 C68.0712063,33.3241194 68.2257002,33.3130627 68.3845872,33.3075344 L68.3845872,31.0622335 L67.9130514,31.0622335 L67.9130514,33.3296478 Z M68.8663738,33.2743642 C69.0098847,33.2577792 69.1431448,33.2411941 69.2720117,33.2190807 L69.3122826,33.6344969 C68.5896028,33.7892908 67.6406736,33.8106144 67.0563793,33.8106144 L67,33.3407045 L67.4356581,33.3407045 L67.4356581,31.0622335 L67.0871316,31.0622335 L67.0871316,30.6033802 L69.210507,30.6033802 L69.210507,31.0622335 L68.8663738,31.0622335 L68.8663738,33.2743642 Z" id="Fill-34" fill="#23A685" mask="url(#mask-4)"></path>
                            <path d="M75.6083086,32.5676787 C74.8898586,32.4031342 74.2684587,31.8875612 73.9801012,31.2074437 C73.6910456,31.8875612 73.0703439,32.4031342 72.3511957,32.5676787 L72.1361494,32.1014691 C73.0068075,31.9204701 73.7161808,31.1572968 73.7161808,30.3729677 L73.7161808,30 L74.2489091,30 L74.2489091,30.3729677 C74.2489091,31.1627816 74.9575842,31.9259549 75.8282423,32.1014691 L75.6083086,32.5676787 Z M72,34 L76,34 L76,33.5337904 L72,33.5337904 L72,34 Z" id="Fill-35" fill="#23A685" mask="url(#mask-4)"></path>
                            <path d="M80,30 L80,35 L79.4492918,35 L79.4492918,33.826692 L78.4287063,33.826692 L78.4287063,33.3886781 L79.4492918,33.3886781 L79.4492918,30 L80,30 Z M76.8574127,31.2294434 C76.8574127,31.5781151 77.1429651,31.7947502 77.5554297,31.7947502 C77.9633617,31.7947502 78.2489141,31.5781151 78.2489141,31.2294434 C78.2489141,30.8863061 77.9633617,30.6649273 77.5554297,30.6649273 C77.1429651,30.6649273 76.8574127,30.8863061 76.8574127,31.2294434 L76.8574127,31.2294434 Z M76.3444759,31.2294434 C76.3444759,30.6372549 76.8468366,30.2324478 77.5554297,30.2324478 C78.2594901,30.2324478 78.7618508,30.6372549 78.7618508,31.2294434 C78.7618508,31.8327008 78.2594901,32.2367173 77.5554297,32.2367173 C76.8468366,32.2367173 76.3444759,31.8327008 76.3444759,31.2294434 L76.3444759,31.2294434 Z M79.1486308,32.8518343 C78.7036827,32.9348514 78.2489141,32.9846616 77.798678,33.0131246 L77.798678,34.8450348 L77.2540132,34.8450348 L77.2540132,33.0400063 C76.8309726,33.0566097 76.4283286,33.0621442 76.0687441,33.0621442 L76,32.5909235 C76.8997167,32.5909235 78.0849858,32.5806452 79.1169027,32.4304238 L79.1486308,32.8518343 Z" id="Fill-36" fill="#23A685" mask="url(#mask-4)"></path>
                            <path d="M84.5460251,32.4300121 L81.4888424,32.4300121 L81.4888424,30 L84.511855,30 L84.511855,30.4743848 L81.9916318,30.4743848 L81.9916318,31.9604679 L84.5460251,31.9604679 L84.5460251,32.4300121 Z M81,34 L85,34 L85,33.5199677 L81,33.5199677 L81,34 Z" id="Fill-37" fill="#23A685" mask="url(#mask-4)"></path>
                            <path d="M59.4487768,87 L60,87 L60,82 L59.4487768,82 L59.4487768,87 Z M56.1980122,84.0573369 C56.9051988,83.8970147 57.3172783,83.4658032 57.32263,82.9848365 L56.3103976,82.9848365 L56.3103976,82.5362502 L57.3172783,82.5362502 L57.3172783,82.0102669 L57.8746177,82.0102669 L57.8746177,82.5362502 L58.8860856,82.5362502 L58.8860856,82.9848365 L57.8746177,82.9848365 C57.8792049,83.4381614 58.2866972,83.8306745 58.9824159,83.9807297 L58.7629969,84.4222082 C58.2117737,84.3013742 57.8203364,84.0241668 57.6062691,83.6648239 C57.3975535,84.0628653 56.9961774,84.3613963 56.4235474,84.4948665 L56.1980122,84.0573369 Z M59.1697248,85.0477018 C58.7469419,85.1250987 58.3027523,85.1803822 57.8746177,85.2024957 L57.8746177,86.8507345 L57.32263,86.8507345 L57.32263,85.2356658 C56.8730887,85.2522508 56.4495413,85.2577792 56.0695719,85.2577792 L56,84.7878692 C56.8998471,84.7878692 58.0993884,84.7760227 59.1376147,84.627547 L59.1697248,85.0477018 Z" id="Fill-38" fill="#323232" mask="url(#mask-4)"></path>
                            <path d="M64.6187816,84.4892338 C63.894746,84.3317168 63.2691569,83.842871 62.9856869,83.1903007 C62.6917438,83.842871 62.0661547,84.3317168 61.3470065,84.4892338 L61.1319602,84.0213385 C62.0075057,83.8591659 62.7161808,83.1251212 62.7161808,82.3701261 L62.7161808,82 L63.2496073,82 L63.2496073,82.3701261 C63.2496073,83.1305529 63.9589806,83.8591659 64.8289405,84.0213385 L64.6187816,84.4892338 Z M65,85.5383123 L65,86 L61,86 L61,85.5383123 L62.7266539,85.5383123 L62.7266539,84.3914646 L63.2300576,84.3914646 L63.2300576,85.5383123 L65,85.5383123 Z" id="Fill-39" fill="#323232" mask="url(#mask-4)"></path>
                            <path d="M90.0542207,58 L31.9457793,58 C30.3182362,58 29,59.2813274 29,60.8617027 L29,68.1382973 C29,69.7186726 30.3182362,71 31.9457793,71 L90.0542207,71 C91.6810273,71 93,69.7186726 93,68.1382973 L93,60.8617027 C93,59.2813274 91.6810273,58 90.0542207,58" id="Fill-40" fill="#A8A8AA" mask="url(#mask-4)"></path>
                            <path d="M73,58 L31.9686604,58 C30.3284755,58 29,59.2813274 29,60.8617027 L29,68.1382973 C29,69.7186726 30.3284755,71 31.9686604,71 L73,71 L73,58 Z" id="Fill-41" fill="#23A685" mask="url(#mask-4)"></path>
                            <path d="M85.2912861,66.5864553 C85.2912861,66.5864553 85.303135,66.5497118 85.303135,66.5 L85.5512219,64.7269452 C85.314984,64.6030259 85.1616885,64.3429395 85.1616885,64.045389 C85.1616885,63.6239193 85.4919773,63.2766571 85.8933597,63.2766571 L85.9289064,63.2766571 C85.9526043,62.7809798 85.763762,62.4337176 85.3386818,62.1981268 C85.1616885,62.0987032 84.9484078,62.0367435 84.7477166,62 L83.3665762,62 C83.1651444,62 83,62.1729107 83,62.3840058 L83,67.6159942 C83,67.8263689 83.1651444,68 83.3665762,68 L86,68 C85.9407554,67.9755043 85.8815107,67.9502882 85.8348556,67.9135447 C85.1498395,67.4668588 85.2794372,66.6116715 85.2912861,66.5864553" id="Fill-42" fill="#FFFFFF" mask="url(#mask-4)"></path>
                            <path d="M86.7511154,63.3746507 C87.0599418,63.489205 87.2616877,63.7694666 87.2616877,64.1008813 C87.2616877,64.4063593 87.0739088,64.6736525 86.8054316,64.8011751 L87.100291,66.6981643 C87.1134821,66.7745338 87.0467507,66.8386553 86.9660524,66.8386553 L86.0131911,66.8386553 C86,67.0425475 86.0263822,67.5641654 86.5229874,67.8444271 C86.8450048,68.0353508 87.342386,68.0483192 88.0671193,67.8955802 C89.2077595,67.4243949 90,66.3422537 90,65.0814367 C90,63.3746507 88.5505335,62 86.7650824,62 L86,62 C86.3887488,62.2161401 86.7914646,62.6239243 86.7511154,63.3746507" id="Fill-43" fill="#FFFFFF" mask="url(#mask-4)"></path>
                            <path d="M70.753793,65.6400499 C70.753793,66.413502 71.3190566,66.9990947 72.396452,66.9990947 C73.4354743,66.9990947 74,66.413502 74,65.6400499 L74,65.5255731 C73.9992621,65.2841445 73.9254679,65.0478527 73.7896865,64.8519213 C73.6531672,64.6552561 73.4613023,64.5077572 73.2406577,64.4292378 C73.4221914,64.331639 73.5771592,64.1870754 73.6885885,64.0087558 C73.8000177,63.8304362 73.8649566,63.6256989 73.8767637,63.4136234 L73.8767637,63.3329026 C73.8767637,62.6387036 73.3697975,62.0010093 72.370624,62.0010093 C71.3448846,62.0010093 70.8770293,62.6394375 70.8770293,63.3329026 L70.8770293,63.4136234 C70.8873605,63.6264328 70.9522994,63.8333715 71.0652046,64.0116911 C71.1781097,64.1907446 71.3352913,64.3345743 71.5197768,64.4292378 C71.2991322,64.508491 71.1072673,64.6559899 70.97001,64.8526551 C70.8334908,65.0485865 70.7574827,65.2834107 70.753793,65.5255731 L70.753793,65.6400499 Z M71.6098058,65.5189687 C71.6098058,65.0280394 71.9802527,64.8255036 72.3890726,64.8255036 C72.7978924,64.8255036 73.1417734,65.0412483 73.1417734,65.5189687 L73.1417734,65.5864806 C73.1417734,66.0032935 72.8495484,66.2454559 72.3890726,66.2454559 C71.9212173,66.2454559 71.6098058,66.0032935 71.6098058,65.5864806 L71.6098058,65.5189687 Z M71.7264006,63.3798674 C71.7234488,63.2925422 71.7382077,63.2052169 71.7699392,63.1237623 C71.8024086,63.0430415 71.8503749,62.9703928 71.9116241,62.9102191 C71.9736112,62.8500454 72.0466675,62.8045482 72.1263652,62.7766628 C72.2068009,62.7480436 72.2916642,62.7385039 72.3757896,62.7473098 C72.7587815,62.7473098 73.0244406,62.9623207 73.0244406,63.3798674 L73.0244406,63.4473793 C73.0266545,63.5332369 73.0111577,63.6190945 72.9786882,63.6983476 C72.9462188,63.7783346 72.8982526,63.8495157 72.8377413,63.9089556 C72.7772301,63.9676616 72.7049117,64.0131588 72.6266899,64.0410442 C72.5477301,64.0696633 72.4643426,64.0799369 72.3816931,64.0725986 C72.2983057,64.0792031 72.2141803,64.0681957 72.1352205,64.0403103 C72.0562607,64.0116911 71.9839424,63.9669278 71.9219553,63.9082217 C71.8607061,63.8495157 71.8112639,63.7783346 71.7780566,63.6990815 C71.7441112,63.6198283 71.7264006,63.5339707 71.7256627,63.4473793 L71.7256627,63.3798674 L71.7264006,63.3798674 Z M67.5533384,65.2834107 C67.5533384,64.8394463 67.8064526,64.4695982 68.4041856,64.4695982 C68.9753527,64.4695982 69.2351083,64.7389122 69.2351083,65.3039578 L69.2351083,65.3780742 C69.2351083,65.9159683 68.9428833,66.2190382 68.3717162,66.2190382 C67.83966,66.2190382 67.5533384,65.9093638 67.5533384,65.3846786 L67.5533384,65.2834107 Z M69.8188205,62.3371014 C69.44247,62.1044787 69.010774,61.9878004 68.5724364,62.0010093 C67.5533384,62.0010093 66.7157742,62.498543 66.7157742,64.6376443 L66.7157742,64.9473186 C66.7157742,66.1918867 67.1961745,66.9990947 68.3909027,66.9990947 C69.429925,66.9990947 70.053486,66.3129679 70.053486,65.4118302 L70.053486,65.2768063 C70.053486,64.3353082 69.5015054,63.7159595 68.5923608,63.7159595 C68.39902,63.7086212 68.2049413,63.7423772 68.0241455,63.8150259 C67.8433497,63.8876746 67.6787886,63.9984823 67.5407934,64.1401106 C67.5990909,63.103949 68.0411181,62.7810658 68.5215184,62.7810658 C68.869827,62.7751952 69.2129701,62.868391 69.5147884,63.0503797 L69.8188205,62.3371014 Z M65.9962808,62.734101 L65.9962808,62.0743918 L62.6534034,62.0743918 L62.6534034,62.8008791 L65.1269851,62.8008791 L63.3286203,66.9249783 L64.2045575,66.9249783 L65.9962808,62.734101 Z M59.5282189,63.7159595 C59.5282189,64.1599239 59.2751048,64.5297719 58.6766338,64.5297719 C58.1054667,64.5297719 57.8457111,64.2611918 57.8457111,63.6961462 L57.8457111,63.6220298 C57.8457111,63.0834019 58.1379361,62.7810658 58.7091033,62.7810658 C59.2411595,62.7810658 59.527481,63.0907401 59.527481,63.6154254 L59.527481,63.7166933 L59.5282189,63.7159595 Z M57.2627369,66.6630026 C57.6390873,66.8948915 58.0715213,67.0115697 58.509121,66.9990947 C59.6189858,66.9990947 60.3657831,66.501561 60.3657831,64.3617259 L60.3657831,64.0527854 C60.3657831,62.8082173 59.8853828,62.0010093 58.6906547,62.0010093 C57.6523703,62.0010093 57.0280713,62.6944744 57.0280713,63.5948783 L57.0280713,63.7299021 C57.0280713,64.6714002 57.580052,65.2834107 58.4877206,65.2834107 C58.6817994,65.2914828 58.8751402,65.2577268 59.055936,65.1850781 C59.2374697,65.1116955 59.4020308,65.0008879 59.540026,64.8599934 C59.4942736,65.896155 59.1629376,66.2190382 58.559301,66.2190382 C58.2109924,66.224175 57.8671114,66.1309791 57.5660311,65.9497242 L57.2627369,66.6630026 Z M53.0822953,65.6400499 C53.0822953,66.413502 53.6475589,66.9990947 54.7249542,66.9990947 C55.7639766,66.9990947 56.3285023,66.413502 56.3285023,65.6400499 L56.3285023,65.5255731 C56.3277643,65.2841445 56.2539701,65.0478527 56.1181888,64.8519213 C55.9816695,64.6552561 55.7898046,64.5077572 55.5691599,64.4292378 C55.7506937,64.331639 55.9056615,64.1870754 56.0170907,64.0087558 C56.12852,63.8304362 56.1934589,63.6256989 56.205266,63.4136234 L56.205266,63.3329026 C56.205266,62.6387036 55.6982998,62.0010093 54.6991263,62.0010093 C53.6733869,62.0010093 53.2055316,62.6394375 53.2055316,63.3329026 L53.2055316,63.4136234 C53.2158628,63.6264328 53.2808017,63.8333715 53.3937068,64.0116911 C53.506612,64.1907446 53.6637936,64.3345743 53.8482791,64.4292378 C53.6276345,64.508491 53.4357695,64.6559899 53.2985123,64.8526551 C53.1612551,65.0485865 53.085985,65.2834107 53.0822953,65.5255731 L53.0822953,65.6400499 Z M53.9397839,65.5189687 C53.9397839,65.0280394 54.3094929,64.8255036 54.7183128,64.8255036 C55.1278706,64.8255036 55.4717516,65.0412483 55.4717516,65.5189687 L55.4717516,65.5864806 C55.4717516,66.0032935 55.1795265,66.2454559 54.7183128,66.2454559 C54.2511955,66.2454559 53.9397839,66.0032935 53.9397839,65.5864806 L53.9397839,65.5189687 Z M54.0563788,63.3798674 C54.053427,63.2925422 54.0681858,63.2052169 54.0999174,63.1237623 C54.1316489,63.0430415 54.180353,62.9703928 54.2416022,62.9102191 C54.3028514,62.8500454 54.3766456,62.8045482 54.4563433,62.7766628 C54.5360411,62.7480436 54.6216424,62.7385039 54.7050298,62.7473098 C55.0880217,62.7473098 55.3544188,62.9623207 55.3544188,63.3798674 L55.3544188,63.4473793 C55.3558947,63.5332369 55.3403979,63.6190945 55.3086664,63.6983476 C55.2761969,63.7783346 55.2282307,63.8495157 55.1677195,63.9089556 C55.1072082,63.9676616 55.0348899,64.0131588 54.956668,64.0410442 C54.8777082,64.0696633 54.7943208,64.0799369 54.7116713,64.0725986 C54.6282838,64.0792031 54.5441585,64.0681957 54.4651987,64.0403103 C54.3862389,64.0116911 54.3139205,63.9669278 54.2519334,63.9082217 C54.1906842,63.8495157 54.1412421,63.7783346 54.1072968,63.6990815 C54.0733514,63.6198283 54.0563788,63.5339707 54.0556408,63.4473793 L54.0556408,63.3798674 L54.0563788,63.3798674 Z M49,66.2792119 L49,66.9249783 L52.3111459,66.9249783 L52.3111459,66.2116999 L50.0840368,66.2116999 L51.4610367,64.7719343 C51.8956845,64.3213655 52.1362536,63.8370407 52.1362536,63.3123554 L52.1362536,63.2455773 C52.1362536,62.5792638 51.6816813,62.0010093 50.6234725,62.0010093 C50.2891847,61.9929372 49.9600626,62.0846654 49.6759549,62.2659203 C49.3911093,62.447909 49.1630852,62.7106185 49.0191865,63.0232282 L49.6427475,63.4473793 C49.9467796,62.8815999 50.2921365,62.7678569 50.6301139,62.7678569 C51.1097763,62.7678569 51.2986894,63.0166238 51.2986894,63.2785995 L51.2986894,63.3329026 C51.2986894,63.6088209 51.26622,63.8641922 50.7208808,64.4424467 L49,66.2792119 Z" id="Fill-44" fill="#FFFFFF" mask="url(#mask-4)"></path>
                            <path d="M90.0542207,42 L31.9457793,42 C30.3182362,42 29,43.2813274 29,44.8617027 L29,52.1382973 C29,53.7186726 30.3182362,55 31.9457793,55 L90.0542207,55 C91.6810273,55 93,53.7186726 93,52.1382973 L93,44.8617027 C93,43.2813274 91.6810273,42 90.0542207,42" id="Fill-45" fill="#E8E8E8" mask="url(#mask-4)"></path>
                            <path d="M38,48.0661859 C38,47.3878445 37.6323851,47 37.0356077,47 C36.5780784,47 36.3170877,47.2047386 36.1300975,47.4898275 C35.981301,47.1776977 35.6829123,47 35.2946091,47 C34.8895962,47 34.6286055,47.1939222 34.5164114,47.4519701 L34.5116372,47.4519701 L34.5116372,47.0533093 L34,47.0533093 L34,50 L34.5164114,50 L34.5164114,48.1364924 C34.5164114,47.6729333 34.8736821,47.4736029 35.1927591,47.4736029 C35.560374,47.4736029 35.7417943,47.721607 35.7417943,48.2330672 L35.7417943,50 L36.2582057,50 L36.2582057,48.1627608 C36.2582057,47.6837497 36.6099065,47.4736029 36.9345534,47.4736029 C37.3021683,47.4736029 37.4835886,47.721607 37.4835886,48.2330672 L37.4835886,50 L38,50 L38,48.0661859 Z" id="Fill-46" fill="#505050" mask="url(#mask-4)"></path>
                            <polygon id="Fill-47" fill="#505050" mask="url(#mask-4)" points="39.9997012 49.2616441 39.4200777 47 39 47 39.7959367 49.8717758 39.5121004 50.8396734 39.8640574 51 41 47 40.5918733 47 40.0158351 49.2616441"></polygon>
                            <polygon id="Fill-48" fill="#505050" mask="url(#mask-4)" points="41 49.7265 43 49.7265 43 49.2735 41 49.2735"></polygon>
                            <path d="M44,46.5706564 L44.689,46.5706564 L44.689,46 L44,46 L44,46.5706564 Z M44.02,50 L44.669,50 L44.669,47.0548263 L44.02,47.0548263 L44.02,50 Z" id="Fill-49" fill="#505050" mask="url(#mask-4)"></path>
                            <path d="M46.5886116,48.8328952 C46.5886116,49.2775066 46.3103007,49.5553887 45.9724888,49.5553887 C45.62508,49.5553887 45.4113884,49.241457 45.4113884,48.6969583 L45.4113884,48.345475 C45.4113884,47.8062336 45.6212412,47.4870447 45.9724888,47.4870447 C46.3320537,47.4870447 46.5886116,47.7957191 46.5886116,48.0946301 L46.5886116,48.8328952 Z M46.6014075,49.6027037 L46.6014075,49.9586932 L47,49.9586932 L47,46 L46.5847729,46 L46.5847729,47.3931656 C46.4900832,47.2256853 46.2847089,47.0424333 45.9296225,47.0424333 C45.381318,47.0424333 45,47.4975591 45,48.2726249 L45,48.7803229 C45,49.5553887 45.3211772,50 45.912348,50 C46.2034549,50 46.4644914,49.8903492 46.5930902,49.6027037 L46.6014075,49.6027037 Z" id="Fill-50" fill="#505050" mask="url(#mask-4)"></path>
                            <path d="M99,14.8351648 C99,6.6417033 105.650792,0 113.855466,0 L205.144534,0 C213.349208,0 220,6.6417033 220,14.8351648 L220,135 L99,135 L99,14.8351648 Z" id="Fill-51" fill="#23A685" mask="url(#mask-4)"></path>
                            <path d="M99,14.5562637 C99,6.51708791 105.557946,0 113.64749,0 L205.35251,0 C213.442054,0 220,6.51708791 220,14.5562637 L220,135 L205.35251,135 L113.64749,135 L99,135 L99,14.5562637 Z" id="Fill-52" fill="#323232" mask="url(#mask-4)"></path>
                            <path d="M105,17.7013714 C105,10.6865714 110.661054,5 117.64361,5 L202.35639,5 C209.338946,5 215,10.6865714 215,17.7013714 L215,135 L202.35639,135 L117.64361,135 L105,135 L105,17.7013714 Z" id="Fill-64" fill="#383E47" mask="url(#mask-4)"></path>
                            <path d="M118.969005,43 L200.030995,43 C201.670628,43 203,44.3310455 203,45.9727426 L203,108.027257 C203,109.668955 201.670628,111 200.030995,111 L118.969005,111 C117.329372,111 116,109.668955 116,108.027257 L116,45.9727426 C116,44.3310455 117.329372,43 118.969005,43" id="Fill-65" fill="#FFFFFF" mask="url(#mask-4)"></path>
                            <path d="M147.454179,51 L170.545821,51 C171.349255,51 172,51.7200322 172,52.6090105 L172,53.3909895 C172,54.2799678 171.349255,55 170.545821,55 L147.454179,55 C146.651472,55 146,54.2799678 146,53.3909895 L146,52.6090105 C146,51.7200322 146.651472,51 147.454179,51" id="Fill-66" fill="#E0E6EB" mask="url(#mask-4)"></path>
                            <path d="M137.470142,59 L180.529858,59 C181.341377,59 182,59.7198874 182,60.6086869 L182,61.3913131 C182,62.2793083 181.341377,63 180.529858,63 L137.470142,63 C136.657888,63 136,62.2793083 136,61.3913131 L136,60.6086869 C136,59.7198874 136.657888,59 137.470142,59" id="Fill-67" fill="#E0E6EB" mask="url(#mask-4)"></path>
                            <path d="M116,97 L159,97 L159,111 L118.934903,111 C117.314103,111 116,109.673052 116,108.03641 L116,97 Z" id="Fill-68" fill="#E0E6EB" mask="url(#mask-4)"></path>
                            <path d="M160,97 L203,97 L203,108.03641 C203,109.673052 201.68592,111 200.065147,111 L160,111 L160,97 Z" id="Fill-69" fill="#23A685" mask="url(#mask-4)"></path>
                            <path d="M137.448777,106 L138,106 L138,101 L137.448777,101 L137.448777,106 Z M134.198012,103.057337 C134.905199,102.897015 135.317278,102.465803 135.32263,101.984837 L134.310398,101.984837 L134.310398,101.53625 L135.317278,101.53625 L135.317278,101.010267 L135.874618,101.010267 L135.874618,101.53625 L136.886086,101.53625 L136.886086,101.984837 L135.874618,101.984837 C135.879205,102.438161 136.286697,102.830674 136.982416,102.98073 L136.762997,103.422208 C136.211774,103.301374 135.820336,103.024167 135.606269,102.664824 C135.397554,103.062865 134.996177,103.361396 134.423547,103.494867 L134.198012,103.057337 Z M137.169725,104.047702 C136.746942,104.125099 136.302752,104.180382 135.874618,104.202496 L135.874618,105.850734 L135.32263,105.850734 L135.32263,104.235666 C134.873089,104.252251 134.449541,104.257779 134.069572,104.257779 L134,103.787869 C134.899847,103.787869 136.099388,103.776023 137.137615,103.627547 L137.169725,104.047702 Z" id="Fill-70" fill="#323232" mask="url(#mask-4)"></path>
                            <path d="M141.618782,103.489234 C140.894746,103.331717 140.269157,102.842871 139.985687,102.190301 C139.691744,102.842871 139.066155,103.331717 138.347006,103.489234 L138.13196,103.021339 C139.007506,102.859166 139.716181,102.125121 139.716181,101.370126 L139.716181,101 L140.249607,101 L140.249607,101.370126 C140.249607,102.130553 140.958981,102.859166 141.82894,103.021339 L141.618782,103.489234 Z M142,104.538312 L142,105 L138,105 L138,104.538312 L139.726654,104.538312 L139.726654,103.391465 L140.230058,103.391465 L140.230058,104.538312 L142,104.538312 Z" id="Fill-71" fill="#323232" mask="url(#mask-4)"></path>
                            <path d="M181,102.973849 L180.409122,102.973849 L180.409122,104.39336 L179.917631,104.39336 L179.917631,101.048544 L180.409122,101.048544 L180.409122,102.507203 L181,102.507203 L181,102.973849 Z M178.339687,103.116348 C178.682777,103.116348 178.901974,102.984811 178.901974,102.764798 C178.901974,102.540088 178.682777,102.403069 178.339687,102.403069 C177.996596,102.403069 177.7774,102.540088 177.7774,102.764798 C177.7774,102.984811 177.996596,103.116348 178.339687,103.116348 L178.339687,103.116348 Z M177.533696,104.613373 L180.409122,104.613373 L180.409122,106 L179.917631,106 L179.917631,105.062794 L177.533696,105.062794 L177.533696,104.613373 Z M179.569775,101.871438 L177.109598,101.871438 L177.109598,101.459599 L178.096664,101.459599 L178.096664,101 L178.59224,101 L178.59224,101.459599 L179.569775,101.459599 L179.569775,101.871438 Z M179.727025,104.069997 C178.816201,104.257125 177.810075,104.262606 177.057182,104.267303 L177,103.817883 C177.32403,103.817883 177.700477,103.817883 178.096664,103.806921 L178.096664,103.478077 C177.610619,103.417006 177.3145,103.15393 177.3145,102.764798 C177.3145,102.305199 177.720218,102.024898 178.339687,102.024898 C178.959156,102.024898 179.364874,102.305199 179.364874,102.764798 C179.364874,103.15393 179.069435,103.412308 178.59224,103.478077 L178.59224,103.784998 C178.963921,103.763075 179.341048,103.735672 179.688904,103.675384 L179.727025,104.069997 Z" id="Fill-72" fill="#FFFFFF" mask="url(#mask-4)"></path>
                            <path d="M185.315131,104.702063 L185.861964,104.702063 L185.861964,101 L185.315131,101 L185.315131,104.702063 Z M186,105.526265 L186,106 L182.7281,106 L182.7281,104.329842 L183.280243,104.329842 L183.280243,105.526265 L186,105.526265 Z M183.274934,103.388012 C183.69435,103.388012 184.013652,103.077022 184.013652,102.614567 C184.013652,102.146471 183.69435,101.841927 183.274934,101.841927 C182.850209,101.841927 182.536974,102.146471 182.536974,102.614567 C182.536974,103.077022 182.850209,103.388012 183.274934,103.388012 L183.274934,103.388012 Z M183.274934,103.889945 C182.552901,103.889945 182,103.354173 182,102.614567 C182,101.86932 182.552901,101.339188 183.274934,101.339188 C183.997725,101.339188 184.544558,101.86932 184.544558,102.614567 C184.544558,103.354173 183.997725,103.889945 183.274934,103.889945 L183.274934,103.889945 Z" id="Fill-73" fill="#FFFFFF" mask="url(#mask-4)"></path>
                            <path d="M191.023582,71 L128.976418,71 C127.332691,71 126,72.3105791 126,73.9270332 L126,82.0729668 C126,83.6894209 127.332691,85 128.976418,85 L191.023582,85 C192.667309,85 194,83.6894209 194,82.0729668 L194,73.9270332 C194,72.3105791 192.667309,71 191.023582,71" id="Fill-74" fill="#A8A8AA" mask="url(#mask-4)"></path>
                            <path d="M172,71 L128.951414,71 C127.321496,71 126,72.3105791 126,73.9270332 L126,82.0729668 C126,83.6894209 127.321496,85 128.951414,85 L172,85 L172,71 Z" id="Fill-75" fill="#23A685" mask="url(#mask-4)"></path>
                            <path d="M185.291549,79.3513914 C185.291549,79.3513914 185.302817,79.3082801 185.302817,79.25 L185.551408,77.1814553 C185.314789,77.0369526 185.161268,76.7335766 185.161268,76.3862911 C185.161268,75.8945027 185.492254,75.4897354 185.893662,75.4897354 L185.928873,75.4897354 C185.952817,74.9109261 185.76338,74.5061588 185.338732,74.2315237 C185.161268,74.1157619 184.948592,74.0431113 184.747887,74 L183.366197,74 C183.165493,74 183,74.2019845 183,74.4478786 L183,80.5521214 C183,80.7980155 183.165493,81 183.366197,81 L186,81 C185.940845,80.9712591 185.88169,80.9425182 185.834507,80.8986086 C185.149296,80.3780794 185.279577,79.3801323 185.291549,79.3513914" id="Fill-76" fill="#FFFFFF" mask="url(#mask-4)"></path>
                            <path d="M185.751153,75.6038569 C186.060321,75.7379773 186.26176,76.0644967 186.26176,76.4508913 C186.26176,76.8077475 186.073603,77.1190985 185.805018,77.2683873 L186.100166,79.4813745 C186.114186,79.5707881 186.047039,79.6450334 185.965873,79.6450334 L185.013282,79.6450334 C185,79.8829375 185.026563,80.4920678 185.523151,80.8185872 C185.8456,81.0413229 186.342188,81.0564913 187.066777,80.877664 C188.207526,80.3284089 189,79.0654415 189,77.5949067 C189,75.6038569 187.550083,74 185.765172,74 L185,74 C185.388858,74.2522742 185.791736,74.727284 185.751153,75.6038569" id="Fill-77" fill="#FFFFFF" mask="url(#mask-4)"></path>
                            <path d="M169.623832,78.6406357 C169.623832,79.4136054 170.21134,79.999083 171.332351,79.999083 C172.412491,79.999083 173,79.4136054 173,78.6406357 L173,78.5256312 C172.99927,78.2837732 172.922639,78.0481882 172.781053,77.851635 C172.639467,77.6550818 172.439495,77.5073185 172.21033,77.4292548 C172.399354,77.3316752 172.559916,77.1866998 172.675958,77.0089656 C172.792,76.8305343 172.859144,76.6256172 172.871551,76.4137301 L172.871551,76.3328784 C172.871551,75.6393664 172.344618,75.000917 171.305347,75.000917 C170.238344,75.000917 169.752281,75.6400633 169.752281,76.3328784 L169.752281,76.4137301 C169.762498,76.6270112 169.830372,76.8333223 169.947874,77.0124506 C170.065375,77.1908818 170.228126,77.3344632 170.4208,77.4292548 C170.190905,77.5087125 169.991663,77.6564758 169.848618,77.852332 C169.706302,78.0488852 169.628211,78.2837732 169.623832,78.5256312 L169.623832,78.6406357 Z M170.514218,78.5193582 C170.514218,78.0279753 170.898835,77.8258461 171.324323,77.8258461 C171.749811,77.8258461 172.107425,78.0412182 172.107425,78.5193582 L172.107425,78.5862699 C172.107425,79.0037712 171.803818,79.2456291 171.324323,79.2456291 C170.83826,79.2456291 170.514218,79.0037712 170.514218,78.5862699 L170.514218,78.5193582 Z M170.635368,76.3795772 C170.632449,76.2924526 170.647775,76.205328 170.680618,76.1244763 C170.714189,76.0429276 170.764547,75.97044 170.828042,75.9104982 C170.892267,75.8505565 170.968168,75.8045547 171.051368,75.7766748 C171.134568,75.7487949 171.222877,75.7383399 171.310456,75.7474009 C171.70894,75.7474009 171.985544,75.962773 171.985544,76.3795772 L171.985544,76.4471859 C171.987004,76.5336136 171.970947,76.6193442 171.937375,76.6988019 C171.904533,76.7782595 171.854175,76.8500502 171.791411,76.909295 C171.727916,76.9678427 171.653474,77.0131476 171.571733,77.0410274 C171.489993,77.0696043 171.403144,77.0800593 171.317025,77.0730893 C171.230175,77.0793623 171.142596,77.0682103 171.060856,77.0403304 C170.978386,77.0117536 170.903214,76.9671457 170.838989,76.907901 C170.774765,76.8493532 170.723677,76.7782595 170.688646,76.6988019 C170.653614,76.6193442 170.635368,76.5336136 170.634639,76.4471859 L170.634639,76.3795772 L170.635368,76.3795772 Z M166.295102,78.2837732 C166.295102,77.8397861 166.558568,77.4696806 167.179649,77.4696806 C167.774456,77.4696806 168.044491,77.7387215 168.044491,78.3039861 L168.044491,78.3778678 C168.044491,78.9159495 167.740884,79.2184462 167.146807,79.2184462 C166.59287,79.2184462 166.295832,78.9096766 166.295832,78.3848378 L166.295102,78.2837732 Z M168.651705,75.3368696 C168.260519,75.1047696 167.810947,74.9883711 167.355537,75.000917 C166.295102,75.000917 165.424421,75.4985729 165.424421,77.6376569 L165.424421,77.9471236 C165.424421,79.1919604 165.924351,79.999083 167.166512,79.999083 C168.246653,79.999083 168.895467,79.3132378 168.895467,78.4113237 L168.895467,78.2768032 C168.895467,77.3351602 168.321825,76.7162268 167.375972,76.7162268 C167.17454,76.7085598 166.973109,76.7420157 166.785544,76.8152004 C166.597249,76.8876881 166.42574,76.9985106 166.282695,77.140001 C166.34327,76.1042634 166.80233,75.7808568 167.30226,75.7808568 C167.664253,75.7752808 168.021867,75.8686784 168.334961,76.0498976 L168.651705,75.3368696 Z M164.676351,75.734158 L164.676351,75.0747987 L161.199467,75.0747987 L161.199467,75.8010697 L163.772098,75.8010697 L161.901558,79.9252013 L162.813109,79.9252013 L164.676351,75.734158 Z M157.949558,76.7162268 C157.949558,77.1602139 157.686091,77.5303194 157.064281,77.5303194 C156.469474,77.5303194 156.199439,77.2612785 156.199439,76.6960139 L156.199439,76.6221322 C156.199439,76.0840505 156.503046,75.7815538 157.097123,75.7815538 C157.65106,75.7815538 157.948098,76.0903234 157.948098,76.6158592 L157.948098,76.7162268 L157.949558,76.7162268 Z M155.592954,79.6631304 C155.98487,79.8952304 156.434442,80.0116289 156.889853,79.999083 C158.043705,79.999083 158.820968,79.5014271 158.820968,77.3623431 L158.820968,77.0528764 C158.820968,75.8080396 158.321039,75.000917 157.078147,75.000917 C155.998007,75.000917 155.349193,75.6944291 155.349193,76.5949493 L155.349193,76.7294698 C155.349193,77.6711128 155.923565,78.2837732 156.867958,78.2837732 C157.069389,78.2914402 157.270821,78.2579843 157.458386,78.1847996 C157.646681,78.1123119 157.818189,78.0014894 157.961235,77.859999 C157.913796,78.8957366 157.570049,79.2184462 156.94167,79.2184462 C156.578947,79.2240222 156.222063,79.1313216 155.908239,78.9494054 L155.592954,79.6631304 Z M151.246119,78.6406357 C151.246119,79.4136054 151.833628,79.999083 152.953909,79.999083 C154.034779,79.999083 154.621558,79.4136054 154.621558,78.6406357 L154.621558,78.5256312 C154.620828,78.2837732 154.544196,78.0481882 154.402611,77.851635 C154.261025,77.6550818 154.061782,77.5073185 153.831888,77.4292548 C154.020912,77.3316752 154.181474,77.1866998 154.297516,77.0089656 C154.413558,76.8305343 154.481432,76.6256172 154.493839,76.4137301 L154.493839,76.3328784 C154.493839,75.6393664 153.966175,75.000917 152.926905,75.000917 C151.860632,75.000917 151.373839,75.6400633 151.373839,76.3328784 L151.373839,76.4137301 C151.384786,76.6270112 151.45193,76.8333223 151.569432,77.0124506 C151.686933,77.1908818 151.850414,77.3344632 152.042358,77.4292548 C151.813193,77.5087125 151.613221,77.6564758 151.470905,77.852332 C151.328589,78.0488852 151.249768,78.2837732 151.246119,78.5256312 L151.246119,78.6406357 Z M152.137235,78.5193582 C152.137235,78.0279753 152.522582,77.8258461 152.94734,77.8258461 C153.372828,77.8258461 153.731172,78.0412182 153.731172,78.5193582 L153.731172,78.5862699 C153.731172,79.0037712 153.426835,79.2456291 152.94734,79.2456291 C152.461277,79.2456291 152.137235,79.0037712 152.137235,78.5862699 L152.137235,78.5193582 Z M152.259116,76.3795772 C152.255467,76.2924526 152.270793,76.205328 152.304365,76.1244763 C152.337207,76.0429276 152.387565,75.97044 152.451789,75.9104982 C152.515284,75.8505565 152.591916,75.8045547 152.675116,75.7766748 C152.758316,75.7487949 152.846625,75.7383399 152.933474,75.7474009 C153.331958,75.7474009 153.608561,75.962773 153.608561,76.3795772 L153.608561,76.4471859 C153.610751,76.5336136 153.593965,76.6193442 153.561123,76.6988019 C153.527551,76.7782595 153.477923,76.8500502 153.414428,76.909295 C153.351663,76.9678427 153.276491,77.0131476 153.194751,77.0410274 C153.113011,77.0696043 153.026161,77.0800593 152.940042,77.0730893 C152.853193,77.0793623 152.766344,77.0682103 152.683874,77.0403304 C152.601404,77.0117536 152.526232,76.9671457 152.462007,76.907901 C152.398512,76.8493532 152.347425,76.7782595 152.311663,76.6988019 C152.276632,76.6193442 152.258386,76.5336136 152.258386,76.4471859 L152.258386,76.3795772 L152.259116,76.3795772 Z M147,79.279085 L147,79.9252013 L150.444042,79.9252013 L150.444042,79.2121733 L148.128309,79.2121733 L149.559495,77.7721774 C150.011986,77.3219173 150.261586,76.8375043 150.261586,76.3126655 L150.261586,76.2450568 C150.261586,75.5794246 149.78866,75.000917 148.688814,75.000917 C148.341418,74.9925531 147.99913,75.0852537 147.702821,75.2664729 C147.407242,75.4476922 147.170049,75.7104601 147.020435,76.0234117 L147.669249,76.4471859 C147.985263,75.8819213 148.343607,75.7676138 148.695382,75.7676138 C149.194582,75.7676138 149.390905,76.0164418 149.390905,76.2792097 L149.390905,76.3328784 C149.390905,76.6088893 149.357333,76.8639902 148.79026,77.4424977 L147,79.279085 Z" id="Fill-78" fill="#FFFFFF" mask="url(#mask-4)"></path>
                            <path d="M199.41734,119.122771 L193.84376,122.736367 C193.230931,123.134612 192.470228,122.96341 192.470228,122.96341 L186.917247,121.385861 C186.49349,121.273441 186.121232,120.989085 185.871833,120.587901 L183.581633,116.132994 C183.505857,115.984571 183.484522,115.808226 183.524249,115.642903 C183.563977,115.476845 183.660352,115.335769 183.792776,115.249801 L184.042174,115.088887 C184.238603,114.961037 184.455632,114.878743 184.680753,114.845678 C184.905873,114.811879 185.134673,114.828778 185.353908,114.894908 C185.573143,114.961037 185.779136,115.074926 185.958644,115.229963 C186.138888,115.384999 186.289705,115.578243 186.402265,115.798674 L187.697813,118.319668 C187.716941,118.356406 187.741955,118.388736 187.772118,118.414453 C187.802281,118.44017 187.836123,118.458539 187.872907,118.469561 C187.909692,118.480582 187.947948,118.483521 187.984732,118.477643 C188.022252,118.471765 188.059037,118.457804 188.091407,118.437231 C188.124513,118.415923 188.153205,118.387267 188.176011,118.353467 C188.198818,118.320403 188.215738,118.28146 188.225302,118.241047 C188.234866,118.1999 188.237809,118.157284 188.232659,118.115402 C188.22751,118.07352 188.215003,118.033108 188.196611,117.996369 L182.148511,106.232711 L182.152189,106.230507 C181.991073,105.881491 181.956496,105.476634 182.055078,105.099697 C182.153661,104.723495 182.378046,104.403135 182.681885,104.206217 C182.985725,104.009299 183.345477,103.950518 183.686101,104.042364 C184.027461,104.13421 184.323943,104.368601 184.515222,104.698513 L184.518165,104.696308 L187.541847,110.578137 C187.580103,110.652349 187.643372,110.705987 187.716941,110.72803 C187.791246,110.750074 187.869965,110.738317 187.935441,110.695701 C188.001653,110.652349 188.050208,110.581811 188.070072,110.499517 C188.0892,110.416488 188.0789,110.329051 188.040644,110.254839 L187.104848,108.43408 L187.108526,108.431876 C186.947411,108.082861 186.912833,107.678003 187.011415,107.301801 C187.109998,106.924864 187.334383,106.604505 187.638223,106.407586 C187.942062,106.211403 188.301078,106.152621 188.642438,106.243733 C188.983798,106.335579 189.280281,106.570705 189.47156,106.899882 L189.474502,106.898412 L190.553758,108.998383 C190.572886,109.035122 190.5979,109.067452 190.628063,109.093169 C190.658226,109.118885 190.692804,109.137989 190.728852,109.148276 C190.765637,109.159298 190.803893,109.162237 190.841413,109.156359 C190.878933,109.151215 190.914982,109.137255 190.948088,109.115946 C190.980458,109.094638 191.00915,109.066717 191.031956,109.032917 C191.055498,108.999118 191.071683,108.96091 191.081983,108.919763 C191.091547,108.879351 191.093754,108.835999 191.088604,108.794117 C191.08419,108.752236 191.071683,108.711823 191.052556,108.675085 L190.620706,107.835243 L190.624384,107.833039 C190.463269,107.484024 190.428691,107.079166 190.527274,106.702229 C190.625856,106.325292 190.850241,106.005668 191.154081,105.808749 C191.457185,105.611831 191.816936,105.55305 192.158296,105.644896 C192.499656,105.736007 192.796139,105.971133 192.987418,106.301045 L192.990361,106.298841 L193.565669,107.419364 C193.603925,107.492841 193.667194,107.547214 193.741499,107.569257 C193.815068,107.5913 193.893787,107.579544 193.959999,107.536192 C194.026211,107.493576 194.074031,107.423038 194.093894,107.340009 C194.113758,107.257715 194.102722,107.169542 194.064467,107.095331 L194.067409,107.093861 C193.926157,106.781584 193.896729,106.420812 193.985748,106.085757 C194.074031,105.749968 194.274138,105.464877 194.544872,105.290002 C194.815605,105.114392 195.136366,105.061489 195.440205,105.142313 C195.74478,105.222403 196.009628,105.430343 196.181044,105.723516 L196.184722,105.721312 L199.064209,111.323194 L199.639518,112.442982 L200.575315,114.263741 C200.995393,115.080804 201.109425,116.049965 200.892397,116.961079 C200.675369,117.871458 200.144937,118.648845 199.41734,119.122771" id="Fill-79" fill="#FFFFFF" mask="url(#mask-4)"></path>
                            <path d="M194.008998,106.86664 C194.013375,106.883398 194.019941,106.899427 194.028695,106.915457 L194.531333,106.65534 C194.530603,106.65534 194.530603,106.654611 194.530603,106.654611 L194.018482,106.887041 C194.015564,106.879755 194.012646,106.873197 194.008998,106.86664 L194.008998,106.86664 Z M185.534922,103.914999 C185.274484,103.500414 184.876167,103.188565 184.401981,103.061785 C183.900802,102.92699 183.37555,103.015882 182.940757,103.297858 C182.508153,103.577648 182.205404,104.021378 182.073361,104.523397 C181.948613,104.999915 181.98363,105.510677 182.173305,105.963879 C182.182789,105.995938 182.19592,106.027269 182.211969,106.0586 L186.234529,113.88398 C186.181274,113.863579 186.12729,113.844635 186.072576,113.827876 C185.774204,113.738256 185.461241,113.71494 185.153384,113.760843 C184.845528,113.806018 184.552262,113.918225 184.290365,114.087994 C184.290365,114.087994 184.289635,114.088723 184.290365,114.087994 L184.043058,114.247562 L184.04087,114.249019 C183.775325,114.422431 183.598053,114.693477 183.527289,114.990026 C183.456526,115.286574 183.492273,115.603524 183.63307,115.876756 L185.904058,120.293652 C185.910623,120.307495 185.918648,120.321339 185.926673,120.334454 C186.244013,120.845946 186.729142,121.224828 187.301813,121.378567 L192.803835,122.941457 C192.814048,122.944372 192.824261,122.947286 192.834475,122.949472 L192.96214,122.384063 L192.834475,122.949472 L192.835934,122.949472 L192.836663,122.950201 L192.838122,122.950201 L192.843229,122.951658 L192.855631,122.953844 C192.865844,122.95603 192.878975,122.958216 192.894295,122.96113 C192.925664,122.966959 192.967976,122.973517 193.019772,122.980074 C193.121905,122.992461 193.264161,123.00339 193.430491,122.999018 C193.755126,122.990275 194.213992,122.921785 194.639301,122.645638 L200.166126,119.062284 L199.850975,118.575565 L200.167585,119.061555 C201.024039,118.503432 201.630998,117.6014 201.877575,116.566031 C202.124151,115.53139 201.995756,114.428259 201.515004,113.492711 C201.515004,113.492711 201.515004,113.491983 201.515004,113.492711 L200.587058,111.68719 L200.016575,110.576045 L197.160514,105.021045 C197.143735,104.987528 197.123308,104.956926 197.100693,104.927781 C196.858494,104.550356 196.492276,104.266923 196.056024,104.151801 C195.591322,104.028664 195.106192,104.111727 194.704228,104.371844 C194.314666,104.624675 194.038908,105.020316 193.912702,105.467689 C193.651534,105.070591 193.263431,104.774042 192.803105,104.650177 C192.301927,104.516111 191.776674,104.604274 191.341152,104.88625 C190.909278,105.166769 190.605798,105.610498 190.474485,106.112518 C190.473026,106.116889 190.472297,106.12199 190.470838,106.12709 C190.464272,106.117618 190.457706,106.108146 190.450411,106.099403 C190.189244,105.68336 189.790927,105.37224 189.316741,105.244731 C188.815562,105.109936 188.29031,105.198828 187.854788,105.480804 C187.422913,105.760594 187.119434,106.204324 186.988121,106.706343 C186.987391,106.709258 186.986662,106.712901 186.985932,106.715815 L185.592554,104.00462 C185.575775,103.973289 185.556807,103.943416 185.534922,103.914999 L185.534922,103.914999 Z M184.10142,104.181674 C183.926336,104.134314 183.73812,104.162002 183.571061,104.270566 C183.401083,104.380588 183.259557,104.571486 183.195359,104.817031 C183.131161,105.062576 183.154506,105.326337 183.257368,105.548566 C183.262475,105.560952 183.268311,105.574067 183.272688,105.586454 L189.238683,117.191916 L189.239412,117.192644 C189.290478,117.292465 189.322577,117.398844 189.335708,117.508137 C189.34884,117.616701 189.342274,117.72818 189.316741,117.835287 C189.291208,117.942394 189.246707,118.046587 189.18251,118.139851 C189.118312,118.233843 189.035147,118.316905 188.935933,118.381752 C188.835989,118.4466 188.722184,118.491045 188.600355,118.509261 C188.478525,118.527476 188.355237,118.518004 188.237784,118.483759 C188.121062,118.448785 188.015282,118.389767 187.92628,118.313262 C187.837279,118.237486 187.766516,118.14568 187.71472,118.045859 L187.713991,118.044401 L186.42931,115.543777 C186.349793,115.388581 186.246201,115.257429 186.126561,115.154694 C186.007649,115.051958 185.875607,114.979825 185.738457,114.938294 C185.602037,114.897491 185.461241,114.88729 185.322632,114.907692 C185.184024,114.928093 185.046875,114.979096 184.919939,115.06143 L184.674091,115.22027 C184.673362,115.220998 184.671173,115.223184 184.668255,115.226827 C184.663878,115.233385 184.658771,115.244314 184.655124,115.258886 C184.647099,115.291674 184.652935,115.324462 184.663878,115.345592 L186.923194,119.741358 C187.097548,120.013133 187.344125,120.190188 187.605293,120.259407 L187.614776,120.262321 L193.097101,121.819382 C193.109503,121.822297 193.130659,121.825211 193.15911,121.828854 C193.217471,121.836141 193.301366,121.842698 193.399851,121.839784 C193.604116,121.834683 193.826619,121.790966 194.008998,121.67293 L199.534364,118.090304 C199.534364,118.089576 199.534364,118.090304 199.534364,118.090304 C200.121626,117.70705 200.565902,117.06805 200.74974,116.29717 C200.933579,115.52629 200.835823,114.706592 200.483466,114.022418 L199.55625,112.216897 L198.985037,111.105752 L196.159616,105.60977 C196.15378,105.600298 196.147943,105.590826 196.142107,105.581354 C196.042893,105.412314 195.900637,105.309578 195.759111,105.272419 C195.619773,105.235259 195.469492,105.257118 195.335261,105.344552 C195.197382,105.434172 195.0792,105.590826 195.025216,105.795568 C194.970502,106.001039 194.98947,106.221811 195.074094,106.407609 C195.085036,106.431653 195.093791,106.455698 195.101086,106.479742 C195.167472,106.654611 195.179144,106.84551 195.136103,107.025479 C195.085036,107.240422 194.955912,107.442249 194.754565,107.572672 C194.5503,107.705281 194.297157,107.745355 194.057146,107.673951 C193.820053,107.603275 193.637674,107.437149 193.534082,107.236779 L193.532623,107.234593 L192.99205,106.182465 C192.985485,106.172265 192.978919,106.162064 192.973083,106.151135 C192.854172,105.945664 192.680546,105.818155 192.502544,105.770066 C192.32746,105.723435 192.139244,105.751122 191.972185,105.859687 C191.802207,105.969708 191.660681,106.160607 191.596483,106.406152 C191.532286,106.651697 191.55563,106.915457 191.657763,107.137686 C191.663599,107.150073 191.668706,107.163188 191.673812,107.175575 L192.071399,107.94864 C192.071399,107.949369 192.071399,107.949369 192.072129,107.950098 C192.123195,108.04919 192.155294,108.156297 192.168425,108.264862 C192.180827,108.374155 192.174991,108.484905 192.149458,108.592012 C192.123925,108.699848 192.078694,108.803312 192.014497,108.897304 C191.950299,108.991296 191.867134,109.074359 191.76792,109.139206 C191.667976,109.204053 191.554171,109.24777 191.432342,109.265986 C191.310512,109.284201 191.187224,109.275458 191.069772,109.240484 C190.953049,109.20551 190.847998,109.146492 190.758268,109.069987 C190.669267,108.99421 190.598503,108.902404 190.546708,108.802583 L190.545978,108.801126 L189.505686,106.776291 C189.49912,106.76609 189.492555,106.755889 189.486719,106.745689 C189.367807,106.540218 189.194182,106.411981 189.01618,106.36462 C188.841095,106.31726 188.65288,106.344948 188.48582,106.453512 C188.315843,106.563534 188.174316,106.754432 188.110119,106.999977 C188.045921,107.245522 188.069266,107.509283 188.171398,107.73224 C188.177234,107.744627 188.183071,107.757013 188.187448,107.7694 L189.084025,109.515174 C189.084754,109.515174 189.084754,109.515902 189.084754,109.515902 C189.187616,109.715544 189.213149,109.944331 189.162813,110.158545 C189.111746,110.37276 188.981892,110.574588 188.781275,110.705011 C188.57701,110.837619 188.323868,110.878422 188.083856,110.807017 C187.846034,110.736341 187.664384,110.569487 187.560063,110.369117 L187.559333,110.367659 L184.591656,104.594073 C184.58436,104.583873 184.577795,104.572943 184.571959,104.562014 C184.453047,104.357272 184.279422,104.229035 184.10142,104.181674 L184.10142,104.181674 Z" id="Fill-80" fill="#3F3F3F" mask="url(#mask-4)"></path>
                        </g>
                        <g id="AutoPassword" transform="translate(34.000000, 20.000000)">
                            <g id="Group-3" transform="translate(133.000000, 0.000000)">
                                <mask id="mask-6" fill="white">
                                    <use xlink:href="#path-5"></use>
                                </mask>
                                <g id="Clip-2"></g>
                                <path d="M7.61669218,14.5135787 L7.61865505,14.5030003 C7.61983276,14.4971234 7.63828367,14.4042685 7.67243748,14.2361893 L8.50429867,8.63041551 C7.72229419,8.22843592 7.18682527,7.41468193 7.18682527,6.47594597 C7.18682527,5.13797299 8.2738586,4.05309826 9.61449378,4.05309826 C9.65296589,4.05309826 9.69183057,4.05427364 9.73030267,4.0562326 C9.80410631,2.49572121 9.16146508,1.36657387 7.78118007,0.622559027 C7.18368469,0.300505207 6.49589762,0.109310238 5.80143682,0 L1.20676795,0 C0.540572371,0 0,0.539498917 0,1.20437158 L0,17.7956284 C0,18.4608929 0.540572371,19 1.20676795,19 L10,19 C9.80606917,18.9239922 9.62430809,18.8350552 9.45589448,18.7324054 C7.15856004,17.3329209 7.59667098,14.6279823 7.61669218,14.5135787" id="Fill-1" fill="#E4E4E4" mask="url(#mask-6)"></path>
                            </g>
                            <g id="Group-6" transform="translate(140.000000, 0.000000)">
                                <mask id="mask-8" fill="white">
                                    <use xlink:href="#path-7"></use>
                                </mask>
                                <g id="Clip-5"></g>
                                <path d="M2.43462437,4.34402837 C3.41385643,4.71474238 4.10444073,5.60574264 4.10444073,6.64631515 C4.10444073,7.61330777 3.50761269,8.45123401 2.63689482,8.86215561 L3.59529215,14.8567057 C3.63652755,15.0955388 3.43729549,15.3122577 3.17555927,15.3122577 L0.0659766277,15.3122577 C0.0225709516,15.9632186 0.0924540902,17.5972552 1.71278798,18.5131842 C2.7475793,19.0982047 4.38353923,19.1589182 6.70357262,18.6792416 C10.4108514,17.1710547 13,13.7405429 13,9.7495372 C13,4.36493632 8.2878798,0 2.47542571,0 L0,0 C1.28784641,0.696395514 2.60217028,1.98906964 2.43462437,4.34402837" id="Fill-4" fill="#CCCCCC" mask="url(#mask-8)"></path>
                            </g>
                            <g id="Group-9" transform="translate(0.000000, 4.000000)">
                                <mask id="mask-10" fill="white">
                                    <use xlink:href="#path-9"></use>
                                </mask>
                                <g id="Clip-8"></g>
                                <path d="M7.43832941,7.306065 L5.98632941,2.589015 C5.95074118,2.481115 5.89962353,2.312765 5.83427059,2.084615 C5.76827059,1.856465 5.7178,1.688115 5.68156471,1.580215 L5.19821176,1.580215 L4.91091765,2.589015 L3.45956471,7.306065 L7.43832941,7.306065 Z M7.90421176,8.872565 L2.97556471,8.872565 L1.82832941,12.617865 L-0.000258823529,12.617865 L3.87109412,0.679965 C3.96685882,0.356265 4.18815294,0.194415 4.53432941,0.194415 L6.36291765,0.194415 C6.72138824,0.194415 6.93621176,0.356265 7.00803529,0.679965 L10.8975059,12.617865 L9.05144706,12.617865 L7.90421176,8.872565 Z" id="Fill-7" fill="#FFFFFF" mask="url(#mask-10)"></path>
                            </g>
                            <path d="M20,8 L20,16.766537 L18.5504587,16.766537 L18.4186205,15.5629053 C17.075773,16.5214008 15.7703024,17 14.5035678,17 C12.833843,17 12,16.1919585 12,14.575227 L12,8 L13.8260279,8 L13.8260279,14.0719844 C13.8131159,14.6108949 13.9068977,14.9850843 14.108053,15.1945525 C14.3085287,15.4040208 14.6537547,15.5090791 15.1437309,15.5090791 C15.8586476,15.5090791 16.8752973,15.1199741 18.1930003,14.3411154 L18.1930003,8 L20,8 Z" id="Fill-10" fill="#FFFFFF"></path>
                            <path d="M27.7144085,15.4873371 L27.9110347,16.7766371 C27.3630601,16.9249253 26.6790588,17 25.8570968,17 C25.1189427,17 24.5567852,16.7964916 24.1693349,16.3900953 C23.7825293,15.9830786 23.5891265,15.4017147 23.5891265,14.6453833 L23.5891265,9.74691184 L22,9.74691184 L22,8.5438547 L23.5891265,8.47498449 L23.5891265,6 L25.3033201,6 L25.3033201,8.45761182 L28,8.45761182 L28,9.74691184 L25.3033201,9.74691184 L25.3033201,14.4220204 C25.3033201,14.8116645 25.3897067,15.0865249 25.5624799,15.2466016 C25.735253,15.4072988 26.02987,15.4873371 26.4463307,15.4873371 L27.7144085,15.4873371 Z" id="Fill-12" fill="#FFFFFF"></path>
                            <path d="M35.7851112,10.0834387 C35.4647145,9.6517067 34.8691611,9.43552465 33.9996901,9.43552465 C33.1302192,9.43552465 32.5346657,9.6517067 32.2142691,10.0834387 C31.8938725,10.5151707 31.733984,11.3268015 31.733984,12.517067 C31.733984,13.6965866 31.8938725,14.5018963 32.2142691,14.9336283 C32.5346657,15.3653603 33.1302192,15.5815424 33.9996901,15.5815424 C34.8691611,15.5815424 35.4647145,15.3653603 35.7851112,14.9336283 C36.1055078,14.5018963 36.266016,13.6965866 36.266016,12.517067 C36.266016,11.3268015 36.1055078,10.5151707 35.7851112,10.0834387 M30.9097529,9.03286979 C31.5164614,8.34450063 32.5464405,8 33.9996901,8 C35.4529398,8 36.4829189,8.34450063 37.0896274,9.03286979 C37.6963359,9.72187105 38,10.8830594 38,12.517067 C38,14.1517067 37.6963359,15.3072061 37.0896274,15.9841972 C36.4829189,16.6611884 35.4529398,17 33.9996901,17 C32.5464405,17 31.5164614,16.6611884 30.9097529,15.9841972 C30.3030444,15.3072061 30,14.1517067 30,12.517067 C30,10.8830594 30.3030444,9.72187105 30.9097529,9.03286979" id="Fill-14" fill="#FFFFFF"></path>
                            <path d="M42.7167648,11.0257192 L45.0861481,11.0257192 C45.921599,11.0139441 46.4936474,10.8540515 46.8029129,10.5448019 C47.1115587,10.2361721 47.2665014,9.63502556 47.2665014,8.74198213 C47.2665014,7.84955844 47.1115587,7.24903166 46.8029129,6.93978206 C46.4936474,6.6311522 45.921599,6.47621753 45.0861481,6.47621753 C43.9414317,6.47621753 43.1518438,6.48179518 42.7167648,6.49357021 L42.7167648,11.0257192 Z M41,17 L41,5.15431493 C41.97304,5.05143831 43.3464518,5 45.1202355,5 C46.5971491,5 47.6129532,5.26338894 48.167648,5.78954707 C48.7229625,6.31632495 49,7.30046997 49,8.74198213 C49,10.1958891 48.7341184,11.1862315 48.2023551,11.7123896 C47.6699721,12.2391675 46.7111869,12.5019367 45.3266192,12.5019367 C44.4682368,12.5019367 43.5980787,12.4504984 42.7167648,12.3476218 L42.7167648,17 L41,17 Z" id="Fill-16" fill="#FFFFFF"></path>
                            <path d="M52.8190955,13.8942451 L52.8190955,14.3529412 C52.8190955,14.776598 52.9236181,15.0823954 53.1346734,15.2709705 C53.3450586,15.4589085 53.678727,15.553196 54.1370184,15.553196 C55.2130653,15.553196 56.2341709,15.1531111 57.198995,14.3529412 L57.198995,12.8003822 L53.8951424,12.8003822 C53.4998325,12.8118496 53.2211055,12.9093226 53.0596315,13.0915269 C52.8988275,13.2737312 52.8190955,13.5413039 52.8190955,13.8942451 M51.5567839,9.65895094 L51.3899497,8.40581865 C53.0234506,8.13506052 54.4887772,8 55.7886097,8 C56.8894472,8 57.7001675,8.21214695 58.2201005,8.6351667 C58.7393635,9.05882353 59,9.79401147 59,10.8413676 L59,16.8413676 L57.5889447,16.8413676 L57.3845896,15.4824804 C56.3453936,16.4947972 55.1393635,17 53.7651591,17 C52.9236181,17 52.2522613,16.7884901 51.7510888,16.3648333 C51.2505863,15.9411765 51,15.3410491 51,14.5650881 L51,13.664897 C51,12.9825865 51.2224456,12.4531748 51.6680067,12.0766617 C52.1135678,11.7001487 52.7447236,11.5115736 53.560804,11.5115736 L57.198995,11.5115736 L57.198995,10.8413676 C57.1869347,10.3119558 57.0562814,9.94754725 56.8090452,9.7468677 C56.561809,9.54746231 56.0921273,9.44744107 55.39866,9.44744107 C54.7179229,9.44744107 53.4375209,9.51751964 51.5567839,9.65895094" id="Fill-18" fill="#FFFFFF"></path>
                            <path d="M65.1667537,13.432084 L62.8723904,12.8343645 C62.1867606,12.6471805 61.7032881,12.3686255 61.4225818,11.9993338 C61.1412665,11.6306766 61,11.0938712 61,10.3914556 C61,9.44221097 61.2453897,8.80388205 61.7337335,8.47519976 C62.2232951,8.147152 63.0635873,7.98915607 64.2558281,8.00057746 C65.5716771,8.02468929 66.7407794,8.12367469 67.7643528,8.29943722 L67.6291754,9.52977497 C65.9090118,9.47139897 64.8689979,9.44221097 64.5085247,9.44221097 C63.710247,9.44221097 63.1902401,9.49233819 62.9478949,9.59132359 C62.7067676,9.69094351 62.5862039,9.95744266 62.5862039,10.3914556 C62.5862039,10.5906954 62.6032533,10.7512294 62.6367432,10.8743266 C62.6696242,10.9974239 62.7573069,11.1002164 62.8979645,11.1820697 C63.0386221,11.263923 63.1482255,11.3197609 63.2267745,11.3489489 C63.3053236,11.3787715 63.4794711,11.4346094 63.749826,11.5158282 L66.0770703,12.1135477 C66.7748782,12.3013661 67.2687022,12.5678653 67.5615866,12.9136797 C67.8538622,13.2594941 68,13.7950304 68,14.5215579 C68,15.529813 67.7332985,16.1947918 67.1992867,16.5164944 C66.664666,16.8388315 65.7397356,17 64.4238866,17 C63.2773138,17 62.1867606,16.9181467 61.1522269,16.7538055 L61.2703549,15.4885691 C61.8999652,15.5469451 62.8389005,15.5761331 64.0877697,15.5761331 C65.0090466,15.5761331 65.6276966,15.5088738 65.9425017,15.3743552 C66.2573069,15.2398366 66.4150139,14.9555708 66.4150139,14.5215579 C66.4150139,14.334374 66.3924843,14.1789161 66.3468163,14.0558189 C66.3017571,13.9333562 66.2067676,13.8305637 66.0606298,13.7487104 C65.914492,13.666857 65.7987996,13.6110191 65.7141614,13.5811966 C65.6307411,13.5520086 65.4480689,13.5025159 65.1667537,13.432084" id="Fill-20" fill="#FFFFFF"></path>
                            <path d="M74.1661447,13.432084 L71.8717815,12.8343645 C71.1861517,12.6471805 70.7032881,12.3686255 70.4219729,11.9993338 C70.1406576,11.6306766 70,11.0938712 70,10.3914556 C70,9.44221097 70.2453897,8.80388205 70.7337335,8.47519976 C71.2226862,8.147152 72.0635873,7.98915607 73.2552192,8.00057746 C74.5710682,8.02468929 75.7407794,8.12367469 76.7637439,8.29943722 L76.6291754,9.52977497 C74.9084029,9.47139897 73.868389,9.44221097 73.5085247,9.44221097 C72.7096381,9.44221097 72.1896312,9.49233819 71.9478949,9.59132359 C71.7067676,9.69094351 71.585595,9.95744266 71.585595,10.3914556 C71.585595,10.5906954 71.6026444,10.7512294 71.6367432,10.8743266 C71.6696242,10.9974239 71.756698,11.1002164 71.8973556,11.1820697 C72.0386221,11.263923 72.1482255,11.3197609 72.2261656,11.3489489 C72.3047147,11.3787715 72.4794711,11.4346094 72.749826,11.5158282 L75.0770703,12.1135477 C75.7742693,12.3013661 76.2687022,12.5678653 76.5615866,12.9136797 C76.8538622,13.2594941 77,13.7950304 77,14.5215579 C77,15.529813 76.7326896,16.1947918 76.1986778,16.5164944 C75.664666,16.8388315 74.7391267,17 73.4238866,17 C72.2773138,17 71.1861517,16.9181467 70.1522269,16.7538055 L70.2703549,15.4885691 C70.8993563,15.5469451 71.8389005,15.5761331 73.0871608,15.5761331 C74.0090466,15.5761331 74.6276966,15.5088738 74.9418928,15.3743552 C75.256698,15.2398366 75.4150139,14.9555708 75.4150139,14.5215579 C75.4150139,14.334374 75.3918754,14.1789161 75.3468163,14.0558189 C75.3017571,13.9333562 75.2061587,13.8305637 75.0606298,13.7487104 C74.914492,13.666857 74.7987996,13.6110191 74.7141614,13.5811966 C74.6301322,13.5520086 74.44746,13.5025159 74.1661447,13.432084" id="Fill-22" fill="#FFFFFF"></path>
                            <path d="M94,8 L91.5410747,16.5019973 C91.4451798,16.834221 91.2235849,17 90.876938,17 L89.315407,17 C88.9564493,17 88.7342065,16.8095872 88.6506225,16.4280959 L87.3761281,10.5086551 C87.3521544,10.39747 87.3255889,10.247004 87.2957838,10.0565912 C87.2659786,9.86617843 87.2361735,9.69107856 87.2063683,9.53062583 C87.1765632,9.37150466 87.1435183,9.21770972 87.1072338,9.06990679 L86.8914704,9.06990679 L86.6050817,10.5086551 L85.3487296,16.4280959 C85.2651456,16.8095872 85.0377193,17 84.6670986,17 L83.123062,17 C82.7634563,17 82.5483408,16.834221 82.4770676,16.5019973 L80,8 L81.7947887,8 L83.4826677,14.4920107 C83.6252141,15.1065246 83.7152775,15.5679095 83.751562,15.8748336 L83.9848197,15.8748336 L84.2899986,14.4920107 L85.5819873,8.55326232 C85.6655713,8.18442077 85.8806868,8 86.2279817,8 L87.7895127,8 C88.1361596,8 88.351923,8.19107856 88.435507,8.57190413 L89.7100014,14.4920107 C89.7339751,14.6151798 89.8350535,15.0758988 90.0151803,15.8748336 L90.248438,15.8748336 C90.332022,15.3215712 90.4220854,14.8608522 90.5173323,14.4920107 L92.2045633,8 L94,8 Z" id="Fill-24" fill="#FFFFFF"></path>
                            <path d="M100.785559,10.0834387 C100.465138,9.6517067 99.8695383,9.43552465 99,9.43552465 C98.1304617,9.43552465 97.5348621,9.6517067 97.2144407,10.0834387 C96.894639,10.5151707 96.7341184,11.3268015 96.7341184,12.517067 C96.7341184,13.6965866 96.894639,14.5018963 97.2144407,14.9336283 C97.5348621,15.3653603 98.1304617,15.5815424 99,15.5815424 C99.8695383,15.5815424 100.465138,15.3653603 100.785559,14.9336283 C101.105981,14.5018963 101.266501,13.6965866 101.266501,12.517067 C101.266501,11.3268015 101.105981,10.5151707 100.785559,10.0834387 M95.9104431,9.03286979 C96.5165789,8.34450063 97.5466377,8 99,8 C100.453362,8 101.483421,8.34450063 102.090177,9.03286979 C102.696932,9.72187105 103,10.8830594 103,12.517067 C103,14.1517067 102.696932,15.3072061 102.090177,15.9841972 C101.483421,16.6611884 100.453362,17 99,17 C97.5466377,17 96.5165789,16.6611884 95.9104431,15.9841972 C95.3030679,15.3072061 95,14.1517067 95,12.517067 C95,10.8830594 95.3030679,9.72187105 95.9104431,9.03286979" id="Fill-26" fill="#FFFFFF"></path>
                            <path d="M111,8 L110.788952,9.63488975 L110.213931,9.63488975 C109.485988,9.63488975 108.367086,9.97016861 106.859993,10.6407263 L106.859993,17 L105,17 L105,8.23346304 L106.437896,8.23346304 L106.630262,9.56290532 C108.021797,8.52075227 109.332372,8 110.558528,8 L111,8 Z" id="Fill-28" fill="#FFFFFF"></path>
                            <path d="M118.264437,14.3524133 L118.264437,9.60560738 C117.177611,9.31296897 116.342137,9.16730886 115.758016,9.16730886 C115.018819,9.16730886 114.505129,9.37756033 114.218238,9.79674508 C113.932639,10.217248 113.789193,11.0417765 113.789193,12.2709897 C113.789193,13.5008619 113.929408,14.3405496 114.209838,14.7907118 C114.489621,15.2408741 114.970358,15.4656256 115.650755,15.4656256 C116.092723,15.4656256 116.482998,15.3871933 116.82352,15.2290103 C117.163396,15.0708274 117.643486,14.778189 118.264437,14.3524133 L118.264437,14.3524133 Z M118.639851,16.7805212 L118.496406,15.5572399 C117.374687,16.5188603 116.229707,17 115.060173,17 C113.986269,17 113.207657,16.6071791 112.724336,15.8221963 C112.241014,15.0372135 112,13.8594099 112,12.2894443 C112,10.5856824 112.268153,9.38349219 112.805105,8.68353275 C113.342056,7.98357331 114.183345,7.63359359 115.328972,7.63359359 C116.426137,7.63359359 117.428964,7.90118637 118.334868,8.43703103 C118.287699,7.91370919 118.264437,7.32975056 118.264437,6.68449605 L118.264437,4 L120,4 L120,16.7805212 L118.639851,16.7805212 Z" id="Fill-30" fill="#FFFFFF"></path>
                            <polygon id="Fill-32" fill="#FFFFFF" points="123.240708 1.42585302 122 1.42585302 122 1 125 1 125 1.42585302 123.759964 1.42585302 123.759964 5 123.240708 5"></polygon>
                            <path d="M126,1 L126.54942,1 L127.240322,3.13910761 C127.323443,3.41732283 127.407153,3.69553806 127.494989,3.97375328 L127.519748,3.97375328 C127.602869,3.69553806 127.681273,3.41732283 127.764394,3.13910761 L128.451169,1 L129,1 L129,5 L128.573197,5 L128.573197,2.78412073 C128.573197,2.44028871 128.607978,1.95538058 128.632148,1.60564304 L128.612694,1.60564304 L128.327962,2.51706037 L127.647082,4.59580052 L127.342896,4.59580052 L126.661427,2.51706037 L126.377874,1.60564304 L126.357241,1.60564304 C126.377874,1.95538058 126.411476,2.44028871 126.411476,2.78412073 L126.411476,5 L126,5 L126,1 Z" id="Fill-34" fill="#FFFFFF"></path>
                        </g>
                        <g id="Logo_wh" transform="translate(34.000000, 0.000000)" fill="#FFFFFF">
                            <path d="M8.58060758,14 L4.3723975,14 C2.70401159,14 1.49379405,13.6016974 0.774398287,12.8163119 C0.0499004314,12.0253165 -0.167448925,10.8472382 0.127452315,9.31573648 L1.72747011,1 L4.39178547,1 L2.78870641,9.33163119 C2.610133,10.2553941 2.70299117,10.9220368 3.06421968,11.3156646 C3.37340679,11.6541283 3.90402494,11.8186853 4.68464587,11.8186853 L9,11.8186853 L8.58060758,14 Z" id="Fill-1"></path>
                            <path d="M13.1925651,3.17181303 C12.7710318,3.17181303 12.3982473,3.00028329 12.1459008,2.68696884 C11.8925985,2.37464589 11.7941451,1.96515581 11.8667903,1.53385269 C12.0111249,0.688101983 12.8025752,0 13.630348,0 C14.0652633,0 14.4447389,0.173512748 14.6999529,0.4898017 C14.9513435,0.800141643 15.0497969,1.20864023 14.9761959,1.63796034 C14.8299496,2.49759207 14.047102,3.17181303 13.1925651,3.17181303 L13.1925651,3.17181303 Z M12.4967006,14 L10,14 L11.6937801,4.03838527 L14.1904807,4.03838527 L12.4967006,14 Z" id="Fill-3"></path>
                            <path d="M18.8185118,14 L16.4682396,14 L17.7168784,6.70619965 L16,6.70619965 L16.3557169,4.62679804 L18.0725953,4.62679804 L18.1887477,3.94613061 C18.4219601,2.58666571 19.4809437,1 21.6969147,1 L23,1 L22.5852995,3.42441024 L21.3784029,3.42441024 C21.0072595,3.42441024 20.6079855,3.54408803 20.4564428,4.4285817 L20.4228675,4.62679804 L22.3793103,4.62679804 L22.0235935,6.70619965 L20.0662432,6.70619965 L18.8185118,14 Z" id="Fill-5"></path>
                            <path d="M25.9383863,7.86100746 L29.4819584,7.86100746 C29.575364,7.18376866 29.4946071,6.69496269 29.2416338,6.40578358 C29.0227146,6.15578358 28.6617412,6.03451493 28.1363351,6.03451493 C26.9921174,6.03451493 26.2536299,6.6483209 25.9383863,7.86100746 M27.0144958,14 C25.6387102,14 24.5363304,13.5746269 23.8260592,12.7686567 C23.1080042,11.9552239 22.851139,10.8283582 23.0827069,9.50932836 L23.0827069,9.50652985 L23.2617342,8.53731343 C23.7997889,5.61100746 25.6348183,4 28.4292003,4 C29.761202,4 30.7332033,4.36100746 31.3189338,5.07276119 C32.0982862,6.01958955 32.2072593,7.56063433 31.6536369,9.78171642 L31.5991504,9.99626866 L25.5462777,10.016791 C25.5258452,10.4589552 25.6766562,10.9011194 25.9685485,11.2350746 C26.211792,11.5130597 26.6593602,11.8442164 27.4153612,11.8442164 C28.2433622,11.8442164 29.687256,11.4113806 30.5755815,10.7136194 L31.1846633,10.2350746 L30.6991492,12.875 L30.5960139,12.9412313 C29.5675802,13.6044776 28.2287676,14 27.0144958,14" id="Fill-7"></path>
                            <path d="M39.1925651,3.17181303 C38.7710318,3.17181303 38.3982473,3.00028329 38.1459008,2.68696884 C37.8925985,2.37464589 37.7941451,1.96515581 37.8667903,1.53385269 C38.0111249,0.688101983 38.8025752,0 39.630348,0 C40.0652633,0 40.4447389,0.173512748 40.6999529,0.4898017 C40.9513435,0.800141643 41.0497969,1.20864023 40.9761959,1.63796034 C40.8299496,2.49759207 40.047102,3.17181303 39.1925651,3.17181303 L39.1925651,3.17181303 Z M38.4967006,14 L36,14 L37.6937801,4.03838527 L40.1904807,4.03838527 L38.4967006,14 Z" id="Fill-9"></path>
                            <path d="M49.8860164,14 L47.2659379,14 L48.2121057,8.9296182 C48.3846002,8.0079059 48.5805702,6.96182029 48.1467824,6.47300424 C47.9385642,6.23871963 47.5823478,6.12398766 47.0577197,6.12398766 C45.7155291,6.12398766 44.909194,7.09679907 44.5192953,9.1860779 L43.6200786,14 L41,14 L42.2799293,7.14211338 C42.3452527,6.7930968 42.3207564,6.53085229 42.2156266,6.44022368 C42.1411172,6.37562669 41.9737261,6.37177015 41.7583632,6.42768993 L41.290893,6.54917084 L41.6818124,4.45217894 L41.8185832,4.38661782 C42.5289746,4.04820671 43.2781517,4.00192827 43.8732066,4.26128037 C44.2294229,4.41650598 44.5101092,4.67200154 44.6948518,4.99980717 C45.5175177,4.27670652 46.3524317,4 47.6150095,4 C48.8245121,4 49.7227081,4.31912842 50.2820392,4.94967219 C51.0118235,5.7701504 51.1792146,7.06980332 50.8117707,9.0395295 L49.8860164,14 Z" id="Fill-11"></path>
                        </g>
                    </g>
                </g>
            </g>
        </g>
    </g>
</svg>