<?xml version="1.0" encoding="UTF-8"?>
<svg width="164px" height="185px" viewBox="0 0 164 185" version="1.1" xmlns="http://www.w3.org/2000/svg" xmlns:xlink="http://www.w3.org/1999/xlink">
    <title>aps-step-img02</title>
    <defs>
        <polygon id="path-1" points="0 0.0002 164 0.0002 164 185 0 185"></polygon>
        <polygon id="path-3" points="0 0.0001 164 0.0001 164 185 0 185"></polygon>
        <polygon id="path-5" points="7 7.0001 157 7.0001 157 185 7 185"></polygon>
        <path d="M15.1731538,0.349333333 L14.1623077,4.988 L14.1296154,4.988 L12.9906154,0.349333333 L11.356,0.349333333 L10.2052308,4.988 L10.1633846,4.988 L9.21661538,0.349333333 L7.18446154,0.349333333 L8.90538462,7.71733333 L10.948,7.71733333 L12.0660769,3.17733333 L12.0974615,3.17733333 L13.1736923,7.71733333 L15.2045385,7.71733333 L16.9372308,0.349333333 L15.1731538,0.349333333 Z M0.808153846,0.349333333 L0.808153846,7.71733333 L2.82984615,7.71733333 L2.82984615,5.272 L3.86161538,5.272 C5.67930769,5.272 6.66923077,4.41733333 6.66923077,2.75066667 L6.66923077,2.75066667 C6.66923077,1.20533333 5.73292308,0.349333333 3.80930769,0.349333333 L3.80930769,0.349333333 L0.808153846,0.349333333 Z M2.82984615,1.764 L3.61446154,1.764 C4.26961538,1.764 4.57169231,2.03733333 4.57169231,2.86 L4.57169231,2.86 C4.57169231,3.59466667 4.31407692,3.94533333 3.57261538,3.94533333 L3.57261538,3.94533333 L2.82984615,3.94533333 L2.82984615,1.764 Z" id="path-7"></path>
    </defs>
    <g id="(B-1)인증_오토패스워드_가이드img" stroke="none" stroke-width="1" fill="none" fill-rule="evenodd">
        <g id="오토패스워드_가맹점가이드" transform="translate(-398.000000, -222.000000)">
            <g id="step2" transform="translate(350.000000, 130.000000)">
                <g id="step_img" transform="translate(0.000000, 37.000000)">
                    <g id="aps-step-img02" transform="translate(48.000000, 55.000000)">
                        <g id="Group-13">
                            <mask id="mask-2" fill="white">
                                <use xlink:href="#path-1"></use>
                            </mask>
                            <g id="Clip-5"></g>
                            <path d="M0,20.0002 C0,8.9502 8.954,0.0002 20,0.0002 L144,0.0002 C155.046,0.0002 164,8.9502 164,20.0002 L164,185.0002 L0,185.0002 L0,20.0002 Z" id="Fill-4" fill="#23A685" mask="url(#mask-2)"></path>
                            <mask id="mask-4" fill="white">
                                <use xlink:href="#path-3"></use>
                            </mask>
                            <g id="Clip-8"></g>
                            <path d="M0,19.7301 C0,8.8301 8.888,0.0001 19.853,0.0001 L144.147,0.0001 C155.112,0.0001 164,8.8301 164,19.7301 L164,185.0001 L144.147,185.0001 L19.853,185.0001 L0,185.0001 L0,19.7301 Z" id="Fill-7" fill="#323232" mask="url(#mask-4)"></path>
                            <mask id="mask-6" fill="white">
                                <use xlink:href="#path-5"></use>
                            </mask>
                            <g id="Clip-11"></g>
                            <path d="M7,24.1901 C7,14.7001 14.719,7.0001 24.241,7.0001 L139.759,7.0001 C149.281,7.0001 157,14.7001 157,24.1901 L157,185.0001 L139.759,185.0001 L24.241,185.0001 L7,185.0001 L7,24.1901 Z" id="Fill-10" fill="#FFFFFF" mask="url(#mask-6)"></path>
                        </g>
                        <g id="Logo" transform="translate(17.000000, 17.000000)" fill="#23A685">
                            <path d="M4.76700421,8 L2.42910972,8 C1.50222866,8 0.829885581,7.75489068 0.430221271,7.27157652 C0.0277224619,6.78481013 -0.0930271807,6.0598389 0.0708068414,5.11737629 L0.959705619,0 L2.43988082,0 L1.54928134,5.12715765 C1.45007389,5.69562716 1.50166176,6.10586881 1.70234427,6.34810127 C1.87411488,6.55638665 2.16890274,6.65765247 2.60258104,6.65765247 L5,6.65765247 L4.76700421,8 Z" id="Fill-1"></path>
                            <path d="M7.91553909,2.03902266 C7.66261911,2.03902266 7.43894837,1.92875354 7.28754049,1.72733711 C7.1355591,1.52655807 7.07648709,1.26331445 7.1200742,0.986048159 C7.20667492,0.442351275 7.68154509,0 8.17820882,0 C8.439158,0 8.66684334,0.111543909 8.81997176,0.314872521 C8.97080613,0.514376771 9.02987814,0.776983003 8.98571751,1.0529745 C8.89796976,1.6055949 8.42826123,2.03902266 7.91553909,2.03902266 L7.91553909,2.03902266 Z M7.49802039,9 L6,9 L7.01626804,2.59610482 L8.51428843,2.59610482 L7.49802039,9 Z" id="Fill-3"></path>
                            <path d="M11.0132227,8 L9.33445683,8 L10.2263417,3.51150748 L9,3.51150748 L9.25408348,2.23187572 L10.4804252,2.23187572 L10.5633912,1.81300345 C10.7299715,0.976409666 11.4863884,0 13.0692248,0 L14,0 L13.7037853,1.49194476 L12.8417164,1.49194476 C12.5766139,1.49194476 12.2914182,1.56559264 12.1831735,2.10989643 L12.1591911,2.23187572 L13.5566502,2.23187572 L13.3025668,3.51150748 L11.9044594,3.51150748 L11.0132227,8 Z" id="Fill-5"></path>
                            <path d="M14.9589242,4.70270522 L17.3213056,4.70270522 C17.383576,4.22863806 17.3297381,3.88647388 17.1610892,3.68404851 C17.0151431,3.50904851 16.7744941,3.42416045 16.4242234,3.42416045 C15.6614116,3.42416045 15.1690866,3.85382463 14.9589242,4.70270522 M15.6763305,9 C14.7591401,9 14.0242203,8.70223881 13.5507062,8.1380597 C13.0720028,7.56865672 12.9007594,6.77985075 13.0551379,5.85652985 L13.0551379,5.8545709 L13.1744894,5.1761194 C13.5331926,3.12770522 14.7565456,2 16.6194669,2 C17.507468,2 18.1554689,2.25270522 18.5459559,2.75093284 C19.0655241,3.41371269 19.1381728,4.49244403 18.7690913,6.04720149 L18.7327669,6.19738806 L14.6975184,6.21175373 C14.6838968,6.52126866 14.7844375,6.83078358 14.9790323,7.06455224 C15.1411947,7.25914179 15.4395735,7.49095149 15.9435741,7.49095149 C16.4955748,7.49095149 17.4581707,7.18796642 18.0503877,6.69953358 L18.4564422,6.36455224 L18.1327661,8.2125 L18.0640093,8.25886194 C17.3783868,8.72313433 16.4858451,9 15.6763305,9" id="Fill-7"></path>
                            <path d="M22.9155391,2.03902266 C22.6626191,2.03902266 22.4389484,1.92875354 22.2875405,1.72733711 C22.1355591,1.52655807 22.0764871,1.26331445 22.1200742,0.986048159 C22.2066749,0.442351275 22.6815451,0 23.1782088,0 C23.439158,0 23.6668433,0.111543909 23.8199718,0.314872521 C23.9708061,0.514376771 24.0298781,0.776983003 23.9857175,1.0529745 C23.8979698,1.6055949 23.4282612,2.03902266 22.9155391,2.03902266 L22.9155391,2.03902266 Z M22.4980204,9 L21,9 L22.016268,2.59610482 L23.5142884,2.59610482 L22.4980204,9 Z" id="Fill-9"></path>
                            <path d="M29.3316099,9 L27.7595627,9 L28.3272634,5.45073274 C28.4307601,4.80553413 28.5483421,4.0732742 28.2880694,3.73110297 C28.1631385,3.56710374 27.9494087,3.48679136 27.6346318,3.48679136 C26.8293174,3.48679136 26.3455164,4.16775935 26.1115772,5.63025453 L25.5720472,9 L24,9 L24.7679576,4.19947937 C24.8071516,3.95516776 24.7924538,3.77159661 24.729376,3.70815658 C24.6846703,3.66293868 24.5842357,3.66023911 24.4550179,3.69938295 L24.1745358,3.78441959 L24.4090875,2.31652526 L24.4911499,2.27063247 C24.9173847,2.0337447 25.366891,2.00134979 25.7239239,2.18289626 C25.9376538,2.29155418 26.1060655,2.47040108 26.2169111,2.69986502 C26.7105106,2.19369456 27.211459,2 27.9690057,2 C28.6947072,2 29.2336248,2.2233899 29.5692235,2.66477054 C30.0070941,3.23910528 30.1075287,4.14886232 29.8870624,5.52767065 L29.3316099,9 Z" id="Fill-11"></path>
                        </g>
                        <g id="gnb" transform="translate(139.000000, 18.000000)" fill="#333333">
                            <rect id="Rectangle" x="0" y="0" width="8" height="1"></rect>
                            <rect id="Rectangle" x="0" y="3" width="8" height="1"></rect>
                            <rect id="Rectangle" x="0" y="6" width="8" height="1"></rect>
                        </g>
                        <rect id="Mask" fill="#F4F8F6" x="7" y="32" width="150" height="52"></rect>
                        <g id="간편로그인" transform="translate(56.000000, 119.000000)">
                            <polyline id="Stroke-26" stroke="#757C89" stroke-width="1.5" stroke-linecap="round" stroke-linejoin="round" points="20.419151 20 2 20 2 0 46 0 46 10.526181"></polyline>
                            <line x1="12.5" y1="12" x2="12.5" y2="9" id="Stroke-27" stroke="#757C89" stroke-width="3" stroke-linejoin="round"></line>
                            <line x1="20.5" y1="12" x2="20.5" y2="9" id="Stroke-28" stroke="#757C89" stroke-width="3" stroke-linejoin="round"></line>
                            <path d="M31.5836627,12 L42.4163373,12 C46.6047431,12 50,15.3083108 50,19.3881757 L50,23.6105405 C50,27.6916892 46.6047431,31 42.4163373,31 L31.5836627,31 C27.3952569,31 24,27.6916892 24,23.6105405 L24,19.3881757 C24,15.3083108 27.3952569,12 31.5836627,12 Z" id="Stroke-29" stroke="#757C89" stroke-width="1.5" stroke-linecap="round" stroke-linejoin="round"></path>
                            <g id="Group-33" transform="translate(29.000000, 17.000000)">
                                <mask id="mask-8" fill="white">
                                    <use xlink:href="#path-7"></use>
                                </mask>
                                <use id="Clip-32" fill="#23A685" xlink:href="#path-7"></use>
                            </g>
                            <path d="M8.75,48.07 L8.75,47.46 L4.91,47.46 L4.91,45.58 C6.37,45.46 7.56,44.64 7.56,43.43 L7.56,42.94 C7.56,41.64 6.18,40.78 4.55,40.78 C2.91,40.78 1.54,41.64 1.54,42.94 L1.54,43.43 C1.54,44.64 2.71,45.46 4.19,45.58 L4.19,47.46 L0.35,47.46 L0.35,48.07 L8.75,48.07 Z M4.55,44.94 C3.25,44.94 2.24,44.3 2.24,43.4 L2.24,42.97 C2.24,42.07 3.25,41.43 4.55,41.43 C5.84,41.43 6.86,42.07 6.86,42.97 L6.86,43.4 C6.86,44.3 5.84,44.94 4.55,44.94 Z M17.2944444,48.07 L17.2944444,47.46 L13.4444444,47.46 L13.4444444,45.66 L16.1744444,45.66 L16.1744444,45.06 L10.8144444,45.06 L10.8144444,43.6 L16.0444444,43.6 L16.0444444,43 L10.8144444,43 L10.8144444,41.54 L16.0944444,41.54 L16.0944444,40.94 L10.1244444,40.94 L10.1244444,45.66 L12.7444444,45.66 L12.7444444,47.46 L8.89444444,47.46 L8.89444444,48.07 L17.2944444,48.07 Z M25.4188889,49.36 L25.4188889,40.22 L24.7188889,40.22 L24.7188889,43.57 L23.5188889,43.57 L23.5188889,40.41 L22.8188889,40.41 L22.8188889,48.91 L23.5188889,48.91 L23.5188889,44.2 L24.7188889,44.2 L24.7188889,49.36 L25.4188889,49.36 Z M19.5388889,46.85 C20.4788889,46.85 21.5188889,46.81 22.3388889,46.69 L22.2788889,46.1 C21.9288889,46.15 21.5588889,46.19 21.1688889,46.21 L21.1688889,41.75 L22.0688889,41.75 L22.0688889,41.14 L17.4988889,41.14 L17.4988889,41.75 L18.4088889,41.75 L18.4088889,46.24 L17.4888889,46.24 L17.4888889,46.85 L19.5388889,46.85 Z M19.8022222,46.2396296 L19.0888889,46.24 L19.0888889,41.75 L20.4888889,41.75 L20.4888889,46.23 C20.2688889,46.2366667 20.04,46.2388889 19.8022222,46.2396296 L19.8022222,46.2396296 Z M26.8633333,45.82 C27.5833333,45.43 28.4033333,44.94 29.0033333,44.54 C29.7233333,44.06 30.0933333,43.72 30.1733333,43.52 L30.1833333,43.52 C30.2733333,43.72 30.6333333,44.05 31.3533333,44.53 C31.9533333,44.93 32.7633333,45.41 33.4733333,45.8 L33.8433333,45.25 C32.9833333,44.8 32.2233333,44.35 31.7533333,44.03 C30.7633333,43.36 30.5433333,43.05 30.5433333,41.97 L30.5433333,40.87 L29.8133333,40.87 L29.8133333,41.97 C29.8133333,43.05 29.5833333,43.36 28.5933333,44.03 C28.1233333,44.35 27.3533333,44.81 26.4833333,45.26 L26.8633333,45.82 Z M34.3833333,48.07 L34.3833333,47.46 L25.9833333,47.46 L25.9833333,48.07 L34.3833333,48.07 Z M42.1777778,49.36 L42.1777778,40.22 L41.4677778,40.22 L41.4677778,46.64 L39.2677778,46.64 L39.2677778,47.27 L41.4677778,47.27 L41.4677778,49.36 L42.1777778,49.36 Z M37.5977778,44.24 C38.8777778,44.24 39.9077778,43.53 39.9077778,42.54 L39.9077778,42.12 C39.9077778,41.13 38.8777778,40.42 37.5977778,40.42 C36.3177778,40.42 35.2877778,41.13 35.2877778,42.12 L35.2877778,42.54 C35.2877778,43.53 36.3177778,44.24 37.5977778,44.24 Z M37.5977778,43.61 C36.7377778,43.61 35.9677778,43.15 35.9677778,42.49 L35.9677778,42.17 C35.9677778,41.51 36.7377778,41.05 37.5977778,41.05 C38.4577778,41.05 39.2277778,41.51 39.2277778,42.17 L39.2277778,42.49 C39.2277778,43.15 38.4577778,43.61 37.5977778,43.61 Z M37.8977778,49.07 L37.8977778,45.72 C39.0377778,45.68 39.8977778,45.62 40.8277778,45.53 L40.7677778,44.92 C39.4277778,45.07 37.6077778,45.14 34.7177778,45.14 L34.7177778,45.76 C35.6777778,45.76 36.4777778,45.75 37.1777778,45.74 L37.1777778,49.07 L37.8977778,49.07 Z M50.3422222,45.23 L50.3422222,44.62 L44.9722222,44.62 L44.9722222,41.66 L50.2422222,41.66 L50.2422222,41.05 L44.2622222,41.05 L44.2622222,45.23 L50.3422222,45.23 Z M51.4722222,48.07 L51.4722222,47.46 L43.0722222,47.46 L43.0722222,48.07 L51.4722222,48.07 Z" id="오토패스워드" fill="#000000" fill-rule="nonzero"></path>
                        </g>
                        <path d="M125.573216,147.338525 C125.579216,147.358525 125.587216,147.378525 125.599216,147.398525 L126.293216,147.038525 L126.292216,147.038525 L125.585216,147.358525 C125.581216,147.348525 125.577216,147.348525 125.573216,147.338525 L125.573216,147.338525 Z M113.878216,143.258525 C113.518216,142.688525 112.969216,142.258525 112.315216,142.088525 C111.623216,141.898525 110.898216,142.018525 110.298216,142.408525 C109.701216,142.798525 109.283216,143.408525 109.101216,144.098525 C108.929216,144.758525 108.977216,145.468525 109.239216,146.088525 C109.252216,146.128525 109.270216,146.178525 109.292216,146.218525 L114.844216,157.018525 C114.770216,156.988525 114.696216,156.968525 114.620216,156.938525 C114.208216,156.818525 113.777216,156.788525 113.352216,156.848525 C112.927216,156.908525 112.522216,157.068525 112.160216,157.298525 L111.819216,157.518525 L111.817216,157.518525 C111.449216,157.758525 111.205216,158.138525 111.107216,158.548525 C111.010216,158.958525 111.059216,159.388525 111.253216,159.768525 L114.387216,165.868525 C114.397216,165.878525 114.407216,165.898525 114.419216,165.918525 C114.857216,166.628525 115.526216,167.148525 116.317216,167.358525 L123.909216,169.518525 C123.923216,169.518525 123.937216,169.528525 123.952216,169.528525 L124.127216,168.748525 L123.952216,169.528525 L123.953216,169.528525 L123.954216,169.528525 L123.957216,169.528525 L123.963216,169.528525 L123.981216,169.538525 C123.995216,169.538525 124.012216,169.538525 124.034216,169.548525 C124.077216,169.548525 124.136216,169.558525 124.207216,169.568525 C124.348216,169.588525 124.544216,169.598525 124.773216,169.598525 C125.222216,169.588525 125.855216,169.488525 126.442216,169.108525 L134.069216,164.168525 L133.634216,163.488525 L134.071216,164.158525 C135.253216,163.388525 136.091216,162.148525 136.431216,160.718525 C136.771216,159.288525 136.594216,157.768525 135.930216,156.478525 L134.650216,153.988525 L133.862216,152.458525 L129.922216,144.788525 C129.898216,144.738525 129.870216,144.698525 129.839216,144.658525 C129.505216,144.138525 128.999216,143.748525 128.397216,143.588525 C127.756216,143.418525 127.086216,143.528525 126.532216,143.888525 C125.994216,144.238525 125.613216,144.788525 125.439216,145.408525 C125.079216,144.858525 124.543216,144.448525 123.908216,144.278525 C123.216216,144.088525 122.491216,144.208525 121.891216,144.598525 C121.295216,144.988525 120.876216,145.598525 120.695216,146.298525 C120.693216,146.298525 120.691216,146.308525 120.690216,146.318525 C120.681216,146.298525 120.671216,146.288525 120.661216,146.278525 C120.301216,145.698525 119.752216,145.268525 119.097216,145.098525 C118.405216,144.908525 117.680216,145.028525 117.080216,145.418525 C116.484216,145.808525 116.065216,146.418525 115.884216,147.118525 C115.883216,147.118525 115.882216,147.118525 115.880216,147.128525 L113.957216,143.388525 C113.935216,143.338525 113.908216,143.298525 113.878216,143.258525 L113.878216,143.258525 Z M111.900216,143.628525 C111.658216,143.568525 111.399216,143.598525 111.168216,143.748525 C110.933216,143.908525 110.738216,144.168525 110.649216,144.508525 C110.561216,144.848525 110.593216,145.208525 110.734216,145.518525 C110.742216,145.528525 110.750216,145.548525 110.756216,145.568525 L118.989216,161.578525 C118.989216,161.588525 118.990216,161.588525 118.990216,161.588525 C119.061216,161.718525 119.105216,161.868525 119.123216,162.018525 C119.141216,162.168525 119.132216,162.318525 119.097216,162.468525 C119.062216,162.618525 119.000216,162.758525 118.912216,162.888525 C118.823216,163.018525 118.709216,163.138525 118.571216,163.228525 C118.433216,163.318525 118.276216,163.378525 118.108216,163.398525 C117.940216,163.428525 117.770216,163.418525 117.608216,163.368525 C117.447216,163.318525 117.301216,163.238525 117.178216,163.128525 C117.056216,163.028525 116.958216,162.898525 116.886216,162.758525 L116.885216,162.758525 L115.112216,159.308525 C115.003216,159.098525 114.859216,158.918525 114.695216,158.768525 C114.530216,158.628525 114.348216,158.528525 114.159216,158.478525 C113.971216,158.418525 113.776216,158.398525 113.585216,158.428525 C113.394216,158.458525 113.205216,158.528525 113.029216,158.648525 L112.690216,158.858525 C112.689216,158.868525 112.686216,158.868525 112.682216,158.868525 C112.676216,158.878525 112.669216,158.898525 112.664216,158.918525 C112.653216,158.958525 112.661216,159.008525 112.676216,159.038525 L115.794216,165.098525 C116.035216,165.478525 116.374216,165.718525 116.735216,165.818525 L116.748216,165.818525 L124.314216,167.968525 C124.331216,167.968525 124.361216,167.978525 124.399216,167.978525 C124.479216,167.988525 124.596216,167.998525 124.732216,167.998525 C125.013216,167.988525 125.320216,167.928525 125.572216,167.768525 L133.197216,162.818525 C133.198216,162.818525 133.197216,162.818525 133.197216,162.818525 C134.007216,162.298525 134.621216,161.408525 134.875216,160.348525 C135.128216,159.288525 134.993216,158.158525 134.507216,157.208525 L133.227216,154.718525 L132.439216,153.188525 L128.540216,145.598525 C128.532216,145.588525 128.524216,145.578525 128.516216,145.558525 C128.379216,145.328525 128.183216,145.188525 127.987216,145.138525 C127.795216,145.088525 127.588216,145.118525 127.402216,145.238525 C127.212216,145.358525 127.049216,145.578525 126.974216,145.858525 C126.899216,146.138525 126.926216,146.448525 127.042216,146.698525 C127.057216,146.738525 127.069216,146.768525 127.080216,146.798525 C127.171216,147.038525 127.187216,147.308525 127.127216,147.558525 C127.057216,147.848525 126.878216,148.128525 126.601216,148.308525 C126.319216,148.488525 125.970216,148.548525 125.638216,148.448525 C125.311216,148.348525 125.060216,148.118525 124.917216,147.848525 L124.915216,147.838525 L124.169216,146.388525 C124.160216,146.378525 124.151216,146.358525 124.142216,146.348525 C123.978216,146.068525 123.739216,145.888525 123.493216,145.818525 C123.251216,145.758525 122.992216,145.798525 122.761216,145.948525 C122.527216,146.098525 122.331216,146.358525 122.243216,146.698525 C122.154216,147.038525 122.186216,147.398525 122.328216,147.708525 C122.336216,147.728525 122.343216,147.738525 122.350216,147.758525 L122.898216,148.828525 L122.899216,148.828525 C122.970216,148.968525 123.014216,149.118525 123.032216,149.268525 C123.050216,149.418525 123.041216,149.568525 123.006216,149.718525 C122.971216,149.868525 122.909216,150.008525 122.820216,150.138525 C122.731216,150.268525 122.617216,150.378525 122.479216,150.468525 C122.341216,150.558525 122.184216,150.618525 122.016216,150.648525 C121.848216,150.668525 121.678216,150.658525 121.516216,150.608525 C121.355216,150.558525 121.210216,150.478525 121.086216,150.378525 C120.964216,150.268525 120.866216,150.148525 120.795216,150.008525 L120.793216,150.008525 L119.358216,147.208525 C119.348216,147.198525 119.340216,147.178525 119.331216,147.168525 C119.167216,146.888525 118.928216,146.708525 118.682216,146.638525 C118.440216,146.578525 118.181216,146.618525 117.950216,146.768525 C117.716216,146.918525 117.520216,147.178525 117.432216,147.518525 C117.343216,147.858525 117.375216,148.218525 117.517216,148.528525 C117.525216,148.548525 117.532216,148.558525 117.539216,148.578525 L118.776216,150.988525 L118.777216,150.988525 C118.919216,151.268525 118.954216,151.578525 118.884216,151.878525 C118.814216,152.168525 118.635216,152.448525 118.358216,152.628525 C118.076216,152.818525 117.726216,152.868525 117.395216,152.768525 C117.068216,152.678525 116.817216,152.448525 116.673216,152.168525 L116.672216,152.168525 L112.576216,144.198525 C112.567216,144.188525 112.558216,144.168525 112.549216,144.158525 C112.385216,143.868525 112.146216,143.698525 111.900216,143.628525 L111.900216,143.628525 Z" id="Fill-24" fill="#3F3F3F"></path>
                    </g>
                </g>
            </g>
        </g>
    </g>
</svg>